<svg width="120" height="69" viewBox="0 0 120 69" fill="none" xmlns="http://www.w3.org/2000/svg">
<path d="M27.2111 5.08209C29.1817 4.6826 32.5854 4.363 34.5958 4.30307C48.6288 3.84365 62.6816 4.363 76.7344 4.94227C79.4614 5.06211 82.7059 5.46161 83.9599 7.89854C84.5172 8.9572 84.557 10.1956 84.5968 11.3742C84.7163 15.2093 86.5873 27.6936 81.9097 27.6936C76.8737 27.6936 73.47 29.6112 71.1013 32.5275C64.7915 40.2977 67.5981 45.8307 65.946 45.9306C63.438 46.0904 56.4713 46.4299 53.9633 46.5698C46.2203 46.9892 38.2981 47.189 30.9333 44.832C29.0424 44.2127 27.1116 43.3938 25.8377 41.8357C24.305 39.9781 23.9865 37.4213 23.7676 35.0043C23.0908 27.4539 22.852 19.8834 23.0112 12.313C23.0112 12.313 22.9117 5.96098 27.2111 5.08209Z" fill="#F24B78"/>
<path d="M20.4632 2.28561C29.6194 8.59765 38.7956 14.8897 47.9717 21.1618C49.0267 21.8809 50.0816 22.7198 51.2361 23.2591C52.2314 23.7385 53.2067 23.8584 54.2816 23.5987C56.4114 23.1193 58.3621 21.8809 60.2928 20.9021C64.2539 18.8647 68.1752 16.7274 71.9969 14.4503C76.4158 11.8136 80.7152 8.93722 84.9151 5.941C85.4327 5.56147 84.9351 4.68258 84.3976 5.06211C80.6953 7.69878 76.9134 10.2556 73.0319 12.6326C69.3296 14.8897 65.5477 17.007 61.7061 19.0045C60.671 19.5438 59.6161 20.1031 58.581 20.6225C57.5858 21.1218 56.6104 21.6811 55.5754 22.1006C54.7394 22.4402 53.764 22.8197 52.8484 22.6999C51.6939 22.56 50.6788 21.7411 49.7433 21.1019C45.2249 18.0058 40.7065 14.9297 36.1881 11.8336C31.1123 8.35795 26.0565 4.88233 20.9807 1.38674C20.4433 1.0272 19.9457 1.90609 20.4632 2.28561Z" fill="#030140"/>
<path d="M87.8213 24.0781C87.682 19.1643 87.5825 14.2505 87.4432 9.31675C87.4033 8.07831 87.4431 6.77995 87.1247 5.56148C86.8261 4.48284 86.209 3.58398 85.3133 2.90483C83.6214 1.62644 81.3125 1.40672 79.2623 1.30685C73.1116 1.00723 66.961 0.807477 60.8104 0.647679C54.62 0.48788 48.4296 0.427958 42.2591 0.527832C40.7065 0.547807 39.134 0.587756 37.5815 0.627706C36.1483 0.667655 34.7152 0.707604 33.3019 0.907352C30.8735 1.2669 28.4451 2.26564 27.0319 4.36299C26.7134 4.84239 26.4745 5.36173 26.2954 5.90105C26.0964 6.52027 27.0717 6.79992 27.2707 6.16073C27.9873 3.90357 30.1968 2.62519 32.3664 2.10584C33.7 1.78624 35.0735 1.70634 36.4469 1.6664C37.9398 1.60647 39.4326 1.58649 40.9255 1.54655C46.8571 1.4267 52.7888 1.46665 58.7403 1.60647C64.672 1.72632 70.6036 1.94604 76.5353 2.18574C78.8044 2.28562 81.2328 2.18574 83.3826 2.98473C84.2584 3.30433 85.1143 3.84365 85.6318 4.66262C86.3086 5.72128 86.3484 6.99967 86.3882 8.21813C86.5275 12.9522 86.6271 17.6862 86.7465 22.4202C86.7664 22.9595 86.7664 23.4989 86.7863 24.0382C86.8261 24.7373 87.8412 24.7373 87.8213 24.0781Z" fill="#030140"/>
<path d="M24.8224 9.21687C24.703 14.3304 24.7826 19.4639 25.0612 24.5775C25.2006 27.0744 25.3598 29.5512 25.5987 32.0481C25.7778 34.0855 26.0366 36.2028 27.0517 38.0205C28.0669 39.8383 29.7986 40.9568 31.6697 41.7159C33.7796 42.5748 36.0487 43.1141 38.2781 43.4936C42.9756 44.3126 47.7528 44.3526 52.5101 44.1728C56.3318 44.033 60.1336 43.6934 63.9553 43.4537C64.5923 43.4137 64.6122 42.395 63.9553 42.435C56.2323 42.9144 48.4495 43.7533 40.7264 42.8145C38.3975 42.5349 36.0686 42.0754 33.8393 41.3763C31.9682 40.797 30.0176 40.0779 28.6839 38.5798C27.3503 37.0817 26.9323 34.9844 26.7134 33.0468C26.4347 30.6698 26.2953 28.2928 26.156 25.8958C25.8176 20.3428 25.7181 14.7699 25.8574 9.1969C25.8375 8.5577 24.8423 8.5577 24.8224 9.21687Z" fill="#030140"/>
<path d="M25.8377 28.952C20.7022 29.0718 15.5668 29.1917 10.4313 29.3115C9.77444 29.3315 9.77444 30.3302 10.4313 30.3302C15.5668 30.2104 20.7022 30.0905 25.8377 29.9707C26.4945 29.9507 26.4945 28.932 25.8377 28.952Z" fill="#030140"/>
<path d="M24.3646 24.4577L4.81808 24.8771C4.16122 24.8971 4.16122 25.8958 4.81808 25.8958L24.3646 25.4764C25.0016 25.4564 25.0215 24.4377 24.3646 24.4577Z" fill="#030140"/>
<path d="M23.3097 19.0245C21.2794 18.605 19.1695 18.7848 17.0994 18.8647C14.9696 18.9246 12.8597 19.0045 10.7299 19.0644C10.073 19.0844 10.073 20.1031 10.7299 20.0832C12.8 20.0232 14.8701 19.9633 16.9203 19.8834C18.9307 19.8235 21.0207 19.6038 23.0311 20.0033C23.668 20.1231 23.9467 19.1443 23.3097 19.0245Z" fill="#030140"/>
<path d="M7.56498 31.4488C9.47585 31.4488 9.47585 28.4726 7.56498 28.4726C5.65412 28.4726 5.65412 31.4488 7.56498 31.4488Z" fill="#030140"/>
<path d="M1.71293 26.9145C3.6238 26.9145 3.6238 23.9383 1.71293 23.9383C-0.197934 23.9183 -0.217839 26.9145 1.71293 26.9145Z" fill="#030140"/>
<path d="M7.74403 21.2018C9.6549 21.2018 9.6549 18.2255 7.74403 18.2255C5.83317 18.2255 5.83317 21.2018 7.74403 21.2018Z" fill="#030140"/>
<path d="M69.8075 27.7934C66.4237 30.2104 64.0948 33.9856 63.5176 38.1204C63.7564 38.0205 64.0152 37.9207 64.254 37.8208C60.3527 35.2241 58.9195 29.4913 61.129 25.3565C63.3384 21.2018 68.8122 19.424 73.1117 21.1019C74.2861 21.5613 75.8984 22.4602 76.0775 23.8784C76.1571 24.4377 75.8586 24.8771 75.3609 25.1168C75.0026 25.2966 74.5249 25.3565 74.2861 24.957C73.9676 24.3977 73.0918 24.8971 73.4103 25.4764C74.0671 26.5949 75.56 26.3752 76.396 25.5962C77.5306 24.5375 77.0329 22.8996 76.1173 21.8809C75.1619 20.8222 73.7685 20.183 72.415 19.8035C71.1212 19.444 69.7478 19.3641 68.4141 19.5239C65.7071 19.8435 63.0597 21.1219 61.3081 23.2592C59.5565 25.3765 58.8399 28.1929 59.1584 30.9095C59.5167 34.0256 61.1091 36.9419 63.7365 38.6797C63.9754 38.8395 64.4332 38.6997 64.473 38.3801C65.0104 34.505 67.1004 30.9295 70.2852 28.6524C70.8425 28.2928 70.3449 27.4139 69.8075 27.7934Z" fill="#030140"/>
<path d="M95.9027 29.4114C98.3311 31.1492 99.9235 33.8858 100.342 36.842C100.381 37.1616 100.839 37.3014 101.078 37.1416C104.701 34.7247 105.915 29.2915 103.427 25.6362C101.018 22.1206 95.4051 20.7823 91.9218 23.4989C90.9663 24.2379 90.1104 25.6761 91.0061 26.8147C91.663 27.6336 93.0563 27.9133 93.6734 26.8946C94.0118 26.3353 93.136 25.8359 92.7976 26.3752C92.4791 26.9145 91.6431 26.1955 91.6431 25.756C91.6232 24.7772 92.7379 24.0981 93.5142 23.7186C95.0866 22.9595 96.9577 22.9196 98.6297 23.399C100.262 23.8784 101.775 24.8771 102.71 26.3353C103.646 27.8134 103.944 29.6511 103.646 31.3689C103.307 33.3265 102.272 35.1442 100.6 36.2628C100.839 36.3626 101.098 36.4625 101.337 36.5624C100.899 33.3464 99.0676 30.4101 96.4402 28.5325C95.8828 28.173 95.3852 29.0518 95.9027 29.4114Z" fill="#030140"/>
<path d="M97.077 19.5438C99.605 19.7236 102.053 20.7823 103.904 22.5201C105.855 24.3378 107.069 26.8746 107.308 29.5312C107.448 31.0493 107.288 32.5874 106.811 34.0455C106.651 34.505 107.388 34.7047 107.547 34.2453C108.443 31.4688 108.264 28.4326 107.109 25.776C106.014 23.2192 103.944 21.1418 101.456 19.9433C100.083 19.2842 98.5898 18.8847 97.077 18.7848C96.5993 18.7449 96.5993 19.5039 97.077 19.5438Z" fill="#030140"/>
<path d="M103.029 17.846C107.826 19.9633 111.13 24.957 111.03 30.2503C111.03 30.5699 111.528 30.5699 111.528 30.2503C111.608 26.0357 109.577 21.9208 106.313 19.2842C105.377 18.5251 104.362 17.9059 103.267 17.4065C102.989 17.2667 102.75 17.7062 103.029 17.846Z" fill="#030140"/>
<path d="M118.992 67.2836C113.22 65.6857 107.248 64.9466 101.297 64.5271C95.206 64.1076 89.0754 63.9678 82.9646 63.9279C76.7742 63.868 70.6037 63.9678 64.4132 64.2075C58.2427 64.4472 52.0523 64.8467 45.9017 65.3661C39.7511 65.8854 33.6005 66.5845 27.4698 67.4035C26.7334 67.5034 25.977 67.6032 25.2405 67.7031C24.6035 67.783 24.8822 68.7618 25.4993 68.6819C37.7009 66.964 49.9822 65.8455 62.3033 65.2862C74.4851 64.7468 86.7067 64.7069 98.8885 65.3661C105.576 65.7256 112.265 66.4447 118.734 68.2225C119.351 68.4222 119.609 67.4434 118.992 67.2836Z" fill="#030140"/>
<path d="M91.0658 59.4136C91.1455 60.0927 91.3047 60.7719 91.5435 61.431C91.7227 61.9104 92.1009 62.9491 92.7976 62.4897C93.0762 62.3099 93.1359 61.9703 93.1957 61.6707C93.2753 61.3112 93.335 60.9716 93.4146 60.6121L93.8724 58.4148C93.9122 58.2151 93.8127 57.9954 93.6137 57.9554C93.4345 57.8955 93.1957 58.0153 93.1559 58.2151C92.917 59.3736 92.698 60.5322 92.4393 61.6907C92.4393 61.7306 92.3995 61.8105 92.3995 61.8305C92.3995 61.8505 92.3796 61.7706 92.4194 61.8305C92.4791 61.7906 92.5189 61.8105 92.5786 61.8505C92.5587 61.8505 92.5587 61.8305 92.5587 61.8305C92.5388 61.7906 92.5189 61.7506 92.499 61.7107C92.3796 61.471 92.28 61.2113 92.2004 60.9516C92.0412 60.4522 91.9018 59.9329 91.8421 59.4136C91.8222 59.2138 91.6829 59.034 91.4639 59.034C91.2649 59.034 91.0459 59.2138 91.0658 59.4136Z" fill="#030140"/>
<path d="M76.4556 33.3265C76.376 33.4263 76.4954 33.5662 76.5949 33.4863C81.6309 30.2304 87.8611 30.7098 92.1008 33.8658C96.3804 37.0618 97.9927 43.1141 96.6989 48.3076C96.679 48.3875 96.7785 48.4274 96.8183 48.3675C98.1917 46.1303 98.9282 38.3402 95.405 34.2253C92.5985 30.9495 89.5729 29.771 85.2735 29.4514C83.6811 29.3315 82.1285 29.731 80.5759 30.0706C78.9238 30.4701 77.411 32.088 76.4556 33.3265Z" fill="#F24B78"/>
<path d="M73.1514 30.7697C71.8576 31.7684 70.7827 33.0468 70.0064 34.465C68.1155 37.9806 67.1003 42.8744 67.1003 46.1902C67.1003 48.8269 68.6131 52.1427 70.8225 54.34C73.6092 57.0965 77.2518 58.1751 81.0935 58.8543C85.5323 59.6133 91.9814 58.1751 95.3852 55.1989C94.2506 56.7369 92.7776 57.9754 90.9265 58.9142C87.7218 60.5721 83.9797 60.9516 80.3968 60.5921C76.3561 60.1726 72.2955 58.7144 69.469 55.8181C66.125 52.3824 64.871 47.2089 65.6473 42.4749C66.4435 37.7009 68.633 34.4051 73.1514 30.7697Z" fill="#F24B78"/>
<path d="M82.248 28.1929C85.2536 28.0931 88.2991 28.7123 91.026 29.9707C92.3198 30.5699 93.5539 31.329 94.6487 32.2478C95.8032 33.2466 96.6989 34.4251 97.4354 35.7434C99.0676 38.6797 99.6846 42.0155 99.3661 45.3513C99.0477 48.5473 97.9927 51.9629 95.7833 54.3599C93.6336 56.697 90.5085 57.6558 87.4232 57.7956C84.3181 57.9354 81.0736 57.3761 78.1277 56.3973C75.0822 55.3786 72.3951 53.5809 70.6633 50.8244C69.8273 49.506 69.1904 48.0279 68.9316 46.4699C68.6928 45.1316 68.8321 43.7333 69.0112 42.395C69.4093 39.2989 70.2653 36.043 71.8576 33.3265C73.3505 30.7697 75.8983 28.7123 78.8442 28.1929C79.5608 28.0531 80.2973 28.0531 81.0338 28.113C81.5115 28.153 81.5115 27.3939 81.0338 27.354C77.849 27.0544 74.7837 28.6124 72.6936 30.9295C70.5041 33.3664 69.3894 36.6822 68.7127 39.8382C68.3743 41.3763 68.1354 42.9543 68.0956 44.5323C68.0359 46.0504 68.3146 47.5086 68.8719 48.9268C70.1259 52.0628 72.4548 54.6196 75.4604 56.1377C76.9334 56.8767 78.5258 57.3961 80.1381 57.7756C81.7504 58.1551 83.4025 58.4348 85.0546 58.5546C88.2792 58.7743 91.7227 58.3549 94.4497 56.5172C97.2761 54.6196 98.8685 51.4636 99.6448 48.2277C100.461 44.792 100.421 41.1566 99.2069 37.8408C98.6297 36.2428 97.8136 34.7047 96.7586 33.3664C95.843 32.2079 94.7084 31.2291 93.4743 30.4501C90.827 28.7522 87.682 27.7735 84.5569 27.4938C83.7807 27.4339 83.0243 27.4139 82.248 27.4339C81.7703 27.4539 81.7504 28.2129 82.248 28.1929Z" fill="#030140"/>
<path d="M98.2913 50.1852C97.7539 51.923 96.8781 53.5609 95.644 54.8992C94.3303 56.3174 92.6782 57.3961 90.9066 58.1152C86.9257 59.7331 82.2679 59.6532 78.1675 58.5147C74.2065 57.4161 70.7032 55.059 68.7923 51.3237C66.981 47.7882 66.7819 43.7333 67.6777 39.9181C68.0957 38.1404 68.7525 36.4625 69.7478 34.9244C70.9222 33.1267 72.5145 31.6486 74.1866 30.3103C74.5647 30.0106 74.0273 29.4713 73.6491 29.7709C72.0766 31.0294 70.5838 32.4276 69.4094 34.0855C68.3942 35.4837 67.6777 37.0617 67.1999 38.7197C66.0853 42.6147 66.0654 46.8294 67.6379 50.6047C68.434 52.5023 69.5885 54.2201 71.1212 55.5984C72.7136 57.0365 74.6045 58.0752 76.6149 58.7943C80.7751 60.2725 85.6517 60.5721 89.8915 59.2537C92.081 58.5746 94.1511 57.436 95.8032 55.8181C97.3359 54.3 98.4108 52.4024 99.0477 50.345C99.1671 49.9255 98.4506 49.7258 98.2913 50.1852Z" fill="#030140"/>
<path d="M73.7685 35.5636C70.6634 40.3376 71.1013 46.8095 74.704 51.1839C76.4159 53.2813 78.7646 54.8992 81.3523 55.6982C84.0593 56.5372 87.0649 56.2775 89.7521 55.5185C92.4393 54.7594 94.7681 53.0216 96.2411 50.6246C97.4752 48.5872 97.9131 46.1503 97.9529 43.8132C98.0126 41.3364 97.5349 38.8395 96.3804 36.6423C95.1264 34.2853 92.9966 32.3078 90.6677 31.0493C88.3389 29.7909 85.7114 29.3715 83.084 29.4514C81.7105 29.4913 80.2774 29.6711 78.9637 30.1105C77.6699 30.55 76.4756 31.349 75.5002 32.3078C74.9827 32.8271 74.5249 33.3864 74.1268 34.0056C73.868 34.4251 74.5249 34.8046 74.7837 34.3851C75.54 33.1866 76.595 32.2079 77.8092 31.4888C78.9438 30.8096 80.2177 30.51 81.5115 30.3303C83.9399 30.0107 86.5076 30.1705 88.8166 31.0294C91.1255 31.8883 93.3151 33.5462 94.788 35.5237C96.2212 37.4613 96.9776 39.8183 97.1567 42.2153C97.296 44.2926 97.1169 46.5098 96.4202 48.4674C95.5444 50.9043 93.6136 53.0216 91.2848 54.1202C90.0507 54.6995 88.7171 55.0191 87.3834 55.2188C86.0697 55.4186 84.7361 55.5384 83.4025 55.3786C80.8546 55.0391 78.4262 53.7807 76.5552 52.0429C74.6443 50.2651 73.251 47.988 72.7136 45.4312C72.1562 42.8544 72.415 40.0779 73.4898 37.681C73.7486 37.0817 74.0671 36.5025 74.4254 35.9432C74.6841 35.5437 74.0273 35.1642 73.7685 35.5636Z" fill="#030140"/>
<path d="M75.341 34.9644C78.685 32.4076 83.1636 31.6286 87.2043 32.7672C91.1853 33.8858 94.4696 37.0018 95.9624 40.857C96.7984 42.9943 97.0771 45.3114 96.679 47.5885C96.5994 48.0679 97.316 48.2676 97.4155 47.7882C98.1719 43.4936 96.6591 39.0592 93.7132 35.9032C90.6478 32.6473 86.209 31.0693 81.7902 31.6086C79.322 31.9082 76.9533 32.8071 74.9827 34.3252C74.5846 34.6049 74.9628 35.264 75.341 34.9644Z" fill="#030140"/>
<path d="M89.155 34.1055C88.9758 34.4451 88.7967 34.7647 88.5976 35.1042C88.4981 35.284 88.5578 35.5237 88.737 35.6236C88.9161 35.7235 89.155 35.6635 89.2545 35.4837C89.4336 35.1442 89.6128 34.8246 89.8118 34.485C89.9113 34.3052 89.8516 34.0655 89.6725 33.9657C89.4933 33.8658 89.2545 33.9257 89.155 34.1055Z" fill="#030140"/>
<path d="M93.1559 38.1004C92.9369 38.2802 92.718 38.46 92.499 38.6597C92.4194 38.7197 92.3796 38.8395 92.3796 38.9194C92.3796 39.0193 92.4194 39.1191 92.499 39.1791C92.5786 39.239 92.6583 39.2989 92.7578 39.2989C92.7976 39.2989 92.8175 39.2989 92.8573 39.2789C92.917 39.259 92.9767 39.219 93.0165 39.1791C93.2355 38.9993 93.4544 38.8195 93.6734 38.6198C93.753 38.5599 93.7928 38.44 93.7928 38.3601C93.7928 38.2602 93.753 38.1604 93.6734 38.1004C93.5938 38.0405 93.5142 37.9806 93.4146 37.9806C93.3748 37.9806 93.3549 37.9806 93.3151 38.0006C93.2753 38.0205 93.2156 38.0605 93.1559 38.1004Z" fill="#030140"/>
<path d="M95.4051 43.0742L93.753 43.194C93.5539 43.214 93.3549 43.3538 93.3748 43.5736C93.3748 43.7733 93.534 43.9731 93.753 43.9531C94.3103 43.9131 94.8477 43.8732 95.4051 43.8332C95.6041 43.8133 95.8031 43.6734 95.7832 43.4537C95.7832 43.254 95.624 43.0542 95.4051 43.0742Z" fill="#030140"/>
<path d="M93.7331 49.3862C92.9966 48.9667 92.2601 48.5473 91.5038 48.1078C91.3246 48.0079 91.0858 48.0679 90.9862 48.2476C90.8867 48.4274 90.9464 48.6671 91.1256 48.767L93.3549 50.0454C93.534 50.1452 93.7729 50.0853 93.8724 49.9055C93.9719 49.7258 93.9122 49.4861 93.7331 49.3862Z" fill="#030140"/>
<path d="M89.7322 52.702C89.5531 52.3425 89.3739 51.9629 89.1749 51.6034C89.0952 51.4236 88.8166 51.3637 88.6573 51.4636C88.4782 51.5834 88.4185 51.8031 88.518 51.9829C88.6971 52.3425 88.8763 52.722 89.0753 53.0815C89.155 53.2613 89.4336 53.3212 89.5929 53.2213C89.772 53.1015 89.8118 52.8818 89.7322 52.702Z" fill="#030140"/>
<path d="M84.6963 54.1203C84.5171 53.561 84.338 53.0216 84.1389 52.4623C84.0792 52.2826 83.8801 52.1228 83.6811 52.2027C83.502 52.2626 83.3427 52.4623 83.4223 52.6621C83.6015 53.2214 83.7806 53.7607 83.9797 54.32C84.0394 54.4998 84.2384 54.6596 84.4375 54.5797C84.6166 54.5197 84.756 54.32 84.6963 54.1203Z" fill="#030140"/>
<path d="M78.2072 52.4424C78.5257 52.0029 78.8641 51.5635 79.1826 51.124C79.2423 51.0441 79.2423 50.9243 79.2224 50.8244C79.2025 50.7445 79.1228 50.6446 79.0432 50.6047C78.9636 50.5647 78.8442 50.5248 78.7447 50.5647C78.6451 50.6047 78.5854 50.6646 78.5257 50.7445C78.2072 51.1839 77.8689 51.6234 77.5504 52.0628C77.4907 52.1427 77.4907 52.2626 77.5106 52.3624C77.5305 52.4423 77.6101 52.5422 77.6897 52.5822C77.7694 52.6221 77.8888 52.6621 77.9883 52.6221C78.0679 52.5822 78.1475 52.5223 78.2072 52.4424Z" fill="#030140"/>
<path d="M74.5647 47.988C75.0822 47.9081 75.5799 47.8482 76.0974 47.7683C76.177 47.7483 76.2765 47.6684 76.3163 47.5885C76.3561 47.5086 76.3761 47.3887 76.3562 47.2889C76.3362 47.189 76.2765 47.1091 76.177 47.0691C76.0775 47.0092 75.9979 47.0092 75.8784 47.0292C75.3609 47.1091 74.8633 47.169 74.3457 47.2489C74.2661 47.2689 74.1666 47.3488 74.1268 47.4287C74.087 47.5086 74.0671 47.6284 74.087 47.7283C74.1069 47.8282 74.1666 47.9081 74.2661 47.948C74.3656 48.008 74.4652 48.008 74.5647 47.988Z" fill="#030140"/>
<path d="M73.3705 42.9343L74.5846 43.0542C74.6842 43.0542 74.7837 43.0142 74.8434 42.9343C74.9031 42.8744 74.9628 42.7546 74.9628 42.6747C74.9628 42.5748 74.923 42.4749 74.8434 42.415C74.7638 42.3351 74.6842 42.3151 74.5846 42.2952L73.3705 42.1753C73.2709 42.1753 73.1714 42.2153 73.1117 42.2952C73.052 42.3551 72.9923 42.4749 72.9923 42.5548C72.9923 42.6547 73.0321 42.7546 73.1117 42.8145C73.1714 42.8944 73.2709 42.9343 73.3705 42.9343Z" fill="#030140"/>
<path d="M74.3855 37.2615C74.7239 37.4812 75.0424 37.7009 75.3808 37.9207C75.4604 37.9806 75.5798 37.9806 75.6794 37.9606C75.759 37.9406 75.8585 37.8607 75.8983 37.7808C75.9978 37.5811 75.9381 37.3813 75.759 37.2615C75.4206 37.0418 75.1021 36.822 74.7637 36.6023C74.6841 36.5424 74.5647 36.5424 74.4652 36.5624C74.3855 36.5824 74.286 36.6623 74.2462 36.7421C74.1666 36.9219 74.2263 37.1416 74.3855 37.2615Z" fill="#030140"/>
<path d="M78.8442 33.726C79.1826 34.2054 79.5011 34.6848 79.8395 35.1642C79.9589 35.324 80.1779 35.4238 80.357 35.304C80.5162 35.2041 80.6158 34.9644 80.4963 34.7846L79.5011 33.3465C79.3817 33.1867 79.1627 33.0868 78.9836 33.2066C78.8243 33.3065 78.7248 33.5462 78.8442 33.726Z" fill="#030140"/>
<path d="M84.0792 32.6473C84.1589 32.947 84.2186 33.2266 84.2982 33.5262C84.3181 33.6261 84.3977 33.706 84.4773 33.7459C84.5569 33.7859 84.6764 33.8059 84.7759 33.7859C84.9749 33.726 85.0944 33.5262 85.0347 33.3265C84.955 33.0268 84.8953 32.7472 84.8157 32.4476C84.7958 32.3477 84.7162 32.2678 84.6366 32.2279C84.557 32.1879 84.4375 32.1679 84.338 32.1879C84.139 32.2478 84.0195 32.4276 84.0792 32.6473Z" fill="#030140"/>
<path d="M90.3094 41.4162C88.2194 41.9755 86.1294 42.5548 84.0394 43.1141C83.5617 43.234 83.7607 43.9731 84.2384 43.8532C86.3284 43.2939 88.4184 42.7146 90.5085 42.1553C90.9862 42.0155 90.7871 41.2964 90.3094 41.4162Z" fill="#030140"/>
<path d="M84.2385 43.3338C83.5418 42.1154 82.8452 40.8969 82.1485 39.6785C81.9694 39.3589 81.4718 39.6385 81.6509 39.9581C82.3476 41.1766 83.0442 42.395 83.7409 43.6135C83.9399 43.9331 84.4375 43.6534 84.2385 43.3338Z" fill="#030140"/>
<path d="M83.8603 43.214C81.6508 45.1515 79.5409 47.2289 77.3315 49.1865C76.9732 49.506 77.5106 50.0454 77.8689 49.7258C80.0784 47.7882 82.1883 45.7108 84.3977 43.7533C84.7759 43.4337 84.2385 42.8944 83.8603 43.214Z" fill="#030140"/>
<path d="M75.0026 59.4136C74.9628 59.9928 74.9827 60.5521 75.0424 61.1314C75.0623 61.431 75.1021 61.7107 75.1619 62.0103C75.2017 62.27 75.2415 62.5496 75.3609 62.7893C75.5998 63.3087 76.177 63.3886 76.6547 63.1489C77.0926 62.9291 77.3713 62.5097 77.6101 62.0902C77.8888 61.5908 78.0879 61.0315 78.1874 60.4722C78.2272 60.2725 78.1277 60.0727 77.9286 60.0128C77.7495 59.9729 77.4907 60.0727 77.4708 60.2725C77.3912 60.7719 77.232 61.2712 76.9732 61.7107C76.8538 61.9104 76.7343 62.1301 76.5552 62.2899C76.4756 62.3698 76.4159 62.4098 76.3163 62.4697C76.2765 62.4897 76.2566 62.5097 76.1969 62.5097C76.1571 62.5097 76.1372 62.5296 76.1372 62.5296C76.1372 62.5296 76.1173 62.5296 76.0775 62.5097C76.0974 62.5296 76.0576 62.4697 76.0377 62.4497C75.9979 62.3499 75.9779 62.23 75.958 62.1302C75.8983 61.8505 75.8585 61.5509 75.8187 61.2712C75.759 60.652 75.7391 60.0528 75.759 59.4335C75.7789 59.2338 75.5799 59.054 75.3808 59.054C75.1619 59.034 75.0026 59.2138 75.0026 59.4136Z" fill="#030140"/>
</svg>
