<svg width="149" height="59" viewBox="0 0 149 59" fill="none" xmlns="http://www.w3.org/2000/svg">
<path d="M130.481 46.1014C129.612 47.9113 129.476 50.0183 129.829 51.9903C130.074 53.4221 130.59 54.8808 131.568 55.9884C132.981 57.5551 135.182 58.2845 137.329 58.5547C139.747 58.8518 142.464 58.6087 144.203 56.9338C144.746 56.4206 145.181 55.7722 145.534 55.1239C146.621 53.1789 147.219 50.9368 146.92 48.7217C146.621 46.5336 145.344 44.3995 143.334 43.346C142.247 42.7517 140.997 42.5085 139.774 42.3194C138.144 42.0763 135.78 42.2114 134.204 42.9137C132.438 43.6701 131.269 44.3995 130.481 46.1014Z" fill="#F24B78"/>
<path d="M2.06908 17.0887C5.27532 17.1157 8.50872 17.1697 11.715 17.1427C13.8615 17.1157 16.1982 17.2778 18.2904 16.7375C19.7577 16.3593 21.2521 15.711 22.4477 14.7925C23.7247 13.793 24.8388 12.5774 26.1158 11.5779C28.5069 9.68697 32.4468 7.9581 35.0281 10.5244C35.9247 11.4158 36.3866 12.6585 36.767 13.8471C37.1203 14.9546 37.4192 16.1162 37.718 17.2238C38.3973 19.628 39.0766 22.2213 40.4352 24.3554C40.9786 25.2198 41.6579 25.8952 42.6632 26.1923C43.7773 26.5435 44.9728 26.4084 46.0597 26.0302C48.6138 25.0847 50.6517 22.9777 52.3635 20.9246C54.2926 18.5745 55.7599 15.9271 57.4445 13.3878C57.9608 12.6044 58.5042 11.821 59.0748 11.0917C59.5367 10.5244 59.9986 9.82204 60.7051 9.52489C61.8191 9.03864 63.1505 9.49788 63.7483 10.5244C64.3461 11.5779 64.645 12.9016 65.0254 14.0362C65.4873 15.3868 65.9492 16.7375 66.4926 18.0612C67.4165 20.2223 68.9381 23.1127 71.8182 22.1673C73.2855 21.681 74.481 20.4924 75.4049 19.3038C76.6004 17.764 77.7416 16.1702 78.9372 14.6035C81.4098 11.3078 83.8552 8.03914 86.3006 4.74347C87.2516 3.47383 88.42 1.71795 90.2948 2.2312C91.7077 2.63641 92.0066 4.50035 92.4142 5.68895C93.5826 9.20072 94.7238 12.7395 95.7835 16.2783C96.2454 17.7911 96.6801 19.3308 97.1149 20.8706C97.4681 22.1673 97.7942 23.4639 98.3376 24.6795C98.8538 25.8411 99.6962 26.9487 100.973 27.3269C102.549 27.7861 104.152 27.1108 105.293 26.0032C107.494 23.9232 107.848 20.6815 109.94 18.4934C111.842 16.4944 114.613 15.3868 117.358 15.4139C118.716 15.4139 120.075 15.711 121.297 16.3053C122.004 16.6565 122.629 15.603 121.922 15.2518C116.787 12.7935 110.157 14.8736 107.44 19.8711C106.734 21.1948 106.244 22.6265 105.402 23.8961C104.56 25.1928 103.12 26.5435 101.435 26.1653C100.077 25.8681 99.4516 24.4094 99.044 23.2478C98.5821 21.9242 98.2561 20.5735 97.8757 19.2498C96.9247 15.9271 95.8922 12.6044 94.8325 9.30878C94.2347 7.41783 93.6369 5.55388 92.9576 3.68994C92.5501 2.52836 91.8164 1.4208 90.5394 1.06962C89.0721 0.664415 87.4418 1.31274 86.4908 2.4203C85.8659 3.12266 85.3224 3.96008 84.7518 4.71646C84.1269 5.52687 83.5291 6.36429 82.9042 7.1747C80.4588 10.4704 77.9862 13.739 75.5407 17.0347C74.155 18.8986 71.0031 23.1938 68.7479 19.8981C67.2534 17.683 66.547 14.9276 65.7046 12.4153C65.3242 11.2808 65.0254 9.93009 64.1015 9.09267C63.2049 8.25525 61.9006 7.90407 60.6779 8.20122C59.1835 8.57941 58.2597 10.0111 57.4174 11.1727C56.3577 12.6315 55.4067 14.1712 54.4557 15.711C52.9884 18.0882 51.3581 20.3844 49.3203 22.3294C47.69 23.8691 45.2174 25.8141 42.8263 24.9497C41.9296 24.6255 41.4134 23.7071 41.0058 22.9237C40.408 21.7621 39.9733 20.5194 39.5657 19.2768C38.8049 16.9266 38.3702 14.4414 37.4192 12.1452C36.9301 10.9566 36.2508 9.87607 35.2183 9.09267C33.9412 8.14719 32.2566 7.85004 30.6806 8.03914C27.257 8.47136 24.7301 11.0106 22.3118 13.1987C21.1435 14.2523 19.7849 14.9816 18.2361 15.4409C17.1221 15.765 16.008 15.7921 14.8668 15.8191C12.3671 15.9001 9.86729 15.9001 7.36752 15.8731C5.5742 15.8731 3.78089 15.8461 1.98757 15.8191C1.28111 15.8731 1.28111 17.0887 2.06908 17.0887Z" fill="#030140"/>
<path d="M1.00938 51.1799C16.5243 51.423 32.0663 51.5041 47.5812 51.423C63.0146 51.315 78.4752 51.0719 93.9086 50.6126C102.631 50.3695 111.325 50.0724 120.02 49.7212C120.808 49.6942 120.808 48.4786 120.02 48.5056C104.505 49.1269 88.9905 49.5861 73.4756 49.8833C58.0422 50.1804 42.5817 50.2885 27.1483 50.2344C18.4263 50.2074 9.73141 50.1264 1.00938 49.9913C0.221403 49.9373 0.221403 51.1529 1.00938 51.1799Z" fill="#030140"/>
<path d="M132.166 13.82C130.509 13.9551 129.096 15.1167 128.444 16.6024C127.656 18.3313 127.954 20.3033 128.742 22.0052C130.183 25.0847 133.334 27.2999 136.704 27.678C140.154 28.0562 143.469 26.1112 144.828 22.9507C145.616 21.1137 145.616 19.0067 145.317 17.0617C145.073 15.2788 144.393 13.5229 142.98 12.3073C140.589 10.2272 136.975 10.1462 134.122 11.1997C133.769 11.3348 133.389 11.4969 133.063 11.6589C132.601 11.8751 133.008 12.5774 133.47 12.3613C135.916 11.1997 139.122 10.9026 141.54 12.2803C142.899 13.0637 143.795 14.3063 144.23 15.792C144.475 16.6295 144.611 17.4939 144.665 18.3853C144.719 19.3308 144.719 20.3033 144.529 21.2488C143.931 24.2743 141.35 26.7056 138.198 26.9487C135.209 27.1648 132.22 25.625 130.454 23.2748C129.313 21.7891 128.498 19.763 128.905 17.8721C129.259 16.3053 130.509 14.8195 132.193 14.6845C132.682 14.6034 132.682 13.793 132.166 13.82Z" fill="#030140"/>
<path d="M132.166 42.8867C130.509 43.0218 129.096 44.1834 128.444 45.6691C127.656 47.398 127.954 49.37 128.742 51.0719C130.183 54.1514 133.334 56.3665 136.704 56.7447C140.154 57.1229 143.469 55.1779 144.828 52.0173C145.616 50.1804 145.616 48.0733 145.317 46.1284C145.073 44.3455 144.393 42.5896 142.98 41.374C140.589 39.2939 136.975 39.2129 134.122 40.2664C133.769 40.4015 133.389 40.5636 133.063 40.7256C132.601 40.9418 133.008 41.6441 133.47 41.428C135.916 40.2664 139.122 39.9693 141.54 41.347C142.899 42.1304 143.795 43.373 144.23 44.8587C144.475 45.6962 144.611 46.5606 144.665 47.452C144.719 48.3975 144.719 49.37 144.529 50.3155C143.931 53.341 141.35 55.7722 138.198 56.0154C135.209 56.2315 132.22 54.6917 130.454 52.3415C129.313 50.8558 128.498 48.8297 128.905 46.9388C129.259 45.372 130.509 43.8862 132.193 43.7512C132.682 43.6701 132.682 42.8597 132.166 42.8867Z" fill="#030140"/>
<path d="M134.421 24.3824C138.035 20.8166 141.649 17.2508 145.29 13.685C145.86 13.1447 144.991 12.2803 144.42 12.8206C140.807 16.3864 137.193 19.9522 133.552 23.518C133.008 24.0582 133.878 24.9227 134.421 24.3824Z" fill="#030140"/>
<path d="M132.112 14.7385C135.889 17.5749 139.312 20.8166 142.383 24.4094C142.844 24.9497 143.605 24.1663 143.143 23.653C140.046 19.9792 136.513 16.7105 132.655 13.8201C132.411 13.631 132.057 13.793 131.922 14.0091C131.758 14.2793 131.867 14.5764 132.112 14.7385Z" fill="#030140"/>
<path d="M118.961 12.7395C119.45 13.3068 119.966 13.8741 120.455 14.4414C120.7 14.7115 120.917 14.9816 121.162 15.2518C121.297 15.4138 121.433 15.5489 121.569 15.711C121.624 15.765 121.678 15.8461 121.732 15.9001C121.759 15.9271 121.787 15.9541 121.814 16.0081C121.868 16.0892 121.868 16.0622 121.841 15.9541C121.895 15.8731 121.95 15.765 122.004 15.684C121.787 15.9541 121.46 16.1972 121.216 16.4134C120.944 16.6565 120.645 16.9266 120.374 17.1697C119.803 17.683 119.232 18.1963 118.662 18.6825C118.064 19.1958 118.934 20.0602 119.531 19.5469C120.183 18.9526 120.836 18.3853 121.488 17.791C121.814 17.5209 122.113 17.2238 122.439 16.9536C122.765 16.6565 123.118 16.3863 123.091 15.9001C123.064 15.4679 122.71 15.1437 122.439 14.8466C122.167 14.5224 121.895 14.1982 121.596 13.9011C120.999 13.2257 120.428 12.5504 119.83 11.9021C119.314 11.3078 118.444 12.1722 118.961 12.7395Z" fill="#030140"/>
<path d="M116.461 46.4255C117.738 47.398 119.015 48.3435 120.292 49.316C120.211 49.0458 120.156 48.7487 120.075 48.4786C119.151 49.8292 118.118 51.1259 117.059 52.3685C116.542 52.9628 117.412 53.8272 117.928 53.2329C119.069 51.9093 120.156 50.5316 121.134 49.0999C121.325 48.8027 121.162 48.4515 120.917 48.2624C119.64 47.29 118.363 46.3445 117.086 45.372C116.814 45.1829 116.407 45.318 116.244 45.5881C116.053 45.9123 116.216 46.2364 116.461 46.4255Z" fill="#030140"/>
<path d="M131.079 48.1544C132.22 49.343 133.362 50.5316 134.503 51.7472C135.128 52.3956 135.943 53.0439 136.894 52.6927C137.627 52.4226 138.252 51.7742 138.823 51.261C141.024 49.316 143.062 47.1549 144.882 44.8587C145.969 43.5081 146.974 42.1304 147.926 40.6986C148.252 40.2124 148.034 39.456 147.518 39.1859C146.947 38.8887 146.322 39.0778 145.996 39.5911C144.475 41.9143 142.926 43.8863 141.051 45.9393C140.127 46.9388 139.176 47.8843 138.198 48.8298C137.709 49.289 137.193 49.7482 136.704 50.1804C136.595 50.2885 136.459 50.3965 136.35 50.5046C136.296 50.5586 136.242 50.6127 136.187 50.6397C136.323 50.5316 136.187 50.6397 136.16 50.6397C136.215 50.6127 136.269 50.5856 136.323 50.5856C136.35 50.5856 136.405 50.5856 136.432 50.5856C136.541 50.6397 136.541 50.6397 136.486 50.5856C136.459 50.5856 136.459 50.5586 136.432 50.5586C136.513 50.6127 136.513 50.6127 136.459 50.5586C136.405 50.5046 136.323 50.4506 136.269 50.3695C135.046 49.1269 133.878 47.8573 132.682 46.5876C132.275 46.1554 131.514 46.1554 131.106 46.5876C130.672 47.0469 130.644 47.7222 131.079 48.1544Z" fill="#030140"/>
</svg>
