<svg width="104" height="86" viewBox="0 0 104 86" fill="none" xmlns="http://www.w3.org/2000/svg">
<path d="M8.17612 40.5595C7.90893 35.1601 8.2247 29.6641 10.095 24.6021C13.3013 15.8762 21.0254 9.19914 29.8426 6.08962C38.6598 2.98009 48.4243 3.19704 57.5087 5.5111C57.6301 5.53521 57.7758 5.55931 57.9216 5.58342C58.6746 5.63163 58.8203 4.57101 58.1159 4.40228C55.4197 3.72734 52.5293 3.36577 49.9303 2.71494C40.8702 0.42498 31.0814 0.208037 22.2642 3.29346C13.447 6.40298 5.72285 13.08 2.49231 21.806C0.622 26.868 0.330522 32.388 0.57342 37.7634C1.37498 54.6609 6.573 71.0281 17.1876 84.2857L22.58 84.2134C13.4713 71.4619 8.9291 56.2518 8.17612 40.5595Z" fill="#F24B78"/>
<path d="M40.2629 75.2946C40.2386 76.0178 40.4329 76.7168 40.6516 77.3917C41.2102 79.055 41.8903 80.67 42.7162 82.2368C43.202 83.1528 43.8578 84.117 44.878 84.2857C45.4124 84.3821 45.9467 84.2134 46.4811 84.0447C47.7442 83.6108 48.983 83.1046 50.1732 82.4779C50.6104 82.2609 51.0719 81.9958 51.3634 81.6101C51.7277 81.128 51.8006 80.5013 51.8734 79.9227C52.1163 77.8015 52.2864 75.6321 51.8249 73.5591C51.0962 70.3531 47.3798 66.3517 43.7364 66.7374C42.2547 66.9061 41.2831 67.9668 40.9916 69.3889C40.603 71.1004 40.3601 73.5109 40.2629 75.2946Z" fill="#F24B78"/>
<path d="M72.9326 84.6232C73.1755 79.1031 72.6654 73.559 71.4023 68.1837C70.8922 66.0383 70.2121 63.7966 68.8519 62.0128C68.1475 61.0727 67.2973 60.2773 66.2772 59.6988C65.2327 59.0961 64.0911 58.6864 62.9252 58.3971C61.7593 58.1078 60.5691 57.9391 59.3789 57.7704C57.9458 57.5775 56.4884 57.3847 55.0553 57.2401C52.2377 56.9508 49.3958 56.758 46.5539 56.6857C45.1451 56.6374 43.712 56.6374 42.3032 56.6374C41.0887 56.6374 39.5827 56.4687 38.6597 57.4088C37.8581 58.2284 37.761 59.4336 37.6638 60.4942C37.5181 61.9164 37.3966 63.3386 37.2509 64.7608C36.7165 70.4495 36.1578 76.1624 35.6235 81.8511C35.5506 82.5501 35.4777 83.2492 35.4291 83.9482C35.4049 84.2857 35.7449 84.5508 36.0607 84.5508C36.425 84.5508 36.6436 84.2616 36.6922 83.9482C37.2266 78.4282 37.7367 72.9082 38.2711 67.3882C38.3925 66.0383 38.5382 64.6644 38.6597 63.3145L38.854 61.2656C38.9026 60.6871 38.9269 60.1085 39.0483 59.53C39.1212 59.1202 39.2426 58.6623 39.5098 58.3248C39.8256 57.9632 40.3114 57.8909 40.7972 57.8668C42.1331 57.8186 43.4691 57.8186 44.805 57.8427C47.5497 57.8668 50.3188 58.0114 53.0635 58.2525C55.7111 58.4694 58.3587 58.7587 60.982 59.2167C63.1438 59.5782 65.3784 60.1809 67.0059 61.7236C68.5604 63.194 69.362 65.2188 69.9206 67.2195C70.6007 69.63 71.038 72.1369 71.3294 74.6196C71.6452 77.2712 71.8152 79.9468 71.7667 82.6225C71.7667 83.2733 71.7424 83.9482 71.7181 84.599C71.6695 85.4186 72.9083 85.3945 72.9326 84.6232Z" fill="#030140"/>
<path d="M69.5079 85.5633C70.4552 80.4772 69.5564 75.15 67.0789 70.5942C66.3745 69.3166 65.5486 68.1114 64.6013 67.0026C64.3827 66.7374 63.9455 66.7856 63.7269 67.0026C63.484 67.2436 63.5083 67.6052 63.7269 67.8703C66.836 71.5584 68.5606 76.3552 68.6577 81.1521C68.682 82.5261 68.5848 83.8759 68.3177 85.2258C68.2691 85.5633 68.4148 85.9008 68.7549 85.9731C69.0464 86.0695 69.4593 85.9007 69.5079 85.5633Z" fill="#030140"/>
<path d="M48.7643 44.3681C49.1287 43.3798 49.6873 42.4879 49.7845 41.4032C49.9059 39.7641 48.9344 38.2696 48.0356 36.992C47.1855 35.7868 46.3354 34.5815 45.4609 33.3763C44.3436 31.8336 42.8619 30.098 41.3074 30.5801C37.7125 31.6648 40.0443 40.1979 40.5058 43.3798C40.8702 45.9349 43.3963 52.5155 46.0925 51.5995C48.1814 50.9005 48.0113 46.3447 48.7643 44.3681Z" fill="#F24B78"/>
<path d="M73.4185 36.7509C72.9084 38.7275 72.8841 40.8488 73.3699 42.8254C73.54 43.5244 73.7586 44.2234 74.2444 44.7538C75.3374 46.0072 77.5478 45.9108 78.7137 44.7296C79.8796 43.5485 80.001 41.5719 79.2481 40.1015C78.2522 38.1731 75.8475 37.0884 73.7343 37.5946" fill="#F24B78"/>
<path d="M76.1389 43.3557C76.0903 43.4039 76.066 43.4762 76.0175 43.5244C75.9932 43.5485 75.9203 43.6449 75.9932 43.5485C76.066 43.4521 75.9689 43.5726 75.9446 43.5967C75.8717 43.669 75.8231 43.7655 75.7503 43.8378C75.3373 44.344 74.9001 44.8261 74.4386 45.2841C72.9812 46.7545 71.3538 48.0802 69.5564 49.1408C67.346 50.4666 64.9413 51.5754 62.5123 52.4191C60.0834 53.2869 57.5572 53.8895 55.0068 54.1546C51.9706 54.468 48.8858 54.2993 45.9467 53.4315C45.1694 53.2146 44.8537 54.3957 45.6067 54.6126C50.9018 56.1795 56.7071 55.6009 61.9051 53.9136C66.6416 52.3709 71.2567 50.0568 74.8515 46.5857C75.6774 45.7903 76.5518 44.9225 77.2077 43.9342C77.6449 43.3075 76.5761 42.6807 76.1389 43.3557Z" fill="#030140"/>
<path d="M44.222 51.937C43.8819 48.3936 43.5662 44.8502 43.2261 41.3068C43.0075 39.0409 42.7889 36.7751 42.5946 34.5092C42.4974 33.5209 42.4003 32.5567 42.3274 31.5684C42.2788 31.1345 42.2302 30.7006 42.2059 30.2427C42.2059 30.2185 42.2059 30.1703 42.2059 30.1221C42.1574 29.9293 42.2302 30.1221 42.1817 30.1221C42.1331 30.1221 42.1817 30.1703 42.2059 30.098C42.2059 30.098 42.0602 30.1944 42.1817 30.1221C42.1574 30.1221 42.1088 30.1221 42.0845 30.1221C42.1574 30.1944 42.1088 30.1221 42.0845 30.098C42.0116 30.0498 42.1331 30.1703 42.1817 30.2185C42.8132 30.9176 43.5176 31.5925 44.1734 32.2675L47.6226 35.7868C48.0355 36.2207 48.4727 36.6545 48.8856 37.0884C49.1042 37.3295 49.3714 37.691 49.7115 37.7393C50.1001 37.7875 50.5859 37.691 50.9745 37.6669C51.4118 37.6428 51.8247 37.6187 52.2619 37.5946C53.0635 37.5464 53.865 37.4982 54.6666 37.45C56.2211 37.3536 57.7514 37.2331 59.3059 37.1125C62.3422 36.8715 65.4027 36.534 68.4146 36.0278C69.1676 35.9073 69.9449 35.7627 70.6978 35.5939C71.0379 35.5216 71.3537 35.4493 71.6937 35.377C71.718 35.377 71.8152 35.3529 71.6694 35.377C71.718 35.377 71.7666 35.377 71.8395 35.3529C71.9609 35.3529 72.0823 35.3288 72.2038 35.3288C73.2725 35.3047 74.317 35.5216 75.3372 35.8832C75.7744 36.0519 76.2845 36.293 76.6002 36.5581C76.8674 36.7751 77.2318 36.7992 77.4747 36.5581C77.6933 36.3412 77.7419 35.9073 77.4747 35.6903C76.2845 34.7262 74.7056 34.3405 73.1997 34.1717C72.5924 34.0994 71.9852 34.0994 71.3779 34.1958C70.4306 34.3646 69.5076 34.5815 68.5846 34.7503C64.7226 35.4252 60.8362 35.7868 56.9255 36.0519C54.5694 36.2207 52.189 36.3653 49.8329 36.5099L50.2701 36.6786C49.2014 35.5939 48.1326 34.4851 47.0396 33.4004C45.7522 32.0746 44.4406 30.7489 43.1532 29.4472C43.129 29.4231 43.0804 29.3749 43.0561 29.3508C43.0561 29.3508 43.1775 29.4954 43.0561 29.3508C42.9832 29.2544 42.8861 29.182 42.7889 29.1097C42.5946 28.9892 42.3517 28.9169 42.1331 28.9169C41.6959 28.9169 41.2829 29.182 41.0886 29.5677C40.9186 29.9052 40.9915 30.2668 41.0157 30.6283C41.1372 31.9782 41.2586 33.3281 41.4044 34.6538C41.6959 37.8357 42.0116 41.0175 42.3031 44.1994C42.5217 46.6098 42.7646 49.0444 42.9832 51.4549C43.0075 51.6236 43.0075 51.7924 43.0318 51.9611C43.0561 52.2986 43.299 52.5878 43.6633 52.5878C43.9062 52.5396 44.2463 52.2745 44.222 51.937Z" fill="#030140"/>
<path d="M51.9463 41.0898C51.6791 41.9094 51.7277 42.7772 52.092 43.5485C52.4078 44.2235 53.1365 44.6815 53.8895 44.6574C54.3267 44.6574 54.7639 44.4886 55.0554 44.1994C55.3712 43.886 55.5412 43.4521 55.5655 42.9941C55.6141 42.5602 55.4683 42.1746 55.2983 41.7889C55.1526 41.4755 54.9825 41.1621 54.7882 40.8729C54.2538 40.1738 53.4037 39.7882 52.5292 40.0292C52.2135 40.1256 51.9949 40.4631 52.092 40.7765C52.1892 41.0898 52.5293 41.3068 52.845 41.2104C52.8693 41.2104 52.9179 41.1863 52.9422 41.1863C52.9422 41.1863 53.0393 41.1621 52.9665 41.1863C52.8936 41.2104 52.9908 41.1863 53.015 41.1863C53.0393 41.1863 53.0636 41.1863 53.0879 41.1863C53.1122 41.1863 53.1608 41.1863 53.1851 41.1863C53.1851 41.1863 53.0393 41.1621 53.1608 41.1863C53.2337 41.2104 53.2822 41.2104 53.3308 41.2345C53.428 41.2586 53.3065 41.2345 53.3065 41.2345C53.3065 41.2345 53.3551 41.2586 53.3794 41.2586C53.428 41.2827 53.4766 41.3068 53.5251 41.3309C53.6223 41.3791 53.5251 41.3068 53.5008 41.3068C53.5251 41.3068 53.5494 41.355 53.5737 41.355C53.6223 41.4032 53.6466 41.4273 53.6952 41.4755C53.7195 41.4996 53.7195 41.5237 53.7437 41.5478C53.768 41.5719 53.7923 41.596 53.7437 41.5478C53.6709 41.4996 53.7195 41.5237 53.7437 41.5719C53.7437 41.596 53.768 41.596 53.768 41.6201C53.8652 41.7648 53.9381 41.8853 54.0109 42.0299C54.0352 42.1022 54.0838 42.1504 54.1081 42.2228C54.1324 42.2469 54.2053 42.4156 54.1567 42.3192C54.2053 42.4638 54.2538 42.6084 54.2781 42.7531C54.2538 42.6325 54.2781 42.8013 54.2781 42.8495C54.2781 42.8977 54.2781 43.0423 54.2781 42.9459C54.2781 43.0182 54.2538 43.0905 54.2295 43.1628C54.2295 43.1628 54.181 43.2593 54.2053 43.2111C54.2295 43.1629 54.181 43.2834 54.1567 43.2834C54.1567 43.3075 54.1324 43.3557 54.1081 43.3557C54.1081 43.3557 54.181 43.2593 54.1324 43.3075C54.1081 43.3316 54.0838 43.3557 54.0595 43.3798C54.0109 43.428 54.0838 43.3557 54.0838 43.3557C54.0595 43.3798 54.0109 43.4039 53.9866 43.4039C54.0109 43.4039 54.1081 43.3798 53.9866 43.4039C53.9381 43.428 53.768 43.4521 53.8895 43.428C53.8409 43.428 53.768 43.428 53.7195 43.428C53.6952 43.428 53.598 43.4039 53.6709 43.428C53.7437 43.4521 53.6709 43.428 53.6466 43.428C53.5737 43.4039 53.5251 43.3798 53.4523 43.3798C53.4523 43.3798 53.5494 43.428 53.4766 43.4039C53.4523 43.3798 53.4037 43.3798 53.3794 43.3557C53.3551 43.3316 53.3308 43.3316 53.3065 43.3075C53.3065 43.3075 53.2337 43.2593 53.3065 43.3075C53.3794 43.3557 53.258 43.2593 53.2337 43.2352C53.2094 43.2111 53.1851 43.187 53.1851 43.187C53.1122 43.1146 53.2337 43.187 53.2094 43.2111C53.2094 43.2111 53.1365 43.0664 53.1122 43.0664C53.0879 43.0423 53.0879 42.9941 53.0636 42.97C53.0879 43.0182 53.0636 42.9941 53.0636 42.9459C53.0393 42.8736 53.0151 42.7772 52.9908 42.7049C52.9665 42.6325 52.9665 42.5602 52.9422 42.4879C52.9179 42.3915 52.9422 42.5843 52.9422 42.4879C52.9422 42.4397 52.9422 42.3915 52.9422 42.3433C52.9422 42.1987 52.9422 42.0299 52.9665 41.8853C52.9422 42.0058 52.9665 41.8853 52.9665 41.8853C52.9665 41.8371 52.9908 41.7889 52.9908 41.7407C53.0151 41.6442 53.0393 41.5719 53.0636 41.4755C53.1608 41.1621 52.9422 40.8006 52.6264 40.7283C52.3592 40.5836 52.0435 40.7524 51.9463 41.0898Z" fill="#030140"/>
<path d="M51.1933 35.1841C50.6589 32.2916 50.3188 29.399 50.2217 26.4582C49.8573 26.6028 49.5173 26.7474 49.1529 26.8921C51.7519 29.2785 54.0838 31.9541 56.1241 34.8226C56.3184 35.0877 56.6585 35.2324 56.9742 35.0395C57.2414 34.8708 57.3872 34.461 57.1929 34.1958C55.1039 31.231 52.6992 28.483 50.0274 26.0002C49.663 25.6627 48.9586 25.8797 48.9586 26.4341C49.0801 29.4713 49.4201 32.5085 49.9788 35.4975C50.0517 35.835 50.4403 36.0037 50.7318 35.9314C51.0961 35.8591 51.2419 35.5216 51.1933 35.1841Z" fill="#030140"/>
<path d="M73.4184 35.0154C72.9326 36.992 72.9084 39.065 73.3699 41.0416C73.5885 41.9094 73.9285 42.7772 74.6329 43.3557C75.2402 43.8378 75.9932 44.0788 76.7705 44.0788C78.4465 44.0547 79.8553 42.9459 80.3168 41.3309C80.754 39.7159 80.2682 37.9803 79.1023 36.7992C77.8392 35.5216 75.896 34.9431 74.1229 35.3529C73.3456 35.5457 73.6856 36.7269 74.4629 36.534C76.9162 35.9555 79.5638 38.0044 79.2237 40.5595C79.078 41.7166 78.2521 42.6566 77.1105 42.8013C76.5761 42.8736 76.066 42.7772 75.6288 42.512C75.0702 42.1746 74.8273 41.5237 74.6572 40.9211C74.1471 39.0891 74.1714 37.1366 74.6329 35.3047C74.803 34.5815 73.6128 34.2441 73.4184 35.0154Z" fill="#030140"/>
<path d="M35.6964 83.7072C33.0731 83.5867 30.4255 83.5626 27.8023 83.3697C27.4622 83.3456 27.1707 83.659 27.1707 83.9964C27.1707 84.358 27.4622 84.5991 27.8023 84.5991C30.4255 84.7919 33.0731 84.816 35.6964 84.9365C36.498 84.9606 36.498 83.7313 35.6964 83.7072Z" fill="#030140"/>
<path d="M72.5197 85.7561C75.4588 85.2981 78.4221 84.9607 81.4098 84.6955C81.7498 84.6714 82.017 84.4304 82.017 84.0929C82.017 83.7795 81.7255 83.4421 81.4098 83.4903C78.325 83.7554 75.2401 84.117 72.2039 84.5991C71.8639 84.6473 71.6938 85.0571 71.7667 85.3463C71.8396 85.6838 72.1796 85.8043 72.5197 85.7561Z" fill="#030140"/>
<path d="M76.5032 83.5626C77.6205 83.4179 78.7379 83.2733 79.8795 83.1046C80.1952 83.0564 80.4139 82.6466 80.3167 82.3573C80.1953 81.9957 79.9038 81.8752 79.5637 81.9234C78.4464 82.0681 77.3291 82.2127 76.1874 82.3814C75.8717 82.4296 75.6531 82.8394 75.7502 83.1287C75.8717 83.4902 76.1631 83.6108 76.5032 83.5626Z" fill="#030140"/>
<path d="M28.0937 82.9359C29.211 83.0082 30.3526 83.0805 31.4943 83.1528C31.81 83.1769 32.1258 82.8635 32.1258 82.5502C32.1015 82.1886 31.8586 81.9476 31.4943 81.9476C30.3526 81.8752 29.2353 81.8029 28.0937 81.7306C27.7779 81.7065 27.4622 82.0199 27.4622 82.3332C27.5107 82.6707 27.7536 82.9118 28.0937 82.9359Z" fill="#030140"/>
<path d="M29.0411 81.2727C30.1584 81.345 31.3 81.4173 32.4416 81.4896C32.7574 81.5137 33.0732 81.2003 33.0732 80.887C33.0489 80.5254 32.806 80.2844 32.4416 80.2844C31.3 80.212 30.1827 80.1397 29.0411 80.0674C28.7253 80.0433 28.4095 80.3567 28.4095 80.67C28.4581 81.0075 28.701 81.2486 29.0411 81.2727Z" fill="#030140"/>
<path d="M74.973 82.3332C76.1389 82.1886 77.2805 82.0681 78.4464 81.9235C78.7622 81.8752 79.0779 81.6583 79.0779 81.3208C79.0536 81.0316 78.8107 80.67 78.4464 80.6941C77.2805 80.8387 76.1389 80.9593 74.973 81.1039C74.6572 81.1521 74.3414 81.369 74.3414 81.7065C74.3657 82.0199 74.6329 82.3814 74.973 82.3332Z" fill="#030140"/>
<path d="M43.6877 68.5453C42.036 72.3056 41.2588 76.4275 41.5502 80.5254C41.6231 81.6824 41.7931 82.8635 42.036 83.9965C42.1089 84.3098 42.4975 84.5027 42.789 84.4304C43.1291 84.3339 43.2991 83.9965 43.2262 83.6831C42.449 79.9228 42.5947 75.9696 43.6634 72.2574C43.9549 71.1968 44.3193 70.1603 44.7808 69.1479C44.9265 68.8345 44.8779 68.4971 44.5622 68.3042C44.2707 68.1837 43.8092 68.2319 43.6877 68.5453Z" fill="#030140"/>
<path d="M70.9166 50.0809C68.9248 50.1292 66.8845 50.2015 64.917 49.6953C63.3625 49.2855 61.8322 48.5141 60.8606 47.2125C60.6663 46.9473 60.3263 46.8027 60.0105 46.9955C59.7433 47.1401 59.5976 47.574 59.7919 47.8392C60.9335 49.3578 62.5852 50.322 64.4069 50.8282C66.5202 51.4067 68.7548 51.3585 70.9166 51.3103C71.7182 51.2862 71.7182 50.0568 70.9166 50.0809Z" fill="#030140"/>
<path d="M85.2232 84.6232C87.1178 84.5509 88.9881 84.4786 90.8827 84.4304C91.1985 84.4304 91.5142 84.4304 91.8057 84.4062C92.0729 84.3821 92.2186 84.3098 92.3887 84.0929C92.8016 83.6108 93.1173 83.0564 93.4817 82.5261C94.7933 80.6218 95.9835 78.6693 97.1009 76.6445C98.9955 73.1252 100.55 69.4371 101.57 65.5804C102.493 62.1334 103.003 58.59 103.173 55.0224C103.562 46.9955 102.226 38.7758 98.534 31.5443C96.6151 27.8081 94.0404 24.4575 90.9313 21.6131C87.6522 18.6241 83.9358 16.1654 80.1466 13.8514C72.3982 9.15092 64.1882 4.98079 55.3468 2.66672C46.5296 0.352656 36.9594 -0.0571261 28.1908 2.69083C20.8796 4.98079 14.2242 9.5366 9.8763 15.8521C7.56877 19.2267 6.03852 23.0353 5.30982 27.0367C4.48397 31.5202 4.53255 36.1242 4.84832 40.656C5.45556 49.0203 7.15585 57.3365 10.1435 65.1947C11.6252 69.0756 13.3983 72.86 15.5115 76.4516C16.5803 78.2836 17.7219 80.0433 18.9364 81.7788C19.5679 82.6707 20.2237 83.5385 20.8796 84.4062C21.171 84.7678 21.4382 85.2981 21.924 85.3704C22.0455 85.3704 22.1669 85.3704 22.2641 85.3704H25.0088C25.8104 85.3704 25.8104 84.1411 25.0088 84.1411H21.924C22.0698 84.1893 22.2155 84.2616 22.3612 84.3098C17.7462 78.5247 14.0784 72.0164 11.4308 65.1224C8.78326 58.2284 7.10726 50.9487 6.35428 43.6208C5.55272 35.9796 5.30982 27.7358 8.61323 20.5766C11.4066 14.5745 16.3617 9.72944 22.1669 6.5717C28.9438 2.88366 36.7894 1.65432 44.4406 2.13641C52.4806 2.64262 60.3019 5.10131 67.5645 8.47599C71.2566 10.1874 74.8271 12.1399 78.3006 14.2129C81.6283 16.2136 84.956 18.2867 87.9679 20.7212C90.907 23.0835 93.5303 25.8074 95.5949 28.9892C97.5624 32.0023 99.0441 35.3047 100.064 38.7517C102.032 45.3323 102.42 52.3468 101.546 59.1444C100.671 65.966 98.1939 72.4261 94.6719 78.3318C93.6274 80.0915 92.4858 81.8029 91.2713 83.4662C91.4414 83.3697 91.6357 83.2733 91.8057 83.1528C89.5953 83.2251 87.385 83.2974 85.1746 83.3938C84.4216 83.4179 84.4216 84.6473 85.2232 84.6232Z" fill="#030140"/>
</svg>
