<svg width="101" height="80" viewBox="0 0 101 80" fill="none" xmlns="http://www.w3.org/2000/svg">
<path d="M84.7038 41.2937C94.2168 44.4606 99.4236 54.1015 97.172 63.8545C94.9485 73.6075 84.2253 80.6981 74.3746 78.6522C64.5239 76.6063 58.9512 67.7221 60.1615 57.8009C61.3154 48.3842 68.9427 39.9484 81.0168 40.6771L84.7038 41.2937Z" fill="#F24B78"/>
<path d="M2.74604 59.006C2.68975 51.9435 2.63346 44.8529 2.54903 37.7904C2.46459 30.7279 2.43645 23.6373 2.35201 16.5748C2.32387 12.5951 2.26758 8.64345 2.23943 4.66377L1.5921 5.30836C7.05221 5.08416 12.5405 4.85995 18.0006 4.60772C22.6726 4.41153 27.3447 4.18733 32.0167 3.96312C36.6325 3.73891 41.2764 3.54273 45.8921 3.31852C51.0708 3.09432 56.2495 2.87011 61.4281 2.67393C67.9296 2.42169 74.4029 2.16946 80.9044 1.94525C81.8331 1.91723 82.7338 1.8892 83.6626 1.86118C84.4788 1.83315 84.4788 0.571983 83.6626 0.600009C76.9641 0.824216 70.2656 1.07645 63.5671 1.32868C58.2759 1.52486 52.9565 1.74907 47.6653 2.0013C42.9932 2.19749 38.3493 2.42169 33.6773 2.6459C29.0334 2.87011 24.4176 3.06629 19.7737 3.2905C14.4262 3.54273 9.07864 3.76694 3.75926 3.99114C3.02749 4.01917 2.29573 4.0472 1.56396 4.07522C1.22622 4.07522 0.916626 4.35548 0.916626 4.71982C0.972916 11.7824 1.0292 18.8729 1.11364 25.9354C1.19807 32.998 1.22622 40.0885 1.31065 47.1511C1.3388 51.1307 1.36694 55.0824 1.42323 59.0621C1.47952 59.8188 2.74604 59.8188 2.74604 59.006Z" fill="#030140"/>
<path d="M84.2536 9.68039C74.1496 9.34408 64.0175 9.20395 53.8853 9.28803C43.8094 9.3721 33.7617 9.68039 23.6858 10.1849C18.0287 10.4651 12.3998 10.8294 6.77078 11.2498C5.95458 11.3059 5.95458 12.5671 6.77078 12.511C16.8748 11.7543 26.9788 11.2218 37.0828 10.9135C47.1587 10.6052 57.2064 10.4931 67.2823 10.5772C72.9394 10.6333 78.5965 10.7454 84.2255 10.9416C85.0698 10.9696 85.0698 9.70841 84.2536 9.68039Z" fill="#030140"/>
<path d="M83.8314 3.40259C83.8314 8.08292 83.8033 12.7352 83.8033 17.4156C83.8033 21.9558 83.7751 26.4959 83.7751 31.0361C83.7751 33.5865 83.7751 36.1649 83.7751 38.7152C83.7751 39.528 85.0417 39.528 85.0417 38.7152C85.0417 34.1751 85.0698 29.6629 85.0698 25.1227C85.0698 20.5545 85.098 15.9582 85.098 11.39C85.098 8.72752 85.098 6.06506 85.098 3.40259C85.098 2.58984 83.8314 2.58984 83.8314 3.40259Z" fill="#030140"/>
<path d="M54.3638 57.4926C48.0593 57.4085 41.7268 57.4085 35.4223 57.4366C29.1178 57.4646 22.7852 57.5767 16.4808 57.7448C12.9345 57.8289 9.38827 57.941 5.81387 58.0812C4.99767 58.1092 4.99767 59.3704 5.81387 59.3423C12.1183 59.1181 18.4228 58.95 24.7554 58.8379C31.0598 58.7258 37.3924 58.6697 43.6969 58.6977C47.2431 58.6977 50.8175 58.7258 54.3638 58.7818C55.18 58.7538 55.18 57.4926 54.3638 57.4926Z" fill="#030140"/>
<path d="M80.9607 41.0414C77.3582 39.528 73.2771 39.4719 69.5339 40.5089C65.7906 41.5459 62.3288 43.6758 59.7958 46.6185C57.1501 49.6453 55.6022 53.4288 55.5177 57.4365C55.4333 61.4723 56.7561 65.508 59.0077 68.8431C61.3156 72.2342 64.5522 74.9527 68.4081 76.4381C72.2639 77.8955 76.5701 77.8674 80.4822 76.6623C84.4225 75.4292 87.9969 73.047 90.6425 69.9081C93.3445 66.6851 95.005 62.7334 95.2302 58.5296C95.4553 54.4097 94.3014 50.2619 92.2468 46.7306C90.1641 43.1714 87.0963 40.1165 83.4093 38.2108C82.5087 37.7343 81.5518 37.342 80.5667 37.0057C80.1445 36.8655 79.6379 37.1738 79.5253 37.5942C79.3846 38.0426 79.6942 38.491 80.1164 38.6312C83.6908 39.8363 86.8993 42.2465 89.179 45.2173C90.333 46.7306 91.3743 48.4963 92.0498 50.1778C92.7534 51.9435 93.2882 53.9053 93.457 55.6709C93.8511 59.5385 93.0067 63.2659 90.9803 66.573C88.982 69.824 85.9986 72.4024 82.5368 74.0559C81.6925 74.4763 80.8481 74.7846 79.9193 75.0648C78.9906 75.3451 78.0336 75.5693 77.0767 75.7094C76.739 75.7655 76.2324 75.8215 75.782 75.8496C75.3036 75.8776 74.8251 75.9056 74.3467 75.8776C73.3616 75.8496 72.5172 75.7655 71.5885 75.5973C67.8452 74.8687 64.5804 72.8508 62.0473 70.0202C59.5706 67.2736 57.8819 63.7984 57.3471 60.071C57.3471 59.9589 57.3471 60.043 57.3471 60.071C57.3471 60.0149 57.319 59.9589 57.319 59.8748C57.319 59.7627 57.2909 59.6506 57.2909 59.5385C57.2627 59.2863 57.2346 59.034 57.2346 58.7818C57.2064 58.3054 57.2064 57.8569 57.2064 57.3805C57.2346 56.3996 57.319 55.6149 57.516 54.662C57.91 52.8403 58.5574 51.2989 59.5424 49.7014C60.4712 48.216 61.6815 46.8988 63.0887 45.7217C63.736 45.1892 64.4397 44.6848 65.1996 44.2083C65.9876 43.7319 66.8038 43.3115 67.6482 42.9191C67.7889 42.8631 67.7045 42.8911 67.817 42.835C67.9015 42.807 68.0141 42.751 68.1266 42.7229C68.3518 42.6389 68.577 42.5548 68.8021 42.4707C69.2243 42.3306 69.6746 42.1905 70.0968 42.0784C70.5471 41.9662 70.9974 41.8541 71.4759 41.7701C71.6729 41.742 71.8981 41.686 72.0951 41.658C72.4047 41.6019 72.4047 41.6019 72.6861 41.5739C73.5867 41.4618 74.4874 41.4338 75.388 41.4898C76.3449 41.5459 77.0204 41.6299 77.9773 41.8261C78.8498 42.0223 79.6942 42.3026 80.5104 42.6389C80.9326 42.807 81.4392 42.4427 81.5518 42.0503C81.6643 41.6019 81.3829 41.2095 80.9607 41.0414Z" fill="#030140"/>
<path d="M100.55 45.8619C100.268 45.4134 99.8178 45.0211 99.283 44.909C98.7764 44.7969 98.101 44.7969 97.6506 45.1332C94.6954 47.3192 91.8809 49.6454 89.179 52.1397C86.2238 54.8862 83.4093 57.8009 80.82 60.8838C79.7787 62.1169 78.7936 63.3781 77.8367 64.6673C75.3881 62.0048 72.7706 59.5105 69.9561 57.2404C69.5058 56.8761 69.0555 56.6238 68.4644 56.6238C67.9578 56.6238 67.3386 56.848 66.9727 57.2404C66.2691 58.0251 66.0721 59.4544 66.9727 60.2111C70.4064 63.0137 73.6149 66.1526 76.4857 69.5157C76.9079 70.0202 77.6396 70.1884 78.2588 70.1043C78.9343 70.0202 79.4128 69.6559 79.8068 69.0953C80.3978 68.2265 81.0452 67.3858 81.6644 66.545C81.7488 66.4049 82.3117 65.7322 81.8614 66.2647C82.0302 66.0685 82.171 65.8724 82.3398 65.6762C82.6776 65.2558 83.0153 64.8354 83.3531 64.415C84.6477 62.8456 86.0268 61.3041 87.4341 59.8188C90.0515 57.0442 92.8097 54.4378 95.7368 51.9995C96.4686 51.383 97.2285 50.7664 97.9602 50.1779C98.1291 50.0377 98.3261 49.8976 98.495 49.7575C98.5513 49.7014 98.6076 49.6734 98.6639 49.6173C98.6639 49.6173 98.6639 49.6173 98.692 49.5893C99.0297 49.309 99.3956 49.0568 99.7615 48.8046C100.212 48.4683 100.578 48.1039 100.718 47.5434C100.915 46.9829 100.859 46.3103 100.55 45.8619Z" fill="#030140"/>
<path d="M10.514 18.8729C10.5421 20.2462 10.5984 21.5914 10.6266 22.9647C10.6266 23.301 10.6547 23.6373 10.6547 23.9456C10.6547 24.1978 10.6547 24.4781 10.8517 24.6743C11.0487 24.8424 11.2739 24.8705 11.5272 24.8705C11.8368 24.8424 12.1745 24.8144 12.4841 24.7864C13.441 24.7303 14.4261 24.6743 15.383 24.7023C15.6082 24.7023 15.8615 24.7023 16.0867 24.7303C16.3118 24.7303 16.6496 24.8144 16.8466 24.6463C17.0436 24.4781 16.9873 24.1698 16.9873 23.9456C16.9873 23.6093 16.9873 23.301 16.9873 22.9647C16.9592 21.5914 16.8747 20.2182 16.9029 18.8449C16.9029 18.5086 16.3681 18.5086 16.3681 18.8449C16.3681 19.9099 16.3963 20.9749 16.4244 22.0399C16.4525 22.5723 16.4525 23.1329 16.4525 23.6654C16.4525 23.8055 16.4525 23.9176 16.4525 24.0577C16.4525 24.0857 16.4244 24.2819 16.4525 24.2259C16.4807 24.1978 16.3963 24.2259 16.3681 24.1978C16.143 24.1698 15.8615 24.1698 15.6363 24.1698C14.792 24.1418 13.9477 24.1698 13.1314 24.2259C12.6248 24.2539 12.1464 24.2819 11.6398 24.338C11.499 24.338 11.3583 24.394 11.2457 24.31C11.1613 24.2259 11.1895 24.0017 11.1895 23.8615C11.1895 23.5813 11.1613 23.273 11.1613 22.9927C11.1332 21.6195 11.0769 20.2742 11.0487 18.901C11.0487 18.5366 10.514 18.5366 10.514 18.8729Z" fill="#030140"/>
<path d="M16.0868 18.3404C14.37 18.3965 12.625 18.3965 10.9081 18.3404C10.5704 18.3404 10.5704 18.8729 10.9081 18.8729C12.625 18.929 14.37 18.957 16.0868 18.8729C16.4245 18.8729 16.4245 18.3404 16.0868 18.3404Z" fill="#030140"/>
<path d="M11.274 45.5536L11.3865 49.6454L11.4147 50.6263C11.4147 50.8785 11.4147 51.1588 11.6117 51.355C11.8087 51.5231 12.0339 51.5511 12.2872 51.5511C12.5968 51.5231 12.9345 51.4951 13.2441 51.4671C14.201 51.411 15.1861 51.355 16.143 51.383C16.3682 51.383 16.6215 51.383 16.8466 51.411C17.0718 51.411 17.4095 51.4951 17.6066 51.3269C17.8036 51.1588 17.7473 50.8505 17.7473 50.6263C17.7473 50.29 17.7473 49.9817 17.7473 49.6454C17.7191 48.2721 17.6347 46.8988 17.6628 45.5255C17.6628 45.1892 17.1281 45.1892 17.1281 45.5255C17.1281 46.5905 17.1562 47.6555 17.1844 48.7205C17.2125 49.253 17.2125 49.8135 17.2125 50.346C17.2125 50.4862 17.2125 50.5983 17.2125 50.7384C17.2125 50.7664 17.1844 50.9626 17.2125 50.9065C17.2407 50.8785 17.1562 50.9065 17.1281 50.8785C16.9029 50.8505 16.6215 50.8505 16.3963 50.8505C15.552 50.8225 14.7076 50.8505 13.8914 50.9065C13.3848 50.9346 12.9064 50.9626 12.3998 51.0187C12.259 51.0187 12.1183 51.0747 12.0057 50.9906C11.9213 50.9065 11.9494 50.6823 11.9494 50.5422C11.9494 50.2619 11.9213 49.9537 11.9213 49.6734C11.8932 48.3001 11.8369 46.9549 11.8087 45.5816C11.8087 45.1892 11.2458 45.1892 11.274 45.5536Z" fill="#030140"/>
<path d="M16.8184 45.0211C15.1016 45.0772 13.3566 45.0772 11.6398 45.0211C11.302 45.0211 11.302 45.5536 11.6398 45.5536C13.3566 45.6096 15.1016 45.6377 16.8184 45.5536C17.1562 45.5536 17.1562 45.0211 16.8184 45.0211Z" fill="#030140"/>
<path d="M25.5997 18.5926C27.5135 18.5926 29.4274 18.5086 31.3131 18.3684L31.0316 18.0882C31.2849 20.022 31.3694 21.9838 31.2568 23.9176C31.2568 23.9736 31.2849 24.0857 31.2286 24.1418C31.2005 24.1698 30.8909 24.1698 30.8346 24.1698C30.6095 24.1978 30.3562 24.1978 30.131 24.2259C29.6244 24.2539 29.1459 24.2819 28.6393 24.3099C27.6542 24.366 26.6692 24.366 25.656 24.366C25.7404 24.422 25.8248 24.5061 25.9093 24.5622C25.656 23.0488 25.6278 21.5073 25.7967 19.9939C25.8248 19.6576 25.2901 19.6576 25.2619 19.9939C25.0931 21.5634 25.1494 23.1609 25.4027 24.7023C25.4308 24.8144 25.5434 24.8985 25.656 24.8985C26.7536 24.8985 27.8513 24.8985 28.9489 24.8424C29.4837 24.8144 30.0184 24.7864 30.5532 24.7303C30.8909 24.7023 31.5101 24.7583 31.7071 24.394C31.7915 24.2259 31.7634 24.0297 31.7915 23.8615C31.8197 23.5813 31.8197 23.301 31.8197 23.0207C31.8197 22.4882 31.8197 21.9558 31.8197 21.4233C31.7915 20.3022 31.7071 19.2092 31.5664 18.0882C31.5382 17.9481 31.4538 17.8079 31.2849 17.8079C29.3711 17.9481 27.4854 18.0321 25.5715 18.0321C25.2338 18.0602 25.2338 18.6207 25.5997 18.5926Z" fill="#030140"/>
<path d="M32.2418 37.0898C30.1591 37.342 28.0482 37.3981 25.9655 37.2299C26.0499 37.314 26.1344 37.3981 26.2469 37.5102C26.0781 35.4923 26.0218 33.4464 26.1344 31.4005C26.0499 31.4846 25.9655 31.5687 25.8529 31.6808C27.8793 31.6808 29.9058 31.6808 31.9322 31.6808C31.8478 31.5967 31.7633 31.5126 31.6507 31.4005C31.707 33.0821 31.707 34.7636 31.6507 36.4452C31.6507 36.7815 32.1855 36.7815 32.1855 36.4452C32.2418 34.7636 32.2418 33.0821 32.1855 31.4005C32.1855 31.2604 32.0729 31.1203 31.9041 31.1203C29.8776 31.1203 27.8512 31.1203 25.8248 31.1203C25.684 31.1203 25.5715 31.2324 25.5433 31.4005C25.4307 33.4464 25.487 35.4643 25.6559 37.5102C25.6559 37.6783 25.7685 37.7624 25.9373 37.7904C28.0201 37.9586 30.1309 37.9025 32.2136 37.6503C32.5795 37.5942 32.5795 37.0337 32.2418 37.0898Z" fill="#030140"/>
<path d="M25.9937 45.1892C27.0351 45.1052 28.1046 45.0491 29.1741 45.0211C29.7088 45.0211 30.2436 45.0211 30.7502 45.0491C31.2568 45.0771 31.8197 45.1612 32.3263 45.1332C32.3826 45.1332 32.4107 45.1332 32.467 45.1332C32.3826 45.0491 32.3826 45.0771 32.4107 45.2173C32.3826 45.3294 32.4389 45.4975 32.4389 45.6096C32.467 45.8619 32.467 46.1421 32.467 46.3944C32.4952 46.9269 32.4952 47.4593 32.4952 47.9638C32.4952 49.0288 32.467 50.0658 32.3826 51.1307C32.467 51.0467 32.5514 50.9626 32.664 50.8505C30.5813 51.0186 28.4986 51.0467 26.3877 50.9346C26.4722 51.0186 26.5566 51.1027 26.6692 51.2148C26.4159 49.3651 26.3877 47.4874 26.5285 45.6377C26.5566 45.3013 26.0218 45.3013 25.9937 45.6377C25.8248 47.4874 25.8811 49.3651 26.1344 51.2148C26.1626 51.3549 26.247 51.4671 26.4159 51.4951C28.4986 51.6072 30.6095 51.5792 32.6922 51.411C32.8329 51.411 32.9455 51.2989 32.9736 51.1307C33.0581 49.9536 33.0862 48.7766 33.0862 47.5714C33.0862 47.0109 33.0581 46.4224 33.0299 45.8619C33.0018 45.5256 33.1143 44.881 32.7766 44.6568C32.6077 44.5446 32.3544 44.5727 32.1574 44.5446C31.876 44.5166 31.5945 44.5166 31.2849 44.4886C30.722 44.4606 30.131 44.4606 29.5681 44.4606C28.386 44.4606 27.1758 44.5166 25.9937 44.6287C25.656 44.6848 25.6278 45.2173 25.9937 45.1892Z" fill="#030140"/>
<path d="M39.1938 18.0882L39.3063 22.18L39.3345 23.1609C39.3345 23.4131 39.3345 23.6934 39.5315 23.8895C39.7285 24.0577 39.9537 24.0857 40.207 24.0857C40.5166 24.0577 40.8543 24.0297 41.1639 24.0016C42.1208 23.9456 43.1059 23.8895 44.0628 23.9176C44.288 23.9176 44.5413 23.9176 44.7664 23.9456C44.9916 23.9456 45.3293 24.0297 45.5264 23.8615C45.7234 23.6934 45.6671 23.3851 45.6671 23.1609C45.6671 22.8246 45.6671 22.5163 45.6671 22.18C45.6389 20.8067 45.5545 19.4334 45.5826 18.0602C45.5826 17.7238 45.0479 17.7238 45.0479 18.0602C45.0479 19.1251 45.076 20.1901 45.1042 21.2551C45.1323 21.7876 45.1323 22.3481 45.1323 22.8806C45.1323 23.0207 45.1323 23.1328 45.1323 23.273C45.1323 23.301 45.1042 23.4972 45.1323 23.4411C45.1605 23.4131 45.076 23.4411 45.0479 23.4131C44.8227 23.3851 44.5413 23.3851 44.3161 23.3851C43.4718 23.3571 42.6274 23.3851 41.8112 23.4411C41.3046 23.4692 40.8262 23.4972 40.3196 23.5532C40.1788 23.5532 40.0381 23.6093 39.9255 23.5252C39.8411 23.4411 39.8692 23.2169 39.8692 23.0768C39.8692 22.7965 39.8411 22.4882 39.8411 22.208C39.813 20.8347 39.7567 19.4895 39.7285 18.1162C39.7285 17.7238 39.1656 17.7238 39.1938 18.0882Z" fill="#030140"/>
<path d="M44.7382 17.5557C43.0214 17.6117 41.2764 17.6117 39.5596 17.5557C39.2218 17.5557 39.2218 18.0882 39.5596 18.0882C41.2764 18.1442 43.0214 18.1723 44.7382 18.0882C45.076 18.0882 45.1041 17.5277 44.7382 17.5557Z" fill="#030140"/>
<path d="M39.9255 31.3164C41.8393 31.3164 43.7532 31.2323 45.6389 31.0922C45.5545 31.0081 45.47 30.9241 45.3574 30.812C45.6107 32.7457 45.6952 34.7076 45.5826 36.6413C45.5826 36.6974 45.6107 36.8095 45.5545 36.8656C45.5263 36.8936 45.2167 36.8936 45.1604 36.8936C44.9353 36.9216 44.682 36.9216 44.4568 36.9496C43.9502 36.9777 43.4717 37.0057 42.9651 37.0337C41.9801 37.0898 40.995 37.0898 39.9818 37.0898C40.0662 37.1458 40.1506 37.2299 40.2351 37.2859C39.9818 35.7725 39.9536 34.2311 40.1225 32.7177C40.1506 32.3814 39.6159 32.3814 39.5877 32.7177C39.4189 34.2872 39.4752 35.8846 39.7285 37.4261C39.7566 37.5382 39.8692 37.6223 39.9818 37.6223C41.0794 37.6223 42.1771 37.6223 43.2747 37.5662C43.8095 37.5382 44.3442 37.5102 44.879 37.4541C45.2167 37.4261 45.8359 37.4821 46.0329 37.1178C46.1174 36.9496 46.0892 36.7535 46.1174 36.5853C46.1455 36.305 46.1455 36.0248 46.1455 35.7445C46.1455 35.212 46.1455 34.6795 46.1455 34.147C46.1174 33.026 46.0329 31.933 45.8922 30.812C45.864 30.6718 45.7796 30.5317 45.6107 30.5317C43.6969 30.6718 41.8112 30.7559 39.8973 30.7559C39.5877 30.7839 39.5877 31.3164 39.9255 31.3164Z" fill="#030140"/>
<path d="M40.1788 44.5447C42.0926 44.5447 44.0065 44.4606 45.8922 44.3205C45.8077 44.2364 45.7233 44.1523 45.6107 44.0402C45.864 45.974 45.9485 47.9358 45.8359 49.8696C45.8359 49.9256 45.864 50.0377 45.8077 50.0938C45.7796 50.1218 45.47 50.1218 45.4137 50.1218C45.1886 50.1498 44.9353 50.1498 44.7101 50.1779C44.2035 50.2059 43.725 50.2339 43.2184 50.2619C42.2333 50.318 41.2483 50.318 40.2351 50.318C40.3195 50.374 40.4039 50.4581 40.4884 50.5142C40.2351 49.0008 40.2069 47.4594 40.3758 45.946C40.4039 45.6096 39.8692 45.6096 39.841 45.946C39.6722 47.5154 39.7285 49.1129 39.9818 50.6543C40.0099 50.7664 40.1225 50.8505 40.2351 50.8505C41.3327 50.8505 42.4304 50.8505 43.528 50.7944C44.0628 50.7664 44.5975 50.7384 45.1323 50.6823C45.47 50.6543 46.0892 50.7104 46.2862 50.346C46.3706 50.1779 46.3425 49.9817 46.3706 49.8135C46.3988 49.5333 46.3988 49.253 46.3988 48.9728C46.3988 48.4403 46.3988 47.9078 46.3988 47.3753C46.3706 46.2542 46.2862 45.1612 46.1455 44.0402C46.1173 43.9001 46.0329 43.7599 45.864 43.7599C43.9502 43.9001 42.0645 43.9841 40.1506 43.9841C39.841 44.0122 39.841 44.5447 40.1788 44.5447Z" fill="#030140"/>
<path d="M53.435 31.0361C53.4631 32.4094 53.5194 33.7547 53.5476 35.1279C53.5476 35.4642 53.5757 35.8006 53.5757 36.1088C53.5757 36.3611 53.5757 36.6413 53.7727 36.8375C53.9697 37.0057 54.1949 37.0337 54.4482 37.0337C54.7578 37.0057 55.0955 36.9777 55.4051 36.9496C56.362 36.8936 57.3471 36.8375 58.304 36.8655C58.5292 36.8655 58.7825 36.8655 59.0077 36.8936C59.2328 36.8936 59.5706 36.9777 59.7676 36.8095C59.9646 36.6413 59.9083 36.3331 59.9083 36.1088C59.9083 35.7725 59.9083 35.4642 59.9083 35.1279C59.8801 33.7547 59.7957 32.3814 59.8239 31.0081C59.8239 30.6718 59.2891 30.6718 59.2891 31.0081C59.2891 32.0731 59.3172 33.1381 59.3454 34.2031C59.3735 34.7356 59.3735 35.2961 59.3735 35.8286C59.3735 35.9687 59.3735 36.0808 59.3735 36.2209C59.3735 36.249 59.3454 36.4452 59.3735 36.3891C59.4017 36.3611 59.3172 36.3891 59.2891 36.3611C59.0639 36.3331 58.7825 36.3331 58.5573 36.3331C57.713 36.305 56.8686 36.3331 56.0524 36.3891C55.5458 36.4171 55.0674 36.4452 54.5608 36.5012C54.4201 36.5012 54.2793 36.5573 54.1667 36.4732C54.0823 36.3891 54.1105 36.1649 54.1105 36.0248C54.1105 35.7445 54.0823 35.4362 54.0823 35.156L53.9697 31.0642C53.9697 30.6718 53.4068 30.6718 53.435 31.0361Z" fill="#030140"/>
<path d="M58.9796 30.5037C57.2627 30.5597 55.5177 30.5597 53.8009 30.5037C53.4632 30.5037 53.4632 31.0362 53.8009 31.0362C55.5177 31.0922 57.2627 31.1202 58.9796 31.0362C59.3173 31.0362 59.3173 30.4756 58.9796 30.5037Z" fill="#030140"/>
<path d="M11.0487 32.1292C12.9626 32.1292 14.8764 32.0451 16.7621 31.905C16.6777 31.8209 16.5932 31.7368 16.4807 31.6247C16.734 33.5585 16.8184 35.5203 16.7058 37.4541C16.7058 37.5102 16.734 37.6223 16.6777 37.6783C16.6495 37.7063 16.3399 37.7063 16.2836 37.7063C16.0585 37.7344 15.8052 37.7344 15.58 37.7624C15.0734 37.7904 14.595 37.8184 14.0883 37.8465C13.1033 37.9025 12.1182 37.9025 11.105 37.9025L11.3583 38.0987C11.105 36.5853 11.0768 35.0439 11.2457 33.5305C11.2739 33.1942 10.7391 33.1942 10.711 33.5305C10.5421 35.0999 10.5984 36.6974 10.8517 38.2388C10.8798 38.3509 10.9924 38.435 11.105 38.435C12.2026 38.435 13.3003 38.435 14.3979 38.379C14.9327 38.3509 15.4674 38.3229 16.0022 38.2669C16.3399 38.2388 16.9591 38.2949 17.1561 37.9305C17.2406 37.7624 17.2124 37.5662 17.2406 37.398C17.2687 37.1178 17.2687 36.8375 17.2687 36.5573C17.2687 36.0248 17.2969 35.4923 17.2687 34.9598C17.2406 33.8388 17.1561 32.7457 17.0154 31.6247C16.9873 31.4846 16.9028 31.3445 16.734 31.3445C14.8201 31.4846 12.9344 31.5687 11.0206 31.5687C10.6828 31.5967 10.6828 32.1292 11.0487 32.1292Z" fill="#030140"/>
<path d="M53.5476 17.7239C55.4614 17.7239 57.3753 17.6398 59.261 17.4997C59.1765 17.4156 59.0921 17.3315 58.9795 17.2194C59.2328 19.1532 59.3173 21.115 59.2047 23.0488C59.2047 23.1048 59.2328 23.2169 59.1765 23.273C59.1484 23.301 58.8388 23.301 58.7825 23.301C58.5573 23.329 58.304 23.329 58.0789 23.3571C57.5723 23.3851 57.0938 23.4131 56.5872 23.4412C55.6021 23.4972 54.6171 23.4972 53.6038 23.4972C53.6883 23.5533 53.7727 23.6373 53.8571 23.6934C53.6038 22.18 53.5757 20.6386 53.7446 19.1252C53.7727 18.7888 53.238 18.7888 53.2098 19.1252C53.0409 20.6946 53.0972 22.2921 53.3505 23.8335C53.3787 23.9456 53.4913 24.0297 53.6038 24.0297C54.7015 24.0297 55.7991 24.0297 56.8968 23.9736C57.4315 23.9456 57.9663 23.9176 58.5011 23.8615C58.8388 23.8335 59.458 23.8896 59.655 23.5252C59.7394 23.3571 59.7113 23.1609 59.7394 22.9927C59.7676 22.7125 59.7676 22.4322 59.7676 22.152C59.7676 21.6195 59.7676 21.087 59.7676 20.5545C59.7394 19.4334 59.655 18.3404 59.5143 17.2194C59.4861 17.0793 59.4017 16.9391 59.2328 16.9391C57.319 17.0793 55.4333 17.1633 53.5194 17.1633C53.2098 17.1633 53.2098 17.7239 53.5476 17.7239Z" fill="#030140"/>
<path d="M58.4167 49.8135C56.9531 49.8135 55.4896 49.8135 54.0261 49.9256C54.1105 50.0097 54.1949 50.0938 54.3075 50.2059C54.0542 48.2721 53.9698 46.3103 54.0824 44.3765C54.0824 44.3205 54.0542 44.2084 54.1105 44.1523C54.1387 44.1243 54.4482 44.1243 54.5045 44.1243C54.7297 44.0962 54.983 44.0962 55.2082 44.0682C55.7148 44.0402 56.1932 44.0122 56.6998 43.9841C57.6849 43.9281 58.67 43.9281 59.6832 43.9281L59.4299 43.7319C59.6832 45.2453 59.7113 46.7867 59.5425 48.3001C59.5143 48.6365 60.0491 48.6365 60.0772 48.3001C60.2461 46.7307 60.1898 45.1332 59.9365 43.5918C59.9084 43.4797 59.7958 43.3956 59.6832 43.3956C58.5855 43.3956 57.4879 43.3956 56.3902 43.4517C55.8555 43.4797 55.3207 43.5077 54.786 43.5638C54.4482 43.5918 53.8291 43.5357 53.6602 43.9001C53.5758 44.0682 53.6039 44.2644 53.5758 44.4326C53.5476 44.7128 53.5476 44.9931 53.5476 45.2733C53.5476 45.8058 53.5476 46.3383 53.5476 46.8708C53.5758 47.9919 53.6602 49.0849 53.8009 50.2059C53.8291 50.346 53.9135 50.4862 54.0824 50.4862C55.5459 50.3741 57.0094 50.3741 58.473 50.3741C58.7544 50.3741 58.7544 49.8135 58.4167 49.8135Z" fill="#030140"/>
<path d="M73.6992 22.6004C71.6165 22.8526 69.5056 22.9087 67.4229 22.7405C67.5073 22.8246 67.5917 22.9087 67.7043 23.0208C67.5355 21.0029 67.4792 18.957 67.5917 16.9111C67.5073 16.9952 67.4229 17.0793 67.3103 17.1914C69.3367 17.1914 71.3632 17.1914 73.3896 17.1914L73.1081 16.9111C73.1644 18.5927 73.1644 20.2742 73.1081 21.9558C73.1081 22.2921 73.6429 22.2921 73.6429 21.9558C73.6992 20.2742 73.6992 18.5927 73.6429 16.9111C73.6429 16.771 73.5303 16.6308 73.3614 16.6308C71.335 16.6308 69.3086 16.6308 67.2822 16.6308C67.1414 16.6308 67.0289 16.7429 67.0007 16.9111C66.8881 18.957 66.9444 20.9749 67.1133 23.0208C67.1133 23.1889 67.2259 23.273 67.3947 23.301C69.4775 23.4692 71.5883 23.4131 73.671 23.1609C74.0369 23.0768 74.0369 22.5443 73.6992 22.6004Z" fill="#030140"/>
<path d="M67.6201 30.5878C69.5339 30.5878 71.4478 30.5037 73.3335 30.3635L73.052 30.0833C73.3053 32.0171 73.3898 33.9789 73.2772 35.9127C73.2772 35.9687 73.3053 36.0808 73.249 36.1369C73.2209 36.1649 72.9113 36.1649 72.855 36.1649C72.6299 36.1929 72.3766 36.1929 72.1514 36.221C71.6448 36.249 71.1663 36.277 70.6597 36.305C69.6746 36.3611 68.6896 36.3611 67.6764 36.3611C67.7608 36.4171 67.8452 36.5012 67.9297 36.5573C67.6764 35.0439 67.6482 33.5024 67.8171 31.989C67.8452 31.6527 67.3105 31.6527 67.2823 31.989C67.1134 33.5585 67.1697 35.156 67.423 36.6974C67.4512 36.8095 67.5638 36.8936 67.6764 36.8936C68.774 36.8936 69.8717 36.8936 70.9693 36.8375C71.5041 36.8095 72.0388 36.7815 72.5736 36.7254C72.9113 36.6974 73.5305 36.7535 73.7275 36.3891C73.8119 36.221 73.7838 36.0248 73.8119 35.8566C73.8401 35.5764 73.8401 35.2961 73.8401 35.0158C73.8401 34.4834 73.8401 33.9509 73.8401 33.4184C73.8119 32.2973 73.7275 31.2043 73.5868 30.0833C73.5586 29.9432 73.4742 29.803 73.3053 29.803C71.3915 29.9432 69.5058 30.0272 67.5919 30.0272C67.2823 30.0272 67.2823 30.5878 67.6201 30.5878Z" fill="#030140"/>
</svg>
