<?xml version="1.0" encoding="utf-8"?>
<!-- Generator: Adobe Illustrator 25.3.1, SVG Export Plug-In . SVG Version: 6.00 Build 0)  -->
<svg version="1.1" id="Camada_1" xmlns="http://www.w3.org/2000/svg" xmlns:xlink="http://www.w3.org/1999/xlink" x="0px" y="0px"
	 viewBox="0 0 765.8 189.4" style="enable-background:new 0 0 765.8 189.4;" xml:space="preserve">
<style type="text/css">
	.st0{fill:#FFFFFF;}
</style>
<g>
	<path class="st0" d="M497.5,119.5c0,47.9-31.5,72.1-58,72.2c-17.3,0.2-31.1-7.9-37.3-16.4v14.1h-38.7V0h39.3v64
		c6.2-8.5,19.6-16.9,37-16.7C466.2,47.4,497.5,71.6,497.5,119.5 M573.9,47.3c-35.9,0-67.1,26-67.1,72.2c0,42.5,30.3,72.4,70.2,72.4
		c18.6,0,36.7-5.3,47.8-15.2l3.6-33.4c-13.1,9.6-30,14.1-46.9,14.1c-18.7,0-32-9.1-34.8-23h86.8c0.5-3.7,0.6-7.4,0.6-11.3
		C634,73.3,605.7,47.3,573.9,47.3 M401.6,119.7c0,22.3,11.9,36.3,28,36.3c17,0,27.8-13.8,27.8-36.3c0-22-10.8-36.3-27.8-36.3
		C413.5,83.3,401.6,98,401.6,119.7 M298.4,47.3c20.6,0,45.2,10.8,45.2,53.7v60.9c0,14.1,4.2,21,13.9,27.5h-41.3
		c-8.2-7.1-11.9-16.7-11.9-30.8v-53.2c0-15.2-6.8-22.6-17.6-22.6c-11.9,0-19.6,10.4-19.6,27.2v48.7c0,19,3.4,24.1,11.3,30.6h-41
		c-6.8-7-9.6-16.7-9.6-30.8v-53.2c0-15.2-6.8-22.6-17.6-22.6c-11.9,0-19.6,10.4-19.6,27.2v79.3h-39.3V49.7h37.5v13.8
		c5.4-7.3,15.2-16.4,34.5-16.4c16.2,0,28.6,8.3,35.4,20.3C265.2,58.6,277,47.3,298.4,47.3 M57.7,191.7c17.3,0,30.8-7.9,37-16.4v14.1
		H134V49.9H94.7V64c-6.2-8.5-19.6-16.7-37-16.7C31.3,47.5,0,71.6,0,119.5s31.5,72.1,58,72.2H57.7L57.7,191.7z M95.9,119.7
		c0,22.3-11.9,36.3-28,36.3c-17,0-27.8-13.8-27.8-36.3c0-22,10.8-36.3,27.8-36.3C84,83.3,95.9,98,95.9,119.7 M697.3,145.2h0.3
		l26.1-95.1h42.1l-46.5,139.3h-44.2L628.2,50.1h42.5L697.3,145.2z M571.2,80.4c14.2,0,22.7,11.3,23.8,25.2h-48.6
		C548.3,90.1,558.2,80.4,571.2,80.4"/>
</g>
</svg>
