<?xml version="1.0" encoding="utf-8"?>
<!-- Generator: Adobe Illustrator 25.3.1, SVG Export Plug-In . SVG Version: 6.00 Build 0)  -->
<svg version="1.1" id="Camada_1" xmlns="http://www.w3.org/2000/svg" xmlns:xlink="http://www.w3.org/1999/xlink" x="0px" y="0px"
	 viewBox="0 0 842 290.4" style="enable-background:new 0 0 842 290.4;" xml:space="preserve">
<style type="text/css">
	.st0{fill:#FFFFFF;}
	.st1{fill-rule:evenodd;clip-rule:evenodd;fill:#FFFFFF;}
</style>
<g>
	<g>
		<g>
			<g>
				<path class="st0" d="M631.3,288.3c-3.9-0.1-9.5-0.2-16.2-0.2c-7.1,0-12.4,0.1-16.3,0.2c0,0,0,0-0.1,0c-0.6,0-1.1-0.2-1.6-0.6
					c-0.4-0.5-0.7-1.1-0.7-1.7v-0.2c0-1.2,0.9-2.2,2-2.3c2.8-0.4,4.9-0.9,6.1-1.5c1.5-0.7,2.3-2.1,2.3-3.8v-71.7
					c0-1.7-0.7-3.1-2.3-3.8c-1.2-0.6-3.3-1.1-6-1.5c-1.1-0.1-2-1.1-2-2.3v-0.2c0-0.6,0.2-1.2,0.6-1.7c0.4-0.4,1-0.6,1.6-0.6l0,0
					c7.1,0.1,12.5,0.2,16.5,0.2c3.8,0,9.1-0.1,16.2-0.2l0,0c0.6,0,1.1,0.2,1.6,0.6c0.4,0.5,0.6,1,0.6,1.7v0.2c0,1.2-0.9,2.2-2,2.3
					c-2.8,0.4-4.8,0.9-6,1.5c-1.5,0.7-2.2,2.1-2.2,3.8v71.6c0,1.7,0.7,3.1,2.2,3.8c1.2,0.6,3.2,1.1,6,1.5c1.1,0.1,2,1.1,2,2.3v0.2
					c0,0.6-0.2,1.2-0.7,1.7C632.5,288.1,631.9,288.3,631.3,288.3L631.3,288.3z"/>
				<path class="st0" d="M705.7,288.4c-0.7,0-1.5-0.4-1.8-1l-48.4-75.9v66.6c0,1.7,1.1,3.1,3.4,3.8c2,0.6,4.9,1.1,8.8,1.5
					c1.1,0.1,2,1.1,2,2.3v0.1c0,0.6-0.2,1.2-0.7,1.7c-0.4,0.4-1,0.6-1.6,0.6c0,0,0,0-0.1,0c-3.7-0.1-8.5-0.2-14.6-0.2
					c-6,0-8.5,0-11.9,0.2c0,0,0,0-0.1,0c-0.6,0-1.1-0.2-1.6-0.6c-0.5-0.5-0.6-1.1-0.6-1.7v-0.2c0-1.2,0.9-2.2,2-2.3
					c3.6-0.4,4.3-0.9,6.1-1.6c2.2-0.7,3.3-2.1,3.3-3.7v-70.4c0-1.8-1-3.4-3.1-4.5c-1.7-1-3.9-1.6-6.9-2c-1.1-0.1-2-1.1-2-2.3v-0.2
					c0-0.6,0.2-1.2,0.6-1.7c0.4-0.4,1-0.6,1.6-0.6c0,0,0,0,0.1,0c5,0.1,8.7,0.2,11.3,0.2c2.8,0,7-0.1,12.5-0.2c0,0,0,0,0.1,0
					c0.7,0,1.5,0.4,1.8,1l37.8,59.9v-50.8c0-1.7-1.1-3.1-3.3-3.8c-2-0.6-4.9-1.1-8.8-1.5c-1.1-0.1-2-1.1-2-2.3v-0.2
					c0-0.6,0.2-1.2,0.6-1.7c0.4-0.4,1-0.6,1.6-0.6l0,0c6.5,0.1,11.3,0.2,14.7,0.2s8-0.1,14-0.2c0,0,0,0,0.1,0c0.6,0,1.1,0.2,1.6,0.6
					c0.4,0.5,0.6,1,0.6,1.7v0.2c0,1.2-0.9,2.2-2,2.3c-3.6,0.4-6.4,0.9-8.2,1.6c-2.2,0.7-3.3,2.1-3.3,3.7v79.7c0,1.2-1,2.3-2.2,2.3
					h-1.6l0,0H705.7z"/>
				<path class="st0" d="M556.4,288.2c-0.6,0-1.1-0.2-1.6-0.6c-0.4-0.5-0.6-1.1-0.6-1.7v-0.2c0-1.2,0.9-2.2,2-2.3
					c2.8-0.4,4.9-0.9,6.1-1.5c1.6-0.9,2.2-2.9,2.2-21.1V214l-0.6-0.1l-23,70.2c-0.2,0.9-1.1,1.5-2,1.6h-0.1c-0.9,0-1.7-0.5-2.1-1.4
					l-29.6-70.7l-0.7,0.1v47c0,19,1.1,20.3,3.4,21c2,0.6,4.9,1.1,8.8,1.6c1.1,0.1,2,1.1,2,2.3v0.2c0,0.6-0.2,1.2-0.6,1.7
					c-0.4,0.4-1,0.6-1.6,0.6c0,0,0,0-0.1,0c-3.8-0.1-8.8-0.2-15-0.2c-5.9,0-10.8,0.1-14.5,0.2c0,0,0,0-0.1,0c-0.6,0-1.1-0.2-1.6-0.6
					c-0.5-0.5-0.7-1.1-0.7-1.7v-0.2c0-1.2,0.9-2.2,2-2.3c3.8-0.4,6.8-0.9,8.6-1.6c2.2-0.7,3.3-2.1,3.3-3.8v-70c0-1.8-1-3.4-3.1-4.7
					c-1.7-1-4.1-1.7-7-2.1c-1.1-0.1-2-1.1-2-2.3v-0.2c0-0.6,0.2-1.2,0.6-1.7c0.4-0.4,1-0.6,1.6-0.6l0,0c5,0.1,9.1,0.2,11.8,0.2
					c3.1,0,7.2-0.1,12.5-0.2c0,0,0,0,0.1,0c0.9,0,1.7,0.6,2.1,1.5l25.7,62.8l20.3-62.5c0.2-1,1.1-1.6,2.1-1.6l0,0
					c5.4,0.1,9.5,0.2,12.3,0.2s6.8-0.1,11.7-0.2c0,0,0,0,0.1,0c0.6,0,1.1,0.2,1.6,0.6c0.5,0.5,0.7,1.1,0.7,1.7v0.1
					c0,1.2-0.9,2.2-2,2.3c-2.8,0.4-4.9,0.9-6.1,1.5c-1.5,0.7-2.2,2.1-2.2,3.8V278c0,1.8,0.7,3.1,2.3,3.9c1.2,0.6,3.3,1.1,6.1,1.5
					c1.1,0.1,2,1.1,2,2.3v0.2c0,0.6-0.2,1.2-0.6,1.7c-0.4,0.4-1,0.6-1.6,0.6c0,0,0,0-0.1,0c-4.1-0.1-9.7-0.2-16.5-0.2
					C566.2,288,560.6,288,556.4,288.2L556.4,288.2z"/>
				<path class="st0" d="M816.3,288.4c-1.5,0-2.8,0-3.9-0.1l0,0c-7.6-0.1-23-0.1-30-0.1c-7.4,0-12.9,0.1-17.1,0.2c0,0,0,0-0.1,0
					c-0.6,0-1.1-0.2-1.6-0.6c-0.4-0.5-0.7-1-0.7-1.7v-0.2c0-1.2,0.9-2.2,2-2.3c2.5-0.2,4.2-0.7,5.3-1.2c1.4-0.6,2.1-1.6,2.1-3.1
					c0-1-0.2-2.2-0.9-3.8l-6.4-18.2h-28.9l-6,18.7c-0.1,1-0.2,1.6-0.2,2c0,1.8,1.1,3.3,3.2,4.1c1.8,0.7,4.4,1.2,7.7,1.5
					c1.1,0.1,2.1,1.1,2.1,2.3v0.1c0,0.6-0.2,1.2-0.7,1.7c-0.4,0.4-1,0.6-1.6,0.6c0,0,0,0-0.1,0c-3.3-0.1-8-0.2-14.1-0.2
					c-5.8,0-8.2,0.1-10.4,0.1h-0.1c-0.6,0-1.1-0.2-1.6-0.6c-0.5-0.5-0.7-1.1-0.7-1.7v-0.2c0-1.1,0.9-2.2,2-2.3
					c2.5-0.4,3.2-0.9,4.3-1.7c0.2-0.1,0.4-0.2,0.6-0.5c2.3-1.6,3.7-4.8,4.5-7.6l24.8-76.8c0.2-1,1.1-1.6,2.1-1.6h6.5
					c1,0,1.7,0.6,2.1,1.5l28.1,75.2l0.2,0.2l0.1,0.1c1,1.8,2.8,3.2,4.7,4.5c0.5,0.4,1,0.7,1.6,1.1c1.1,0.9,2.6,1.6,4.4,2.2
					c0.1,0,0.1,0,0.2,0.1c0.9,0.4,1.6,0.7,2.2,1c3.1,1.2,6.3,1.8,9.5,1.8c2,0,3.8-0.2,5.6-0.7c3.4-0.7,6.4-2.5,8.2-4.5
					c0.4-0.4,0.6-0.9,1-1.5c0,0,0-0.1,0.1-0.1c0.6-1,1.1-2,1.6-3.1c0.7-2.3,1-4.8,0.4-7.4c0-0.1,0-0.1,0-0.2
					c-0.4-3.9-2.3-6.6-4.4-8.8c-2.7-2.9-7-6-12.9-9.2c-6.9-3.6-12.3-7.6-16-11.9c-3.7-4.3-5.5-9.9-5.5-16.9c0-4.5,1-8.7,2.9-12.3
					c2-3.6,4.7-6.4,8.1-8.5s7.5-3.1,12-3.1c4.1,0,8.1,0.7,12,2.3c0,0,0,0,0.1,0c1.5,0.6,2.7,1,3.4,1s1.4-0.1,1.7-0.4
					c0.2-0.1,0.4-0.4,0.6-0.6c0.4-0.6,1.1-1.1,1.8-1.1h0.6c1.1,0,2.1,1,2.1,2.1l0.6,15.2c0,0.6-0.2,1.2-0.6,1.7
					c-0.4,0.4-1,0.6-1.5,0.6h-0.1h-0.1c-0.7-0.1-1.4-0.2-1.8-0.6l-0.1-0.1c-0.5-0.4-0.9-1-1.2-2v-0.1c-1.5-3.9-3.7-7.1-6.5-9.5
					c-2.8-2.3-6-3.4-9.3-3.4c-3.8,0-6.8,1.4-9,3.9c-2.2,2.6-3.3,5.8-3.3,9.5c0,4.2,1.2,7.6,3.4,10.2c2.3,2.6,6,5.3,11.2,8
					c5.4,2.8,9.8,5.3,12.8,7.4c3.1,2,5.9,4.9,8.5,8.7s3.9,8.6,3.9,14.2c0,5.4-1.2,10.2-3.7,14.1c-2.3,3.9-5,6.5-8.7,8.7
					c-4.5,2.7-9.6,3.2-11.8,3.3c-0.1,0-0.2,0-0.4,0H817h-0.2C816.5,288.4,816.4,288.4,816.3,288.4z M763.1,252l-13.3-37.7l-12,37.7
					H763.1z"/>
				<path class="st0" d="M355.5,289.2c-2.7,0-6.5-0.4-11.5-1.2c-5.3-0.9-9.1-1.2-11.8-1.2c-3.3,0-6.3,0.1-8.8,0.5
					c-2.1,0.2-4.7,0.7-8.1,1.4c-0.1,0-0.2,0-0.4,0c-0.5,0-1-0.2-1.5-0.5c-0.5-0.5-0.9-1.1-0.9-1.8V286c0-1.1,0.7-2,1.7-2.2
					c3.1-0.7,5.2-1.5,6.4-2.3c1.5-0.9,2.2-2.3,2.2-4.4v-69c0-2.5-0.7-4.2-2.1-5.4c-1.1-1-3.1-1.7-5.6-2.1c-1.1-0.1-2-1.1-2-2.3l0,0
					c0-0.6,0.2-1.2,0.7-1.7c0.4-0.4,1-0.6,1.6-0.6c0,0,0,0,0.1,0c4.5,0.1,7.9,0.2,9.7,0.2c5,0,8.6,0,10.9-0.1l11.3-0.1
					c14.7,0,26.5,3.8,35,11.4c8.5,7.5,12.8,19.4,12.8,35.4c0,11.1-2.1,20.1-6.3,27c-4.2,7-9.5,12-15.5,15.1
					C367.3,287.7,361.3,289.2,355.5,289.2z M339.7,277.3c0,2.5,1.1,4.2,3.3,5.2c2.3,0.9,5.4,1.4,9.6,1.4c8.5,0,14.5-3.7,18.4-11.1
					c3.8-7.4,5.8-17.6,5.8-30.5c0-12.6-2.3-22.7-7.1-30.2c-4.7-7.5-11.9-11.2-21.4-11.2c-3.3,0-6.1,0.1-8.6,0.2l0,0L339.7,277.3
					L339.7,277.3z"/>
				<path class="st0" d="M450.2,289.1c-13.9-0.1-23.7-0.2-29.7-0.2s-15.6,0.1-29,0.2l0,0c-0.6,0-1.1-0.2-1.6-0.7
					c-0.4-0.5-0.6-1-0.6-1.7v-0.6c0-1.2,0.9-2.2,2-2.3c2.8-0.4,4.9-0.9,6.1-1.5c1.5-0.7,2.2-2.1,2.2-3.8v-72.6
					c0-1.8-0.7-3.1-2.2-3.8c-1.2-0.6-3.2-1.1-6-1.4c-1.1-0.1-2-1.1-2-2.3v-0.3c0-1.4,1-2.3,2.2-2.3c58.6,0,58.6,0,58.6,0
					c1,0,1.8,0.7,2.1,1.7c0,0.2,0.1,0.5,0.1,0.9v0.1l1.6,14.4c0.1,0.6-0.1,1.4-0.5,1.8c-0.4,0.5-1,0.7-1.7,0.7h-1.1
					c-0.9,0-1.6-0.5-2-1.2l-1-2c-2.1-3.9-4.3-6.9-6.5-8.5c-2.2-1.7-5.2-2.5-8.7-2.5H418c-1.1,0-1.7,0.6-1.7,1.8v35.6h16.5
					c3.3,0,5.6-0.7,7-2.2c1.1-1.2,2-3.2,2.7-5.6c0.2-1,1.1-1.7,2.1-1.7h0.2c0.6,0,1.2,0.2,1.6,0.7c0.4,0.5,0.6,1.1,0.6,1.7
					c-0.2,4.4-0.4,7.7-0.4,10.1c0,2.2,0.1,5.4,0.4,9.8c0,0.6-0.1,1.2-0.6,1.7c-0.4,0.5-1,0.7-1.6,0.7h-0.2c-1,0-1.8-0.7-2.1-1.7
					c-0.7-2.6-1.6-4.4-2.7-5.6c-1.4-1.5-3.6-2.2-7-2.2h-16.5v37.6c0,1.2,0.6,1.8,1.7,1.8h11.8c4.8,0,8.4-0.6,10.9-2.1
					c2.5-1.4,4.5-3.8,6.1-7.1l3.9-8.6c0.4-0.9,1.1-1.4,2-1.4h0.9c0.7,0,1.4,0.4,1.7,1c0.4,0.6,0.6,1.4,0.4,2.1
					c-1.7,6.4-2.9,13-3.4,19.5C452.3,288.1,451.3,289.1,450.2,289.1L450.2,289.1z"/>
			</g>
			<g>
				<path class="st0" d="M644.1,168.5c-2,0-4.1-0.1-6-0.4c-8.4-0.9-17.4-3.2-27.8-10.8c-0.1,0-0.1-0.1-0.2-0.1l-51.2-37.8h-1
					l-4.8,0.7v35c0,2.3,1,3.9,2.9,4.9c1.6,0.7,4.5,1.4,8.6,1.8c1.6,0.1,2.9,1.5,2.9,3.1v0.2c0,0.9-0.4,1.6-1,2.2
					c-0.6,0.5-1.5,0.9-2.2,0.9h-0.1c-5.8-0.1-13.6-0.2-23.5-0.2s-17.8,0.1-23.7,0.2h-0.1c-0.9,0-1.6-0.4-2.2-0.9
					c-0.6-0.6-1-1.4-1-2.2v-0.2c0-1.6,1.2-2.8,2.9-3.1c4.1-0.4,7-1,8.7-1.8c2.1-1,3.1-2.6,3.1-4.9V63.7c0-2.8-1.1-5-3.1-6.6
					c-1.7-1.2-4.4-2.1-8-2.6c-1.6-0.2-2.8-1.5-2.8-2.9v-0.4c0-0.9,0.4-1.6,1-2.2s1.5-0.9,2.2-0.9h0.1c6.9,0.2,12,0.2,15.6,0.2
					l19.4-0.2c3.2-0.1,7.5-0.2,12.6-0.2c20.1,0,34.5,2.9,42.6,8.8c8.2,5.9,12.3,13.8,12.3,23.9c0,15.6-12.6,26.6-38.7,33.6
					l45.2,30.3c8,5.2,15.2,8.5,22,10.8c4.5,1.6,8.6,2.3,12,2.3h0.6c1,0,1.8,0.4,2.6,1.1c0.6,0.7,0.9,1.7,0.6,2.6l-0.2,1.2
					c-0.2,1.1-1.1,1.8-2.2,2.2C656.5,167,649.9,168.5,644.1,168.5z M553.1,113.3l4.8-0.7c14.1-2.2,23.8-5.9,29.8-11.2
					c5.9-5.3,8.8-12.4,8.8-21.1c0-7.6-2.3-13.8-6.9-18.4c-4.5-4.7-11.4-7-20.4-7c-8.4,0-13.9,0.1-16.2,0.2l0,0L553.1,113.3
					L553.1,113.3z"/>
				<path class="st0" d="M742.2,49.1c-0.6-0.6-1.5-0.9-2.3-0.9h-0.1c-8.6,0.2-15.6,0.2-20.5,0.2s-12.2-0.1-21.6-0.4h-0.1
					c-0.9,0-1.7,0.4-2.3,0.9c-0.6,0.6-1,1.4-1,2.2v0.2c0,1.6,1.2,2.8,2.9,3.1c5.8,0.5,10.1,1.1,12.9,2c3.2,1,4.9,2.6,4.9,4.9v66.2
					l-55.4-78.1c-0.6-0.9-1.6-1.4-2.7-1.4h-0.1c-8,0.2-14.1,0.4-18.3,0.4c-3.8,0-9.5-0.1-16.6-0.2h-0.1c-0.9,0-1.7,0.4-2.3,0.9
					c-0.6,0.6-1,1.4-1,2.2v0.4c0,1.5,1.2,2.8,2.8,3.1c4.2,0.5,7.5,1.4,10.1,2.6c3.1,1.6,4.5,3.6,4.5,6v82.3c2.3,1.1,4.5,2.3,6.9,3.3
					c0.4,0,0.9,0.1,1.2,0.2V68.5l71.1,98.7c0.6,0.9,1.6,1.4,2.7,1.4h2.3c1.8,0,3.3-1.4,3.3-3.1V61.8c0-2.2,1.6-3.8,4.8-4.8
					c2.7-0.9,6.8-1.6,12-2.1c1.7-0.1,2.9-1.5,2.9-3.1v-0.4C743.2,50.5,742.8,49.6,742.2,49.1z"/>
				<path class="st0" d="M315.8,168.3c-0.9,0-1.6-0.2-2.2-0.9c-0.6-0.6-1-1.4-1-2.2V165c0-1.6,1.2-2.8,2.9-3.1c4.1-0.4,7-1,8.7-1.8
					c2.1-1,3.1-2.6,3.1-4.9V61.1c0-2.3-1-3.9-3.1-4.9c-1.7-0.7-4.7-1.4-8.7-1.8c-1.7-0.1-2.9-1.5-2.9-3.1v-0.4
					c0-1.7,1.5-3.1,3.3-3.1c92.6,0,92.6,0,92.7,0c1.5,0.1,2.6,1,2.9,2.3c0.1,0.2,0.1,0.7,0.2,1.2l2.5,18.4c0.1,0.9-0.1,1.7-0.7,2.3
					c-0.6,0.6-1.5,1-2.5,1h-1.6c-1.2,0-2.3-0.6-2.9-1.6l-1.4-2.5c-3.1-5.2-6.1-8.8-9.2-10.9s-7.4-3.2-12.8-3.2h-28.7
					c-1.6,0-2.5,0.9-2.5,2.3V100h26.5c4.9,0,8.2-1,10.1-2.9c1.6-1.6,2.8-4.1,3.8-7.2c0.4-1.4,1.7-2.2,3.1-2.2h0.2
					c0.9,0,1.7,0.4,2.3,1c0.6,0.6,1,1.5,0.9,2.3c-0.4,5.5-0.6,9.9-0.6,12.8c0,2.8,0.2,7.1,0.6,12.6c0,0.9-0.2,1.7-0.9,2.2
					c-0.6,0.6-1.5,1-2.3,1h-0.2c-1.5,0-2.7-0.9-3.1-2.2c-1-3.2-2.3-5.6-3.8-7.2c-1.8-2-5.2-2.9-10.1-2.9h-26.5v47.8
					c0,2.3,1,3.9,3.1,4.9c1.6,0.7,4.5,1.4,8.6,1.8c1.6,0.1,2.9,1.5,2.9,3.1v0.2c0,0.9-0.4,1.6-1,2.2c-0.6,0.5-1.5,0.9-2.2,0.9h-0.1
					c-5.9-0.1-13.8-0.2-23.5-0.2C329.8,168.1,321.9,168.1,315.8,168.3C316,168.3,315.8,168.3,315.8,168.3z"/>
				<path class="st0" d="M515,138.4c-4.7,9.2-11.3,16.5-19.6,21.7c-8.4,5.3-17.9,8-28.5,8c-10.9,0-20.6-2.6-29.2-7.7
					c-8.6-5.2-15.4-12.3-20.1-21.5c-4.8-9.2-7.1-19.6-7.1-31.3c0-11.2,2.3-21.4,7.1-30.5s11.3-16.2,19.8-21.4
					c8.5-5.2,18.2-7.7,29-7.7s20.4,2.6,29,7.7c8.5,5.2,15.1,12.3,19.9,21.4c4.7,9.1,7.1,19.2,7.1,30.3
					C522.1,118.9,519.7,129.2,515,138.4z M489.9,149.7c5.3-7.9,7.9-20.1,7.9-37c0-11.1-1.5-21-4.3-30c-2.9-8.8-7-15.8-12.2-20.8
					c-5.3-5-11.3-7.5-18.2-7.5c-8.1,0-14.9,3.9-20.1,11.7c-5.3,7.9-8,19.9-8,36.1c0,11.2,1.5,21.2,4.4,30.3c2.9,9,7,16.1,12.2,21.1
					c5.2,5.2,11.2,7.6,17.8,7.6C477.7,161.5,484.6,157.5,489.9,149.7z"/>
				<path class="st0" d="M834.6,138.4c-4.7,9.2-11.3,16.5-19.6,21.7c-8.4,5.3-17.9,8-28.5,8c-10.9,0-20.6-2.6-29.2-7.7
					c-8.6-5.2-15.4-12.3-20.1-21.5c-4.8-9.2-7.1-19.6-7.1-31.3c0-11.2,2.3-21.4,7.1-30.5s11.3-16.2,19.8-21.4
					c8.5-5.2,18.2-7.7,29-7.7s20.4,2.6,29,7.7c8.5,5.2,15.1,12.3,19.9,21.4c4.7,9.1,7.1,19.2,7.1,30.3
					C841.7,118.9,839.3,129.2,834.6,138.4z M809.4,149.7c5.3-7.9,7.9-20.1,7.9-37c0-11.1-1.5-21-4.3-30c-2.9-8.8-7-15.8-12.2-20.8
					c-5.3-5-11.3-7.5-18.2-7.5c-8.1,0-14.9,3.9-20.1,11.7c-5.3,7.9-8,19.9-8,36.1c0,11.2,1.5,21.2,4.4,30.3c2.9,9,7,16.1,12.2,21.1
					c5.2,5.2,11.2,7.6,17.8,7.6C797.3,161.5,804.1,157.5,809.4,149.7z"/>
			</g>
		</g>
		<path class="st1" d="M834.3,182.7c-0.4-1.6-1-2.6-2.1-2.9v-0.1c1.4-0.4,2.5-1.4,2.5-2.8c0-1.1-0.5-2.1-1.2-2.6
			c-0.9-0.6-1.8-1-4.1-1c-2,0-3.4,0.2-4.5,0.4v11.9h2.8v-4.7h1.4c1.5,0,2.2,0.6,2.5,1.8c0.4,1.5,0.6,2.5,1,2.9h2.9
			C835,185.2,834.7,184.6,834.3,182.7 M828.9,178.9h-1.4v-3.4c0.2-0.1,0.9-0.1,1.6-0.1c1.7,0,2.6,0.7,2.6,1.8
			C831.7,178.4,830.5,178.9,828.9,178.9 M829.5,167.5L829.5,167.5c-6.9,0-12.4,5.3-12.4,11.9c0,6.8,5.5,12,12.3,12
			c6.9,0,12.3-5.3,12.3-12C841.7,172.8,836.3,167.5,829.5,167.5 M829.5,189c-5.3,0-9.3-4.2-9.3-9.6c0-5.3,4.1-9.6,9.2-9.6h0.1
			c5.3,0,9.2,4.3,9.2,9.6C838.6,184.7,834.7,189,829.5,189"/>
	</g>
	<g>
		<path class="st0" d="M32,237.7c-10.2,0.6-20.8,1.2-31.7,2c0-11.3-0.1-23.6-0.1-35.4c7.1-0.9,17.2-2.1,29.8-3.2v0.1
			c0.1,0,0.1,0,0.1,0c3.2-0.2,5.8,2,6,5.2l0.1,25.2l0,0c0,0.1,0,0.1,0,0.1C36.5,234.7,34.6,237,32,237.7z"/>
		<path class="st0" d="M171.3,77.5L171.3,77.5c0.2,0,0.4,0,0.6,0c3.3,0.1,5.4-1.8,5-4.5c-2.3-13-5.3-23.5-7.2-29.6h-0.1v-0.1
			c0-0.2-0.1-0.6-0.2-0.9c0-0.1-0.1-0.2-0.1-0.4c-1.1-2.8-3.9-4.8-6.9-4.8c0,0-0.1,0-0.2,0v-0.1c-13.1-0.1-25.7,0.2-37.6,0.9v0.1
			c-0.1,0-0.1,0-0.2,0c-2.9,0-5.6,2.1-6.9,4.8c-0.1,0.5-0.2,1-0.4,1.5c0,0,0,0,0,0.1l0,0c-2,6.5-4.7,16.7-6.6,27.3l0,0
			c0,0.1,0,0.1-0.1,0.2c-0.9,2.8,0.9,5,4.1,5.4C135.3,76.5,154.2,76.6,171.3,77.5z"/>
		<path class="st0" d="M131.4,234.2c2.7-0.6,4.8-2.9,4.9-5.9l-0.1-26.4c-0.4-3.1-2.9-5.4-6-5.4h-0.1v-0.1
			c-26.5,0.2-50.1,1.2-70.1,2.5v0.2h-0.2c-3.3,0.2-6,3.1-6,6.5c0,0.1,0,0.1,0,0.2l0,0L53.7,230h0.1c0,0.1,0,0.1,0,0.2
			c0,3.4,2.6,6.1,6,6.1c0.1,0,0.1,0,0.1,0l0,0C86.7,235,110.4,234.4,131.4,234.2z"/>
		<path class="st0" d="M238.2,205.6c-0.2-3.2-2.8-5.8-6-5.9c-0.1,0-0.1,0-0.1,0v-0.2c-26.3-1.8-51.2-2.7-74.3-2.9
			c-2.9,0.2-5.3,2.7-5.3,5.9c0,0.1,0,0.1,0,0.2l0,0l0.1,25.3l0,0c0,0.1,0,0.1,0,0.2c-0.1,3.2,2.3,5.8,5.4,6
			c32.1,0.2,56.6,1.6,75.3,3.4c2.9-0.5,5.2-2.9,5.2-6v-0.1l0,0L238.2,205.6z"/>
		<path class="st0" d="M246.6,206.9c0,0.1,0,0.1,0,0.2h-0.1l0.1,26.5h0.1c0,0.1,0,0.1,0,0.2c0,2.7,1.8,5,4.3,5.9
			c22.3,3.2,32.8,7,37.5,9.2c-0.1-13.6-0.1-29.3-0.2-44.5c-12.4-1.4-24.4-2.5-36.3-3.6C248.8,201.3,246.6,203.7,246.6,206.9z"/>
		<path class="st0" d="M83.9,182.1l-0.1-31.7c-0.4-2.8-2.6-4.9-5.4-5c-37,2.6-63.2,5.9-78.3,8.4c0,9.6,0.1,23.7,0.1,39.2
			c29.7-3.1,54.2-4.5,78.7-5.8C81.5,186.8,83.5,184.7,83.9,182.1z"/>
		<path class="st0" d="M210,143.7L210,143.7c-0.1,0-0.1,0-0.2,0c-3.3-0.1-6,2.5-5.8,5.8v0.1l0,0l0.1,33.6c0.5,2.3,2.3,4.1,4.7,4.7
			c45.7,4.2,70.2,11.8,79.5,15.2c-0.1-21-0.2-40.4-0.2-51.1C261.4,147.8,235.3,145.3,210,143.7z"/>
		<path class="st0" d="M88,277.9L88,277.9V270v-10.2v-0.4c0-0.2,0-0.5-0.1-0.9v-6.4c-0.4-3.1-2.9-5.5-6-5.5c-0.1,0-0.1,0-0.1,0v-0.2
			c-0.7,0-1.6,0-2.3,0.1c-0.1,0-0.1,0-0.1,0c-1,0-2,0.1-3.1,0.1c-0.6,0-1.2,0-2,0.1c-1.8,0.1-3.6,0.1-5.3,0.2c-0.4,0-0.6,0-1,0
			c-2.1,0.1-4.1,0.1-6,0.2c-0.5,0-1,0-1.5,0.1c-1.5,0.1-2.9,0.1-4.4,0.2c-0.6,0-1.2,0.1-1.8,0.1c-1.4,0.1-2.7,0.1-3.9,0.2
			c-0.6,0-1.1,0.1-1.7,0.1c-1.4,0.1-2.7,0.1-4.1,0.2c-0.5,0-1,0-1.4,0.1c-1.6,0.1-3.3,0.1-4.8,0.2c-0.1,0-0.2,0-0.2,0
			c-1.7,0.1-3.4,0.2-5.2,0.2c-0.1,0-0.4,0-0.5,0c-1.5,0.1-2.8,0.1-4.2,0.2c-0.4,0-0.6,0-1,0.1c-1.2,0.1-2.5,0.1-3.6,0.2
			c-0.4,0-0.6,0-1,0.1c-1.2,0.1-2.5,0.1-3.7,0.2c-0.2,0-0.4,0-0.6,0c-2.8,0.2-5.4,0.4-7.9,0.6c-0.1,0-0.2,0-0.4,0
			c-0.6,0-1.2,0.1-1.8,0.1l0,0c-2.9,0.2-5.5,0.4-7.9,0.6c0,2.7,0,5.2,0,7.4v0.1c0,0.1,0,0.1,0,0.1c0,0.2-0.1,0.4-0.1,0.6v0.4v14.9
			v5.5c0,4.7,3.7,8.4,8.2,8.5c0,0,70.9,1.8,71,1.8l0,0l2.7,0.1c3.2,0,5.8-2.6,5.8-5.8v-6.1l0,0v-1h0V277.9z"/>
		<path class="st0" d="M104.3,284.9c0,3.2,2.6,5.8,5.8,5.8h69.3c3.2,0,5.8-2.6,5.8-5.8l-0.1-32.9l0,0c0-0.1,0-0.1,0-0.2
			c0-3.3-2.7-6-5.9-6.1c-0.1,0-0.2,0-0.4,0l0,0l0,0c-24.2-0.4-47-0.1-68,0.2l0,0c-0.1,0-0.1,0-0.2,0c-3.1,0-5.6,2.5-6,5.4
			L104.3,284.9z"/>
		<path class="st0" d="M288.6,273c0,0-0.1-19.6-0.1-22.5c-2.5-0.2-4.9-0.4-7.4-0.5c-0.1,0-0.2,0-0.4-0.1c-3.8-0.2-7.7-0.6-11.7-0.9
			c-0.9-0.1-1.7-0.1-2.7-0.1c-5.8-0.4-11.5-0.7-17.3-1c-0.9,0-1.7-0.1-2.6-0.1c-6.1-0.4-12.4-0.6-18.7-0.9c-0.5,0-1.1,0-1.6-0.1
			c-5.4-0.2-10.8-0.4-16.3-0.6c-0.1,0-0.1,0-0.2,0l0,0c-0.7,0-1.4,0-2.1-0.1l0,0c-0.1,0-0.1,0-0.2,0c-3.2,0-5.9,2.6-6.1,5.8v2.8l0,0
			v13.8v16.1c0,3.2,2.6,5.8,5.6,5.8l2.7-0.1l0,0c0.1,0,70.7-1.8,70.7-1.8c4.5-0.1,8.2-3.9,8.2-8.6v-6.8
			C288.5,273.1,288.6,273,288.6,273z"/>
		<path class="st0" d="M107.1,88.3c-14.5,0.9-28,2-40.4,3.2v0.1c-0.1,0-0.1,0-0.2,0c-3.3,0-6.4,2.8-6.8,6.1v0.1h-0.1
			c-1.5,7-3.7,17.9-5.2,28.9c0.1,3.3,2.7,6.3,6,6.6c8.1-0.9,16.1-1.5,23.7-2.1C85.3,113.9,94.1,98.5,107.1,88.3z"/>
		<path class="st0" d="M236,130.8c0-0.1,0-0.1,0-0.2l0,0c-1.4-15.5-3.7-27.4-5.3-34.8l0,0c0-0.1,0-0.1,0-0.1
			c-0.1-0.6-0.2-1.2-0.4-1.7c-0.7-2.1-2.6-3.8-4.8-4.3c-15.5-1.4-30.7-2.1-45.3-2.5c14.1,10.4,23.5,26.8,24.4,45.4
			c10.1,1.1,19.2,2.3,27.4,3.8c2.6-0.2,4.2-1.8,4.3-4.3C236,131.6,236,131.3,236,130.8z"/>
		<g>
			<path class="st0" d="M151.5,0l0.1,21.6c0.2,3.2,2.8,5.6,6,5.6l0,0h0.1l0,0c42.9,2,73.8,10.2,89,15.2
				C222.3,17.7,188.7,1.8,151.5,0z"/>
			<path class="st0" d="M280.1,95.5c-6.8-19-17.6-36.2-31.2-50.7c-19.4-3.6-38.8-5.6-57.6-6.9l0,0c-0.1,0-0.1,0-0.2,0
				c-3.3,0-5.2,2.8-4.1,6.1c0,0.1,0,0.1,0,0.1h-0.1c2.1,7.2,4.5,17.1,6.5,29l0,0c0,0,0,0,0,0.1c0.1,0.6,0.2,1.4,0.4,2.1
				c0.6,2.1,2.3,3.6,4.4,4.1c0.5,0,1,0.1,1.5,0.1l0,0l0,0C241.4,83.7,269.7,92,280.1,95.5z"/>
			<path class="st0" d="M249,139.7c0.5,0.1,1.1,0.2,1.6,0.4c0.2,0,0.5,0.1,0.7,0.1c0.1,0,0.1,0,0.1,0v0.1
				c19.4,4.4,31.4,8.8,36.5,11.1c0-3.8,0-6.4,0-7.4c0-4.9,0-10.2-0.2-15.8c-1.2-11.2-3.7-21.9-7.4-32.1c-11.2-1.7-24.6-3.3-35.4-4.4
				v0.1c-0.1,0-0.1,0-0.2,0c-3.3,0-5.8,2.8-5.3,6.1V98h-0.1c1.7,8.4,3.8,20.5,4.9,35.9h0.1c0,0.1,0,0.1,0,0.2
				C244.7,136.7,246.7,138.9,249,139.7z"/>
			<path class="st0" d="M128.9,27L128.9,27c0.1,0,0.1,0,0.2,0l0,0c3.3,0,6-2.8,6-6.1v-0.1l0,0L135,0.2
				c-33.3,2.1-63.5,15.5-86.9,36.3C77.7,30.3,104.7,27.5,128.9,27z"/>
			<path class="st0" d="M93.2,74.8c0.1-0.7,0.2-1.5,0.4-2.2v-0.1l0,0c1.6-9.5,3.9-18.8,5.9-26c0-3.4-2.7-6.1-6.1-6.1h-0.1l0,0
				c-26,2.6-46.3,6.1-57.1,8.4C26,60.3,17.5,73.6,11.4,88.1c27-4.3,54.6-7.6,77.5-9.2C90.9,78.2,92.5,76.7,93.2,74.8z"/>
			<path class="st0" d="M42.1,101.3c0-3.3-2.6-6-5.9-6.1c-9.9,1.4-21.5,3.2-29.3,4.5C2.6,113,0.3,127,0,141.6
				c11.4-1.8,22.5-3.6,33.3-4.9c2.1-0.6,3.7-2.3,4.2-4.5c0-0.4,0.1-0.7,0.1-1c0-0.1,0-0.1,0-0.2v-0.1l0,0
				c1.1-10.3,2.9-20.9,4.7-29.1l0,0C42.1,101.4,42.1,101.3,42.1,101.3z"/>
		</g>
	</g>
</g>
</svg>
