<svg width="385" height="124" viewBox="0 0 385 124" fill="none" xmlns="http://www.w3.org/2000/svg">
<g clip-path="url(#clip0_9_1823)">
<path d="M111.301 102.5V46.9004C111.301 46.6004 111.501 46.4004 111.801 46.4004H122.501C122.801 46.4004 123.001 46.7004 123.001 46.9004V67.0004H123.201C126.001 63.4004 130.301 61.8004 135.001 61.8004C143.401 61.8004 146.101 67.3004 146.101 74.6004V102.6C146.101 102.8 145.901 103.1 145.601 103.1H134.901C134.601 103.1 134.401 102.9 134.401 102.6V75.6004C134.401 72.4004 131.101 71.5004 129.001 71.5004C126.901 71.5004 123.001 72.9004 123.001 76.8004V102.5C123.001 102.7 122.801 103 122.501 103H111.801C111.601 103 111.301 102.8 111.301 102.5ZM196.601 91.5004V72.4004H191.701C191.401 72.4004 191.201 72.2004 191.201 71.9004V65.0004C191.201 64.8004 191.401 64.6004 191.501 64.5004C191.701 64.4004 198.001 62.6004 198.001 62.6004C198.001 62.6004 201.401 51.8004 201.501 51.6004C201.601 51.4004 201.701 51.3004 202.001 51.3004H207.801C208.101 51.3004 208.301 51.5004 208.301 51.8004V62.6004H216.901C217.101 62.6004 217.401 62.8004 217.401 63.1004V71.9004C217.401 72.2004 217.101 72.4004 216.901 72.4004H208.301V90.4004C208.301 92.3004 209.401 93.4004 211.901 93.4004H216.901C217.201 93.4004 217.401 93.7004 217.401 93.9004V101.6C217.401 101.9 217.201 102 217.101 102.1C214.101 103.2 212.401 103.9 208.901 103.9C200.201 103.8 196.601 98.7004 196.601 91.5004ZM364.001 91.5004V72.4004H359.101C358.801 72.4004 358.601 72.2004 358.601 71.9004V65.0004C358.601 64.8004 358.801 64.6004 358.901 64.5004C359.101 64.4004 365.401 62.6004 365.401 62.6004C365.401 62.6004 368.801 51.8004 368.901 51.6004C369.001 51.4004 369.101 51.3004 369.401 51.3004H375.201C375.501 51.3004 375.701 51.5004 375.701 51.8004V62.6004H384.301C384.501 62.6004 384.801 62.8004 384.801 63.1004V71.9004C384.801 72.2004 384.501 72.4004 384.301 72.4004H375.701V90.4004C375.701 92.3004 376.801 93.4004 379.301 93.4004H384.301C384.601 93.4004 384.801 93.7004 384.801 93.9004V101.6C384.801 101.9 384.601 102 384.501 102.1C381.501 103.2 379.801 103.9 376.301 103.9C367.501 103.8 364.001 98.7004 364.001 91.5004V91.5004ZM224.501 102.5V63.0004C224.501 62.7004 224.701 62.5004 225.001 62.5004H234.701C234.901 62.5004 235.101 62.7004 235.201 62.9004C235.201 63.1004 236.301 66.9004 236.301 66.9004H236.501C239.301 63.3004 243.501 61.7004 248.201 61.7004C253.901 61.7004 256.701 64.3004 258.301 68.3004H258.601C261.501 63.4004 266.601 61.7004 271.301 61.7004C279.701 61.7004 282.401 67.2004 282.401 74.5004V102.5C282.401 102.8 282.201 103 281.901 103H271.201C270.901 103 270.701 102.7 270.701 102.5V75.7004C270.701 72.5004 267.701 71.3004 265.601 71.3004C263.201 71.3004 259.501 72.8004 259.401 76.4004V102.4C259.401 102.6 259.201 102.9 258.901 102.9H248.101C247.801 102.9 247.601 102.7 247.601 102.4V75.6004C247.601 72.4004 244.401 71.2004 242.101 71.2004C240.001 71.2004 236.301 72.8004 236.301 76.8004V102.4C236.301 102.7 236.101 102.9 235.801 102.9H225.101C224.701 103 224.501 102.7 224.501 102.5V102.5ZM289.401 71.5004V64.2004C289.401 63.9004 289.601 63.7004 289.801 63.7004C295.401 62.6004 300.501 61.8004 305.401 61.8004C315.801 61.8004 321.801 64.3004 321.801 75.5004V102.6C321.801 102.9 321.601 103.1 321.301 103.1H311.101C310.801 103.1 310.701 102.9 310.601 102.7C310.501 102.5 309.501 98.7004 309.501 98.7004H310.001C307.101 102.7 303.201 103.9 298.501 103.9C290.901 103.9 286.801 98.0004 286.801 91.0004C286.801 80.5004 294.501 78.4004 300.201 78.4004H310.101V75.7004C310.101 72.4004 307.601 71.7004 298.201 71.7004C294.201 71.7004 290.001 72.0004 289.801 72.0004C289.701 72.0004 289.401 71.7004 289.401 71.5004V71.5004ZM310.201 85.5004H303.801C300.401 85.5004 298.201 86.8004 298.201 90.4004C298.201 94.3004 301.001 95.2004 303.701 95.2004C306.201 95.2004 310.201 93.7004 310.201 88.7004V85.5004ZM328.701 102.5V63.0004C328.701 62.7004 328.901 62.5004 329.201 62.5004H338.801C339.101 62.5004 339.301 62.7004 339.301 62.9004C339.301 63.1004 340.401 69.0004 340.401 69.0004H340.601C343.201 63.7004 348.501 61.8004 353.101 61.6004C353.401 61.6004 353.601 61.8004 353.601 62.1004V73.1004C353.601 73.4004 353.301 73.6004 353.101 73.6004H350.401C343.001 73.6004 340.501 76.5004 340.501 80.2004V102.4C340.501 102.7 340.201 102.9 340.001 102.9H329.301C329.001 103 328.701 102.8 328.701 102.5V102.5ZM151.101 82.8004C151.101 69.9004 156.101 61.8004 170.401 61.8004C184.701 61.8004 189.801 70.0004 189.801 82.8004C189.801 95.7004 184.801 103.8 170.401 103.8C156.101 103.8 151.101 95.7004 151.101 82.8004ZM163.701 82.8004C163.701 89.8004 164.701 94.0004 170.301 94.0004C176.001 94.0004 177.001 89.7004 177.001 82.8004C177.001 75.8004 176.001 71.6004 170.301 71.6004C164.801 71.6004 163.701 75.8004 163.701 82.8004Z" fill="white"/>
<path d="M89.3996 78.7997C89.9996 67.7997 86.1995 49.7997 76.9995 34.9997C76.7995 34.5997 76.2996 34.7997 76.3996 35.1997C76.9996 37.3997 77.1995 41.4997 73.5995 41.2997C67.2995 40.8997 73.7996 27.2997 59.8996 17.9997C59.5996 17.7997 59.2996 18.0997 59.3996 18.3997C60.3996 20.1997 60.8996 25.8997 58.6996 27.7997C56.8996 29.2997 53.6995 28.8997 50.5995 23.7997C45.3995 15.2997 47.3996 6.2997 50.8996 0.599702C51.1996 0.199702 50.7995 -0.000297852 50.4995 0.0997021C31.3995 6.3997 27.5995 28.8997 23.4995 37.0997C22.7995 38.4997 22.1995 39.1997 21.0995 39.0997C17.5995 38.8997 20.0995 31.3997 21.2995 28.8997C21.4995 28.4997 21.0995 28.2997 20.7995 28.5997C10.9995 38.7997 2.09955 56.2997 0.399549 72.4997C0.499549 72.0997 0.199549 73.7997 0.0995488 75.0997C0.0995488 75.5997 -0.000451232 76.0997 -0.000451232 76.5997V78.3997C-0.200451 103.1 19.5995 123.2 44.2995 123.5C68.9995 123.7 89.0996 103.9 89.3996 79.1997V78.7997ZM44.4995 99.4997C33.0996 99.3997 23.8995 90.0997 23.9995 78.5997C24.0995 67.0997 33.3996 57.9997 44.8996 58.0997C56.3996 58.1997 65.4996 67.4997 65.3996 78.9997C65.2996 90.4997 55.9995 99.5997 44.4995 99.4997Z" fill="white"/>
</g>
<defs>
<clipPath id="clip0_9_1823">
<rect width="384.8" height="123.5" fill="white"/>
</clipPath>
</defs>
</svg>
