<svg width="275" height="145" viewBox="0 0 275 145" fill="none" xmlns="http://www.w3.org/2000/svg">
<g clip-path="url(#clip0_9_1826)">
<path d="M0 83.2429H20.8818L32.4855 25.5249H11.601L0 83.2429ZM12.7515 18.6408H33.7207L37.1669 1.37189H16.2058L12.7515 18.6408ZM29.0038 99.4842H49.8883L62.648 37.1259H78.3101L80.6193 25.5249H65.2579L65.84 22.915C66.7091 17.9959 68.4499 12.4728 76.2795 12.4728C80.9254 12.4728 85.2734 12.7624 89.6214 14.793L91.9443 2.61261C87.0986 0.902864 82.0001 0.0196926 76.8616 0C60.0382 0 48.4399 9.86288 44.0865 25.5249H36.8362L34.516 37.1259H41.7663L29.0038 99.4842Z" fill="white"/>
<path d="M95.1346 84.4038C119.788 84.4038 136.901 62.0682 136.901 43.7963C136.901 30.1648 124.428 24.3629 112.248 24.3629C85.2662 24.3629 70.4815 48.4503 70.4815 64.9705C70.4815 78.602 83.2439 84.4038 95.1346 84.4038ZM161.27 84.4038C185.923 84.4038 203.036 62.0682 203.036 43.7963C203.036 30.1648 190.274 24.3629 178.09 24.3629C151.117 24.3629 136.327 48.4367 136.327 64.9705C136.327 78.602 149.379 84.4038 161.27 84.4038M236.97 83.2423H257.562L274.38 1.17188H253.498L248.565 25.5353L239.864 24.6663C219.562 24.6663 201 50.7678 201 69.3321C201 76.8721 205.919 84.4147 214.342 84.4147C226.233 84.4147 234.644 78.6129 238.118 72.811H239.276L236.97 83.2423ZM172.576 126.46C156.367 139.89 135.548 146.448 114.568 144.732C87.0125 142.991 67.2895 121.817 63.8105 99.4837H64.9693C71.3505 113.421 86.7228 126.46 105.577 128.488C124.707 130.808 147.633 122.109 160.103 110.216L146.182 99.4837H188.238L178.946 144.152L172.854 126.749L172.576 126.46Z" fill="white"/>
</g>
<defs>
<clipPath id="clip0_9_1826">
<rect width="274.379" height="145" fill="white"/>
</clipPath>
</defs>
</svg>
