<svg width="800" height="145" viewBox="0 0 800 145" fill="none" xmlns="http://www.w3.org/2000/svg">
<g clip-path="url(#clip0_10_1829)">
<path d="M435.229 135.009H538.465V122.399H452.927V82.0488H517.176V69.2898H452.927V32.1148H538.465V19.5508H435.229V135.009Z" fill="white"/>
<path d="M488.877 0.886719L474.9 16.5887L518.777 0.886719H488.877Z" fill="white"/>
<path d="M711.773 122.399V19.5508H695.637V135.009H800V122.399H711.773Z" fill="white"/>
<path d="M605.359 19.5508L546.652 135.009H566.496L581.515 105.125H651.925L667.072 135.009H686.711L627.957 19.5508H605.359ZM588.946 90.6528L616.61 35.5048L644.598 90.6528H588.946Z" fill="white"/>
<path d="M379.211 86.7298C405.662 79.6718 408.232 59.9908 408.098 52.9548C406.519 32.3288 392.622 19.5508 367.651 19.5508H294.881V135.009H311.47V86.5758H358.845L393.698 135.009H414.607C414.606 135.009 389.525 102.413 379.211 86.7298ZM365.386 72.9338H311.47V33.2168H367.265C380.111 33.2168 387.337 39.2138 389.94 46.8318C391.662 52.0538 390.558 58.9088 387.709 63.5758C383.046 71.2918 374.188 72.9338 365.386 72.9338Z" fill="white"/>
<path d="M195.188 0C148.36 0 116.443 33.017 116.443 72.979C116.443 115.049 151.7 144.748 195.188 144.748C238.647 144.748 273.89 115.473 273.89 72.979C273.89 33.017 241.578 0 195.188 0ZM194.626 130.416C162.228 130.416 135.534 104.381 135.534 73.018C135.534 41.698 160.968 14.416 195.882 14.416C229.931 14.416 254.96 41.698 254.96 73.018C254.96 104.38 227.01 130.416 194.626 130.416Z" fill="white"/>
<path d="M74.6621 60.3958H86.6321L108.359 19.5508H90.8751L74.6621 60.3958Z" fill="white"/>
<path d="M16.145 122.399V19.5508H0V135.009H104.359V122.399H16.145Z" fill="white"/>
</g>
<defs>
<clipPath id="clip0_10_1829">
<rect width="800" height="144.748" fill="white"/>
</clipPath>
</defs>
</svg>
