<?xml version="1.0" encoding="utf-8"?>
<!-- Generator: Adobe Illustrator 25.3.1, SVG Export Plug-In . SVG Version: 6.00 Build 0)  -->
<svg version="1.1" id="Camada_1" xmlns="http://www.w3.org/2000/svg" xmlns:xlink="http://www.w3.org/1999/xlink" x="0px" y="0px"
	 viewBox="0 0 720.7 354.7" style="enable-background:new 0 0 720.7 354.7;" xml:space="preserve">
<style type="text/css">
	.st0{fill-rule:evenodd;clip-rule:evenodd;fill:#FFFFFF;}
	.st1{fill:#FFFFFF;}
</style>
<g>
	<path class="st0" d="M430.1,112.8h-15.6v56.9h15.6c20.8,0,37.3-6.9,37.3-28.8C467.4,119.7,450.9,112.8,430.1,112.8z"/>
	<path class="st0" d="M262.4,135.7L240,206.3c6.7,2.5,14.4,3.9,22.6,3.9c8,0,15.6-1.4,22.2-3.8l-22-70.8L262.4,135.7L262.4,135.7z"
		/>
	<path class="st0" d="M0,0v354.7h362.7L717.7,0L0,0L0,0z M437.4,218.2h-22.8V286H309.9l-10.4-32.4c-11.1,3.6-23.6,5.6-36.8,5.6
		c-13.6,0-26.4-2.1-37.7-6l-10.8,32.7H150l7.1-18.9c-0.9,0.7-1.7,1.5-2.6,2.2c-16,12.9-36,19.9-60.8,20.4H90
		c-28.5,0-56.4-7.9-80-21.3L31.8,225c23.6,14,38.5,17.1,58.5,16.7c10.4-0.2,17.9-2.1,22.8-7.1c2.9-3.1,4.5-6.9,4.7-11
		c0.2-11.3-15.8-16.5-35.4-22.6c-15.9-4.9-33.9-11.6-48-22c-16.7-12.3-24.7-27.6-24.3-49.3c0.2-15.7,6.1-30,16.9-41.2
		c15.5-16,40.6-25.8,70.7-25.8h0.2c25.8,0,57.3,7.3,80,18.9l-24.5,42.7c-24.9-12-37.5-13.2-51.7-13.9c-21.2-1.1-31.8,6.4-32,14.6
		c-0.2,9.9,20,18.9,39,25c28.8,9.2,65.5,21.4,71.1,56.8l52.7-140.4h61.2l61.7,167.8V66.4h70.7c67.5,0,99.2,24.1,99.2,76.5
		C525.2,190.2,492.6,218.2,437.4,218.2z"/>
</g>
<path class="st1" d="M448.8,331.3c0-10.9,8.2-19.1,18.7-19.1c10.4,0,18.6,8.3,18.6,19.1c0,11-8.2,19.2-18.6,19.2
	C457,350.5,448.8,342.4,448.8,331.3z M467.5,354.4c12.5,0,23.2-9.7,23.2-23c0-13.2-10.7-22.9-23.2-22.9c-12.6,0-23.3,9.7-23.3,22.9
	S454.9,354.4,467.5,354.4z M462.6,333.2h4.6l7,11.4h4.5l-7.6-11.6c3.9-0.4,6.9-2.5,6.9-7.3c0-5.2-3.1-7.5-9.3-7.5h-10.1v26.4h4
	L462.6,333.2L462.6,333.2z M462.6,329.8v-8.2h5.5c2.8,0,5.7,0.6,5.7,3.9c0,4.1-3,4.3-6.4,4.3H462.6L462.6,329.8z"/>
</svg>
