<?xml version="1.0" encoding="utf-8"?>
<!-- Generator: Adobe Illustrator 25.3.1, SVG Export Plug-In . SVG Version: 6.00 Build 0)  -->
<svg version="1.1" id="Camada_1" xmlns="http://www.w3.org/2000/svg" xmlns:xlink="http://www.w3.org/1999/xlink" x="0px" y="0px"
	 viewBox="0 0 844.1 126.9" style="enable-background:new 0 0 844.1 126.9;" xml:space="preserve">
<style type="text/css">
	.st0{fill:#FFFFFF;}
	.st1{fill-rule:evenodd;clip-rule:evenodd;fill:#FFFFFF;}
</style>
<g>
	<polygon class="st0" points="720,125.4 741.1,125.4 741.1,100.1 749.1,91.9 770.2,125.4 795.5,125.4 764.2,78.5 792.3,49.4 
		767.4,49.4 741.1,77.6 741.1,20 719.9,20 	"/>
	<path class="st1" d="M579.4,125.4V89c6,0,11.9,0,11.9,0c25.4,0.4,45.6-6.8,45.6-34.9c0-23-17.7-35.1-43.4-34.1h-36.6v105.4H579.4
		L579.4,125.4 M594.7,38.1c12.7-0.6,20.5,4.6,20.6,16.2c0.1,11.7-8.6,16.6-20.2,16.4h-15.7V38.1H594.7L594.7,38.1z"/>
	<path class="st1" d="M656.9,73.2c0,0-1.3-11.6,15.1-11.4c6.8,0.1,12.9,3.6,12.6,9.5c-0.3,4.4-4,5.6-11.4,6.7
		c-12,1.5-20.5,3.5-26.3,6.2c-7.4,3.7-13.7,11.4-13.1,20.7c0.9,14.6,16.1,23.1,30.8,22.4c17.2-0.8,20.3-11,20.3-11
		c0.2,1.7,0.3,1.7,0.7,4.1c0.4,3.5,1.2,5,1.2,5h21.5c-1.2-1-1.7-1.5-2.3-2.7c-0.8-1.7-0.9-3.2-0.9-5.1V74
		c0-21.4-17.2-26.9-34.1-27.2c-31.8-0.6-31.8,22.2-32.5,25.9l0,0L656.9,73.2L656.9,73.2 M669.2,112.2c-6.5,0.7-14.7-1.2-15.1-9.3
		c-0.2-7.9,10.8-10.2,16.4-11.3c4.6-0.9,8.8-2.1,11.9-3.3c1.8-0.8,2.2-1.3,2.2-1.3v10.5C684.4,105.2,679.1,111.2,669.2,112.2
		L669.2,112.2z"/>
	<polygon class="st0" points="248.6,125.4 248.6,38.6 280.8,38.6 280.8,19.8 194.5,19.8 194.5,38.6 226.2,38.6 226.2,125.4 	"/>
	<path class="st1" d="M264.8,89.7c1.5,28.1,25.2,38.7,39.5,38.3c30.8-0.9,36.8-25.2,36.8-25.2l-21.5-1.2c0,0-3.5,9.7-15.3,9.6
		c-18.2-0.1-18.6-18.2-18.6-18.2H342c0,0,2.1-45.3-39.7-46C278.5,46.8,263.5,66.8,264.8,89.7L264.8,89.7 M319.5,78.4H286
		c0,0,1.5-14.6,16.5-14.7C317.4,63.5,319.5,78.4,319.5,78.4L319.5,78.4z"/>
	<path class="st0" d="M401.1,125.4h21V91c0-9.7,1.9-18.4,10.6-22.8c4.5-2.2,8-2.5,12.9-1.8V48.3c-0.7-0.4-3.1-0.7-5.5-0.8
		c-6.8-0.3-13.3,3.6-17.1,10.5c-0.4,0.6-0.6,1-1.2,2.6l-0.7-10.8H401v75.6H401.1z"/>
	<path class="st0" d="M343.3,64.1h10.5v38.8c0,6.2,0.7,14.2,6.7,18.6c6,4.5,14.3,3.9,22,3.9c3.3,0,6.5,0,6.5,0v-15.6h-4.9
		c-3.5,0-5.5-0.2-7.1-1.6c-2.7-2-2.6-5.4-2.6-7.3V64h14V49.6h-14v-24l-20.7-0.1v24.1l-10.5,0.1V64L343.3,64.1L343.3,64.1z"/>
	<path class="st1" d="M468.8,73.1c0,0-1.3-11.7,15.1-11.5c6.8,0.1,13.1,3.6,12.6,9.5c-0.2,4.4-4,5.5-11.4,6.6
		c-12,1.6-20.5,3.6-26.3,6.2c-7.4,3.6-13.7,11.4-13.1,20.7c0.9,14.6,16,23.1,30.8,22.5c17.2-0.8,20.3-11,20.3-11
		c0.3,1.7,0.3,1.7,0.7,4.1c0.4,3.5,1.1,5,1.1,5h21.6c-1.2-1-1.7-1.5-2.3-2.7c-0.8-1.8-0.9-3.2-0.9-5.1V73.8
		c0-21.4-17.2-26.9-34.1-27.2c-31.8-0.4-31.8,22.2-32.5,25.9l0,0L468.8,73.1L468.8,73.1 M481.2,112c-6.5,0.7-14.7-1.1-15.1-9.3
		c-0.3-7.9,10.8-10.2,16.5-11.3c4.6-0.9,8.8-2.1,11.8-3.3c1.9-0.8,2.2-1.3,2.2-1.3v10.6C496.3,105.2,491.1,111.2,481.2,112
		L481.2,112z"/>
	<polygon class="st0" points="128.1,91.4 152.9,60.5 127.3,60.5 115.2,75.7 	"/>
	<path class="st0" d="M81.8,76c4.9,0,9.3,2.2,12.3,5.9c1.1,1.3,1.5,1.7,2.3,2.8c3,3.8,4,5.1,5.7,7.4c-1.8,2.1-2.8,3.6-5.7,7.3
		c-0.8,1.1-1.2,1.5-2.3,2.8c-3.1,3.7-7.4,5.8-12.3,5.8C73,108,66,100.9,66,92.2C66,83.2,73.1,76,81.8,76L81.8,76z"/>
	<path class="st0" d="M69.6,125c-3-0.8-6-2.5-6.9-3c-10-6.2-16.6-17.2-16.6-30.1c0-19.9,16.1-35.8,36-35.8c9.7,0,19.5,3.8,27.2,12.7
		l0.4,0.6l0.3-0.2L71.2,2.3L0,125.3h69.6V125L69.6,125z"/>
	<path class="st0" d="M94.8,125v0.3h47.7V125c0,0-0.7-0.1-1.5-0.2c-3.1-0.4-5.7-1.3-7.5-2c-7.3-3-13.3-8.8-18.4-14.9
		c0,0-3.8,5-7.3,8.7C102.9,122,97.4,124.3,94.8,125L94.8,125z"/>
	<path class="st0" d="M820.3,0.2c13.6,0,24.8,11.2,24.8,24.8c0,13.6-11.2,24.8-24.8,24.8S795.5,38.6,795.5,25
		C795.5,11.3,806.7,0.2,820.3,0.2z M820.3,45.3c11.3,0,20.4-9.1,20.4-20.4s-9.1-20.4-20.4-20.4c-11.3,0-20.4,9.1-20.4,20.4
		C800,36.2,809.1,45.3,820.3,45.3z M810.8,10.6h10.9c6.8,0,10,3,10,8.5c0,4.9-2.9,7.4-6.8,7.8l7.4,11.9h-5.5l-7-11.6H816v11.6h-5.1
		V10.6L810.8,10.6L810.8,10.6z M816,22.9h3.8c3.2,0,6.7-0.2,6.7-4s-3.6-4-6.7-3.9H816V22.9z"/>
</g>
</svg>
