<?xml version="1.0" encoding="utf-8"?>
<!-- Generator: Adobe Illustrator 25.3.1, SVG Export Plug-In . SVG Version: 6.00 Build 0)  -->
<svg version="1.1" id="Camada_1" xmlns="http://www.w3.org/2000/svg" xmlns:xlink="http://www.w3.org/1999/xlink" x="0px" y="0px"
	 viewBox="0 0 558.5 712.3" style="enable-background:new 0 0 558.5 712.3;" xml:space="preserve">
<style type="text/css">
	.st0{fill:#FFFFFF;}
</style>
<g>
	<path class="st0" d="M176.9,629.4v81.9H190v-50.8l21.2,50.8h13.1v-81.9h-13.1v50.5L190,629.4H176.9z"/>
	<path class="st0" d="M232.3,629.4v81.9h38.8v-12.7h-25.7v-23.3h19.4v-12.7h-19.4V642h23.2l2.5-12.7L232.3,629.4z"/>
	<path class="st0" d="M128.2,629.4v81.9h13.1v-26.5l6.3-2.3l11.3,28.7h14.7l-14.4-34.6c7.4-5.4,11.4-12.8,11.4-22.1
		c0-18.2-15.6-25.2-28.4-25.2L128.2,629.4z M141.3,642.1c8.8,0,16.1,4.6,16.1,12.1c0,6.9-3.9,12.6-12.5,15.6l-3.6,1.3V642.1z"/>
	<path class="st0" d="M90,629.4l-16.3,81.9h13.1l3-15.4H108l3,15.4h13.5l-16.3-81.9H90z M98.9,648.7l6.7,34.5H92.3L98.9,648.7z"/>
	<path class="st0" d="M276.9,629.4v81.9H290v-26.5l6.3-2.3l11.3,28.7h14.7l-14.4-34.6c7.4-5.4,11.4-12.8,11.4-22.1
		c0-18.2-15.6-25.2-28.4-25.2L276.9,629.4z M290,642.1c8.8,0,16.1,4.6,16.1,12.1c0,6.9-3.9,12.6-12.5,15.6l-3.6,1.3L290,642.1
		L290,642.1z"/>
	<path class="st0" d="M30.1,711.3H16.8L0,629.4h13.7l10.2,53l10.1-53h12.4l10,53l10.4-53H80l-16.8,81.9H49.9l-10-51.7L30.1,711.3z"
		/>
	<path class="st0" d="M396.2,629.4v81.9h13.1v-26.5l6.3-2.3l11.3,28.7h14.7l-14.4-34.6c7.4-5.4,11.4-12.8,11.4-22.1
		c0-18.2-15.6-25.2-28.4-25.2L396.2,629.4z M409.3,642.1c8.8,0,16.1,4.6,16.1,12.1c0,6.9-3.9,12.6-12.5,15.6l-3.6,1.3V642.1z"/>
	<path class="st0" d="M344.5,629.4v81.9h13.1c16.5,0,32.7-9.8,32.7-26.9c0-11.7-7.4-16.4-13-18.6c3.6-3,7.5-8,7.5-15.7
		c0-11.9-11.5-20.8-27.2-20.8L344.5,629.4z M357.6,642.1c8.5,0,14.3,4,14.3,9.9c0,5.7-4.6,10.5-10.8,11.8l-3.5,0.8V642.1z
		 M366.4,675.2c5,0.1,10.5,2.6,10.5,9c0,10.1-10.1,14.3-17.5,14.3h-1.9v-21.8l5.6-1.2C364.1,675.3,365.3,675.2,366.4,675.2
		L366.4,675.2z"/>
	<path class="st0" d="M468.3,628.3c-14.3,0-25.8,11.4-25.8,42s11.6,42,25.8,42c14.3,0,25.8-12.2,25.8-42
		C494.1,640.5,482.6,628.3,468.3,628.3z M468.3,641c6.8,0,12.4,9.1,12.4,29.3c0,20.2-5.5,29.3-12.4,29.3s-12.4-8.7-12.4-29.3
		S461.5,641,468.3,641z"/>
	<path class="st0" d="M518.7,712.2c-9.7,0-19.4-6.3-22.9-19.4l11.1-6.7c1.6,5.8,5.4,13.2,12.3,13.2c5.1,0,8.9-3.8,8.9-8.9
		c0-15.7-29-17.2-29-40.9c0-11.6,8.8-21.1,20.7-21.1c10.3,0,18.2,7,21,17.2l-11.5,6.8c-0.9-4.4-4.2-11.2-9.8-11.2
		c-4.5,0-7.2,3.5-7.2,7.2c0,15,29.1,17.4,29.1,40.6C541.3,701.9,532.2,712.2,518.7,712.2L518.7,712.2z"/>
	<path class="st0" d="M550.6,696.1c-4.4,0-7.9,3.5-7.9,7.9s3.6,7.9,7.9,7.9l0,0c4.4,0,7.9-3.6,7.9-7.9l0,0
		C558.5,699.7,554.9,696.1,550.6,696.1z"/>
	<g>
		<path class="st0" d="M389.5,244.6L389.5,244.6c-12.6,0-23.9,4.8-59.2,29.9v135.2c61.1-68.2,78.4-114.9,78.4-138.8
			C408.6,254.2,400.9,244.6,389.5,244.6z"/>
		<path class="st0" d="M394.3,154.9c0-23.9-27.5-43.7-64.1-46.2v125C376.5,206.9,394.3,180,394.3,154.9z"/>
		<path class="st0" d="M502.6,101.8L502.6,101.8c-0.6-2.4-1.2-3.3-2.4-3.6l-43.1-11.5l-6-24.5c-0.3-1.2-0.6-2.1-1.8-2.4l-44.3-12
			l-5.4-23.4c-0.1-1.4-1-2.6-2.4-3L282.1,0c-1.9-0.3-3.8-0.3-5.7,0l-115,21.4c-1.4,0.4-2.3,1.6-2.4,3l-5.4,23.4l-44.3,12
			c-1.2,0.3-1.5,1.2-1.8,2.4l-6,24.5L58.4,98.2c-1.2,0.3-1.8,1.2-2.4,3.6c-3.6,19.1-5.4,38.6-5.4,58.1
			c0,172.3,89.8,321.9,223.8,411.1c1.4,1.2,3,2,4.8,2.4c1.8-0.4,3.4-1.3,4.8-2.4c134-89.2,223.8-238.8,223.8-411.1
			C508,140.4,506.2,121,502.6,101.8z M260.2,492.5c-32.9-37.7-55.1-83.7-70-134l-22.7,14.2c-6,4.2-10.8,2.4-14.3-4.2
			c-30.5-53.9-50.3-142.3-52.1-204.6c-0.1-2.9,1-5.6,3-7.7c8.1-9.8,16.9-19,26.2-27.6c1.8-1.8,3.6-0.6,3.6,2.4
			c0,76.6,13.2,147.8,34.1,194.5c1.8,3.6,3.6,3.6,6,1.8l6.6-4.2c-12.5-55.7-19.7-129.8-17.9-215.4c0-3,0.6-4.2,2.4-5.4
			c9.2-5.7,18.8-10.7,28.7-15c3-1.2,3.6-0.6,3.6,1.8c-1.8,124.5,8.3,210.6,30.5,279.4c0.6,1.8,2.4,1.2,2.4-0.6
			c-1.2-25.1-1.2-47.3-1.2-74.2l-1.2-214.8c0-2.4,0.6-3.6,3-4.2c9.8-2.4,19.8-4.2,29.9-5.4c0.5-0.1,1,0.1,1.3,0.5
			c0.4,0.4,0.5,0.9,0.5,1.3l0.1,420.8C262.6,493.1,261.4,493.7,260.2,492.5z M298.5,492.3v0.2c-1.2,1.2-2.4,0.6-2.4-0.6V71.1
			c-0.1-0.5,0.1-1,0.4-1.4c0.4-0.4,0.9-0.5,1.4-0.4l0,0c80.2,5.4,131.6,38.9,131.6,87.4c0,20.1-7.5,39.5-20.9,54.4
			c26.3,7.2,36.5,26.9,36.5,53.2C445.1,311.1,411.1,388.2,298.5,492.3z"/>
	</g>
</g>
</svg>
