<svg width="159" height="105" viewBox="0 0 159 105" fill="none" xmlns="http://www.w3.org/2000/svg">
<path d="M5.37305 85.123H7.34863V92H5.37305V91.1865C5.17708 91.4782 4.91048 91.7106 4.57324 91.8838C4.24056 92.0524 3.88281 92.1367 3.5 92.1367C2.62956 92.1367 1.94368 91.8587 1.44238 91.3027C0.945638 90.7467 0.697266 89.9811 0.697266 89.0059V85.123H2.67285V88.6846C2.67285 89.154 2.79134 89.5186 3.02832 89.7783C3.26986 90.0381 3.5957 90.168 4.00586 90.168C4.27474 90.168 4.53223 90.0996 4.77832 89.9629C5.02897 89.8216 5.22721 89.6325 5.37305 89.3955V85.123ZM12.5918 84.9863C13.4577 84.9863 14.139 85.2666 14.6357 85.8271C15.137 86.3831 15.3877 87.1442 15.3877 88.1104V92H13.4121V88.4453C13.4121 87.9759 13.2936 87.609 13.0566 87.3447C12.8197 87.0804 12.4961 86.9482 12.0859 86.9482C11.8125 86.9482 11.5505 87.0189 11.2998 87.1602C11.0492 87.3014 10.8532 87.4906 10.7119 87.7275V92H8.73633V85.123H10.7119V85.9365C10.8988 85.6449 11.1608 85.4147 11.498 85.2461C11.8398 85.0729 12.2044 84.9863 12.5918 84.9863ZM18.751 82.1973V92H16.7754V82.1973H18.751ZM26.6807 88.2607C26.6807 88.5387 26.6624 88.7962 26.626 89.0332H21.6836C21.7747 89.498 21.973 89.8535 22.2783 90.0996C22.5837 90.3411 22.9733 90.4619 23.4473 90.4619C23.7572 90.4619 24.0534 90.3958 24.3359 90.2637C24.623 90.1315 24.8258 89.9629 24.9443 89.7578L26.4824 90.7012C26.2318 91.1569 25.8353 91.5101 25.293 91.7607C24.7507 92.0114 24.1217 92.1367 23.4062 92.1367C22.3945 92.1367 21.5378 91.7904 20.8359 91.0977C20.1387 90.4004 19.79 89.5436 19.79 88.5273C19.79 87.5293 20.1341 86.6908 20.8223 86.0117C21.515 85.3281 22.3626 84.9863 23.3652 84.9863C24.2949 84.9863 25.0788 85.3031 25.7168 85.9365C26.3594 86.57 26.6807 87.3447 26.6807 88.2607ZM21.7109 87.7754H24.7051C24.6641 87.4336 24.5046 87.1488 24.2266 86.9209C23.9486 86.693 23.6273 86.5791 23.2627 86.5791C22.8525 86.5791 22.5153 86.6839 22.251 86.8936C21.9867 87.1032 21.8066 87.3971 21.7109 87.7754ZM32.6553 85.123H34.6309V92H32.6553V91.1865C32.4867 91.4691 32.2132 91.6992 31.835 91.877C31.4613 92.0501 31.0579 92.1367 30.625 92.1367C30.0371 92.1367 29.4971 91.9772 29.0049 91.6582C28.5127 91.3392 28.1253 90.9062 27.8428 90.3594C27.5602 89.8079 27.4189 89.2064 27.4189 88.5547C27.4189 87.5612 27.7288 86.7181 28.3486 86.0254C28.973 85.3327 29.7318 84.9863 30.625 84.9863C31.0534 84.9863 31.4567 85.0752 31.835 85.2529C32.2132 85.4307 32.4867 85.6585 32.6553 85.9365V85.123ZM31.0625 90.2637C31.3952 90.2637 31.7051 90.1839 31.9922 90.0244C32.2839 89.8649 32.5049 89.6598 32.6553 89.4092V87.7275C32.5049 87.4678 32.2839 87.2559 31.9922 87.0918C31.7051 86.9277 31.3952 86.8457 31.0625 86.8457C30.5794 86.8457 30.1738 87.0098 29.8457 87.3379C29.5176 87.6615 29.3535 88.0671 29.3535 88.5547C29.3535 89.0423 29.5176 89.4502 29.8457 89.7783C30.1738 90.1019 30.5794 90.2637 31.0625 90.2637ZM38.7324 92.1367C37.4837 92.1367 36.4561 91.8496 35.6494 91.2754L36.2373 89.9014C36.8844 90.3844 37.6592 90.626 38.5615 90.626C38.8669 90.626 39.1107 90.5736 39.293 90.4688C39.4798 90.3639 39.5732 90.2295 39.5732 90.0654C39.5732 89.9242 39.5026 89.8079 39.3613 89.7168C39.2246 89.6211 39.0469 89.5459 38.8281 89.4912C38.6094 89.4365 38.3678 89.3818 38.1035 89.3271C37.8392 89.2679 37.5749 89.1927 37.3105 89.1016C37.0462 89.0059 36.8047 88.8896 36.5859 88.7529C36.3672 88.6117 36.1872 88.4157 36.0459 88.165C35.9092 87.9098 35.8385 87.6113 35.834 87.2695C35.8249 86.6224 36.0801 86.0801 36.5996 85.6426C37.1191 85.2051 37.7822 84.9863 38.5889 84.9863C39.6781 84.9863 40.5508 85.2484 41.207 85.7725L40.6465 87.2012C40.373 86.9961 40.0381 86.8252 39.6416 86.6885C39.2497 86.5518 38.8714 86.4834 38.5068 86.4834C38.2562 86.4834 38.0534 86.5358 37.8984 86.6406C37.7435 86.7454 37.666 86.8753 37.666 87.0303C37.666 87.1488 37.7207 87.2536 37.8301 87.3447C37.9395 87.4313 38.0807 87.502 38.2539 87.5566C38.4316 87.6113 38.6322 87.6729 38.8555 87.7412C39.0833 87.805 39.3135 87.8688 39.5459 87.9326C39.7783 87.9964 40.0062 88.0853 40.2295 88.1992C40.4574 88.3132 40.6602 88.443 40.8379 88.5889C41.0156 88.7301 41.1592 88.917 41.2686 89.1494C41.3825 89.3818 41.4417 89.6462 41.4463 89.9424C41.4463 90.5804 41.1911 91.1068 40.6807 91.5215C40.1748 91.9316 39.5254 92.1367 38.7324 92.1367ZM46.3477 84.9863C47.2135 84.9863 47.8949 85.2666 48.3916 85.8271C48.8929 86.3831 49.1436 87.1442 49.1436 88.1104V92H47.168V88.4453C47.168 87.9759 47.0495 87.609 46.8125 87.3447C46.5755 87.0804 46.252 86.9482 45.8418 86.9482C45.5684 86.9482 45.3086 87.0189 45.0625 87.1602C44.821 87.2969 44.6273 87.4814 44.4814 87.7139V92H42.5059V82.1973H44.4814V85.9229C44.6774 85.6357 44.9417 85.4079 45.2744 85.2393C45.6071 85.0706 45.9648 84.9863 46.3477 84.9863ZM59.0352 85.1982H60.1289L56.1914 94.5771H55.0977L56.2734 91.877L53.4639 85.1982H54.5713L56.793 90.6807L59.0352 85.1982ZM61.6328 86.0801C62.3118 85.3965 63.1458 85.0547 64.1348 85.0547C65.1237 85.0547 65.9577 85.3965 66.6367 86.0801C67.3203 86.7591 67.6621 87.5977 67.6621 88.5957C67.6621 89.5938 67.3203 90.4346 66.6367 91.1182C65.9577 91.7972 65.1237 92.1367 64.1348 92.1367C63.1458 92.1367 62.3118 91.7972 61.6328 91.1182C60.9583 90.4346 60.6211 89.5938 60.6211 88.5957C60.6211 87.5977 60.9583 86.7591 61.6328 86.0801ZM64.1348 86.0254C63.4284 86.0254 62.8337 86.2715 62.3506 86.7637C61.8675 87.2559 61.626 87.8665 61.626 88.5957C61.626 89.3203 61.8675 89.931 62.3506 90.4277C62.8337 90.9245 63.4284 91.1729 64.1348 91.1729C64.8411 91.1729 65.4382 90.9245 65.9258 90.4277C66.4134 89.9264 66.6572 89.3158 66.6572 88.5957C66.6572 87.8711 66.4134 87.2627 65.9258 86.7705C65.4427 86.2738 64.8457 86.0254 64.1348 86.0254ZM74.3955 85.1982H75.4209V92H74.3955V90.9336C74.1813 91.2936 73.8555 91.5853 73.418 91.8086C72.9805 92.0273 72.5133 92.1367 72.0166 92.1367C71.1735 92.1367 70.4945 91.861 69.9795 91.3096C69.4691 90.7536 69.2139 90.0221 69.2139 89.1152V85.1982H70.2393V88.9785C70.2393 89.6348 70.4215 90.1611 70.7861 90.5576C71.1507 90.9495 71.6315 91.1455 72.2285 91.1455C72.6797 91.1455 73.1012 91.0361 73.4932 90.8174C73.8851 90.5941 74.1859 90.2979 74.3955 89.9287V85.1982ZM80.2607 85.0547C80.5068 85.0547 80.7461 85.0889 80.9785 85.1572L80.9238 86.1211C80.7005 86.0345 80.4567 85.9912 80.1924 85.9912C79.8825 85.9912 79.5589 86.112 79.2217 86.3535C78.8844 86.5905 78.611 86.9095 78.4014 87.3105V92H77.376V85.1982H78.4014V86.2715C78.5837 85.9069 78.8503 85.613 79.2012 85.3896C79.5521 85.1663 79.9053 85.0547 80.2607 85.0547ZM89.0107 84.9863C89.3617 84.9863 89.6419 85.0273 89.8516 85.1094L89.7354 86.9619C89.4437 86.8571 89.1497 86.8047 88.8535 86.8047C88.6074 86.8047 88.334 86.9004 88.0332 87.0918C87.737 87.2786 87.5114 87.5293 87.3564 87.8438V92H85.3809V85.123H87.3564V85.9365C87.516 85.654 87.7552 85.4261 88.0742 85.2529C88.3978 85.0752 88.71 84.9863 89.0107 84.9863ZM96.8857 88.2607C96.8857 88.5387 96.8675 88.7962 96.8311 89.0332H91.8887C91.9798 89.498 92.1781 89.8535 92.4834 90.0996C92.7887 90.3411 93.1784 90.4619 93.6523 90.4619C93.9622 90.4619 94.2585 90.3958 94.541 90.2637C94.8281 90.1315 95.0309 89.9629 95.1494 89.7578L96.6875 90.7012C96.4368 91.1569 96.0404 91.5101 95.498 91.7607C94.9557 92.0114 94.3268 92.1367 93.6113 92.1367C92.5996 92.1367 91.7428 91.7904 91.041 91.0977C90.3438 90.4004 89.9951 89.5436 89.9951 88.5273C89.9951 87.5293 90.3392 86.6908 91.0273 86.0117C91.7201 85.3281 92.5677 84.9863 93.5703 84.9863C94.5 84.9863 95.2839 85.3031 95.9219 85.9365C96.5645 86.57 96.8857 87.3447 96.8857 88.2607ZM91.916 87.7754H94.9102C94.8691 87.4336 94.7096 87.1488 94.4316 86.9209C94.1536 86.693 93.8324 86.5791 93.4678 86.5791C93.0576 86.5791 92.7204 86.6839 92.4561 86.8936C92.1917 87.1032 92.0117 87.3971 91.916 87.7754ZM102.86 85.123H104.836V92H102.86V91.1865C102.692 91.4691 102.418 91.6992 102.04 91.877C101.666 92.0501 101.263 92.1367 100.83 92.1367C100.242 92.1367 99.7021 91.9772 99.21 91.6582C98.7178 91.3392 98.3304 90.9062 98.0479 90.3594C97.7653 89.8079 97.624 89.2064 97.624 88.5547C97.624 87.5612 97.9339 86.7181 98.5537 86.0254C99.1781 85.3327 99.9368 84.9863 100.83 84.9863C101.258 84.9863 101.662 85.0752 102.04 85.2529C102.418 85.4307 102.692 85.6585 102.86 85.9365V85.123ZM101.268 90.2637C101.6 90.2637 101.91 90.1839 102.197 90.0244C102.489 89.8649 102.71 89.6598 102.86 89.4092V87.7275C102.71 87.4678 102.489 87.2559 102.197 87.0918C101.91 86.9277 101.6 86.8457 101.268 86.8457C100.785 86.8457 100.379 87.0098 100.051 87.3379C99.7227 87.6615 99.5586 88.0671 99.5586 88.5547C99.5586 89.0423 99.7227 89.4502 100.051 89.7783C100.379 90.1019 100.785 90.2637 101.268 90.2637ZM108.192 82.1973V92H106.217V82.1973H108.192ZM117.325 90.168L117.428 91.918C117.163 92.0456 116.826 92.1094 116.416 92.1094C115.596 92.1094 114.933 91.8633 114.427 91.3711C113.925 90.8743 113.675 90.1885 113.675 89.3135V87.0029H112.396V85.123H113.675V83.3184H115.65V85.123H117.339V87.0029H115.65V89.2109C115.65 89.5254 115.753 89.7806 115.958 89.9766C116.163 90.168 116.414 90.2637 116.71 90.2637C116.938 90.2637 117.143 90.2318 117.325 90.168ZM123.163 85.123H125.139V92H123.163V91.1865C122.994 91.4691 122.721 91.6992 122.343 91.877C121.969 92.0501 121.566 92.1367 121.133 92.1367C120.545 92.1367 120.005 91.9772 119.513 91.6582C119.021 91.3392 118.633 90.9062 118.351 90.3594C118.068 89.8079 117.927 89.2064 117.927 88.5547C117.927 87.5612 118.237 86.7181 118.856 86.0254C119.481 85.3327 120.24 84.9863 121.133 84.9863C121.561 84.9863 121.965 85.0752 122.343 85.2529C122.721 85.4307 122.994 85.6585 123.163 85.9365V85.123ZM121.57 90.2637C121.903 90.2637 122.213 90.1839 122.5 90.0244C122.792 89.8649 123.013 89.6598 123.163 89.4092V87.7275C123.013 87.4678 122.792 87.2559 122.5 87.0918C122.213 86.9277 121.903 86.8457 121.57 86.8457C121.087 86.8457 120.682 87.0098 120.354 87.3379C120.025 87.6615 119.861 88.0671 119.861 88.5547C119.861 89.0423 120.025 89.4502 120.354 89.7783C120.682 90.1019 121.087 90.2637 121.57 90.2637ZM128.495 82.1973V92H126.52V82.1973H128.495ZM136.425 88.2607C136.425 88.5387 136.407 88.7962 136.37 89.0332H131.428C131.519 89.498 131.717 89.8535 132.022 90.0996C132.328 90.3411 132.717 90.4619 133.191 90.4619C133.501 90.4619 133.798 90.3958 134.08 90.2637C134.367 90.1315 134.57 89.9629 134.688 89.7578L136.227 90.7012C135.976 91.1569 135.579 91.5101 135.037 91.7607C134.495 92.0114 133.866 92.1367 133.15 92.1367C132.139 92.1367 131.282 91.7904 130.58 91.0977C129.883 90.4004 129.534 89.5436 129.534 88.5273C129.534 87.5293 129.878 86.6908 130.566 86.0117C131.259 85.3281 132.107 84.9863 133.109 84.9863C134.039 84.9863 134.823 85.3031 135.461 85.9365C136.104 86.57 136.425 87.3447 136.425 88.2607ZM131.455 87.7754H134.449C134.408 87.4336 134.249 87.1488 133.971 86.9209C133.693 86.693 133.371 86.5791 133.007 86.5791C132.597 86.5791 132.259 86.6839 131.995 86.8936C131.731 87.1032 131.551 87.3971 131.455 87.7754ZM141.381 84.9863C142.247 84.9863 142.928 85.2666 143.425 85.8271C143.926 86.3831 144.177 87.1442 144.177 88.1104V92H142.201V88.4453C142.201 87.9759 142.083 87.609 141.846 87.3447C141.609 87.0804 141.285 86.9482 140.875 86.9482C140.602 86.9482 140.34 87.0189 140.089 87.1602C139.838 87.3014 139.642 87.4906 139.501 87.7275V92H137.525V85.123H139.501V85.9365C139.688 85.6449 139.95 85.4147 140.287 85.2461C140.629 85.0729 140.993 84.9863 141.381 84.9863ZM149.687 90.168L149.789 91.918C149.525 92.0456 149.188 92.1094 148.777 92.1094C147.957 92.1094 147.294 91.8633 146.788 91.3711C146.287 90.8743 146.036 90.1885 146.036 89.3135V87.0029H144.758V85.123H146.036V83.3184H148.012V85.123H149.7V87.0029H148.012V89.2109C148.012 89.5254 148.114 89.7806 148.319 89.9766C148.524 90.168 148.775 90.2637 149.071 90.2637C149.299 90.2637 149.504 90.2318 149.687 90.168Z" fill="white"/>
<path d="M13.7983 20.4086V22.1586H25.6818V34.9561H13.7983V69.6294H0.11264V35.8311V23.0884L0 19.7523C0 13.8458 1.74591 9.19714 5.23774 5.80637C8.72957 2.47029 13.3478 0.774902 19.0924 0.774902C21.7394 0.774902 23.598 1.26711 25.6818 2.19684V13.9552C24.1049 13.5176 22.4153 13.2442 21.1762 13.2442C19.0924 13.2442 17.3465 13.9005 15.9385 15.213C14.4742 16.5803 13.7983 18.2757 13.7983 20.4086Z" fill="white"/>
<path d="M46.9554 69.6297C38.7489 69.6297 32.0001 67.7235 26.7091 63.9112L30.5424 54.816C34.8076 58.0292 39.8827 59.6086 45.7676 59.6086C47.7653 59.6086 49.385 59.2819 50.5727 58.5739C51.7605 57.8658 52.4084 56.9944 52.4084 55.9052C52.4084 54.9793 51.9765 54.2169 51.0587 53.5633C50.1408 52.9642 48.953 52.4741 47.5493 52.0928C46.0916 51.7116 44.5259 51.3848 42.7982 51.0036C41.0705 50.6224 39.3428 50.1322 37.6151 49.5331C35.8874 48.934 34.3217 48.1716 32.864 47.2457C31.4062 46.3198 30.2724 45.0127 29.3546 43.3789C28.4368 41.6906 27.9509 39.7299 27.9509 37.497C27.8969 33.1944 29.5706 29.5999 32.972 26.7134C36.3733 23.8269 40.7465 22.3564 46.0376 22.3564C53.1643 22.3564 58.8872 24.0992 63.2065 27.5848L59.5351 37.0613C57.7534 35.6997 55.5398 34.556 52.9483 33.6846C50.3568 32.7587 47.8732 32.323 45.4977 32.323C43.878 32.323 42.5282 32.6498 41.5024 33.3578C40.4766 34.0658 39.9907 34.9372 39.9907 35.9176C39.9907 36.68 40.3686 37.388 41.0705 37.9871C41.7724 38.5862 42.7442 39.0764 43.878 39.4031C45.0118 39.7844 46.3615 40.1656 47.8193 40.6013C49.277 41.037 50.7887 41.4727 52.3004 41.9084C53.8122 42.3441 55.3239 42.9432 56.7816 43.6512C58.2394 44.4137 59.5891 45.2306 60.7229 46.2109C61.9107 47.1368 62.8285 48.3894 63.5844 49.9688C64.3402 51.4938 64.7182 53.2366 64.7182 55.1972C64.7182 59.4453 63.0445 62.8764 59.6971 65.5995C56.4577 68.2681 52.1925 69.6297 46.9554 69.6297Z" fill="white"/>
<path d="M94.5091 56.4263V68.3145C92.6971 69.1911 91.0498 69.6293 88.2494 69.6293C82.6486 69.6293 78.2009 67.931 74.7415 64.5892C71.3371 61.2473 69.8546 56.5906 69.8546 50.6739V35.0056V22.2408V10.0239H83.0329V22.2408H94.5091V35.0056H83.0329V49.9617C83.0329 52.0983 83.7468 53.7966 85.1195 55.1115C86.4922 56.4263 88.1945 57.0837 90.2261 57.0837C91.7636 57.0837 93.2462 56.8646 94.5091 56.4263Z" fill="white"/>
<path d="M125.685 22.3564C128.085 22.3564 130.039 22.6291 131.491 23.1743L130.709 35.6606C128.699 34.9517 126.69 34.6246 124.624 34.6246C122.949 34.6246 121.051 35.2789 118.985 36.533C116.919 37.787 115.356 39.5318 114.295 41.6038V69.6297H100.673V22.3564H114.295V28.7904C115.412 26.882 117.031 25.3553 119.264 24.1558C121.442 22.9562 123.619 22.3564 125.685 22.3564Z" fill="white"/>
<path d="M148.921 70.657H138.688C138.41 70.657 138.132 70.5428 137.965 70.3145L134.906 67.1743C134.684 66.946 134.573 66.7176 134.573 66.4321V60.4373C134.573 59.8093 135.073 59.3525 135.629 59.3525H148.921C149.533 59.3525 149.978 59.8664 149.978 60.4373V69.5723C150.033 70.1432 149.533 70.657 148.921 70.657Z" fill="#030140"/>
</svg>
