<svg width="169" height="146" viewBox="0 0 169 146" fill="none" xmlns="http://www.w3.org/2000/svg">
<path d="M68.565 94.3228C70.4058 93.6138 72.1051 92.763 73.946 91.9122C74.3708 91.6286 74.654 90.9196 74.3708 90.4942C74.0876 90.0687 73.3796 89.7851 72.9547 90.0688C72.1051 90.4942 71.2555 90.9196 70.4058 91.345C70.2642 91.4868 69.981 91.4868 69.8394 91.6286C69.6978 91.6286 69.6978 91.7704 69.5562 91.7704C69.5562 91.7704 69.4146 91.7704 69.4146 91.9122C69.273 91.9122 69.273 91.9122 69.4146 91.9122C69.4146 91.9122 69.273 91.9122 69.273 92.054C69.1314 92.054 69.1314 92.1958 68.9898 92.1958C68.7066 92.3376 68.565 92.3376 68.2818 92.4794C67.7153 92.6212 67.2905 93.1884 67.5737 93.7556C67.4321 94.0392 67.9985 94.6065 68.565 94.3228Z" fill="white"/>
<path d="M66.0161 96.0249C65.8745 98.0102 65.8745 99.9954 66.0161 101.981C66.0161 102.548 66.4409 103.115 67.0074 102.973C67.5738 102.973 68.1402 102.548 67.9986 101.981C67.857 99.9954 67.9986 98.0102 67.9986 96.0249C67.9986 95.4577 67.4322 94.8905 67.0074 95.0323C66.4409 95.0323 66.0161 95.4577 66.0161 96.0249Z" fill="white"/>
<path d="M73.2379 92.6211C73.2379 94.6064 73.2379 96.4498 73.2379 98.435C73.2379 99.0023 73.6627 99.5695 74.2291 99.4277C74.7956 99.4277 75.2204 99.0023 75.2204 98.435C75.2204 96.4498 75.2204 94.6064 75.2204 92.6211C75.2204 92.0539 74.7956 91.4867 74.2291 91.6285C73.6627 91.6285 73.2379 92.0539 73.2379 92.6211Z" fill="white"/>
<path d="M65.8745 106.234C66.0161 108.22 66.0161 110.205 66.1577 112.332C66.1577 112.899 66.5825 113.466 67.1489 113.325C67.7153 113.325 68.2817 112.899 68.1401 112.332C67.9985 110.347 67.9985 108.361 67.8569 106.234C67.8569 105.667 67.4321 105.1 66.8657 105.242C66.4409 105.242 65.8745 105.667 65.8745 106.234Z" fill="white"/>
<path d="M73.238 102.689C73.3796 104.391 73.5212 106.234 73.5212 107.936C73.5212 108.503 73.946 109.07 74.5124 108.929C75.0788 108.929 75.6453 108.503 75.5036 107.936C75.362 106.234 75.2204 104.391 75.2204 102.689C75.2204 102.122 74.7956 101.555 74.2292 101.697C73.6628 101.555 73.0963 101.98 73.238 102.689Z" fill="white"/>
<path d="M69.5562 113.75C70.9723 113.041 72.3883 112.332 73.8044 111.623C74.2292 111.339 74.5124 110.63 74.2292 110.205C73.946 109.638 73.3796 109.496 72.8131 109.779C71.3971 110.489 69.981 111.198 68.565 111.907C67.9985 112.19 67.8569 112.899 68.1401 113.325C68.4234 113.892 68.9898 114.034 69.5562 113.75Z" fill="white"/>
<path d="M80.4599 88.5089C82.3007 87.7999 84 86.949 85.8409 86.0982C86.2657 85.8146 86.5489 85.1056 86.2657 84.6802C85.9825 84.2548 85.2745 83.9712 84.8496 84.2548C84 84.6802 83.1504 85.1056 82.3007 85.531C82.1591 85.6728 81.8759 85.6728 81.7343 85.8146C81.5927 85.8146 81.5927 85.9564 81.4511 85.9564L81.3095 86.0982C81.1679 86.0982 81.1679 86.0982 81.3095 86.0982C81.3095 86.0982 81.1679 86.0982 81.1679 86.24C81.0263 86.24 81.0263 86.3818 80.8847 86.3818C80.6015 86.5236 80.4599 86.5236 80.1767 86.6654C79.6102 86.8072 79.1854 87.3745 79.4686 87.9417C79.327 88.2253 79.8934 88.6507 80.4599 88.5089Z" fill="white"/>
<path d="M77.911 90.211C77.7693 92.1962 77.7693 94.1814 77.911 96.1667C77.911 96.7339 78.3358 97.3011 78.9022 97.1593C79.4686 97.1593 80.035 96.7339 79.8934 96.1667C79.7518 94.1814 79.8934 92.1962 79.8934 90.211C79.8934 89.6437 79.327 89.0765 78.9022 89.2183C78.3358 89.0765 77.911 89.6437 77.911 90.211Z" fill="white"/>
<path d="M85.1329 86.8076C85.1329 88.7929 85.1329 90.6363 85.1329 92.6216C85.1329 93.1888 85.5577 93.756 86.1241 93.6142C86.6905 93.6142 87.1153 93.1888 87.1153 92.6216C87.1153 90.6363 87.1153 88.7929 87.1153 86.8076C87.1153 86.2404 86.6905 85.6732 86.1241 85.815C85.5577 85.815 85.1329 86.2404 85.1329 86.8076Z" fill="white"/>
<path d="M77.7693 100.42C77.7693 102.406 77.911 104.391 78.0526 106.518C78.0526 107.085 78.4774 107.652 79.0438 107.511C79.6102 107.511 80.1766 107.085 80.035 106.518C79.8934 104.533 79.8934 102.547 79.7518 100.42C79.7518 99.8532 79.327 99.286 78.7606 99.4278C78.3358 99.286 77.7693 99.8532 77.7693 100.42Z" fill="white"/>
<path d="M84.9912 96.8753C85.1328 98.5769 85.2744 100.42 85.2744 102.122C85.2744 102.689 85.6992 103.256 86.2657 103.115C86.8321 103.115 87.3985 102.689 87.2569 102.122C87.1153 100.42 86.9737 98.5769 86.9737 96.8753C86.9737 96.308 86.5489 95.7408 85.9825 95.8826C85.5576 95.7408 84.9912 96.1662 84.9912 96.8753Z" fill="white"/>
<path d="M81.3095 107.936C82.7255 107.227 84.1416 106.518 85.5577 105.809C85.9825 105.525 86.2657 104.816 85.9825 104.391C85.6993 103.824 85.1328 103.682 84.5664 103.966C83.1504 104.675 81.7343 105.384 80.3183 106.093C79.7518 106.376 79.6102 107.085 79.8934 107.511C80.3183 108.078 80.8847 108.22 81.3095 107.936Z" fill="white"/>
<path d="M125.49 63.5516C127.473 62.8426 129.314 61.9917 131.013 60.9991C131.58 60.7155 131.721 60.0065 131.438 59.4393C131.155 58.8721 130.447 58.7303 129.88 59.0139C129.031 59.4393 128.181 59.8647 127.331 60.2901C127.048 60.4319 126.907 60.4319 126.623 60.5737C126.482 60.5737 126.34 60.7155 126.34 60.7155L126.198 60.8573C126.057 60.8573 126.057 60.8573 126.198 60.8573C126.34 60.8573 126.198 60.8573 126.198 60.8573C126.198 60.8573 126.057 60.8573 126.057 60.9991C125.915 60.9991 125.774 61.1409 125.774 61.1409C125.49 61.2827 125.349 61.2827 125.066 61.4245C124.499 61.5663 124.074 62.1335 124.358 62.8426C124.216 63.268 124.924 63.6934 125.49 63.5516Z" fill="white"/>
<path d="M122.8 65.2531C122.658 67.3801 122.658 69.5072 122.658 71.4924C122.658 72.0596 123.083 72.6268 123.791 72.6268C124.358 72.6268 124.924 72.2014 124.924 71.4924C124.783 69.3654 124.924 67.2383 125.066 65.2531C125.066 64.6859 124.499 64.1187 123.933 64.1187C123.225 64.1187 122.8 64.6859 122.8 65.2531Z" fill="white"/>
<path d="M130.305 61.7082C130.305 63.6934 130.305 65.8204 130.305 67.8057C130.305 68.3729 130.871 68.9401 131.438 68.9401C132.004 68.9401 132.571 68.5147 132.571 67.8057C132.571 65.8204 132.571 63.6934 132.571 61.7082C132.571 61.1409 132.004 60.5737 131.438 60.5737C130.871 60.5737 130.305 61.1409 130.305 61.7082Z" fill="white"/>
<path d="M122.658 76.0304C122.8 78.1575 122.8 80.2845 122.942 82.4116C122.942 82.9788 123.366 83.546 124.075 83.546C124.641 83.546 125.207 83.1206 125.207 82.4116C125.066 80.2845 125.066 78.1575 124.924 76.0304C124.924 75.4632 124.499 74.896 123.791 74.896C123.225 74.896 122.658 75.3214 122.658 76.0304Z" fill="white"/>
<path d="M130.305 72.2018C130.447 74.0453 130.588 75.8887 130.588 77.7321C130.588 78.2994 131.013 78.8666 131.721 78.8666C132.288 78.8666 132.854 78.4412 132.854 77.7321C132.712 75.8887 132.571 74.0453 132.571 72.2018C132.571 71.6346 132.146 71.0674 131.438 71.0674C130.871 71.0674 130.305 71.6346 130.305 72.2018Z" fill="white"/>
<path d="M126.482 83.9711C128.039 83.2621 129.455 82.4113 131.013 81.7022C131.58 81.4186 131.721 80.7096 131.438 80.1424C131.155 79.5752 130.447 79.4334 129.88 79.717C128.323 80.426 126.907 81.2768 125.349 81.9858C124.782 82.2694 124.641 82.9785 124.924 83.5457C125.207 84.1129 125.915 84.2547 126.482 83.9711Z" fill="white"/>
<path d="M112.604 70.6418C114.587 70.0746 116.428 69.2238 118.127 67.9476C118.552 67.6639 118.835 66.9549 118.552 66.3877C118.269 65.9623 117.561 65.6787 116.994 65.9623C116.145 66.5295 115.295 67.0967 114.445 67.5221C114.304 67.6639 114.02 67.6639 113.737 67.8057C114.02 67.6639 113.596 67.8057 113.596 67.8057C113.454 67.8057 113.454 67.9476 113.312 67.9476C112.888 68.0894 112.463 68.2312 112.038 68.373C111.472 68.5148 111.047 69.2238 111.33 69.791C111.472 70.3582 112.038 70.7836 112.604 70.6418Z" fill="white"/>
<path d="M117.844 68.7985C117.844 70.7837 117.985 72.769 117.985 74.7542C117.985 75.3214 118.552 75.8886 119.118 75.8886C119.685 75.8886 120.251 75.4632 120.251 74.7542C120.251 72.769 120.109 70.7837 120.109 68.7985C120.109 68.2313 119.543 67.6641 118.977 67.6641C118.41 67.6641 117.844 68.0895 117.844 68.7985Z" fill="white"/>
<path d="M116.428 76.8813C115.861 77.3067 115.295 77.7322 114.587 78.0158C114.445 78.0158 114.445 78.0158 114.728 78.0158H114.587H114.445C114.304 78.0158 114.162 78.1576 114.02 78.1576C113.737 78.2994 113.454 78.2994 113.171 78.2994C113.312 78.2994 113.312 78.2994 113.454 78.2994H113.312C113.029 78.2994 112.746 78.4412 112.463 78.583C112.321 78.7248 112.18 79.1502 112.18 79.4338C112.18 80.001 112.604 80.5682 113.312 80.5682C115.012 80.4264 116.428 79.7174 117.702 78.7248C117.985 78.583 118.127 78.2994 118.269 78.0158C118.41 77.7322 118.269 77.4485 118.127 77.1649C117.561 76.7395 116.853 76.4559 116.428 76.8813Z" fill="white"/>
<path d="M110.197 82.1276C110.48 84.2546 110.622 86.2399 110.622 88.3669C110.622 88.9341 111.188 89.5014 111.755 89.5014C112.321 89.5014 112.888 89.076 112.888 88.3669C112.888 86.2399 112.746 84.2546 112.463 82.1276C112.321 81.5604 112.038 80.9932 111.33 80.9932C110.764 80.9932 110.055 81.5604 110.197 82.1276Z" fill="white"/>
<path d="M113.596 90.636C115.437 89.7852 117.277 88.9344 119.118 88.0836C119.685 87.8 119.826 87.091 119.543 86.5238C119.26 85.9565 118.552 85.8147 117.985 86.0983C116.145 86.9492 114.304 87.8 112.463 88.6508C111.896 88.9344 111.755 89.6434 112.038 90.2106C112.463 90.7778 113.029 90.9196 113.596 90.636Z" fill="white"/>
<path d="M164.857 26.6827C161.317 23.2794 156.785 20.5851 152.82 17.8909C147.156 13.9204 141.35 10.0917 135.545 6.40481C133.704 5.27038 131.863 3.99415 129.88 2.85972C128.464 2.0089 127.048 1.29989 125.349 1.01628C122.8 0.732675 120.534 2.15071 118.269 3.14333C107.223 8.10644 96.4613 13.6368 85.6993 19.3089C75.0788 24.8392 64.6 30.6532 54.1212 36.0417C48.7402 38.8778 43.3591 41.572 37.8365 44.1245C32.4555 46.6769 26.9329 48.9458 21.5518 51.4982C16.8789 53.7671 11.9227 56.6032 8.3825 60.5737C5.40878 63.8351 3.70951 68.0892 2.85988 72.3433C1.16061 80.5679 1.72703 89.2179 1.30221 97.5843C1.16061 101.413 0.877395 105.1 0.877395 108.929C0.877395 111.481 0.735789 114.175 2.57667 116.161C4.27594 118.146 6.82484 119.422 9.09053 120.698C11.781 122.4 14.4716 123.96 17.1621 125.661C22.6847 129.065 28.2073 132.326 33.5883 135.729C36.2789 137.431 38.9694 138.991 41.6599 140.693C42.7927 141.402 43.9256 139.558 42.6511 138.849L11.4978 119.989C9.09053 118.571 6.25842 117.153 4.27593 115.168C3.28469 114.175 3.00148 113.466 2.85988 112.048C2.57666 108.787 2.85988 105.383 3.00148 102.122C3.14309 98.7187 3.4263 95.1737 3.56791 91.7704C3.70951 87.6581 3.70951 83.404 3.99272 79.1499C4.27594 74.6122 5.12557 69.7909 7.24966 65.6786C9.65696 60.9991 14.0467 57.8794 18.4365 55.3269C23.2511 52.4909 28.3489 50.6474 33.4467 48.3786C38.6862 45.9679 43.784 43.5573 48.8818 40.863C59.0774 35.7581 69.1314 30.3696 79.1854 24.981C89.381 19.5925 99.5767 14.204 109.914 9.24087C112.463 7.96464 115.153 6.83021 117.702 5.55399C120.393 4.27776 123.508 2.29251 126.482 3.42694C128.323 4.13595 130.164 5.41218 131.863 6.54661C137.244 9.94989 142.483 13.495 147.723 17.04C152.396 20.3015 157.21 23.4212 161.742 26.9663C162.308 27.3917 162.733 27.8171 163.299 28.2425C164.291 29.0933 165.848 27.6753 164.857 26.6827Z" fill="white"/>
<path d="M168.255 43.6992C168.255 40.8632 168.114 38.1689 167.831 35.3329C167.689 33.4894 167.406 31.5042 166.131 30.0861C163.441 26.9665 157.777 27.5337 154.378 28.9517C152.112 29.9443 150.13 31.2206 148.006 32.4968C145.74 33.773 143.616 34.9074 141.35 36.0419C136.677 38.4525 131.863 40.7214 127.048 42.7066C125.774 43.2738 126.907 45.1173 128.181 44.5501C136.111 41.1468 143.758 37.4599 151.121 33.064C154.803 30.937 158.768 28.8099 163.158 30.5115C165.707 31.5042 165.707 34.3402 165.848 36.6091C165.99 38.8779 166.131 41.2886 166.131 43.5574C166.131 45.1173 168.255 45.1173 168.255 43.6992Z" fill="white"/>
<path d="M121.809 45.4006C110.48 50.7891 99.2934 56.3195 88.2481 61.9916C77.2029 67.6637 66.016 73.0522 55.3956 79.5752C51.1474 82.1276 46.4744 84.9637 43.3591 89.076C40.1022 93.4719 40.2438 99.0022 39.9606 104.249C39.6774 110.488 39.3941 116.728 39.1109 122.825C38.8277 127.93 37.8365 134.311 41.0934 138.707C44.0671 142.819 49.1649 141.827 53.1299 139.983C58.3693 137.431 63.6087 134.878 68.8482 132.326C77.6277 128.072 86.4073 123.818 95.1868 119.422C104.674 114.742 114.02 109.779 123.366 104.816C132.712 99.853 142.483 95.599 151.688 90.494C158.909 86.5235 164.998 80.426 166.415 72.0596C167.689 64.9694 168.114 57.5957 168.255 50.3637C168.255 49.2293 168.255 47.9531 168.255 46.8186C168.114 45.5424 166.131 45.4006 166.131 46.8186C166.556 53.1998 165.848 59.7227 165.14 66.1039C164.857 68.9399 164.574 71.776 163.724 74.6121C162.45 79.008 159.193 82.8367 155.653 85.6727C152.396 88.2252 148.572 90.0686 144.89 91.9121C140.217 94.1809 135.686 96.4498 131.013 98.7186C121.526 103.54 112.18 108.645 102.834 113.466C94.762 117.578 86.5489 121.691 78.4773 125.661C74.0876 127.788 69.8394 129.915 65.4496 132.042C63.0423 133.177 60.635 134.453 58.2277 135.587C55.6788 136.864 53.2715 138.282 50.581 139.274C47.8905 140.267 44.7752 140.551 42.9343 137.856C41.3766 135.587 41.0934 132.61 41.0934 130.057C41.0934 124.243 41.5182 118.429 41.8014 112.615C41.943 109.637 42.0847 106.66 42.2263 103.682C42.3679 100.987 42.3679 98.1514 42.9343 95.4571C44.2087 90.2104 48.5985 86.949 52.8467 84.2547C62.4759 77.8735 72.9547 72.7686 83.1503 67.5219C93.6292 62.1334 104.108 56.8867 114.728 51.6399C117.419 50.3637 120.109 49.0875 122.8 47.6695C124.074 46.6768 122.942 44.8334 121.809 45.4006Z" fill="white"/>
<path d="M54.2628 137.573C52.9883 139.7 53.5547 142.536 55.3956 143.954C57.3781 145.514 59.927 144.805 62.0511 143.813C64.8832 142.536 67.7153 141.26 70.5474 139.842C78.619 135.872 86.6905 131.901 94.762 127.789C111.047 119.422 127.19 111.056 143.333 102.264C145.599 100.988 147.864 99.8535 149.988 98.5773C153.104 96.7339 154.378 93.047 153.387 89.6437C152.962 88.3675 150.98 88.9347 151.404 90.2109C151.829 92.0544 151.688 94.0396 150.555 95.5994C150.413 95.883 150.13 96.0248 149.988 96.3084C150.13 96.1666 150.13 96.1666 149.988 96.3084C149.563 96.5921 149.139 96.8757 148.714 97.0175C147.015 98.0101 145.174 99.0027 143.333 99.9953C136.961 103.399 130.588 106.802 124.216 110.205C108.073 118.713 92.0715 127.08 75.6453 135.163C72.2467 136.864 68.7066 138.566 65.308 140.126C63.892 140.693 62.6175 141.402 61.2015 141.969C60.0686 142.536 58.6526 143.104 57.3781 142.82C55.5372 142.395 54.9708 140.126 55.8204 138.708C56.8117 137.573 54.9708 136.439 54.2628 137.573Z" fill="white"/>
<path d="M64.1752 90.0691C71.6803 86.2404 79.1854 82.2699 86.6905 78.4412C87.965 77.7322 89.381 76.8814 90.7971 76.3142C91.9299 75.8888 92.0715 76.456 92.0715 77.4486C91.9299 82.1281 91.9299 86.8076 91.7883 91.3453C91.6467 95.174 91.7883 98.8609 91.5051 102.69C91.3635 106.518 86.5489 107.936 83.7168 109.496C79.0438 111.907 74.3708 114.317 69.6978 116.586L64.6 119.139C63.4671 119.99 62.1927 120.557 62.0511 118.713C61.7679 116.87 62.0511 114.885 62.0511 113.041C62.0511 110.063 62.0511 107.085 62.0511 104.108C62.0511 101.413 62.0511 98.7191 62.0511 96.0248C61.9095 93.756 61.7679 91.4871 64.1752 90.0691C65.308 89.3601 64.3168 87.5166 63.1839 88.2257C58.7942 90.7781 59.927 96.4503 59.927 100.704C59.927 106.093 59.927 111.623 59.927 117.012C59.927 118.713 59.7854 120.557 61.4847 121.549C63.0423 122.542 64.4584 121.691 65.8744 120.982C70.5474 118.572 75.0788 116.303 79.7518 113.892C83.1504 112.19 86.6905 110.489 89.9474 108.645C94.3372 106.235 93.4876 100.846 93.6292 96.4503C93.7708 90.7781 93.9124 85.2478 93.9124 79.5757C93.9124 78.4412 94.1956 76.8814 93.9124 75.747C93.346 73.4781 91.0803 73.6199 89.381 74.4707C80.8847 78.8666 72.2467 83.2625 63.7504 87.6584C63.4671 87.8003 63.1839 87.9421 63.0423 88.0839C61.9095 88.9347 62.9007 90.7781 64.1752 90.0691Z" fill="white"/>
<path d="M109.914 65.6785C117.419 61.9916 124.924 58.4466 132.571 54.7597C133.42 54.3343 134.412 53.6253 135.403 53.4834C137.81 52.9162 137.527 55.6105 137.527 57.0285C137.385 61.9916 137.244 67.0966 137.244 72.0597C137.244 74.0449 137.102 76.0302 137.102 78.0154C137.102 80.2843 136.677 82.2695 134.412 83.4039C131.721 84.822 128.889 86.0982 126.199 87.5162C121.526 89.7851 116.853 92.1957 112.18 94.4646C110.763 95.1736 109.347 96.0244 107.931 96.5916C107.365 96.7334 107.082 97.3007 106.374 96.5916C105.949 96.1662 106.09 95.4572 106.09 94.89C106.232 89.6433 106.515 84.3966 106.657 79.1498C106.799 76.7392 106.798 74.3285 106.94 71.9179C106.798 69.5072 107.223 67.0966 109.914 65.6785C111.047 65.1113 110.055 63.2679 108.781 63.8351C103.966 66.3875 104.533 71.7761 104.391 76.3138C104.25 81.8441 103.966 87.5162 103.825 93.0466C103.825 94.3228 103.542 96.0244 103.966 97.1588C104.958 99.2859 107.082 99.1441 108.923 98.2933C113.171 96.1662 117.419 94.0392 121.809 91.9121C126.057 89.7851 130.447 87.658 134.695 85.531C136.819 84.5384 138.377 82.9785 138.943 80.5679C139.226 79.1498 139.085 77.7318 139.085 76.3138C139.226 70.7834 139.368 65.2531 139.509 59.581C139.509 58.0211 139.651 56.4613 139.651 55.0433C139.509 52.2072 136.819 50.5056 134.128 51.64C125.915 55.3269 117.844 59.4392 109.631 63.4097C109.347 63.5515 109.064 63.6933 108.781 63.8351C107.648 64.5441 108.639 66.3875 109.914 65.6785Z" fill="white"/>
<path d="M54.4044 98.8604C55.5372 98.2932 56.6701 97.726 57.8029 97.1588C58.2278 96.8752 58.511 96.1662 58.2277 95.7407C57.9445 95.3153 57.3781 95.0317 56.8117 95.3153C55.6788 95.8825 54.546 96.4498 53.4132 97.017C52.9883 97.3006 52.7051 98.0096 52.9883 98.435C53.2715 99.0022 53.838 99.144 54.4044 98.8604Z" fill="white"/>
<path d="M54.1212 103.54L57.803 102.406C58.3694 102.264 58.6526 101.697 58.511 101.129C58.3694 100.562 57.803 100.279 57.2365 100.42C55.9621 100.846 54.8292 101.129 53.5548 101.555C52.9884 101.697 52.7051 102.264 52.8468 102.831C52.9884 103.256 53.5548 103.682 54.1212 103.54Z" fill="white"/>
<path d="M54.4044 111.906C54.2628 112.048 54.1212 112.19 53.9796 112.332C53.838 112.474 53.838 112.757 53.6964 112.899C53.5547 113.041 53.5547 113.324 53.5547 113.466C53.5547 113.608 53.5547 113.608 53.5547 113.75C53.5547 113.892 53.5547 113.892 53.5547 114.033C53.6964 114.317 53.6964 114.459 53.9796 114.742C54.1212 114.884 54.4044 115.026 54.6876 115.168C54.9708 115.31 55.254 115.31 55.5372 115.168C55.8204 115.168 55.962 114.884 56.2453 114.742C56.3869 114.601 56.6701 114.317 56.8117 114.175C57.0949 113.892 57.2365 113.75 57.3781 113.466C57.6613 113.041 57.6613 112.615 57.6613 112.19C57.5197 111.765 57.2365 111.339 56.9533 111.197C56.3869 110.914 55.6788 111.056 55.254 111.481C54.8292 111.906 54.6876 112.615 54.9708 113.183C55.1124 113.466 55.254 113.608 55.5372 113.608C55.8204 113.608 56.1037 113.608 56.3869 113.466C56.6701 113.324 56.8117 113.041 56.8117 112.899C56.8117 112.615 56.8117 112.332 56.6701 112.048C56.6701 112.19 56.8117 112.19 56.8117 112.332C56.8117 112.474 56.8117 112.474 56.8117 112.615C56.8117 112.757 56.8117 112.757 56.8117 112.899C56.8117 113.041 56.6701 113.041 56.6701 113.183C56.6701 113.183 56.6701 113.183 56.6701 113.041C56.6701 113.183 56.5285 113.183 56.5285 113.183C56.5285 113.183 56.5285 113.183 56.5285 113.041L56.3869 113.183C56.3869 113.183 56.3869 113.183 56.5285 113.183C56.3869 113.183 56.3869 113.324 56.2453 113.324C56.2453 113.324 56.2453 113.324 56.3869 113.324C56.2453 113.324 56.2453 113.324 56.1037 113.324C56.1037 113.324 56.1037 113.324 56.2453 113.324C56.1037 113.324 56.1037 113.324 55.962 113.324C55.962 113.324 55.962 113.324 56.1037 113.324C55.962 113.324 55.962 113.324 55.8204 113.183C55.8204 113.183 55.8204 113.183 55.962 113.183C55.8204 113.183 55.8204 113.041 55.8204 113.041C55.8204 113.041 55.8204 113.041 55.962 113.183L55.8204 113.041C55.8204 113.041 55.8204 113.183 55.962 113.183C55.962 113.041 55.962 113.041 55.8204 112.899V113.041C55.8204 112.899 55.8204 112.899 55.8204 112.757V112.899C55.8204 112.757 55.8204 112.757 55.8204 112.615C55.8204 112.757 55.8204 112.757 55.8204 112.899C55.8204 112.757 55.962 112.757 55.962 112.615C55.962 112.757 55.8204 112.757 55.8204 112.899C55.8204 112.757 55.962 112.757 55.962 112.615C55.8204 112.757 55.6788 112.899 55.5372 113.183C55.3956 113.324 55.254 113.608 54.9708 113.75C55.1124 113.75 55.1124 113.608 55.254 113.608C55.254 113.608 55.254 113.608 55.1124 113.608C55.254 113.608 55.254 113.608 55.3956 113.466H55.254C55.3956 113.466 55.3956 113.466 55.5372 113.466C55.5372 113.466 55.5372 113.466 55.3956 113.466C55.5372 113.466 55.5372 113.466 55.6788 113.466H55.5372C55.6788 113.466 55.6788 113.466 55.8204 113.608C55.8204 113.608 55.6788 113.608 55.6788 113.466C55.6788 113.466 55.8204 113.608 55.962 113.608C55.962 113.608 55.8204 113.608 55.8204 113.466C55.8204 113.608 55.962 113.608 55.962 113.608C55.962 113.608 55.962 113.466 55.8204 113.466C55.8204 113.608 55.8204 113.608 55.962 113.75V113.608C55.962 113.75 55.962 113.75 55.962 113.892V113.75C55.962 113.892 55.962 113.892 55.962 114.033C55.962 113.892 55.962 113.892 55.962 113.75C55.962 113.892 55.962 113.892 55.8204 114.033C55.962 113.892 55.962 113.608 56.1037 113.466L55.962 113.608C56.1037 113.466 56.1037 113.466 56.2453 113.324C56.2453 113.183 56.3869 113.041 56.3869 112.899C56.3869 112.615 56.2453 112.332 56.1037 112.19C55.962 112.048 55.6788 111.906 55.3956 111.906C54.8292 111.623 54.546 111.765 54.4044 111.906Z" fill="white"/>
<path d="M54.6876 88.0837C60.6351 85.1059 66.7241 82.128 72.6716 79.0083C85.5577 72.6272 98.3022 66.1042 111.188 59.7231C123.083 53.7673 134.978 47.8116 146.873 41.8559C149.988 40.296 153.104 38.7362 156.361 37.1764C156.785 36.8928 157.352 36.6091 157.777 36.4673C160.75 35.6165 160.184 39.3034 160.184 41.005C159.901 47.8116 159.618 54.4764 159.334 61.2829C159.193 64.4026 159.051 67.5223 158.91 70.6419C158.91 72.2018 159.051 74.187 158.485 75.7468C157.635 78.5829 154.237 79.7173 151.971 80.9936C148.006 82.9788 144.041 84.9641 140.076 87.0911C127.615 93.4723 115.153 99.8534 102.692 106.235C90.2307 112.616 77.7694 118.855 65.3081 125.236C61.3431 127.221 57.3782 129.207 53.5548 131.192C51.8555 132.043 47.4657 135.162 47.1825 131.192C47.0409 129.49 47.3241 127.789 47.3241 126.087C47.4657 122.684 47.6074 119.139 47.749 115.735C47.8906 109.921 48.1738 104.107 48.3154 98.2936C48.457 93.8977 50.7227 90.069 54.6876 88.0837C55.8205 87.5165 54.8292 85.6731 53.5548 86.2403C49.165 88.5091 46.4745 92.905 46.1913 97.8682C46.0497 99.7116 46.0497 101.697 46.0497 103.54C45.7665 110.914 45.4833 118.146 45.3417 125.52C45.3417 127.363 45.0584 129.207 45.2 131.05C45.2 134.17 48.3154 136.013 51.1475 134.737C53.2716 133.744 55.3957 132.61 57.5198 131.476C68.7066 125.803 79.7519 120.131 90.9387 114.459C104.533 107.511 118.269 100.562 131.863 93.6141C139.934 89.5018 148.147 85.3895 156.219 81.1354C157.777 80.4264 159.051 79.4337 159.901 77.8739C161.034 76.0304 160.892 73.9034 161.034 71.7764C161.317 64.828 161.6 57.7378 161.883 50.7895C162.025 47.6698 162.166 44.4083 162.308 41.2887C162.308 39.587 162.733 37.6018 161.883 36.0419C159.759 32.6387 156.077 34.9075 153.529 36.1837C143.474 41.2887 133.279 46.2518 123.225 51.3567C109.347 58.305 95.6117 65.2534 81.7344 72.06C72.8132 76.4559 63.892 80.9936 54.9709 85.3895C54.546 85.6731 54.1212 85.8149 53.5548 86.0985C52.4219 86.8075 53.4132 88.6509 54.6876 88.0837Z" fill="white"/>
<path d="M76.9197 41.8556C75.9284 41.1466 75.0788 40.5794 74.0876 39.8703C74.2292 40.2958 74.3708 40.863 74.5124 41.2884C75.2204 40.0121 76.6365 39.4449 77.7693 38.8777C79.4686 38.0269 81.1679 37.3179 83.0087 36.6089C83.7168 36.3253 84.5664 36.0417 85.2744 36.4671C85.8409 36.7507 86.4073 37.3179 86.9737 37.7433C88.2481 38.7359 89.6642 39.1613 91.0803 39.8703C91.6467 40.154 92.6379 40.4376 93.0628 41.1466C93.4876 41.8556 92.7795 42.281 92.2131 42.7064C90.7971 43.5572 89.2394 44.2662 87.6817 44.9753C86.8321 45.4007 85.9825 45.6843 85.1328 46.1097C84.708 46.2515 84.2832 46.5351 83.8584 46.5351C83.292 46.6769 83.1503 46.5351 82.7255 46.2515C81.1679 45.1171 79.6102 44.1244 78.1941 42.99C77.0613 42.1392 76.0701 43.9826 77.2029 44.8335C78.7606 45.9679 80.3182 46.9605 81.7343 48.0949C82.3007 48.5203 82.8671 48.9458 83.7168 48.804C84.5664 48.6622 85.5576 48.2367 86.2657 47.8113C87.9649 47.1023 89.5226 46.3933 91.0803 45.6843C92.3547 44.9753 94.1956 44.408 94.9036 42.99C96.8861 39.8703 92.4963 38.1687 90.3722 37.3179C89.6642 37.0343 88.8146 36.6089 88.2482 36.1835C87.6817 35.758 87.1153 35.049 86.4073 34.7654C84.9912 33.9146 83.4336 34.1982 82.0175 34.9072C80.1766 35.758 78.1941 36.6089 76.3533 37.4597C74.9372 38.1687 73.5211 39.0195 72.6715 40.4376C72.3883 41.0048 72.5299 41.572 73.0963 41.8556C74.0876 42.5646 74.9372 43.2736 75.9284 43.8408C76.9197 44.4081 78.0525 42.5646 76.9197 41.8556Z" fill="white"/>
<path d="M72.3883 42.2814C72.1051 43.6994 71.8219 45.1175 72.3883 46.5355C72.9547 47.8117 74.0876 48.5207 75.2204 49.2298C76.6365 50.2224 78.1941 51.0732 79.6102 52.0658C80.7431 52.7748 82.0175 53.4839 83.4336 53.6257C84.9912 53.6257 86.4073 53.0585 87.8233 52.633C89.381 52.0658 90.7971 51.4986 92.2131 50.7896C93.4876 50.2224 94.6204 49.6552 95.1869 48.2371C95.7533 47.1027 95.7533 45.6847 95.6117 44.4084C95.6117 42.9904 93.4876 42.9904 93.4876 44.4084C93.4876 45.4011 93.6292 46.3937 93.2044 47.2445C92.7796 48.2371 91.6467 48.6625 90.7971 48.9462C89.6642 49.5134 88.3898 49.9388 87.2569 50.3642C86.1241 50.7896 84.9912 51.215 83.7168 51.3568C82.5839 51.3568 81.5927 50.7896 80.743 50.2224C79.7518 49.5134 78.619 48.8043 77.6277 48.2371C76.6365 47.6699 75.5036 47.1027 74.654 46.2519C73.6628 45.4011 74.0876 43.983 74.3708 42.8486C74.654 41.5724 72.6715 41.0052 72.3883 42.2814Z" fill="white"/>
<path d="M85.1328 51.3568V48.3789C85.1328 47.8117 84.708 47.2445 84.1416 47.3863C83.5751 47.3863 83.1503 47.8117 83.1503 48.3789V51.3568C83.1503 51.924 83.5751 52.4912 84.1416 52.3494C84.708 52.4912 85.1328 52.0658 85.1328 51.3568Z" fill="white"/>
<path d="M98.4438 32.6386C97.7358 32.2132 97.0277 31.9296 96.4613 31.5042C95.1869 30.5116 95.7533 29.519 96.8861 29.0935C98.4438 28.3845 100.143 27.8173 101.842 27.1083C104.958 25.8321 108.073 24.414 111.188 22.996C114.445 21.4362 117.561 19.8763 120.676 18.3165C122.234 17.4657 124.499 15.6222 126.34 16.4731C127.898 17.1821 129.172 18.1747 130.588 19.0255C131.296 19.4509 132.146 19.8763 132.854 20.4435C133.279 20.7272 133.704 20.869 133.987 21.1526C133.845 21.7198 133.562 22.1452 132.996 22.287C131.721 23.2796 129.739 23.9886 128.181 24.6976C124.924 26.2575 121.667 27.9591 118.41 29.3772C115.153 30.937 111.896 32.355 108.498 33.7731C106.94 34.4821 105.241 35.4747 103.542 35.7583C101.701 36.0419 100.143 34.6239 99.0102 33.4895C98.019 32.4968 96.6029 34.0567 97.5942 35.0493C99.7182 37.0345 101.984 38.7362 104.958 37.7436C108.356 36.6091 111.613 34.9075 115.012 33.3476C118.552 31.7878 122.234 30.0862 125.774 28.2427C127.331 27.3919 129.031 26.6829 130.588 25.8321C132.146 25.1231 133.987 24.414 135.261 23.2796C135.969 22.5706 136.536 21.7198 136.394 20.7272C136.111 19.3091 134.553 18.7419 133.562 18.0329C132.004 17.0403 130.305 16.0476 128.747 15.1968C127.615 14.4878 126.34 13.7788 124.924 13.9206C123.366 14.0624 121.809 15.1968 120.393 16.0476C118.693 17.0403 116.853 17.8911 115.012 18.7419C111.613 20.4435 108.215 22.0034 104.816 23.4214C102.834 24.2722 100.709 25.1231 98.5854 25.9739C97.311 26.5411 95.4701 26.8247 94.3372 27.9591C93.346 28.8099 93.2044 30.0862 93.7708 31.2206C94.4788 32.7804 96.0365 33.3476 97.4526 34.1985C98.5854 35.0493 99.7182 33.2058 98.4438 32.6386Z" fill="white"/>
<path d="M93.0628 31.5041C92.2131 33.4894 91.6467 35.7582 92.9212 37.7435C94.054 39.4451 96.3197 40.5795 98.1606 41.2885C102.834 43.132 107.223 42.7066 111.33 39.8705C116.145 36.609 121.95 34.9074 127.19 32.7803C131.155 31.0787 136.961 28.9517 136.253 23.5631C136.111 22.2869 133.987 22.2869 134.128 23.5631C134.836 28.5262 127.898 30.2279 124.358 31.6459C120.534 33.2057 116.569 34.6238 112.888 36.4672C111.188 37.318 109.631 38.7361 107.931 39.4451C106.091 40.2959 103.966 40.4377 101.842 40.1541C100.001 39.8705 98.1606 39.0197 96.4613 38.0271C95.4701 37.4598 94.4788 36.609 94.1956 35.4746C93.9124 34.3402 94.6204 33.064 95.0452 32.0713C95.6117 30.7951 93.6292 30.2279 93.0628 31.5041Z" fill="white"/>
<path d="M105.666 40.7211C105.666 40.4375 105.666 40.1539 105.807 39.8703C105.807 40.0121 105.807 40.0121 105.807 40.1539C105.949 39.3031 106.09 38.4522 106.374 37.6014C106.515 37.0342 106.232 36.467 105.666 36.3252C105.099 36.1834 104.533 36.467 104.391 37.0342C103.966 38.3104 103.825 39.4449 103.683 40.7211C103.683 41.2883 104.25 41.8555 104.674 41.7137C105.241 41.7137 105.666 41.2883 105.666 40.7211Z" fill="white"/>
<path d="M55.8204 143.387C53.1299 142.394 50.2978 141.402 47.6073 140.551C47.0409 140.409 46.4744 140.834 46.3328 141.26C46.1912 141.827 46.4744 142.394 47.0409 142.536C49.7314 143.529 52.5635 144.521 55.254 145.372C55.8204 145.514 56.3869 145.088 56.5285 144.663C56.6701 144.096 56.3869 143.67 55.8204 143.387Z" fill="white"/>
</svg>
