<svg width="27" height="28" viewBox="0 0 27 28" fill="none" xmlns="http://www.w3.org/2000/svg">
<path d="M26.7492 6.09272C26.7274 2.32921 23.6898 0.197285 20.7616 0.284302C15.7354 0.436583 10.7093 0.306056 5.70502 0.327811C2.51452 0.327811 0.132568 2.72079 0.132568 5.91869C0.132568 8.48571 0.132568 11.0745 0.132568 13.6415C0.132568 16.1868 0.132568 18.7103 0.132568 21.2555C0.132568 24.584 2.3834 27.0204 5.72687 27.0857C10.8186 27.1727 15.9102 27.1727 21.0238 27.0857C24.3673 27.0422 26.7274 24.6492 26.7492 21.3425C26.7929 16.2303 26.7929 11.1615 26.7492 6.09272ZM8.93923 20.7769C8.93923 20.9292 8.89552 20.951 8.7644 20.951C7.73732 20.951 6.7321 20.951 5.70502 20.951C5.5739 20.951 5.5302 20.9292 5.5302 20.7769C5.5302 17.2527 5.5302 13.7285 5.5302 10.2261C5.5302 10.0955 5.5739 10.052 5.70502 10.052C6.7321 10.052 7.73732 10.052 8.7644 10.052C8.89552 10.052 8.96107 10.0738 8.96107 10.2261C8.96107 11.9882 8.96107 13.7503 8.96107 15.4906C8.93922 17.2527 8.93923 19.0148 8.93923 20.7769ZM9.1359 7.11518C8.91737 7.89834 8.23994 8.48571 7.40953 8.55097C6.44801 8.63799 5.5739 8.00711 5.33352 7.07167C5.31167 7.00641 5.33352 6.94114 5.26796 6.87588C5.26796 6.65834 5.26796 6.44079 5.26796 6.245C5.31167 6.22325 5.31167 6.15799 5.33352 6.11448C5.50835 5.44009 5.9454 4.98325 6.60098 4.7222C6.71024 4.67869 6.81951 4.67869 6.90692 4.61342C7.10359 4.61342 7.30027 4.61342 7.47509 4.61342C7.80288 4.67869 8.10882 4.78746 8.39291 4.98325C9.04849 5.4836 9.35443 6.33202 9.1359 7.11518ZM21.6575 20.9292C20.5867 20.9292 19.4941 20.9292 18.4233 20.9292C18.2922 20.9292 18.2485 20.8857 18.2485 20.7552C18.2485 18.9061 18.2485 17.0569 18.2485 15.2078C18.2485 14.7292 18.2048 14.2289 18.0518 13.772C17.8114 13.1194 17.3525 12.7713 16.6532 12.7278C16.391 12.7061 16.1069 12.7278 15.8447 12.7931C15.1235 12.9889 14.7521 13.511 14.5991 14.2071C14.5117 14.5769 14.468 14.9685 14.468 15.3601C14.468 17.144 14.468 18.9278 14.468 20.7334C14.468 20.864 14.4461 20.9292 14.2931 20.9292C13.2879 20.9292 12.2608 20.9292 11.2556 20.9292C11.1245 20.9292 11.0808 20.9075 11.0808 20.7552C11.0808 17.231 11.0808 13.7285 11.0808 10.2043C11.0808 10.0738 11.1026 10.0303 11.2338 10.0303C12.2171 10.0303 13.2005 10.0303 14.1839 10.0303C14.315 10.0303 14.3368 10.052 14.3368 10.1825C14.3368 10.6176 14.3368 11.0527 14.3368 11.5096C14.4024 11.5096 14.4243 11.4661 14.4243 11.4443C15.0143 10.4871 15.8884 9.98676 16.981 9.83448C17.6585 9.72571 18.3359 9.79097 18.9915 9.94325C20.1497 10.2261 20.8927 10.944 21.286 12.0534C21.5045 12.6625 21.592 13.2934 21.6357 13.9461C21.6357 14.0113 21.6138 14.0548 21.6575 14.1201C21.6575 16.3825 21.6575 18.645 21.6575 20.9292Z" fill="#F24B78"/>
</svg>
