<svg width="28" height="28" viewBox="0 0 28 28" fill="none" xmlns="http://www.w3.org/2000/svg">
<path d="M14.1093 27.0205C11.5307 27.0205 8.93019 27.0205 6.35157 27.0205C3.27033 26.9987 0.822823 24.584 0.822823 21.4949C0.822823 16.3173 0.80097 11.1398 0.822823 5.94049C0.822823 2.67734 3.24848 0.284353 6.5701 0.262598C11.5525 0.262598 16.5349 0.240844 21.5392 0.262598C25.0138 0.262598 27.4395 2.63383 27.4613 6.13628C27.4832 11.0745 27.4395 15.991 27.4832 20.9293C27.505 25.0191 24.3582 27.2598 21.2333 27.0422C18.8513 26.89 16.4694 27.0205 14.1093 27.0205ZM14.1311 22.5173C14.1311 22.4956 14.1311 22.4956 14.1311 22.5173C15.486 22.4956 16.8409 22.5826 18.1739 22.4956C20.6433 22.3433 22.7848 20.3854 22.9378 17.9489C23.0908 15.1861 23.1126 12.3798 22.9378 9.61698C22.763 6.87593 20.6433 4.9833 17.8898 4.89628C15.3986 4.83102 12.9074 4.83102 10.3943 4.89628C7.48791 4.96155 5.32449 7.15874 5.25893 10.0521C5.19337 12.4886 5.21523 14.9251 5.25893 17.3615C5.32449 20.2549 7.48791 22.4086 10.3943 22.5391C11.6181 22.5608 12.8855 22.5173 14.1311 22.5173Z" fill="#F24B78"/>
<path d="M16.8846 13.924C16.819 15.3815 15.4642 16.5998 13.9782 16.491C12.4922 16.404 11.3996 15.2075 11.4433 13.7282C11.487 12.1836 12.6889 11.0306 14.2404 11.0959C15.7701 11.1394 16.9283 12.4012 16.8846 13.924Z" fill="#F24B78"/>
<path d="M21.1896 10.183C21.1459 8.09453 19.7036 6.63699 17.6057 6.59348C15.2675 6.54997 12.9074 6.57172 10.5691 6.59348C8.49314 6.63699 7.029 8.09453 6.98529 10.183C6.94159 12.5107 6.94159 14.8601 6.98529 17.1879C7.029 19.1893 8.51499 20.6251 10.5254 20.6903C11.6618 20.7338 12.82 20.6903 13.9782 20.6903C15.2238 20.6903 16.4694 20.7338 17.715 20.6903C19.7473 20.6251 21.1677 19.211 21.2114 17.1661C21.2333 14.8601 21.2333 12.5324 21.1896 10.183ZM14.1749 18.1233C11.6836 18.1233 9.78245 16.2959 9.73874 13.8377C9.69504 11.4447 11.6399 9.42155 14.0437 9.37804C16.5568 9.33453 18.5454 11.2707 18.5235 13.7724C18.5017 16.2959 16.6879 18.1233 14.1749 18.1233ZM18.9388 9.79137C18.458 9.79137 18.0646 9.39979 18.0646 8.9212C18.0646 8.4426 18.458 8.05102 18.9388 8.05102C19.4195 8.05102 19.8129 8.4426 19.8129 8.9212C19.8129 9.39979 19.4195 9.79137 18.9388 9.79137Z" fill="#F24B78"/>
</svg>
