<svg width="538" height="444" viewBox="0 0 538 444" fill="none" xmlns="http://www.w3.org/2000/svg">
<path d="M362.053 124.875C362.053 130.042 362.053 135.332 362.053 140.499C362.053 141.483 362.053 142.344 362.053 143.328C362.053 144.927 361.684 146.773 362.299 148.372C363.652 152.062 370.049 151.201 373.125 151.201C387.026 151.447 400.927 151.57 414.828 151.693C420.363 151.693 425.776 151.816 431.312 151.816C434.88 151.816 438.078 151.324 441.154 149.233C444.475 147.019 446.812 144.066 449.273 140.991C451.61 138.038 453.824 134.963 456.039 132.01C456.654 131.149 457.515 130.288 458.13 129.304C459.237 127.459 459.606 125.244 459.852 123.03C460.221 120.324 460.098 117.494 460.098 114.788C460.098 104.331 460.221 93.8749 460.221 83.5414C460.221 69.7634 460.344 55.9854 460.344 42.2074C460.344 32.4889 460.344 22.8935 460.221 13.1751C460.221 12.314 460.221 11.3299 460.098 10.4687C459.975 8.1314 457.515 7.88537 455.547 8.1314C453.332 8.37744 450.995 8.1314 448.781 8.1314C445.213 8.1314 441.646 8.25442 438.078 8.25442C427.868 8.37744 417.78 8.25442 407.57 8.25442C394.407 8.25442 381.121 8.50046 367.958 8.62347C366.728 8.62347 365.498 8.62347 364.144 8.62347C363.529 8.62347 363.037 9.11554 363.037 9.73063C362.914 24.0007 362.791 38.3938 362.791 52.6639C362.791 54.7552 362.791 56.7235 362.791 58.8148C362.791 60.168 364.882 60.168 364.882 58.8148C365.005 44.5447 365.128 30.1516 365.128 15.8815C365.128 13.7902 365.128 11.8219 365.128 9.73063L364.021 10.8378C374.601 10.8378 385.18 10.5918 395.76 10.5918C405.724 10.4687 415.566 10.5918 425.53 10.7148C432.419 10.7148 439.431 10.4687 446.32 10.4687C448.658 10.4687 450.872 10.3457 453.209 10.4687C454.439 10.4687 456.531 9.85365 457.761 10.4687C457.884 10.5918 457.638 10.0997 457.761 10.3457C457.761 10.4687 457.761 10.5918 457.761 10.7148C458.007 18.0958 457.884 25.4769 457.884 32.858C457.884 45.8979 457.884 58.9378 457.884 71.9777C457.884 83.9104 457.761 95.8431 457.761 107.776C457.761 111.097 457.761 114.542 457.761 117.863C457.761 122.169 457.638 126.475 454.932 129.919C452.963 132.502 451.118 135.086 449.15 137.669C447.058 140.499 444.844 143.574 442.138 145.911C440.046 147.757 437.586 149.356 434.88 149.848C433.772 150.094 432.665 149.971 431.558 149.971C429.467 149.971 427.252 149.971 425.161 149.848C411.383 149.725 397.482 149.602 383.704 149.479C378.783 149.479 373.74 149.356 368.819 149.233C367.466 149.233 365.005 149.356 364.39 147.88C363.898 146.65 364.267 144.681 364.267 143.328C364.267 142.221 364.267 141.237 364.267 140.13C364.267 135.086 364.267 130.165 364.267 125.121C364.144 123.522 362.053 123.522 362.053 124.875Z" fill="#030140"/>
<path d="M430.574 93.3829L406.955 93.2598C406.34 93.2598 405.724 93.0138 405.232 92.5217L398.22 85.3867C397.728 84.8946 397.482 84.2795 397.482 83.6644L397.605 70.1325C397.605 68.7793 398.712 67.6721 400.066 67.6721L430.697 67.9182C432.05 67.9182 433.157 69.0253 433.157 70.3785L433.034 90.9225C433.034 92.2757 431.927 93.3829 430.574 93.3829Z" fill="#F24B78"/>
<path d="M425.284 46.8821L403.387 46.7591C402.403 46.7591 401.542 46.8821 400.681 46.267C399.081 45.0369 397.851 43.3146 396.498 41.9614C395.514 40.9773 393.669 39.7471 393.546 38.3939C393.3 36.7947 393.546 35.0724 393.546 33.5962C393.546 31.3819 393.546 29.0445 393.546 26.8302C393.546 25.6 393.3 24.1238 394.899 23.8778C395.883 23.7548 396.867 23.8778 397.851 23.8778H403.879C408.554 23.8778 413.352 24.0008 418.026 24.0008C419.748 24.0008 421.594 24.0008 423.316 24.0008C423.931 24.0008 424.792 23.8778 425.407 24.0008C427.007 24.2468 426.514 26.7072 426.514 27.9374C426.514 30.3977 426.514 32.8581 426.514 35.3184C426.514 37.7788 426.514 40.3622 426.514 42.8225C426.514 43.9297 427.007 46.7591 425.284 46.8821C423.685 47.0051 423.685 49.5885 425.284 49.4655C427.745 49.3425 428.975 47.4972 428.975 45.1599C428.975 43.3146 428.975 41.3463 428.975 39.5011C428.975 34.9494 429.098 30.3977 429.098 25.8461C429.098 23.6317 427.991 21.6635 425.653 21.4174C424.792 21.2944 423.931 21.4174 423.07 21.4174C418.272 21.4174 413.598 21.2944 408.8 21.2944C404.494 21.2944 400.312 21.2944 396.006 21.1714C394.53 21.1714 393.054 21.1714 391.946 22.5246C390.839 23.8778 391.085 25.9691 391.085 27.6913C391.085 30.2747 391.085 32.8581 391.085 35.4415C391.085 37.2867 390.716 39.378 391.946 40.8542C393.177 42.3305 394.653 43.5606 395.883 44.9138C397.113 46.144 398.589 48.2353 400.312 48.9734C401.419 49.4655 402.895 49.3425 404.125 49.3425C406.34 49.3425 408.677 49.3425 410.891 49.3425C415.443 49.3425 419.872 49.4655 424.423 49.4655C424.669 49.4655 424.915 49.4655 425.284 49.4655C426.884 49.4655 426.884 46.8821 425.284 46.8821Z" fill="#030140"/>
<path d="M427.376 88.2159C420.118 88.2159 412.736 88.0928 405.478 88.0928C404.494 88.0928 403.633 88.2159 402.772 87.6008C401.173 86.3706 399.943 84.6483 398.589 83.2952C397.605 82.311 395.76 81.0808 395.637 79.7276C395.391 78.1284 395.637 76.4061 395.637 74.9299C395.637 72.7156 395.637 70.3783 395.637 68.1639C395.637 66.9338 395.391 65.4576 396.99 65.2115C397.974 65.0885 398.958 65.2115 399.943 65.2115C401.911 65.2115 404.002 65.2115 405.971 65.2115C410.645 65.2115 415.443 65.3345 420.118 65.3345H425.407C426.022 65.3345 426.884 65.2115 427.499 65.3345C429.098 65.5806 428.606 68.0409 428.606 69.2711C428.606 71.7315 428.606 74.1918 428.606 76.6522C428.606 79.1126 428.606 81.6959 428.606 84.1563C428.483 85.2634 429.098 88.0928 427.376 88.2159C425.776 88.3389 425.776 90.9223 427.376 90.7992C429.836 90.6762 431.066 88.831 431.066 86.4936C431.066 84.6484 431.066 82.6801 431.066 80.8348C431.066 76.2831 431.189 71.7315 431.189 67.1798C431.189 64.9655 430.082 62.9972 427.745 62.7512C426.884 62.6282 426.022 62.7512 425.161 62.7512C420.364 62.7512 415.689 62.6281 410.891 62.6281C406.586 62.6281 402.403 62.6281 398.097 62.5051C396.621 62.5051 395.145 62.5051 394.038 63.8583C392.931 65.2115 393.177 67.3028 393.177 69.0251C393.177 71.6084 393.177 74.1918 393.177 76.7752C393.177 78.6205 392.808 80.7118 394.038 82.188C395.268 83.6642 396.744 84.8944 397.974 86.2476C399.205 87.4778 400.681 89.5691 402.403 90.3072C403.51 90.7992 404.986 90.6762 406.217 90.6762C408.431 90.6762 410.768 90.6762 412.983 90.6762C417.534 90.6762 421.963 90.7992 426.514 90.7992C426.761 90.7992 427.007 90.7992 427.376 90.7992C428.975 90.7992 428.975 88.2159 427.376 88.2159Z" fill="#030140"/>
<path d="M430.574 134.348C423.316 134.348 415.935 134.225 408.677 134.225C407.693 134.225 406.832 134.348 405.97 133.733C404.371 132.502 403.141 130.78 401.788 129.427C400.804 128.443 398.958 127.213 398.835 125.859C398.589 124.26 398.835 122.538 398.835 121.062C398.835 118.847 398.835 116.51 398.835 114.296C398.835 113.066 398.589 111.589 400.189 111.343C401.173 111.22 402.157 111.343 403.141 111.343C405.109 111.343 407.201 111.343 409.169 111.343C413.844 111.343 418.641 111.466 423.316 111.466C425.038 111.466 426.883 111.466 428.606 111.466C429.221 111.466 430.082 111.343 430.697 111.466C432.296 111.712 431.804 114.173 431.804 115.403C431.804 117.863 431.804 120.324 431.804 122.784C431.804 125.244 431.804 127.828 431.804 130.288C431.804 131.395 432.296 134.225 430.574 134.348C428.975 134.471 428.975 137.054 430.574 136.931C433.034 136.808 434.265 134.963 434.265 132.625C434.265 130.78 434.265 128.812 434.265 126.967C434.265 122.415 434.388 117.863 434.388 113.312C434.388 111.097 433.28 109.129 430.943 108.883C430.082 108.76 429.221 108.883 428.36 108.883C423.562 108.883 418.887 108.76 414.09 108.76L401.296 108.637C399.82 108.637 398.343 108.637 397.236 109.99C396.129 111.343 396.375 113.435 396.375 115.157C396.375 117.74 396.375 120.324 396.375 122.907C396.375 124.752 396.006 126.844 397.236 128.32C398.466 129.796 399.943 131.026 401.173 132.379C402.403 133.61 403.879 135.701 405.601 136.439C406.709 136.931 408.185 136.808 409.415 136.808C411.629 136.808 413.967 136.808 416.181 136.808C420.733 136.808 425.161 136.931 429.713 136.931C429.959 136.931 430.205 136.931 430.574 136.931C432.173 136.808 432.173 134.348 430.574 134.348Z" fill="#030140"/>
<path d="M340.894 82.1882C338.434 88.2161 337.449 94.859 338.188 101.379C338.557 104.947 339.541 108.514 341.509 111.466C345.2 117.125 352.335 120.078 359.224 119.955C365.99 119.832 372.633 117.248 378.414 113.681C379.891 112.82 381.367 111.836 382.474 110.482C383.581 109.129 384.073 107.407 384.565 105.685C387.149 96.0892 387.887 84.8946 381.244 77.3905C378.906 74.8071 375.954 72.8388 372.756 71.6087C363.16 67.7951 351.474 69.7634 343.723 76.5294" fill="#F24B78"/>
<path d="M334.866 86.9858C332.652 92.5216 331.545 98.5495 332.037 104.454C332.406 109.744 333.759 115.034 337.326 119.094C344.462 126.967 356.148 127.09 365.375 123.645C367.958 122.661 370.541 121.431 372.879 120.078C375.216 118.724 377.553 117.371 378.907 114.911C380.137 112.697 380.629 110.113 381.244 107.653C381.736 105.192 382.105 102.609 382.228 100.149C382.474 95.4741 381.859 90.5533 379.768 86.2477C377.553 81.6961 373.617 78.3746 369.065 76.4063C358.855 71.8546 346.43 73.8229 338.065 81.081C337.203 81.8191 338.434 83.1723 339.418 82.4342C346.307 76.5293 356.148 74.438 364.882 76.8984C369.434 78.1285 373.863 80.7119 376.569 84.6485C379.153 88.216 380.26 92.6446 380.383 97.0733C380.506 101.625 379.891 106.054 378.66 110.359C377.922 113.066 377.061 115.403 374.601 117.125C372.633 118.601 370.295 119.709 368.081 120.816C359.593 124.875 348.89 126.352 340.894 120.201C336.342 116.756 334.374 111.22 333.882 105.562C333.39 99.4106 334.374 93.3828 336.588 87.7239C337.08 86.3707 335.358 85.8787 334.866 86.9858Z" fill="#030140"/>
<path d="M351.104 93.8748C350.858 91.9065 352.212 89.9382 354.057 89.3231C355.533 88.954 358.609 89.4461 358.609 91.4144C358.609 92.6446 357.255 93.9978 356.64 94.9819C355.779 96.3351 354.795 97.6883 353.934 99.0415C352.089 101.871 350.12 104.7 348.275 107.53C347.291 109.006 348.521 110.851 350.243 110.851C356.394 110.851 362.422 110.359 368.573 109.621C369.803 109.498 370.787 108.76 370.787 107.407C370.787 106.3 369.803 105.069 368.573 105.192C362.545 105.931 356.394 106.3 350.243 106.423L352.212 109.744C354.057 106.915 356.025 104.085 357.87 101.256C358.855 99.7796 359.716 98.4264 360.7 96.9502C361.561 95.597 362.545 94.3668 362.914 92.7676C363.775 89.5691 361.561 86.6167 358.609 85.3865C355.902 84.2794 352.704 84.5254 350.243 86.2477C347.414 88.339 346.307 91.5374 346.799 94.9819C346.922 96.2121 348.521 96.8272 349.505 96.5812C350.858 96.3351 351.351 95.105 351.104 93.8748Z" fill="#030140"/>
<path d="M204.836 2.47256C203.237 1.48842 201.638 0.381252 199.793 0.135217C196.594 -0.479873 193.519 1.11936 190.689 2.59557C164.855 15.8815 139.022 29.1674 113.188 42.4534C107.16 45.5288 101.009 48.8503 97.3186 54.3861C94.7352 58.4457 93.6281 63.2434 92.89 68.0411C91.5368 76.7754 91.0447 85.7557 90.7987 94.6129C90.7987 96.2122 90.6757 97.9344 91.5368 99.4107C92.2749 100.641 93.5051 101.379 94.7352 101.994C104.946 107.776 115.156 113.558 125.367 119.463C123.89 112.081 122.906 104.454 122.291 96.9503C121.799 91.4145 121.676 85.5096 124.013 80.5889C126.843 74.8071 132.502 71.1165 138.038 67.9181C153.169 58.8147 168.915 50.6956 184.661 42.6994C192.534 38.7628 200.408 34.9493 208.281 31.1357C212.094 29.2905 226.733 24.9848 226.118 19.326C225.749 16.1275 218.737 12.437 216.4 10.5917C212.463 7.63931 208.65 4.93292 204.836 2.47256Z" fill="#F24B78"/>
<path d="M152.062 83.1721C153.661 82.5571 155.137 81.8189 156.736 81.0808C157.105 80.8348 157.351 80.2197 157.105 79.8507C156.859 79.4816 156.244 79.2356 155.875 79.4816C155.137 79.8507 154.399 80.2197 153.661 80.5888C153.538 80.7118 153.292 80.7118 153.169 80.8348C153.046 80.8348 153.046 80.9578 152.923 80.9578L152.8 81.0808C152.677 81.0808 152.677 81.0808 152.8 81.0808C152.8 81.0808 152.677 81.0808 152.677 81.2039C152.554 81.2039 152.554 81.3269 152.431 81.3269C152.185 81.4499 152.062 81.4499 151.816 81.5729C151.323 81.6959 150.954 82.188 151.2 82.6801C151.077 83.0491 151.569 83.4182 152.062 83.1721Z" fill="#030140"/>
<path d="M149.724 84.6483C149.601 86.3706 149.601 88.0928 149.724 89.8151C149.724 90.3071 150.093 90.7992 150.585 90.6762C151.077 90.6762 151.57 90.3071 151.446 89.8151C151.323 88.0928 151.446 86.3706 151.446 84.6483C151.446 84.1563 150.954 83.6642 150.585 83.7872C150.216 83.7872 149.847 84.1563 149.724 84.6483Z" fill="#030140"/>
<path d="M155.998 81.6959C155.998 83.4182 155.998 85.0174 155.998 86.7397C155.998 87.2317 156.367 87.7238 156.859 87.6008C157.351 87.6008 157.72 87.2317 157.72 86.7397C157.72 85.0174 157.72 83.4182 157.72 81.6959C157.72 81.2038 157.351 80.7118 156.859 80.8348C156.49 80.8348 155.998 81.2038 155.998 81.6959Z" fill="#030140"/>
<path d="M149.724 93.506C149.847 95.2282 149.847 96.9505 149.97 98.7957C149.97 99.2878 150.339 99.7799 150.831 99.6569C151.323 99.6569 151.816 99.2878 151.693 98.7957C151.569 97.0735 151.569 95.3512 151.446 93.506C151.446 93.0139 151.077 92.5218 150.585 92.6449C150.093 92.6449 149.724 93.0139 149.724 93.506Z" fill="#030140"/>
<path d="M155.998 90.4305C156.121 91.9067 156.244 93.506 156.244 94.9822C156.244 95.4743 156.613 95.9663 157.105 95.8433C157.597 95.8433 158.089 95.4743 157.966 94.9822C157.843 93.506 157.72 91.9067 157.72 90.4305C157.72 89.9385 157.351 89.4464 156.859 89.5694C156.49 89.5694 155.998 89.9385 155.998 90.4305Z" fill="#030140"/>
<path d="M152.8 100.026C154.03 99.4107 155.26 98.7956 156.49 98.1805C156.859 97.9345 157.105 97.3194 156.859 96.9503C156.613 96.4583 156.121 96.3352 155.629 96.5813C154.399 97.1964 153.169 97.8114 151.939 98.4265C151.446 98.6726 151.323 99.2877 151.569 99.6567C151.816 100.149 152.431 100.272 152.8 100.026Z" fill="#030140"/>
<path d="M162.272 78.1287C163.871 77.5136 165.347 76.7755 166.947 76.0374C167.316 75.7913 167.562 75.1763 167.316 74.8072C167.07 74.4382 166.455 74.1921 166.086 74.4381C165.347 74.8072 164.609 75.1762 163.871 75.5453C163.748 75.6683 163.502 75.6683 163.379 75.7913C163.256 75.7913 163.256 75.9144 163.133 75.9144C163.133 75.9144 163.01 75.9144 163.01 76.0374C162.887 76.0374 162.887 76.0374 163.01 76.0374H162.887C162.764 76.0374 162.764 76.1604 162.641 76.1604C162.395 76.2834 162.272 76.2834 162.026 76.4064C161.534 76.5294 161.165 77.0215 161.411 77.5136C161.288 78.0057 161.78 78.3747 162.272 78.1287Z" fill="#030140"/>
<path d="M160.058 79.6049C159.935 81.3271 159.935 83.0493 160.058 84.7716C160.058 85.2637 160.427 85.7557 160.919 85.6327C161.411 85.6327 161.903 85.2637 161.78 84.7716C161.657 83.0493 161.78 81.3271 161.78 79.6049C161.78 79.1128 161.288 78.6207 160.919 78.7437C160.427 78.7437 160.058 79.1128 160.058 79.6049Z" fill="#030140"/>
<path d="M166.332 76.6522C166.332 78.3745 166.332 79.9737 166.332 81.696C166.332 82.188 166.701 82.6801 167.193 82.5571C167.685 82.5571 168.054 82.188 168.054 81.696C168.054 79.9737 168.054 78.3745 168.054 76.6522C168.054 76.1602 167.685 75.6681 167.193 75.7911C166.824 75.7911 166.332 76.1602 166.332 76.6522Z" fill="#030140"/>
<path d="M160.058 88.462C160.058 90.1843 160.181 91.9065 160.304 93.7518C160.304 94.2439 160.673 94.7359 161.165 94.6129C161.657 94.6129 162.149 94.2439 162.026 93.7518C161.903 92.0296 161.903 90.3073 161.78 88.462C161.78 87.97 161.411 87.4779 160.919 87.6009C160.427 87.6009 159.935 87.97 160.058 88.462Z" fill="#030140"/>
<path d="M166.332 85.3866C166.455 86.8628 166.578 88.462 166.578 89.9382C166.578 90.4303 166.947 90.9224 167.439 90.7994C167.931 90.7994 168.423 90.4303 168.3 89.9382C168.177 88.462 168.054 86.8628 168.054 85.3866C168.054 84.8945 167.685 84.4024 167.193 84.5255C166.824 84.4024 166.332 84.8945 166.332 85.3866Z" fill="#030140"/>
<path d="M163.133 94.9818C164.363 94.3667 165.594 93.7516 166.824 93.1366C167.193 92.8905 167.439 92.2754 167.193 91.9064C166.947 91.4143 166.455 91.2913 165.963 91.5373C164.732 92.1524 163.502 92.7675 162.272 93.3826C161.78 93.6286 161.657 94.2437 161.903 94.6128C162.149 95.1048 162.641 95.2279 163.133 94.9818Z" fill="#030140"/>
<path d="M201.392 56.4773C203.114 55.8622 204.713 55.1241 206.189 54.263C206.682 54.017 206.805 53.4019 206.558 52.9098C206.312 52.4177 205.697 52.2947 205.205 52.5407C204.467 52.9098 203.729 53.4019 202.991 53.6479C202.745 53.7709 202.622 53.7709 202.376 53.8939C202.253 53.8939 202.13 54.017 202.13 54.017C202.13 54.017 202.007 54.017 202.007 54.14C201.884 54.14 201.884 54.14 202.007 54.14C202.13 54.14 202.007 54.14 202.007 54.14C202.007 54.14 201.884 54.14 201.884 54.263C201.761 54.263 201.638 54.386 201.638 54.386C201.392 54.509 201.269 54.509 201.023 54.632C200.531 54.7551 200.162 55.2471 200.408 55.8622C200.408 56.2313 200.9 56.6003 201.392 56.4773Z" fill="#030140"/>
<path d="M199.054 57.9534C198.931 59.7987 198.931 61.6439 198.931 63.3662C198.931 63.8582 199.3 64.3503 199.916 64.3503C200.408 64.3503 200.9 63.9813 200.9 63.3662C200.777 61.5209 200.9 59.6756 201.023 57.9534C201.023 57.4613 200.531 56.9692 200.039 56.9692C199.546 57.0923 199.054 57.4613 199.054 57.9534Z" fill="#030140"/>
<path d="M205.697 54.8779C205.697 56.6002 205.697 58.4455 205.697 60.1677C205.697 60.6598 206.189 61.1519 206.682 61.1519C207.174 61.1519 207.666 60.7828 207.666 60.1677C207.666 58.4455 207.666 56.6002 207.666 54.8779C207.666 54.3859 207.174 53.8938 206.682 53.8938C206.066 54.0168 205.697 54.3859 205.697 54.8779Z" fill="#030140"/>
<path d="M199.054 67.303C199.177 69.1483 199.177 70.9935 199.3 72.8388C199.3 73.3309 199.669 73.8229 200.285 73.8229C200.777 73.8229 201.269 73.4539 201.269 72.8388C201.146 70.9935 201.146 69.1483 201.023 67.303C201.023 66.8109 200.654 66.3188 200.039 66.3188C199.423 66.3188 198.931 66.6879 199.054 67.303Z" fill="#030140"/>
<path d="M205.574 63.9815C205.697 65.5807 205.82 67.1799 205.82 68.7792C205.82 69.2712 206.189 69.7633 206.805 69.7633C207.297 69.7633 207.789 69.3942 207.789 68.7792L207.543 63.9815C207.543 63.4894 207.174 62.9973 206.559 62.9973C206.066 63.1203 205.574 63.4894 205.574 63.9815Z" fill="#030140"/>
<path d="M202.253 74.192C203.606 73.5769 204.836 72.8388 206.189 72.2237C206.682 71.9776 206.805 71.3625 206.558 70.8705C206.312 70.3784 205.697 70.2554 205.205 70.5014C203.852 71.1165 202.622 71.8546 201.269 72.4697C200.777 72.7158 200.654 73.3308 200.9 73.8229C201.269 74.315 201.761 74.438 202.253 74.192Z" fill="#030140"/>
<path d="M190.32 62.6281C192.042 62.136 193.642 61.3979 195.118 60.2908C195.487 60.0447 195.733 59.4296 195.487 58.9376C195.241 58.5685 194.626 58.3225 194.134 58.5685C193.396 59.0606 192.657 59.5527 191.919 59.9217C191.796 60.0447 191.55 60.0447 191.304 60.1677C191.55 60.0447 191.181 60.1677 191.181 60.1677C191.058 60.1677 191.058 60.2908 190.935 60.2908C190.566 60.4138 190.197 60.5368 189.828 60.6598C189.336 60.7828 188.967 61.3979 189.213 61.89C189.213 62.5051 189.705 62.7511 190.32 62.6281Z" fill="#030140"/>
<path d="M194.872 61.0291C194.872 62.7513 194.995 64.4736 194.995 66.1958C194.995 66.6879 195.487 67.18 195.979 67.18C196.471 67.18 196.963 66.8109 196.963 66.1958C196.963 64.4736 196.84 62.7513 196.84 61.0291C196.84 60.537 196.348 60.0449 195.856 60.0449C195.241 60.0449 194.872 60.537 194.872 61.0291Z" fill="#030140"/>
<path d="M193.519 68.0412C193.027 68.4103 192.534 68.7793 191.919 69.0253C191.796 69.0253 191.796 69.0253 192.042 69.0253H191.919H191.796C191.673 69.0253 191.55 69.1484 191.427 69.1484C191.181 69.2714 190.935 69.2714 190.689 69.2714H190.935H190.812C190.566 69.2714 190.32 69.3944 190.074 69.5174C189.951 69.6404 189.828 70.0095 189.828 70.2555C189.828 70.7476 190.197 71.2397 190.812 71.2397C192.288 71.1166 193.519 70.5015 194.626 69.6404C194.872 69.5174 194.995 69.2714 195.118 69.0253C195.241 68.7793 195.118 68.5333 194.995 68.2872C194.626 67.9182 194.011 67.6722 193.519 68.0412Z" fill="#030140"/>
<path d="M188.106 72.5928C188.352 74.4381 188.475 76.1603 188.475 78.0056C188.475 78.4976 188.967 78.9897 189.459 78.9897C189.951 78.9897 190.443 78.6207 190.443 78.0056C190.443 76.1603 190.32 74.4381 190.074 72.5928C189.951 72.1007 189.705 71.6086 189.09 71.6086C188.598 71.7317 188.106 72.1007 188.106 72.5928Z" fill="#030140"/>
<path d="M191.181 79.9739C192.78 79.2358 194.38 78.4977 195.979 77.7596C196.471 77.5135 196.594 76.8984 196.348 76.4064C196.102 75.9143 195.487 75.7913 194.995 76.0373C193.396 76.7754 191.796 77.5135 190.197 78.2516C189.705 78.4977 189.582 79.1128 189.828 79.6048C190.074 80.0969 190.689 80.2199 191.181 79.9739Z" fill="#030140"/>
<path d="M235.591 24.4927C232.515 21.5403 228.579 19.203 225.134 16.8656C220.213 13.4211 215.17 10.0996 210.126 6.90118C208.527 5.91704 206.928 4.80988 205.205 3.82573C203.975 3.08762 202.745 2.47253 201.269 2.2265C199.054 1.98046 197.086 3.21064 195.118 4.07176C185.522 8.37739 176.173 13.1751 166.824 18.0958C157.597 22.8935 148.494 27.9372 139.391 32.6119C134.716 35.0723 130.041 37.4096 125.244 39.6239C120.569 41.8383 115.771 43.8065 111.097 46.0209C107.037 47.9891 102.731 50.4495 99.6559 53.894C97.0726 56.7234 95.5964 60.414 94.8583 64.1045C93.382 71.2395 93.8741 78.7436 93.505 86.0017C93.382 89.3232 93.136 92.5216 93.136 95.8431C93.136 98.0574 93.013 100.395 94.6122 102.117C96.0884 103.839 98.3027 104.946 100.271 106.054C102.608 107.53 104.946 108.883 107.283 110.359C112.081 113.312 116.878 116.141 121.553 119.093C123.89 120.57 126.228 121.923 128.565 123.399C129.549 124.014 130.533 122.415 129.426 121.8C120.446 116.387 111.343 110.851 102.362 105.439C100.271 104.208 97.8107 102.978 96.0884 101.256C95.2273 100.395 94.9813 99.7797 94.8583 98.5495C94.6122 95.7201 94.8582 92.7677 94.9813 89.9382C95.1043 86.9858 95.3503 83.9104 95.4733 80.958C95.5964 77.3904 95.5964 73.6999 95.8424 70.1324C96.0884 66.1958 96.8265 62.0132 98.6718 58.4457C100.763 54.3861 104.577 51.6797 108.39 49.4654C112.573 47.005 117.001 45.4058 121.43 43.4375C125.982 41.3462 130.41 39.2549 134.839 36.9175C143.696 32.4889 152.431 27.8142 161.165 23.1395C170.022 18.4649 178.879 13.7902 187.86 9.48455C190.074 8.37739 192.411 7.39325 194.626 6.28609C196.963 5.17893 199.67 3.45668 202.253 4.44082C203.852 5.05591 205.451 6.16307 206.928 7.14721C211.602 10.0996 216.154 13.1751 220.706 16.2505C224.765 19.0799 228.948 21.7863 232.884 24.8618C233.376 25.2308 233.745 25.5999 234.238 25.969C235.222 26.584 236.452 25.3539 235.591 24.4927Z" fill="#030140"/>
<path d="M238.666 39.3778C238.666 36.9175 238.543 34.5801 238.297 32.1198C238.174 30.5206 237.928 28.7983 236.821 27.5681C234.484 24.8617 229.563 25.3538 226.61 26.584C224.642 27.4451 222.92 28.5523 221.075 29.6594C219.106 30.7666 217.261 31.7507 215.293 32.7349C211.233 34.8262 207.051 36.7945 202.868 38.5167C201.761 39.0088 202.745 40.608 203.852 40.116C210.741 37.1635 217.384 33.9651 223.781 30.1515C226.979 28.3062 230.424 26.461 234.238 27.9372C236.452 28.7983 236.452 31.2587 236.575 33.227C236.698 35.1952 236.821 37.2865 236.821 39.2548C236.821 40.485 238.666 40.485 238.666 39.3778Z" fill="#030140"/>
<path d="M198.193 40.7313C188.475 45.4059 178.756 50.2036 169.038 55.1243C159.443 60.0451 149.724 64.7197 140.498 70.3786C136.807 72.5929 132.748 75.0532 130.041 78.6208C127.212 82.4343 127.335 87.232 127.089 91.7837C126.843 97.1965 126.597 102.609 126.351 107.899C126.105 112.328 125.244 117.863 128.073 121.677C130.656 125.245 135.085 124.383 138.53 122.784C143.081 120.57 147.633 118.356 152.185 116.141C159.812 112.451 167.439 108.76 175.066 104.947C183.308 100.887 191.427 96.5814 199.546 92.2758C207.666 87.9701 216.154 84.2796 224.15 79.8509C230.424 76.4064 235.714 71.1167 236.944 63.8586C238.051 57.7077 238.42 51.3108 238.543 45.0369C238.543 44.0527 238.543 42.9456 238.543 41.9614C238.42 40.8543 236.698 40.7313 236.698 41.9614C237.067 47.4972 236.452 53.1561 235.837 58.6919C235.591 61.1522 235.345 63.6126 234.607 66.0729C233.499 69.8865 230.67 73.208 227.595 75.6683C224.765 77.8827 221.444 79.4819 218.245 81.0811C214.186 83.0494 210.249 85.0177 206.189 86.986C197.947 91.1686 189.828 95.5972 181.709 99.7798C174.697 103.347 167.562 106.915 160.55 110.359C156.736 112.205 153.046 114.05 149.232 115.895C147.141 116.879 145.05 117.986 142.958 118.971C140.744 120.078 138.653 121.308 136.315 122.169C133.978 123.03 131.272 123.276 129.672 120.939C128.319 118.971 128.073 116.387 128.073 114.173C128.073 109.129 128.442 104.085 128.688 99.0417C128.811 96.4584 128.934 93.875 129.057 91.2916C129.18 88.9543 129.18 86.4939 129.672 84.1566C130.779 79.6049 134.593 76.7755 138.284 74.4382C146.649 68.9024 155.752 64.4737 164.609 59.922C173.713 55.2474 182.816 50.6957 192.042 46.1441C194.38 45.0369 196.717 43.9297 199.054 42.6995C200.162 41.8384 199.3 40.2392 198.193 40.7313Z" fill="#030140"/>
<path d="M139.637 120.816C138.53 122.661 139.022 125.121 140.621 126.352C142.343 127.705 144.557 127.09 146.403 126.228C148.863 125.121 151.323 124.014 153.784 122.784C160.796 119.339 167.808 115.895 174.82 112.327C188.967 105.069 202.991 97.8114 217.015 90.1843C218.983 89.0771 220.952 88.0929 222.797 86.9858C225.503 85.3865 226.61 82.1881 225.749 79.2357C225.38 78.1285 223.658 78.6206 224.027 79.7277C224.396 81.327 224.273 83.0492 223.289 84.4024C223.166 84.6484 222.92 84.7715 222.797 85.0175C222.92 84.8945 222.92 84.8945 222.797 85.0175C222.428 85.2635 222.059 85.5096 221.69 85.6326C220.213 86.4937 218.614 87.3548 217.015 88.216C211.479 91.1684 205.943 94.1208 200.408 97.0732C186.384 104.454 172.483 111.712 158.212 118.724C155.26 120.201 152.185 121.677 149.232 123.03C148.002 123.522 146.895 124.137 145.665 124.629C144.68 125.121 143.45 125.613 142.343 125.367C140.744 124.998 140.252 123.03 140.99 121.8C141.851 120.693 140.252 119.832 139.637 120.816Z" fill="#030140"/>
<path d="M148.125 79.6047C154.645 76.2832 161.165 72.8387 167.685 69.5172C168.792 68.9021 170.022 68.164 171.252 67.672C172.236 67.3029 172.36 67.795 172.36 68.6561C172.236 72.7157 172.237 76.7753 172.113 80.7119C171.99 84.0333 172.113 87.2318 171.867 90.5533C171.744 93.8748 167.562 95.1049 165.101 96.4581C161.042 98.5494 156.982 100.641 152.923 102.609L148.494 104.823C147.633 105.315 146.526 105.808 146.28 104.208C146.034 102.609 146.28 100.887 146.28 99.2876C146.28 96.7042 146.28 94.1208 146.28 91.5374C146.28 89.2001 146.28 86.8628 146.28 84.5254C146.28 82.6801 146.034 80.7119 148.125 79.6047C149.109 78.9896 148.248 77.3904 147.264 78.0055C143.45 80.2198 144.434 85.1405 144.434 88.831C144.434 93.5057 144.434 98.3034 144.434 102.978C144.434 104.454 144.311 106.054 145.788 106.915C147.141 107.776 148.371 107.038 149.601 106.423C153.661 104.331 157.597 102.363 161.657 100.272C164.609 98.7955 167.685 97.3193 170.514 95.72C174.328 93.6287 173.59 88.9541 173.713 85.1405C173.836 80.2198 173.959 75.4221 173.959 70.5014C173.959 69.5172 174.205 68.164 173.959 67.1799C173.467 65.2116 171.498 65.3346 170.022 66.0727C162.641 69.8863 155.137 73.6998 147.756 77.5134C147.51 77.6364 147.264 77.7594 147.141 77.8825C146.157 78.4975 147.141 80.0968 148.125 79.6047Z" fill="#030140"/>
<path d="M187.86 58.4458C194.38 55.2473 200.9 52.1719 207.543 48.9734C208.281 48.6043 209.142 47.9892 210.003 47.8662C212.094 47.3742 211.848 49.7115 211.848 50.9417C211.725 55.2473 211.602 59.676 211.602 63.9816C211.602 65.7038 211.479 67.4261 211.479 69.1483C211.479 71.1166 211.11 72.8389 209.142 73.823C206.805 75.0532 204.344 76.1603 202.007 77.3905C197.947 79.3588 193.888 81.4501 189.828 83.4184C188.598 84.0335 187.368 84.7716 186.138 85.2637C185.645 85.3867 185.399 85.8788 184.784 85.2637C184.415 84.8946 184.538 84.2795 184.538 83.7874C184.661 79.2358 184.907 74.6841 185.03 70.1325C185.153 68.0412 185.153 65.9499 185.276 63.8586C185.153 61.6442 185.522 59.676 187.86 58.4458C188.844 57.9537 187.983 56.3545 186.876 56.8465C182.693 59.0609 183.185 63.7355 183.062 67.6721C182.939 72.4698 182.693 77.3905 182.57 82.1882C182.57 83.2954 182.324 84.7716 182.693 85.7557C183.554 87.601 185.399 87.478 186.999 86.7399C190.689 84.8946 194.38 83.0494 198.193 81.2041C201.884 79.3588 205.697 77.5135 209.388 75.6683C211.233 74.8072 212.586 73.454 213.078 71.3627C213.324 70.1325 213.201 68.9023 213.201 67.6721C213.324 62.8744 213.448 58.0767 213.571 53.156C213.571 51.8028 213.694 50.5726 213.694 49.2194C213.571 46.7591 211.233 45.2829 208.896 46.267C201.761 49.4655 194.749 53.033 187.614 56.4775C187.368 56.6005 187.122 56.7235 186.876 56.8465C185.891 57.3386 186.876 58.9378 187.86 58.4458Z" fill="#030140"/>
<path d="M139.637 87.1091C140.621 86.617 141.605 86.1249 142.589 85.6328C142.958 85.3868 143.204 84.7717 142.958 84.4026C142.712 84.0336 142.22 83.7876 141.728 84.0336C140.744 84.5257 139.76 85.0177 138.776 85.5098C138.407 85.7559 138.161 86.3709 138.407 86.74C138.653 87.2321 139.268 87.3551 139.637 87.1091Z" fill="#030140"/>
<path d="M139.514 91.1686L142.712 90.1845C143.204 90.0615 143.45 89.5694 143.327 89.0773C143.204 88.5853 142.712 88.3392 142.22 88.4623C141.113 88.8313 140.129 89.0774 139.022 89.4464C138.53 89.5694 138.284 90.0615 138.407 90.5536C138.53 90.9226 139.022 91.2917 139.514 91.1686Z" fill="#030140"/>
<path d="M139.637 98.5494C139.514 98.6724 139.391 98.7954 139.268 98.9185C139.145 99.0415 139.145 99.2875 139.022 99.4105C138.899 99.5336 138.899 99.7796 138.899 99.9026C138.899 100.026 138.899 100.026 138.899 100.149C138.899 100.272 138.899 100.272 138.899 100.395C139.022 100.641 139.022 100.764 139.268 101.01C139.391 101.133 139.637 101.256 139.883 101.379C140.129 101.502 140.375 101.502 140.621 101.379C140.867 101.379 140.99 101.133 141.236 101.01C141.359 100.887 141.605 100.641 141.728 100.518C141.974 100.272 142.097 100.149 142.22 99.9026C142.466 99.5335 142.466 99.1645 142.466 98.7954C142.343 98.4264 142.097 98.0573 141.851 97.9343C141.359 97.6883 140.744 97.6883 140.375 98.1804C140.006 98.5494 139.883 99.1645 140.129 99.6566C140.252 99.9026 140.375 100.026 140.621 100.026C140.867 100.026 141.113 100.026 141.359 99.9026C141.605 99.7796 141.728 99.5336 141.728 99.4105C141.728 99.1645 141.728 98.9185 141.605 98.6724C141.605 98.7954 141.728 98.7954 141.728 98.9185C141.728 99.0415 141.728 99.0415 141.728 99.1645C141.728 99.2875 141.728 99.2875 141.728 99.4105C141.728 99.5336 141.605 99.5336 141.605 99.6566C141.605 99.6566 141.605 99.6566 141.605 99.5335C141.605 99.5335 141.482 99.6566 141.482 99.7796C141.482 99.7796 141.482 99.7796 141.482 99.6566L141.359 99.7796C141.359 99.7796 141.359 99.7796 141.482 99.7796L141.236 99.9026C141.236 99.9026 141.236 99.9026 141.359 99.9026C141.236 99.9026 141.236 99.9026 141.113 99.9026C141.113 99.9026 141.113 99.9026 141.236 99.9026C141.113 99.9026 141.113 99.9026 140.99 99.9026C140.99 99.9026 140.99 99.9026 141.113 99.9026L140.867 99.7796C140.867 99.7796 140.867 99.7796 140.99 99.7796C140.867 99.7796 140.867 99.6566 140.867 99.6566C140.867 99.6566 140.867 99.6566 140.99 99.7796L140.867 99.6566C140.867 99.6566 140.867 99.7796 140.99 99.7796L140.867 99.5335V99.6566V99.4105V99.5335C140.867 99.4105 140.867 99.4105 140.867 99.2875C140.867 99.4105 140.867 99.4105 140.867 99.5335C140.867 99.4105 140.99 99.4105 140.99 99.2875C140.99 99.4105 140.867 99.4105 140.867 99.5335C140.867 99.5335 140.99 99.4105 140.99 99.2875C140.867 99.4105 140.744 99.5335 140.621 99.7796C140.498 99.9026 140.375 100.149 140.129 100.272C140.252 100.272 140.252 100.149 140.375 100.149C140.375 100.149 140.375 100.149 140.252 100.149L140.498 100.026H140.375C140.498 100.026 140.498 100.026 140.621 100.026C140.621 100.026 140.621 100.026 140.498 100.026C140.621 100.026 140.621 100.026 140.744 100.026H140.621C140.744 100.026 140.744 100.026 140.867 100.149C140.867 100.149 140.744 100.149 140.744 100.026C140.744 100.026 140.867 100.149 140.99 100.149C140.99 100.149 140.867 100.149 140.867 100.026L140.99 100.149C140.99 100.149 140.99 100.026 140.867 100.026L140.99 100.272V100.149C140.99 100.272 140.99 100.272 140.99 100.395V100.272C140.99 100.395 140.99 100.395 140.99 100.518C140.99 100.395 140.99 100.395 140.99 100.272L140.867 100.518C140.99 100.395 140.99 100.149 141.113 100.026C141.113 100.149 140.99 100.149 140.99 100.272C141.113 100.149 141.113 100.149 141.236 100.026C141.236 99.9026 141.359 99.7796 141.359 99.6566C141.359 99.4105 141.236 99.1645 141.113 99.0415C140.99 98.9185 140.744 98.7954 140.498 98.7954C140.129 98.3034 139.76 98.3034 139.637 98.5494Z" fill="#030140"/>
<path d="M140.006 77.7594C145.173 75.176 150.462 72.5926 155.629 69.8862C166.824 64.3504 177.895 58.6916 189.09 53.1558C199.423 47.989 209.757 42.8223 220.09 37.6556C222.797 36.3024 225.503 34.9492 228.333 33.596C228.702 33.3499 229.194 33.1039 229.563 32.9809C232.146 32.2428 231.654 35.4412 231.654 36.9174C231.408 42.8223 231.162 48.6041 230.916 54.509C230.793 57.2154 230.67 59.9218 230.547 62.6282C230.547 63.9814 230.67 65.7036 230.178 67.0568C229.44 69.5172 226.487 70.5013 224.519 71.6085C221.075 73.3307 217.63 75.053 214.186 76.8983C203.36 82.4341 192.534 87.9699 181.709 93.5057C170.883 99.0415 160.058 104.454 149.232 109.99C145.788 111.712 142.343 113.435 139.022 115.157C137.545 115.895 133.732 118.601 133.486 115.157C133.363 113.681 133.609 112.204 133.609 110.728C133.732 107.776 133.855 104.7 133.978 101.748C134.101 96.7041 134.347 91.6604 134.47 86.6167C134.593 82.8031 136.561 79.6046 140.006 77.7594C140.99 77.2673 140.129 75.6681 139.022 76.1601C135.208 78.1284 132.871 81.942 132.625 86.2476C132.502 87.8468 132.502 89.5691 132.502 91.1683C132.256 97.5652 132.01 103.839 131.887 110.236C131.887 111.835 131.641 113.435 131.764 115.034C131.764 117.74 134.47 119.339 136.93 118.232C138.776 117.371 140.621 116.387 142.466 115.403C152.185 110.482 161.78 105.561 171.498 100.641C183.308 94.6128 195.241 88.5849 207.051 82.5571C214.063 78.9895 221.198 75.422 228.21 71.7315C229.563 71.1164 230.67 70.2553 231.408 68.9021C232.392 67.3029 232.269 65.4576 232.392 63.6123C232.638 57.5844 232.884 51.4335 233.13 45.4057C233.253 42.6993 233.376 39.8699 233.499 37.1635C233.499 35.6873 233.868 33.965 233.13 32.6118C231.285 29.6594 228.087 31.6277 225.872 32.7348L199.546 45.8977C187.491 51.9256 175.558 57.9535 163.502 63.8584C155.752 67.6719 148.002 71.6085 140.252 75.422C139.883 75.6681 139.514 75.7911 139.022 76.0371C137.915 76.6522 138.899 78.2514 140.006 77.7594Z" fill="#030140"/>
<path d="M159.32 37.6559C158.458 37.0408 157.72 36.5487 156.859 35.9336C156.982 36.3027 157.105 36.7948 157.228 37.1638C157.843 36.0567 159.074 35.5646 160.058 35.0725C161.534 34.3344 163.01 33.7193 164.609 33.1042C165.224 32.8582 165.963 32.6122 166.578 32.9812C167.07 33.2272 167.562 33.7193 168.054 34.0884C169.161 34.9495 170.391 35.3185 171.621 35.9336C172.113 36.1797 172.975 36.4257 173.344 37.0408C173.713 37.6559 173.098 38.0249 172.606 38.394C171.375 39.1321 170.022 39.7472 168.669 40.3623C167.931 40.7313 167.193 40.9774 166.455 41.3464C166.086 41.4694 165.717 41.7155 165.347 41.7155C164.855 41.8385 164.732 41.7155 164.363 41.4694C163.01 40.4853 161.657 39.6242 160.427 38.64C159.443 37.9019 158.582 39.5012 159.566 40.2393C160.919 41.2234 162.272 42.0845 163.502 43.0687C163.994 43.4377 164.486 43.8068 165.224 43.6838C165.963 43.5608 166.824 43.1917 167.439 42.8226C168.915 42.2075 170.268 41.5925 171.621 40.9774C172.729 40.3623 174.328 39.8702 174.943 38.64C176.665 35.9336 172.852 34.4574 171.006 33.7193C170.391 33.4733 169.653 33.1042 169.161 32.7352C168.669 32.3661 168.177 31.751 167.562 31.505C166.332 30.7669 164.978 31.0129 163.748 31.628C162.149 32.3661 160.427 33.1042 158.828 33.8423C157.597 34.4574 156.367 35.1955 155.629 36.4257C155.383 36.9178 155.506 37.4099 155.998 37.6559C156.859 38.271 157.597 38.8861 158.458 39.3781C159.32 39.8702 160.181 38.271 159.32 37.6559Z" fill="#030140"/>
<path d="M155.26 38.0247C155.014 39.2549 154.768 40.4851 155.26 41.7153C155.752 42.8224 156.736 43.4375 157.72 44.0526C158.951 44.9137 160.304 45.6518 161.534 46.513C162.518 47.128 163.625 47.7431 164.855 47.8661C166.209 47.8661 167.439 47.3741 168.669 47.005C170.022 46.513 171.252 46.0209 172.483 45.4058C173.59 44.9137 174.574 44.4217 175.066 43.1915C175.558 42.2073 175.558 40.9771 175.435 39.87C175.435 38.6398 173.59 38.6398 173.59 39.87C173.59 40.7311 173.713 41.5922 173.344 42.3303C172.975 43.1915 171.99 43.5605 171.252 43.8066C170.268 44.2986 169.161 44.6677 168.177 45.0367C167.193 45.4058 166.209 45.7748 165.101 45.8979C164.117 45.8979 163.256 45.4058 162.518 44.9137C161.657 44.2986 160.673 43.6835 159.812 43.1915C158.951 42.6994 157.966 42.2073 157.228 41.4692C156.367 40.7311 156.736 39.5009 156.982 38.5168C157.351 37.4096 155.506 36.9176 155.26 38.0247Z" fill="#030140"/>
<path d="M166.332 46.021C166.332 45.1599 166.332 44.2987 166.332 43.4376C166.332 42.9455 165.963 42.4535 165.471 42.5765C164.978 42.5765 164.609 42.9455 164.609 43.4376C164.609 44.2987 164.609 45.1599 164.609 46.021C164.609 46.5131 164.978 47.0051 165.471 46.8821C165.963 46.8821 166.332 46.5131 166.332 46.021Z" fill="#030140"/>
<path d="M178.018 29.6595C177.403 29.2904 176.788 29.0444 176.296 28.6753C175.189 27.8142 175.681 26.9531 176.665 26.584C178.018 25.9689 179.495 25.4769 180.971 24.8618C183.677 23.7546 186.384 22.5244 189.09 21.2943C191.919 20.0641 194.626 18.5879 197.332 17.2347C198.685 16.4966 200.654 14.8973 202.253 15.6354C203.606 16.2505 204.713 17.1117 205.943 17.8498C206.558 18.2188 207.297 18.5879 207.912 19.0799C208.281 19.326 208.65 19.449 208.896 19.695C208.773 20.1871 208.527 20.5561 208.035 20.6792C206.928 21.5403 205.205 22.1554 203.852 22.7705C201.023 24.1237 198.193 25.5999 195.364 26.8301C192.534 28.1833 189.705 29.4134 186.753 30.6436C185.399 31.2587 183.923 32.1198 182.447 32.3659C180.848 32.6119 179.495 31.3817 178.51 30.3976C177.649 29.5365 176.419 30.8896 177.28 31.7508C179.126 33.473 181.094 34.9492 183.677 34.0881C186.63 33.104 189.459 31.6278 192.411 30.2746C195.487 28.7983 198.685 27.4452 201.761 25.8459C203.114 25.1078 204.59 24.4927 205.943 23.7546C207.297 23.1395 208.896 22.5244 210.003 21.5403C210.618 20.9252 211.11 20.1871 210.987 19.326C210.741 18.0958 209.388 17.6037 208.527 16.9886C207.174 16.1275 205.697 15.2664 204.344 14.5283C203.36 13.9132 202.253 13.2981 201.023 13.4211C199.669 13.5441 198.316 14.5283 197.086 15.2664C195.61 16.1275 194.011 16.8656 192.411 17.6037C189.459 19.0799 186.507 20.4331 183.554 21.6633C181.832 22.4014 179.987 23.1395 178.141 23.8776C177.034 24.3697 175.435 24.6157 174.451 25.5999C173.59 26.338 173.467 27.4452 173.959 28.4293C174.574 29.7825 175.927 30.2746 177.157 31.0127C178.141 31.7508 179.002 30.2746 178.018 29.6595Z" fill="#030140"/>
<path d="M173.344 28.6754C172.606 30.3977 172.113 32.366 173.221 34.0882C174.205 35.5644 176.173 36.5486 177.772 37.1637C181.832 38.7629 185.645 38.3938 189.213 35.9335C193.396 33.1041 198.439 31.6279 202.991 29.7826C206.435 28.3064 211.479 26.4611 210.864 21.7864C210.741 20.6793 208.896 20.6793 209.019 21.7864C209.634 26.0921 203.606 27.5683 200.531 28.7984C197.209 30.1516 193.765 31.3818 190.566 32.9811C189.09 33.7192 187.737 34.9493 186.261 35.5644C184.661 36.3025 182.816 36.4256 180.971 36.1795C179.372 35.9335 177.772 35.1954 176.296 34.3342C175.435 33.7192 174.574 33.1041 174.328 32.1199C174.082 31.1358 174.697 30.0286 175.066 29.1675C175.558 28.0603 173.713 27.5683 173.344 28.6754Z" fill="#030140"/>
<path d="M184.292 36.6713C184.292 36.4253 184.292 36.1792 184.415 35.9332C184.415 36.0562 184.415 36.0562 184.415 36.1792C184.538 35.4411 184.661 34.703 184.907 33.9649C185.03 33.4729 184.784 32.9808 184.292 32.8578C183.8 32.7347 183.308 32.9808 183.185 33.4729C182.816 34.457 182.693 35.5642 182.57 36.6713C182.57 37.1634 183.062 37.6555 183.431 37.5324C183.923 37.5324 184.292 37.1634 184.292 36.6713Z" fill="#030140"/>
<path d="M140.99 125.736C138.653 124.875 136.192 124.014 133.855 123.276C133.363 123.153 132.871 123.522 132.748 123.891C132.625 124.383 132.871 124.875 133.363 124.998C135.7 125.859 138.161 126.721 140.498 127.459C140.99 127.582 141.482 127.213 141.605 126.844C141.728 126.352 141.359 125.982 140.99 125.736Z" fill="#030140"/>
<path d="M134.839 12.0679C123.767 10.9608 111.589 9.97662 102.485 16.2505C92.6439 23.0165 89.4455 37.5326 94.4892 48.3582C99.5329 59.1838 111.835 65.9498 123.89 65.4577C127.704 65.3347 131.518 64.4735 134.962 62.8743C143.45 58.8147 148.74 49.4654 148.986 39.993C149.232 30.6436 144.927 21.4173 138.161 14.7743" fill="#F24B78"/>
<path d="M128.811 7.76229C117.001 6.53211 102.977 5.42495 93.505 14.0362C85.7549 21.0482 83.1715 33.104 86.616 42.9454C90.3066 53.648 100.763 61.029 111.712 62.7513C117.74 63.6124 124.26 62.9973 129.795 60.1679C134.839 57.5845 138.899 53.0329 141.236 47.9891C147.141 35.1953 142.466 20.4331 132.871 10.8377C132.01 9.97661 130.656 11.3298 131.518 12.1909C139.637 20.3101 144.311 32.3659 140.867 43.6835C139.268 48.7273 136.192 53.5249 131.887 56.7234C127.089 60.2909 120.815 61.6441 114.91 61.2751C104.454 60.66 94.1201 54.6321 89.4455 45.0367C85.1398 36.3024 86.493 24.8618 93.013 17.3577C101.87 7.14721 116.755 8.37738 128.811 9.73058C130.041 9.85359 130.041 7.88531 128.811 7.76229Z" fill="#030140"/>
<path d="M111.097 37.5327C113.803 33.7192 116.509 29.9056 119.216 26.092L115.525 25.1079C115.771 33.5961 116.14 41.9614 116.386 50.4496C116.509 53.033 120.446 53.033 120.323 50.4496C120.077 41.9614 119.708 33.5961 119.462 25.1079C119.339 23.0166 116.878 22.5245 115.771 24.1238C113.065 27.9373 110.358 31.7509 107.652 35.5644C107.037 36.4255 107.529 37.7787 108.39 38.2708C109.374 38.7629 110.482 38.3938 111.097 37.5327Z" fill="#030140"/>
<path d="M420.364 228.948C419.994 228.948 419.625 228.702 419.256 228.333C419.01 227.964 418.764 227.349 418.764 226.734C418.764 226.119 418.887 225.504 419.01 225.135C419.256 224.643 419.625 224.397 419.994 224.397C420.856 224.397 421.471 225.381 421.594 226.611C421.84 227.841 421.348 228.948 420.364 228.948C420.487 228.948 420.487 228.948 420.364 228.948ZM420.241 224.643C419.871 224.643 419.625 224.889 419.502 225.258C419.256 225.627 419.256 226.119 419.256 226.734C419.256 227.226 419.502 227.841 419.748 228.21C419.994 228.579 420.241 228.702 420.61 228.702C421.225 228.702 421.717 227.718 421.594 226.611C421.348 225.504 420.856 224.643 420.241 224.643Z" fill="#030140"/>
<path d="M425.161 228.703C424.423 228.703 423.685 227.718 423.562 226.488C423.562 225.873 423.685 225.258 423.808 224.889C424.054 224.397 424.423 224.151 424.792 224.151C425.53 224.151 426.268 225.135 426.391 226.365C426.391 226.98 426.268 227.595 426.145 227.964C426.022 228.333 425.653 228.58 425.161 228.703ZM425.038 224.274C425.038 224.274 424.915 224.274 425.038 224.274C424.669 224.274 424.423 224.52 424.3 224.889C424.054 225.258 424.054 225.75 424.054 226.365C424.177 227.472 424.669 228.333 425.284 228.333C425.53 228.333 425.776 228.087 426.022 227.718C426.268 227.349 426.268 226.857 426.268 226.242C426.145 225.135 425.653 224.274 425.038 224.274Z" fill="#030140"/>
<path d="M430.82 228.333C430.451 228.333 430.082 228.087 429.713 227.718C429.467 227.349 429.221 226.734 429.221 226.119C429.221 225.504 429.344 224.889 429.467 224.52C429.713 224.028 430.082 223.782 430.451 223.782C431.312 223.782 431.927 224.766 432.05 225.996C432.05 226.611 431.927 227.226 431.804 227.595C431.681 227.964 431.312 228.333 430.82 228.333ZM430.574 224.028C430.205 224.028 429.959 224.274 429.836 224.643C429.59 225.012 429.59 225.504 429.59 226.119C429.59 226.611 429.836 227.226 430.082 227.595C430.328 227.964 430.574 228.087 430.943 228.087C431.189 228.087 431.435 227.841 431.681 227.472C431.927 227.103 431.927 226.611 431.927 225.996C431.804 224.889 431.189 224.028 430.574 224.028Z" fill="#030140"/>
<path d="M416.304 233.992C423.07 233.623 429.836 233.623 436.479 233.131C437.094 233.131 437.094 232.147 436.479 232.147C429.713 232.516 422.947 232.516 416.304 233.008C415.566 233.008 415.566 233.992 416.304 233.992Z" fill="#030140"/>
<path d="M458.745 232.393C471.416 231.655 484.21 231.655 497.004 230.794C497.619 230.794 497.619 229.81 497.004 229.81C484.333 230.548 471.539 230.548 458.745 231.409C458.13 231.532 458.13 232.516 458.745 232.393Z" fill="#030140"/>
<path d="M524.683 362.054C524.929 360.086 525.175 357.871 525.544 355.042C525.913 352.212 526.774 348.891 529.48 348.153C531.941 347.415 534.524 349.506 535.262 351.966C536 354.427 535.508 357.01 534.893 359.47C534.401 361.808 533.909 364.145 533.294 366.483L524.683 362.054Z" fill="#F24B78"/>
<path d="M487.285 356.887L497.127 357.502L500.571 382.475H488.146L487.285 356.887Z" fill="#F24B78"/>
<path d="M509.306 338.311C507.706 342.74 513.365 346.8 512.996 351.597C512.75 354.427 510.167 356.764 507.337 356.887C504.508 356.887 501.801 354.796 501.186 352.089C500.448 349.383 501.678 346.307 504.016 344.585" fill="#F24B78"/>
<path d="M484.825 384.689L524.929 383.582C522.96 400.435 521.115 417.289 519.147 434.265C518.901 436.603 518.532 438.94 517.179 440.785C514.841 443.738 510.413 443.861 506.599 443.369C504.262 443 501.924 442.508 499.587 442.385C496.758 442.385 494.297 440.539 493.19 437.833C487.9 424.301 482.242 407.201 479.166 392.562C478.674 390.471 479.289 388.38 480.642 386.781C481.626 385.55 483.226 384.812 484.825 384.689Z" fill="#F24B78"/>
<path d="M487.408 381.614C501.555 381.244 515.825 380.875 529.973 380.506L528.988 379.522C528.004 388.502 526.897 397.36 525.913 406.34C525.421 410.769 524.929 415.32 524.437 419.749C523.945 424.055 523.822 428.606 522.838 432.789C521.976 436.726 518.901 438.448 515.087 438.448C513.365 438.448 511.766 438.202 510.167 437.956C509.059 437.833 508.075 437.587 506.968 437.464C505.861 437.341 504.631 437.341 503.647 437.218C499.464 436.356 498.48 431.559 497.127 428.114C495.651 424.178 494.42 420.241 493.19 416.305C490.361 407.201 488.023 397.852 486.301 388.503C486.055 387.272 484.21 387.764 484.456 388.995C486.178 398.221 488.392 407.324 491.099 416.305C492.452 420.856 494.051 425.285 495.651 429.714C496.881 433.158 497.865 436.972 501.555 438.571C503.155 439.309 504.631 439.186 506.353 439.309C508.69 439.555 510.905 440.17 513.242 440.293C516.318 440.539 519.885 440.17 522.222 437.833C525.052 435.126 525.052 430.575 525.421 427.007C526.036 422.086 526.528 417.289 527.143 412.368C528.373 401.419 529.603 390.348 530.957 379.399C530.957 378.907 530.465 378.415 529.973 378.415C515.825 378.784 501.555 379.153 487.408 379.522C486.178 379.768 486.178 381.614 487.408 381.614Z" fill="#030140"/>
<path d="M489.5 356.395C491.96 356.149 494.543 356.026 497.004 355.78C497.742 355.78 498.111 355.042 497.865 354.304C495.896 350.244 494.543 345.939 493.682 341.51C493.436 340.526 492.083 340.649 491.837 341.51C490.73 345.323 489.623 349.014 488.515 352.828C488.146 353.935 489.992 354.55 490.361 353.32C491.468 349.506 492.575 345.815 493.682 342.002H491.837C492.821 346.554 494.297 350.982 496.266 355.288L497.127 353.812C494.666 354.058 492.083 354.181 489.623 354.427C488.392 354.673 488.392 356.518 489.5 356.395Z" fill="#030140"/>
<path d="M488.392 359.47C489.131 365.867 489.869 372.141 490.484 378.538C490.607 379.768 492.452 379.768 492.329 378.538C491.591 372.141 490.853 365.867 490.238 359.47C490.115 358.24 488.269 358.24 488.392 359.47Z" fill="#030140"/>
<path d="M497.865 360.824L500.448 378.907C500.571 380.137 502.417 379.645 502.294 378.415L499.71 360.331C499.464 359.101 497.742 359.593 497.865 360.824Z" fill="#030140"/>
<path d="M510.29 337.204C508.813 341.756 513.242 345.2 513.98 349.383C514.349 351.72 512.873 354.058 510.536 354.673C508.075 355.411 505.615 354.058 504.385 351.843C503.032 349.26 504.139 345.939 506.353 344.339C507.337 343.601 506.353 342.002 505.369 342.74C503.032 344.462 501.555 347.415 501.924 350.367C502.294 353.32 504.508 355.78 507.337 356.641C510.167 357.379 513.242 356.149 514.718 353.689C516.318 351.228 515.702 348.399 514.472 345.939C513.242 343.478 510.905 340.649 511.889 337.696C512.504 336.466 510.659 335.974 510.29 337.204Z" fill="#030140"/>
<path d="M505 356.395C504.508 363.161 504.016 370.05 503.647 376.816C503.524 378.046 505.492 378.046 505.492 376.816C505.984 370.05 506.476 363.161 506.845 356.395C506.968 355.165 505 355.165 505 356.395Z" fill="#030140"/>
<path d="M512.504 354.427C512.996 362.669 513.611 371.034 514.103 379.276C514.226 380.506 516.072 380.506 515.948 379.276C515.456 371.034 514.841 362.669 514.349 354.427C514.349 353.196 512.504 353.196 512.504 354.427Z" fill="#030140"/>
<path d="M507.337 362.3C508.813 362.3 510.413 362.177 511.889 362.177C512.381 362.177 512.873 361.808 512.873 361.193C512.873 360.701 512.504 360.209 511.889 360.209C510.413 360.209 508.813 360.332 507.337 360.332C506.845 360.332 506.353 360.701 506.353 361.316C506.476 361.808 506.845 362.3 507.337 362.3Z" fill="#030140"/>
<path d="M529.111 379.768C530.341 374.232 531.572 368.697 532.802 363.038C533.417 360.331 534.155 357.748 534.524 354.919C534.893 352.827 534.893 350.736 534.032 348.768C532.556 345.569 528.496 343.601 525.544 346.307C522.591 349.014 522.714 354.427 522.222 358.117C521.361 364.391 520.623 370.665 519.762 376.939C519.639 378.169 521.484 378.169 521.607 376.939C522.345 371.157 523.083 365.375 523.945 359.593C524.314 356.764 524.56 353.935 525.175 351.228C525.667 349.26 526.774 346.553 529.234 346.922C532.064 347.415 533.048 350.613 532.925 353.073C532.802 355.903 531.941 358.855 531.326 361.562C529.972 367.466 528.742 373.248 527.389 379.153C527.02 380.506 528.865 380.998 529.111 379.768Z" fill="#030140"/>
<path d="M534.647 356.887C535.385 356.764 535.631 357.748 535.754 358.24C535.754 358.855 535.631 359.594 535.508 360.209C535.262 361.685 535.016 363.161 534.77 364.637L533.294 373.618C533.048 374.848 534.893 375.34 535.139 374.11C535.754 370.173 536.492 366.236 537.108 362.423C537.354 360.824 537.969 358.855 537.477 357.256C536.985 355.78 535.754 354.796 534.155 355.042C533.048 355.288 533.54 357.01 534.647 356.887Z" fill="#030140"/>
<path d="M522.837 363.038C525.79 363.53 528.619 364.022 531.572 364.514C532.064 364.638 532.556 364.391 532.679 363.899C532.802 363.407 532.556 362.792 532.064 362.792C529.111 362.3 526.282 361.808 523.33 361.316C522.837 361.193 522.345 361.439 522.222 361.931C521.976 362.3 522.222 362.915 522.837 363.038Z" fill="#030140"/>
<path d="M497.742 377.923C496.635 371.772 495.651 365.621 494.543 359.47C494.297 358.24 492.575 358.732 492.698 359.962C493.682 366.113 494.789 372.264 495.774 378.415C496.02 379.645 497.865 379.153 497.742 377.923Z" fill="#030140"/>
<path d="M492.452 347.169C493.682 347.169 493.682 345.324 492.452 345.324C491.345 345.201 491.222 347.169 492.452 347.169Z" fill="#030140"/>
<path d="M492.821 347.661C494.051 347.661 494.051 345.815 492.821 345.815C491.591 345.815 491.591 347.661 492.821 347.661Z" fill="#030140"/>
<path d="M444.844 302.882C442.384 301.898 439.677 300.791 438.078 298.577C435.987 295.747 436.11 291.811 436.848 288.366C438.816 279.632 444.352 271.882 451.979 267.207C455.424 265.116 468.71 255.889 491.837 264.009C512.012 271.144 530.342 292.549 520.746 323.426C518.286 331.545 490.238 318.629 479.781 313.954C468.833 309.033 458.253 307.926 444.844 302.882Z" fill="#F24B78"/>
<path d="M455.301 259.211C448.781 263.147 443.737 269.421 441.277 276.556L427.745 277.048L439.308 259.703C441.523 256.258 445.582 256.258 448.043 259.58C449.273 261.179 450.134 262.532 450.134 262.532C468.587 234.607 472.4 239.282 481.872 252.937C466.864 251.461 458.007 257.612 455.301 259.211Z" fill="#F24B78"/>
<path d="M442.384 236.822C442.63 242.234 446.074 246.54 450.257 246.417C454.44 246.294 457.638 241.742 457.515 236.33C457.392 230.917 453.824 226.611 449.642 226.734C445.459 226.857 442.138 231.409 442.384 236.822Z" fill="#F24B78"/>
<path d="M444.967 250.723C440.538 250.723 436.725 246.171 436.602 240.389C436.356 234.607 439.923 229.686 444.475 229.563C449.027 229.44 452.963 233.992 453.086 239.897C453.209 242.726 452.471 245.31 450.995 247.401C449.519 249.492 447.427 250.723 445.213 250.723C445.09 250.723 445.09 250.723 444.967 250.723ZM437.955 240.389C438.078 245.433 441.4 249.369 445.09 249.369C446.935 249.246 448.535 248.262 449.765 246.54C450.995 244.695 451.733 242.357 451.61 239.897C451.487 234.853 448.166 230.794 444.475 230.917C440.785 231.04 437.832 235.345 437.955 240.389Z" fill="#030140"/>
<path d="M421.594 281.6L433.896 263.147C435.126 261.302 436.848 260.318 438.693 260.195C440.661 260.195 442.384 261.179 443.737 262.901L444.106 263.516C444.598 264.131 444.967 264.623 445.213 264.993C454.563 250.845 460.221 245.31 465.019 245.064C468.464 244.941 471.17 247.647 474.245 251.584L473.138 252.445C470.309 248.754 467.971 246.294 465.019 246.417C460.713 246.54 454.932 252.568 445.705 266.469L445.459 266.838H445.09C444.721 266.838 444.721 266.838 442.753 264.254L442.384 263.639C441.4 262.163 439.923 261.425 438.57 261.425C437.094 261.425 435.864 262.286 434.88 263.762L424.177 279.878L432.542 279.632V280.985L421.594 281.6Z" fill="#030140"/>
<path d="M451.733 423.194C453.947 421.102 454.686 418.273 455.055 415.321C455.547 411.876 455.547 408.432 455.055 404.987C454.194 398.221 451.487 391.824 447.428 386.288C446.443 384.935 444.229 386.288 445.213 387.641C448.904 392.562 451.364 398.221 452.348 404.249C452.84 407.201 452.963 410.277 452.717 413.229C452.471 416.059 452.102 419.257 449.888 421.348C448.781 422.579 450.626 424.424 451.733 423.194Z" fill="#030140"/>
<path d="M522.222 324.534C491.837 314.077 461.575 303.621 431.189 293.164C422.701 290.212 414.213 287.259 405.724 284.43C403.756 283.815 402.895 286.89 404.863 287.505C435.249 297.962 465.511 308.418 495.897 318.875C504.385 321.827 512.873 324.78 521.361 327.609C523.33 328.347 524.191 325.272 522.222 324.534Z" fill="#030140"/>
<path d="M442.261 297.346C440.662 287.751 443.983 277.541 450.872 270.652C458.991 262.532 471.416 259.949 482.119 263.517C483.718 264.009 484.456 261.548 482.857 261.056C473.63 257.981 463.174 259.211 454.932 264.255C447.674 268.683 442.507 275.941 440.415 284.184C439.185 288.735 439.062 293.41 439.8 298.085C440.046 299.684 442.507 299.069 442.261 297.346Z" fill="#030140"/>
<path d="M432.665 298.207C429.098 308.787 425.653 319.367 422.086 330.069C421.225 332.775 420.241 335.482 419.379 338.188C418.641 340.526 417.534 342.986 417.165 345.569C416.55 349.629 418.764 353.073 422.947 353.319C424.915 353.442 426.884 352.95 428.729 352.581C431.312 351.966 434.019 351.474 436.602 351.351C441.892 351.105 446.935 352.089 452.102 353.196C456.408 354.181 460.959 354.304 464.404 351.105C467.356 348.399 468.71 344.339 469.448 340.526C471.662 329.577 470.186 318.259 465.634 308.172C464.896 306.696 462.682 307.926 463.42 309.525C467.233 317.767 468.71 327.117 467.602 336.22C467.11 340.034 466.372 344.093 464.281 347.292C461.698 351.351 457.515 351.72 453.086 350.736C448.535 349.752 444.229 348.645 439.554 348.645C435.126 348.645 431.066 349.383 426.76 350.367C425.161 350.736 423.193 351.105 421.594 350.49C419.379 349.506 419.502 346.923 419.995 344.954C421.102 340.403 422.947 335.974 424.423 331.545C427.991 320.72 431.558 309.894 435.249 299.192C435.741 297.346 433.157 296.608 432.665 298.207Z" fill="#030140"/>
<path d="M427.376 351.474C424.3 361.685 420.979 374.109 428.606 383.336C434.511 390.471 445.09 390.471 452.963 386.78C462.19 382.352 467.11 372.633 469.694 363.284C471.17 357.748 471.908 352.212 472.892 346.553C473.876 341.018 475.476 335.236 479.289 330.807C481.257 328.593 483.595 327.24 486.301 325.886C488.515 324.779 490.484 324.041 492.452 325.886C495.897 328.962 496.02 335.482 491.591 337.819C490.115 338.68 491.468 340.895 492.944 340.034C496.512 338.065 497.988 333.76 497.373 329.946C496.758 326.256 493.682 321.827 489.5 322.196C487.408 322.319 485.44 323.549 483.472 324.533C481.134 325.64 479.166 327.117 477.444 329.085C473.753 333.268 471.908 338.557 470.678 343.97C468.34 355.042 467.725 366.482 461.082 376.201C455.793 383.951 445.459 389.364 436.11 385.796C430.574 383.705 427.499 378.538 426.637 373.002C425.53 365.99 427.745 358.978 429.713 352.458C430.328 350.613 427.868 349.875 427.376 351.474Z" fill="#030140"/>
<path d="M513.119 336.343C517.425 327.732 521.73 318.629 522.345 308.91C522.837 300.176 520.254 291.319 514.595 284.553C513.488 283.199 511.643 285.168 512.75 286.398C518.04 292.795 520.254 301.283 519.639 309.402C519.024 318.506 514.841 326.994 510.782 334.99C510.167 336.466 512.381 337.819 513.119 336.343Z" fill="#030140"/>
<path d="M422.332 303.62H415.812C416.181 303.989 416.55 304.358 416.796 304.604C416.796 295.132 416.796 285.66 416.796 276.187C416.796 261.056 416.796 246.048 416.919 230.917C416.919 227.472 416.919 224.028 416.919 220.583C416.55 220.952 416.181 221.321 415.935 221.567C425.161 221.321 434.265 221.075 443.491 220.829C458.13 220.46 472.646 220.091 487.285 219.722L497.25 219.476C496.881 219.107 496.512 218.738 496.266 218.492V249.615V254.044C496.266 255.397 498.357 255.397 498.357 254.044V222.921V218.492C498.357 218 497.865 217.508 497.373 217.508C488.146 217.754 479.043 218 469.817 218.246C455.178 218.615 440.662 218.984 426.022 219.476L416.058 219.722C415.566 219.722 415.074 220.214 415.074 220.706C415.074 230.179 415.074 239.651 415.074 249.123C415.074 264.255 415.074 279.263 414.951 294.394C414.951 297.838 414.951 301.283 414.951 304.727C414.951 305.22 415.443 305.712 415.935 305.712H422.455C423.562 305.712 423.562 303.62 422.332 303.62Z" fill="#030140"/>
<path d="M370.049 301.652C369.803 300.791 361.069 310.879 353.688 317.03C353.073 317.522 351.843 318.752 351.597 319.49C351.351 320.597 352.458 321.704 353.442 322.442C358.732 326.133 364.021 329.823 369.311 333.514C369.926 334.006 371.402 334.744 372.879 334.129C374.232 333.514 373.74 331.423 373.617 330.069C373.002 320.351 370.787 304.113 370.049 301.652Z" fill="#F24B78"/>
<path d="M364.76 303.128C356.763 301.652 348.398 305.712 344.462 312.724C342.124 316.783 341.386 321.458 342.616 326.01C343.723 330.069 346.061 333.883 349.013 336.835C355.164 342.863 364.144 345.323 372.141 342.248C379.891 339.296 386.165 331.915 386.288 323.426C386.411 313.831 378.661 305.466 369.434 303.989C368.204 303.743 367.712 305.712 368.942 305.835C376.323 307.065 382.72 312.847 384.196 320.351C385.673 327.978 380.998 335.359 374.478 339.05C367.589 342.986 359.47 342.248 353.073 337.696C346.799 333.268 342.247 324.902 344.585 317.152C347.045 309.033 355.656 303.374 364.144 304.974C365.498 305.22 365.99 303.374 364.76 303.128Z" fill="#030140"/>
<path d="M368.573 304.113C362.545 308.664 356.025 313.462 350.612 318.752C347.414 321.95 350.612 323.795 353.565 326.133C355.656 327.732 357.748 329.331 359.839 330.807C360.823 331.546 362.914 333.76 364.144 334.006C365.375 334.252 365.867 334.498 366.974 333.514C368.573 332.038 367.712 327.978 367.712 326.256C367.589 321.212 367.589 316.168 367.466 311.248C367.466 310.14 365.744 310.14 365.744 311.248C365.867 316.66 366.851 323.057 365.99 328.47C366.605 329.823 366.236 330.807 365.129 331.299C364.267 332.53 363.406 332.284 362.422 330.684C360.331 329.7 356.886 326.994 355.287 325.272C350.243 319.859 353.688 318.506 357.871 315.061C361.684 311.863 365.375 308.541 369.311 305.589C370.418 304.974 369.557 303.497 368.573 304.113Z" fill="#030140"/>
<path d="M405.232 290.335V310.017V341.51V348.768C405.601 348.399 405.847 348.153 406.216 347.784C396.867 348.399 387.641 349.014 378.291 349.506L333.759 352.336C330.314 352.582 326.993 352.705 323.548 352.951L324.533 353.935V333.637V301.16V293.779C324.164 294.148 323.918 294.394 323.548 294.763C332.898 294.394 342.247 294.025 351.597 293.533C366.359 292.918 381.121 292.303 396.006 291.688C399.45 291.565 402.895 291.442 406.216 291.196C407.447 291.196 407.57 289.104 406.216 289.227C396.867 289.596 387.518 289.965 378.168 290.458C363.406 291.073 348.644 291.688 333.759 292.303C330.314 292.426 326.87 292.549 323.548 292.795C323.056 292.795 322.564 293.287 322.564 293.779V314.077V346.554V353.935C322.564 354.427 323.056 354.919 323.548 354.919C332.898 354.304 342.124 353.689 351.474 353.197C366.359 352.213 381.121 351.351 396.006 350.367C399.45 350.121 402.772 349.998 406.216 349.752C406.709 349.752 407.201 349.26 407.201 348.768V329.085V297.593V290.335C407.201 289.104 405.232 289.104 405.232 290.335Z" fill="#030140"/>
<path d="M504.877 273.85C502.786 272.497 500.571 271.267 498.48 269.913C497.742 269.421 497.004 268.929 496.635 268.314C496.266 267.699 496.389 267.084 496.635 266.592C497.004 265.977 497.496 265.485 498.234 265.239C499.095 264.993 500.079 265.116 500.94 265.485C502.54 266.1 503.647 267.453 504.385 268.929C505.123 270.652 505.246 272.497 504.508 274.342C504.262 274.957 504.754 275.818 505.369 275.941C506.107 276.187 506.722 275.695 506.968 275.08C508.567 270.775 506.476 265.239 502.17 263.27C499.833 262.163 496.758 262.286 494.912 264.378C494.174 265.362 493.559 266.469 493.682 267.822C493.805 269.175 494.42 270.283 495.404 271.144C496.512 272.128 497.865 272.866 499.095 273.604C500.571 274.465 502.047 275.449 503.524 276.31C505 277.048 506.353 274.834 504.877 273.85Z" fill="#030140"/>
<path d="M425.653 304.112C428.975 304.974 432.296 305.835 435.618 306.696C436.971 307.065 438.57 307.311 439.554 308.172C440.415 308.91 440.661 309.894 440.785 311.001C440.785 312.847 439.923 316.168 437.463 315.676C434.88 315.184 434.265 311.863 434.757 309.771C434.88 309.402 435.126 308.418 435.618 308.418C436.11 308.418 436.356 309.279 436.602 309.648C437.34 311.124 437.463 312.847 437.34 314.569C437.217 315.307 437.955 315.922 438.693 315.922C439.431 315.922 439.923 315.307 440.046 314.569C440.415 311.616 438.939 303.989 434.388 306.204C432.665 307.065 432.173 309.279 432.173 311.124C432.173 313.093 432.665 315.061 433.896 316.537C435.003 317.767 436.848 318.629 438.447 318.505C440.415 318.382 441.769 317.029 442.63 315.43C444.106 312.232 443.983 307.926 440.785 305.835C438.816 304.604 436.356 304.235 434.142 303.743C431.558 303.128 428.975 302.39 426.514 301.775C424.792 301.16 424.054 303.62 425.653 304.112Z" fill="#030140"/>
<path d="M434.511 392.316C434.757 402.773 435.003 413.352 435.249 423.809C435.249 425.285 435.372 426.884 435.372 428.36C435.372 429.714 437.463 429.714 437.463 428.36C437.217 417.904 436.971 407.324 436.725 396.868C436.725 395.392 436.602 393.792 436.602 392.316C436.602 390.963 434.511 390.963 434.511 392.316Z" fill="#030140"/>
<path d="M435.495 431.313C427.622 431.928 419.748 432.42 411.875 433.035C399.204 434.02 386.657 434.881 373.986 435.865C371.156 436.111 368.204 436.234 365.375 436.48C365.744 436.849 366.113 437.218 366.359 437.464C366.236 428.853 365.99 420.365 365.867 411.753C365.621 398.098 365.375 384.443 365.005 370.788C365.005 367.59 364.882 364.514 364.759 361.316C364.39 361.685 364.021 362.054 363.775 362.3C370.172 361.931 376.569 361.439 383.089 361.07L413.721 359.102C416.058 358.979 418.395 358.856 420.856 358.61C422.209 358.487 422.209 356.518 420.856 356.518C414.459 356.887 408.062 357.379 401.542 357.748L370.91 359.717C368.573 359.84 366.236 359.963 363.775 360.209C363.283 360.209 362.791 360.701 362.791 361.193C362.914 369.804 363.16 378.292 363.283 386.904C363.529 400.559 363.775 414.214 364.144 427.869C364.267 431.067 364.267 434.143 364.39 437.341C364.39 437.833 364.882 438.448 365.375 438.325C373.248 437.71 381.121 437.218 388.994 436.603C401.665 435.619 414.213 434.758 426.883 433.774C429.713 433.527 432.665 433.404 435.495 433.158C436.725 433.158 436.725 431.19 435.495 431.313Z" fill="#030140"/>
<path d="M371.279 398.344C371.279 389.241 371.402 380.138 371.402 371.034C371.402 370.419 371.402 369.804 371.895 369.312C372.387 368.82 373.002 368.82 373.74 368.697L390.224 368.082C390.47 374.11 390.224 388.995 390.347 395.269C390.47 401.42 371.279 400.805 371.279 398.344Z" fill="#F24B78"/>
<path d="M414.951 368.697C408.554 369.189 402.28 369.804 395.883 370.296C394.653 370.419 394.653 372.387 395.883 372.264C402.28 371.772 408.554 371.157 414.951 370.665C416.181 370.542 416.181 368.574 414.951 368.697Z" fill="#030140"/>
<path d="M419.748 377.8C411.629 378.538 403.633 378.907 395.514 379.153C394.284 379.153 394.161 381.245 395.514 381.122C403.633 380.876 411.752 380.384 419.748 379.768C420.979 379.768 420.979 377.677 419.748 377.8Z" fill="#030140"/>
<path d="M425.53 386.165C415.566 386.042 405.601 386.534 395.637 387.765C394.407 387.888 394.407 389.979 395.637 389.733C405.601 388.503 415.566 387.888 425.53 388.134C426.761 388.134 426.761 386.165 425.53 386.165Z" fill="#030140"/>
<path d="M425.899 394.777C415.935 394.654 405.97 395.146 396.006 396.376C394.776 396.499 394.776 398.59 396.006 398.344C405.97 397.114 415.935 396.499 425.899 396.745C427.13 396.868 427.13 394.777 425.899 394.777Z" fill="#030140"/>
<path d="M403.141 423.317C393.177 423.194 383.212 423.686 373.248 424.916C372.018 425.039 372.018 427.13 373.248 426.884C383.212 425.654 393.177 425.039 403.141 425.285C404.494 425.285 404.494 423.317 403.141 423.317Z" fill="#030140"/>
<path d="M401.173 407.693C391.208 407.57 381.244 408.062 371.279 409.293C370.049 409.416 370.049 411.507 371.279 411.261C381.244 410.031 391.208 409.416 401.173 409.662C402.403 409.785 402.403 407.693 401.173 407.693Z" fill="#030140"/>
<path d="M403.018 415.321C393.054 415.198 383.089 415.69 373.125 416.92C371.895 417.043 371.895 419.134 373.125 418.888C383.089 417.658 393.054 417.043 403.018 417.289C404.248 417.289 404.248 415.321 403.018 415.321Z" fill="#030140"/>
<path d="M427.868 406.217C428.114 412.122 428.36 418.15 428.483 424.055C422.701 424.178 420.364 424.301 412.244 424.67C411.629 419.257 411.506 413.844 411.137 406.217C411.137 405.848 411.26 405.479 411.506 405.233C411.752 404.987 411.998 404.987 412.367 404.987C417.165 404.618 421.963 404.372 426.884 404.003" fill="#F24B78"/>
<path d="M382.105 235.345C377.799 235.222 373.494 235.099 369.188 235.838C365.005 236.576 360.823 238.421 357.994 241.742C356.025 243.957 354.795 246.786 353.688 249.616C352.089 253.675 350.612 257.981 351.351 262.286C352.089 267.453 355.779 271.882 360.331 274.342C364.882 276.925 370.172 277.787 375.339 278.033C376.815 278.033 378.168 278.156 379.645 277.664C381.121 277.172 382.474 276.31 383.827 275.326C389.609 270.652 393.177 263.393 393.423 255.889C393.669 248.508 390.47 241.004 384.934 235.961" fill="#F24B78"/>
<path d="M380.014 230.056C371.033 229.687 360.331 229.81 354.426 237.683C351.597 241.496 349.751 246.54 348.644 251.215C347.66 255.643 348.029 260.072 350.366 263.886C355.164 271.882 364.882 274.465 373.617 274.588C375.831 274.588 378.045 274.342 380.014 273.112C381.982 272.005 383.704 270.406 385.18 268.683C388.01 265.485 390.101 261.548 391.208 257.489C393.669 247.893 390.47 237.56 383.335 230.917C382.474 230.056 381.121 231.409 381.982 232.27C387.764 237.683 390.962 245.556 390.101 253.429C389.732 257.366 388.256 261.179 386.165 264.501C384.073 267.699 380.629 271.636 376.815 272.497C374.847 272.866 372.633 272.62 370.664 272.497C368.45 272.251 366.236 271.882 364.021 271.267C360.085 270.16 356.517 268.191 353.811 265.116C351.104 262.04 349.751 258.104 350.243 253.921C350.735 249.616 352.458 245.064 354.549 241.25C359.593 231.655 370.664 231.532 380.137 231.778C381.121 231.901 381.121 230.056 380.014 230.056Z" fill="#030140"/>
<path d="M365.129 247.647C369.68 246.909 374.232 246.54 378.784 246.663L376.815 243.342C374.847 246.294 372.141 248.754 369.065 250.477C367.712 251.215 367.589 253.552 369.065 254.29C369.803 254.659 370.541 254.905 371.402 254.905C372.018 254.905 372.633 254.782 373.248 254.782C373.74 254.782 374.478 255.151 374.97 255.766C376.2 257.243 376.077 259.334 374.847 260.933C373.617 262.532 371.648 263.148 369.803 262.532C367.343 261.794 366.482 259.457 365.99 257.243C365.744 256.012 364.39 255.397 363.283 255.643C362.053 256.012 361.438 257.243 361.684 258.35C362.299 261.302 363.652 264.009 366.236 265.608C368.45 267.084 371.648 267.453 374.109 266.592C379.276 264.747 382.105 257.981 378.661 253.306C377.676 252.076 376.569 251.092 375.093 250.6C374.355 250.354 373.617 250.231 372.879 250.231C372.51 250.231 371.525 250.477 371.156 250.354V254.167C374.847 251.953 378.045 249 380.383 245.433C381.367 243.957 380.014 242.111 378.414 242.111C373.371 241.988 368.45 242.357 363.529 243.219C362.299 243.465 361.684 244.818 361.93 245.925C362.791 247.401 363.898 247.893 365.129 247.647Z" fill="#030140"/>
<path d="M114.049 388.995L230.301 387.272C236.452 387.272 242.972 383.828 242.972 374.848L241.496 367.713L157.966 368.943L155.383 374.479H106.791V367.713L16.1268 364.637V376.816C16.1268 382.475 20.6785 387.149 26.4603 387.149L37.1629 388.011L114.049 388.995Z" fill="#F24B78"/>
<path d="M237.436 350.859L237.067 316.045C236.821 297.715 236.698 279.386 236.452 261.179C236.452 257.243 236.452 253.306 236.329 249.369C236.206 243.588 232.146 238.544 226.364 237.683C225.38 237.56 224.273 237.56 223.166 237.437C212.34 236.699 201.515 235.96 190.812 235.345C171.99 234.115 153.169 232.885 134.47 231.655L79.9731 228.087C71.1158 227.472 62.1355 226.611 53.2782 226.365C48.6035 226.242 44.0518 229.194 42.3296 233.5C41.4685 235.468 41.3454 237.437 41.4685 239.651C41.5915 244.695 41.7145 249.615 41.8375 254.659L43.3137 310.14C43.6828 324.41 44.0518 338.803 44.4209 353.073C44.4209 353.812 44.4209 354.55 44.4209 355.288C44.4209 357.625 48.2345 357.625 48.1114 355.288C47.8654 344.954 47.6194 334.621 47.2503 324.287L45.7741 267.453C45.5281 260.318 45.405 253.183 45.159 246.048C45.159 243.957 45.036 241.988 45.036 239.897C45.036 238.421 44.913 237.068 45.405 235.714C46.5122 232.27 49.8337 229.933 53.5242 230.056C54.5084 230.056 55.4925 230.179 56.5997 230.302C61.2743 230.671 65.949 230.917 70.7467 231.286C87.2311 232.393 103.839 233.5 120.323 234.607C139.514 235.837 158.828 237.191 178.018 238.421C191.55 239.282 205.082 240.266 218.491 241.127C220.583 241.25 222.674 241.373 224.765 241.496C229.44 241.742 232.761 245.187 232.884 249.861C232.884 251.338 232.884 252.814 232.884 254.29C233.007 270.528 233.253 286.767 233.376 303.128C233.499 318.259 233.745 333.391 233.868 348.645V351.228C233.868 353.196 237.559 353.196 237.436 350.859Z" fill="#030140"/>
<path d="M47.9884 380.506C44.4209 380.26 40.8534 379.891 37.2859 379.645C34.0874 379.399 31.258 377.923 29.6588 374.971C28.6746 373.002 28.7976 370.788 28.7976 368.697V362.054L26.9524 363.899H57.7068H106.422H117.617L115.771 362.054V368.82C115.771 369.804 116.632 370.665 117.617 370.665H160.181H166.209C167.193 370.665 168.054 369.804 168.054 368.82V362.054L166.209 363.899H195.364H241.742H252.444L250.599 362.054C250.599 364.76 250.599 367.59 250.599 370.296C250.476 375.34 246.539 379.522 241.496 379.768C239.896 379.768 238.174 379.768 236.575 379.768H205.328H159.32H116.755C109.62 379.768 102.485 379.522 95.3503 379.768C95.2273 379.768 95.1043 379.768 95.1043 379.768C92.7669 379.768 92.7669 383.459 95.1043 383.459H113.188H155.014H202.007H235.468C237.436 383.459 239.281 383.459 241.25 383.459C245.678 383.336 249.861 381.245 252.321 377.431C254.658 373.864 254.289 369.927 254.289 365.867V362.177C254.289 361.193 253.428 360.332 252.444 360.332H223.289H176.911H166.209C165.224 360.332 164.363 361.193 164.363 362.177V368.943L166.209 367.098H123.644H117.617L119.462 368.943V362.177C119.462 361.193 118.601 360.332 117.617 360.332H86.8621H38.024H26.8293C25.8452 360.332 24.9841 361.193 24.9841 362.177V368.451C24.9841 371.034 24.861 373.494 25.8452 375.832C27.3214 379.399 30.3969 382.229 34.0874 383.09C36.1787 383.582 38.6391 383.582 40.7304 383.705C43.0677 383.951 45.405 384.074 47.7424 384.32C50.3258 384.443 50.3258 380.753 47.9884 380.506Z" fill="#030140"/>
<path d="M251.091 354.673C251.952 336.589 252.69 318.629 252.936 300.545C253.059 292.057 253.182 283.568 253.182 275.08C253.182 265.731 253.428 256.381 252.936 247.032C252.567 239.405 251.706 230.548 246.662 224.52C242.48 219.476 236.329 216.401 230.055 214.924C225.503 213.817 220.829 213.448 216.154 213.202C211.11 212.956 206.066 212.587 201.023 212.341C192.288 211.849 183.677 211.357 174.943 210.865C161.165 210.004 147.264 209.266 133.486 208.528C121.061 207.789 108.636 207.174 96.3344 206.682C81.6953 205.944 66.9332 205.452 52.294 204.837C50.0797 204.714 47.9884 204.714 45.7741 204.591C43.8058 204.468 41.8375 204.96 39.8692 205.206C36.3017 205.698 32.6112 206.313 29.5357 208.158C23.1388 211.972 22.4007 220.46 21.7856 227.226C21.4166 231.409 21.5396 235.591 21.6626 239.774C21.7856 244.941 21.9086 250.108 22.0316 255.397C22.2777 265.485 22.6467 275.695 23.0158 285.783C23.7539 304.728 24.615 323.672 25.5992 342.494C25.8452 346.8 26.0912 351.228 26.3373 355.534C26.4603 357.871 30.1508 357.871 30.0278 355.534C29.0437 337.45 28.1825 319.367 27.3214 301.406C26.4603 281.723 25.8452 262.04 25.4762 242.234C25.3531 234.361 24.9841 226.365 26.9524 218.615C27.8135 215.417 29.1667 212.587 32.2421 210.988C35.3176 209.389 39.1311 209.02 42.5756 208.528C46.6352 207.912 50.8178 208.404 55.0004 208.651C58.937 208.774 62.8736 208.897 66.8102 209.143C73.9452 209.389 80.9572 209.758 88.0923 210.004C100.394 210.496 112.696 211.111 124.998 211.849C137.791 212.587 150.708 213.325 163.502 214.063C180.479 215.047 197.332 216.032 214.309 217.016C222.551 217.508 230.916 217.877 238.297 222.182C240.634 223.536 242.972 225.381 244.694 227.472C246.908 230.179 248.016 233.746 248.631 237.191C250.476 245.925 249.984 255.028 249.984 263.886C249.984 272.62 249.984 281.354 249.861 290.211C249.738 306.942 249.246 323.795 248.508 340.526C248.262 345.323 248.016 350.244 247.769 355.042C247.277 357.01 250.968 357.01 251.091 354.673Z" fill="#030140"/>
<path d="M145.173 320.105H144.065C144.311 320.474 144.927 320.474 145.173 320.105Z" fill="#333333"/>
<path d="M152.185 320.105H151.077C151.323 320.597 151.939 320.474 152.185 320.105Z" fill="#333333"/>
<path d="M196.225 320.105H195.487C195.733 320.228 195.979 320.351 196.225 320.105Z" fill="#333333"/>
<path d="M73.6992 286.89V288.489H80.4652V295.993H73.6992V315.922H65.826V295.993V288.489V286.521C65.826 283.076 66.8102 280.247 68.9015 278.279C70.8698 276.31 73.5761 275.326 76.7746 275.326C78.2508 275.326 79.604 275.572 80.8342 276.187L80.4652 283.076C79.604 282.83 78.7429 282.707 78.0048 282.707C76.7746 282.707 75.7905 283.076 75.0524 283.937C74.0682 284.676 73.6992 285.66 73.6992 286.89Z" fill="#030140"/>
<path d="M152.431 308.295L152.8 315.307C151.693 315.799 150.339 316.045 148.74 316.045C145.419 316.045 142.712 315.061 140.744 313.093C138.776 311.124 137.791 308.295 137.791 304.851V295.501V287.874V280.616H145.542V287.874H152.308V295.501H145.542V304.358C145.542 305.589 145.911 306.696 146.772 307.434C147.633 308.172 148.617 308.664 149.847 308.664C150.831 308.664 151.693 308.541 152.431 308.295Z" fill="#030140"/>
<path d="M101.501 288.366H109.005V315.676H101.501V311.985C100.886 313.093 99.779 313.954 98.4258 314.569C96.9495 315.184 95.4733 315.553 93.7511 315.553C91.5368 315.553 89.4455 314.938 87.6002 313.708C85.7549 312.477 84.2787 310.878 83.1715 308.787C82.0644 306.696 81.5723 304.358 81.5723 301.898C81.5723 298.084 82.8025 294.886 85.1398 292.179C87.4772 289.473 90.4296 288.243 93.8741 288.243C95.4733 288.243 97.0726 288.612 98.5488 289.227C100.025 289.965 101.009 290.826 101.624 291.81V288.366H101.501ZM95.3503 308.541C96.5805 308.541 97.8107 308.295 98.9178 307.68C100.025 307.065 100.886 306.327 101.378 305.342V298.945C100.763 297.961 99.902 297.1 98.9178 296.485C97.8107 295.87 96.5805 295.501 95.3503 295.501C93.505 295.501 91.9058 296.116 90.6756 297.346C89.4455 298.576 88.8304 300.176 88.8304 302.021C88.8304 303.866 89.4455 305.465 90.6756 306.696C92.0288 307.926 93.505 308.541 95.3503 308.541Z" fill="#030140"/>
<path d="M124.137 315.676C119.339 315.676 115.402 314.569 112.327 312.354L114.541 307.065C117.001 308.91 119.954 309.894 123.398 309.894C124.506 309.894 125.49 309.648 126.228 309.279C126.966 308.91 127.335 308.418 127.335 307.68C127.335 307.188 127.089 306.696 126.597 306.327C126.105 305.957 125.367 305.711 124.506 305.465C123.644 305.219 122.783 305.096 121.676 304.85C120.569 304.604 119.708 304.358 118.601 303.989C117.617 303.62 116.632 303.128 115.771 302.636C114.91 302.144 114.295 301.406 113.68 300.422C113.188 299.438 112.819 298.33 112.819 296.977C112.819 294.517 113.803 292.426 115.771 290.703C117.74 288.981 120.323 288.243 123.398 288.243C127.581 288.243 130.903 289.227 133.363 291.195L131.272 296.608C130.287 295.87 128.934 295.132 127.458 294.64C125.982 294.148 124.506 293.902 123.152 293.902C122.168 293.902 121.43 294.148 120.815 294.517C120.2 294.886 119.954 295.378 119.954 295.993C119.954 296.485 120.2 296.854 120.569 297.223C120.938 297.592 121.553 297.838 122.168 298.084C122.783 298.33 123.644 298.576 124.506 298.822C125.367 299.069 126.228 299.315 127.089 299.561C127.95 299.807 128.811 300.176 129.672 300.545C130.533 300.914 131.272 301.529 132.01 302.021C132.748 302.513 133.24 303.251 133.609 304.235C133.978 305.219 134.224 306.081 134.224 307.311C134.224 309.771 133.24 311.739 131.272 313.339C129.672 314.938 127.212 315.676 124.137 315.676Z" fill="#030140"/>
<path d="M180.725 300.914C180.725 302.021 180.602 303.005 180.479 303.866H161.534C161.903 305.589 162.641 306.942 163.748 307.926C164.855 308.91 166.455 309.279 168.177 309.279C169.407 309.279 170.514 309.033 171.621 308.541C172.729 308.049 173.467 307.434 173.959 306.573L179.864 310.14C178.879 311.863 177.403 313.216 175.312 314.2C173.221 315.184 170.883 315.676 168.054 315.676C164.24 315.676 160.919 314.323 158.212 311.74C155.506 309.033 154.153 305.835 154.153 301.898C154.153 298.085 155.506 294.886 158.089 292.303C160.673 289.719 163.994 288.366 167.808 288.366C171.375 288.366 174.328 289.596 176.788 292.057C179.495 294.394 180.725 297.346 180.725 300.914ZM161.657 299.069H173.098C172.975 297.716 172.36 296.731 171.252 295.747C170.145 294.886 168.915 294.394 167.562 294.394C165.963 294.394 164.732 294.763 163.748 295.624C162.764 296.485 162.026 297.593 161.657 299.069Z" fill="#030140"/>
<path d="M197.578 288.366C198.931 288.366 200.039 288.489 200.9 288.858L200.408 296.116C199.3 295.747 198.07 295.501 196.963 295.501C195.979 295.501 194.995 295.87 193.765 296.608C192.657 297.346 191.673 298.331 191.058 299.561V315.799H183.308V288.489H191.058V292.18C191.673 291.073 192.657 290.211 193.888 289.473C195.241 288.735 196.471 288.366 197.578 288.366Z" fill="#030140"/>
<path d="M212.709 315.676H206.189C206.066 315.676 205.82 315.553 205.697 315.43L203.729 313.462C203.606 313.339 203.483 313.216 203.483 312.97V309.279C203.483 308.91 203.729 308.664 204.098 308.664H212.463C212.832 308.664 213.078 308.91 213.078 309.279V314.938C213.324 315.43 213.078 315.676 212.709 315.676Z" fill="#F24B78"/>
<path d="M52.2941 180.356C46.1432 180.11 39.8693 179.864 33.8414 181.095C27.8135 182.202 21.7856 184.908 17.726 189.583C14.8966 192.781 13.1744 196.841 11.5751 200.777C9.23781 206.559 7.26952 212.833 8.13065 218.984C9.23781 226.365 14.5276 232.639 21.0475 236.33C27.5675 240.02 35.1946 241.25 42.5757 241.619C44.667 241.742 46.7583 241.742 48.7266 241.127C50.9409 240.512 52.9092 239.159 54.6314 237.806C62.8736 231.04 68.0404 220.583 68.4094 209.881C68.6555 199.178 64.1038 188.476 56.2306 181.341" fill="#F24B78"/>
<path d="M66.1951 210.742C63.6117 198.317 60.0442 183.432 47.1273 177.773C44.0519 176.42 40.7304 175.682 37.5319 175.19C33.9644 174.698 30.3969 174.206 26.7063 174.206C20.3094 174.206 14.1585 176.051 9.48383 180.603C-0.480618 190.075 -0.849671 205.329 2.10276 217.877C2.84087 221.075 4.19406 223.782 6.65442 225.996C8.99176 228.21 11.6982 229.933 14.5276 231.409C20.1864 234.238 26.4603 235.838 32.8572 235.715C46.6352 235.591 59.4291 227.718 66.0721 215.663C66.9332 214.186 64.5958 212.833 63.7347 214.309C58.445 223.905 48.7265 230.794 37.901 232.639C32.1191 233.623 26.0912 233.008 20.5554 231.04C17.726 230.056 15.0196 228.826 12.5593 227.103C10.0989 225.504 7.63856 223.659 6.16235 221.075C4.68613 218.369 4.31708 215.171 3.82501 212.218C3.33293 208.774 3.0869 205.206 3.20992 201.639C3.57897 195.734 5.30122 189.829 8.86874 185.154C12.4363 180.479 17.48 177.527 23.3848 177.035C26.5833 176.666 29.9048 176.912 33.1033 177.281C36.3017 177.65 39.5002 178.142 42.5756 179.003C57.2148 183.063 61.0283 198.44 63.6117 211.48C63.9808 213.202 66.4411 212.464 66.1951 210.742Z" fill="#030140"/>
<path d="M27.5674 189.46C26.4603 193.396 25.3531 197.456 24.246 201.392C23.7539 203.361 23.1388 205.329 22.6467 207.42C22.1547 209.266 21.0475 211.48 21.6626 213.325C22.1547 215.17 23.9999 215.785 25.7222 215.908C27.6905 216.032 29.6588 215.908 31.627 215.908C35.8096 215.908 39.8692 215.908 44.0518 215.908C46.6352 215.908 46.6352 211.972 44.0518 211.972C40.4843 211.972 36.9168 211.972 33.2263 211.972H28.0595C27.5674 211.972 27.0754 211.972 26.7063 211.972C26.4603 211.972 25.8452 211.849 25.5992 211.972C25.4761 211.972 25.1071 211.726 25.4761 212.095C25.5992 212.341 25.5992 212.341 25.5992 212.095C25.5992 211.849 25.7222 211.726 25.7222 211.48C27.5674 204.468 29.5357 197.456 31.504 190.567C32.1191 187.983 28.3056 186.999 27.5674 189.46Z" fill="#030140"/>
<path d="M32.9802 197.21C34.2104 206.313 35.4406 215.294 36.5478 224.397C36.6708 225.504 37.4089 226.365 38.5161 226.365C39.5002 226.365 40.6074 225.504 40.4843 224.397L36.9168 197.21C36.7938 196.103 36.0557 195.242 34.9485 195.242C33.9644 195.242 32.8572 196.103 32.9802 197.21Z" fill="#030140"/>
<path d="M251.706 41.9614C275.202 38.7629 299.56 42.3304 321.211 52.0489C326.624 54.5092 332.406 57.2156 335.727 62.2593C337.08 64.2276 340.279 62.3824 338.926 60.4141C335.727 55.7394 330.93 52.664 325.886 50.2036C320.227 47.4972 314.445 45.1599 308.54 43.3146C296.731 39.501 284.306 37.5328 272.004 37.1637C264.869 37.0407 257.857 37.4097 250.722 38.3939C249.738 38.5169 249.246 39.7471 249.492 40.6082C249.738 41.7154 250.722 42.0844 251.706 41.9614Z" fill="#030140"/>
<path d="M405.601 164.364C404.371 184.047 399.205 203.361 390.347 220.952C389.24 223.043 392.439 224.889 393.546 222.797C402.772 204.591 408.185 184.662 409.292 164.364C409.415 162.027 405.724 162.027 405.601 164.364Z" fill="#030140"/>
<path d="M338.065 269.913C321.088 280.37 301.897 286.89 282.091 288.858C276.433 289.473 270.774 289.596 265.115 289.473C262.778 289.35 262.778 293.041 265.115 293.164C285.536 293.779 305.834 289.596 324.41 281.231C329.699 278.894 334.866 276.064 339.91 273.112C341.878 271.882 340.033 268.683 338.065 269.913Z" fill="#030140"/>
</svg>
