<svg width="101" height="77" viewBox="0 0 101 77" fill="none" xmlns="http://www.w3.org/2000/svg">
<path d="M56.1474 27.4438C56.1284 24.9575 56.0526 22.4712 55.6355 20.0039C55.2562 17.7074 54.5547 15.5438 53.455 13.494C51.7675 10.3244 49.4165 7.49649 46.3449 5.61753C43.1596 3.68163 39.4813 2.94143 35.8029 2.7896C31.3662 2.5998 26.8537 3.09327 22.5118 4.09918C20.6536 4.5357 18.7766 5.06713 17.0133 5.80732C15.1172 6.60446 13.4108 7.80016 11.9129 9.20464C8.55695 12.3362 6.14899 16.4358 5.10618 20.9149C3.98752 25.7737 4.44256 30.8032 5.39058 35.624C6.18691 39.7045 7.36245 43.7092 9.29641 47.4102C11.1356 50.9024 13.6762 54.0719 17.0512 56.1787C20.938 58.608 25.6402 59.3292 30.1528 59.0256C31.2904 58.9497 32.428 58.8168 33.5656 58.627C33.869 58.5701 34.0396 58.2095 33.9638 57.9437C33.869 57.6211 33.5656 57.5072 33.2812 57.5452C28.9204 58.2474 24.294 58.1905 20.1607 56.5013C16.5961 55.0399 13.7142 52.3258 11.6285 49.1183C9.50497 45.8539 8.10191 42.1719 7.17285 38.395C6.05419 33.8968 5.29578 29.152 5.69394 24.521C6.07315 20.0039 7.77958 15.7146 10.6616 12.2034C11.9509 10.6281 13.4487 9.18566 15.1552 8.06587C16.6909 7.05996 18.3974 6.41466 20.1607 5.88324C24.1803 4.66856 28.4084 4.02326 32.6176 3.8904C36.3338 3.77653 40.2017 4.00428 43.6525 5.48467C46.7051 6.77527 49.2269 8.99586 51.1039 11.7289C52.2036 13.3421 53.1706 15.1072 53.7773 16.9862C54.4978 19.2258 54.8012 21.5602 54.9339 23.8947C54.9908 25.0714 55.0287 26.2481 55.0287 27.4438C55.0287 28.1651 56.1474 28.1651 56.1474 27.4438Z" fill="#030140"/>
<path d="M28.0102 57.9628C24.6922 58.0007 21.3552 57.4693 18.3215 56.1218C15.0603 54.6793 12.2921 52.3828 10.0169 49.6498C7.83647 47.0117 6.149 43.956 4.89762 40.7864C3.58936 37.446 2.6603 33.8969 2.28109 30.3287C1.90189 26.6657 2.05357 22.9457 3.05847 19.3966C3.93064 16.303 5.42851 13.3991 7.47622 10.9318C9.41017 8.61628 11.7613 6.69936 14.3967 5.23795C17.0512 3.75755 19.9521 2.82756 22.9289 2.25818C25.9057 1.70778 28.9393 1.499 31.954 1.78369C35.4427 2.10634 38.8745 3.07429 42.0598 4.57367C42.9699 4.99122 43.8611 5.4657 44.7332 5.95917C45.3589 6.31977 45.9277 5.35182 45.3021 4.99122C41.965 3.07429 38.3247 1.65084 34.5326 1.00554C31.3473 0.455134 28.0861 0.417175 24.8818 0.834722C21.7533 1.23329 18.7007 1.99247 15.7998 3.28307C12.9558 4.55469 10.3392 6.33875 8.13983 8.55935C5.86459 10.8369 4.08232 13.5509 2.86886 16.5307C1.42788 20.0419 0.896991 23.8757 0.991792 27.6337C1.10555 31.4295 1.82605 35.2254 3.02055 38.8315C4.12025 42.2099 5.63707 45.4743 7.68478 48.3971C9.77042 51.3769 12.368 54.034 15.4964 55.913C18.549 57.735 21.9998 58.7409 25.5264 59.0066C26.3607 59.0636 27.1949 59.0826 28.0102 59.0826C28.7118 59.0826 28.7307 57.9628 28.0102 57.9628Z" fill="#030140"/>
<path d="M20.1417 15.297C18.6439 14.7846 16.9374 14.8036 15.6861 15.8474C15.1552 16.284 14.738 16.9103 14.6243 17.5935C14.4916 18.3907 14.9466 19.0739 15.6292 19.4535C16.9943 20.1937 18.587 19.7003 20.009 20.1747C20.5399 20.3456 21.0329 20.6872 21.1846 21.2376C21.3173 21.788 21.0898 22.3953 20.6916 22.7749C19.4592 23.9516 17.6011 23.1735 16.4255 22.3384C16.179 22.1676 15.7998 22.3004 15.6671 22.5472C15.4965 22.8319 15.6292 23.1355 15.8757 23.3063C17.1081 24.1794 18.6628 24.7678 20.1797 24.3122C21.5638 23.8947 22.5876 22.5472 22.3032 21.0668C22.0188 19.6054 20.5209 18.998 19.1937 18.8652C18.4543 18.7892 15.2879 19.036 15.7809 17.5556C15.9894 16.9293 16.5772 16.4548 17.2029 16.227C18.0751 15.9234 19.0041 16.0562 19.8573 16.3599C20.5209 16.6256 20.8243 15.5438 20.1417 15.297Z" fill="#030140"/>
<path d="M17.8285 15.3919C17.7906 14.4999 17.6389 13.6079 17.3924 12.7538C17.3166 12.4691 16.9943 12.2603 16.7099 12.3552C16.4255 12.4501 16.2359 12.7538 16.3117 13.0385C16.4255 13.4371 16.5203 13.8356 16.5961 14.2342C16.6151 14.3291 16.634 14.424 16.634 14.5189C16.634 14.5758 16.634 14.5758 16.634 14.5189C16.634 14.5379 16.634 14.5568 16.634 14.5948C16.634 14.6517 16.653 14.7087 16.653 14.7656C16.672 14.9744 16.6909 15.1832 16.6909 15.3919C16.7099 15.6766 16.9374 15.9613 17.2597 15.9613C17.5631 15.9423 17.8285 15.7146 17.8285 15.3919Z" fill="#030140"/>
<path d="M18.9472 23.9327L19.2126 26.0394C19.2316 26.1912 19.2695 26.3241 19.3832 26.4379C19.478 26.5328 19.6487 26.6088 19.7814 26.6088C19.9331 26.6088 20.0848 26.5518 20.1796 26.4379C20.2744 26.343 20.3692 26.1912 20.3502 26.0394L20.0848 23.9327C20.0658 23.7808 20.0279 23.648 19.9141 23.5341C19.8193 23.4392 19.6487 23.3633 19.516 23.3633C19.3643 23.3633 19.2126 23.4202 19.1178 23.5341C19.023 23.629 18.9282 23.7808 18.9472 23.9327Z" fill="#030140"/>
<path d="M22.4738 38.8125C20.976 38.3001 19.2695 38.3191 18.0182 39.3629C17.4873 39.7994 17.0702 40.4258 16.9564 41.109C16.8237 41.9062 17.2787 42.5894 17.9613 42.969C19.3264 43.7092 20.9191 43.2157 22.3411 43.6902C22.872 43.861 23.365 44.2027 23.5167 44.7531C23.6494 45.3035 23.4219 45.9108 23.0237 46.2904C21.7913 47.4671 19.9332 46.689 18.7576 45.8539C18.5111 45.6831 18.1319 45.8159 17.9992 46.0627C17.8286 46.3473 17.9613 46.651 18.2078 46.8218C19.4402 47.6949 20.9949 48.2832 22.5118 47.8277C23.8959 47.4102 24.9197 46.0627 24.6353 44.5823C24.3509 43.1208 22.853 42.5135 21.5258 42.3806C20.7864 42.3047 17.62 42.5515 18.113 41.09C18.3215 40.4637 18.9093 39.9892 19.535 39.7615C20.4072 39.4578 21.3362 39.5907 22.1894 39.8943C22.872 40.1411 23.1564 39.0592 22.4738 38.8125Z" fill="#030140"/>
<path d="M20.1607 38.9074C20.1228 38.0154 19.9711 37.1234 19.7246 36.2693C19.6488 35.9846 19.3264 35.7758 19.042 35.8707C18.7576 35.9656 18.568 36.2693 18.6439 36.554C18.7576 36.9525 18.8524 37.3511 18.9283 37.7497C18.9472 37.8446 18.9662 37.9395 18.9662 38.0344C18.9662 38.0913 18.9662 38.0913 18.9662 38.0344C18.9662 38.0534 18.9662 38.0723 18.9662 38.1103C18.9662 38.1672 18.9852 38.2242 18.9852 38.2811C19.0041 38.4899 19.0231 38.6987 19.0231 38.9074C19.042 39.1921 19.2696 39.4768 19.5919 39.4768C19.8952 39.4578 20.1796 39.2301 20.1607 38.9074Z" fill="#030140"/>
<path d="M21.2983 47.4481L21.5638 49.5549C21.5827 49.7067 21.6207 49.8396 21.7344 49.9534C21.8292 50.0483 21.9999 50.1242 22.1326 50.1242C22.2843 50.1242 22.4359 50.0673 22.5307 49.9534C22.6255 49.8585 22.7203 49.7067 22.7014 49.5549L22.4359 47.4481C22.417 47.2963 22.3791 47.1635 22.2653 47.0496C22.1705 46.9547 21.9999 46.8788 21.8671 46.8788C21.7155 46.8788 21.5638 46.9357 21.469 47.0496C21.3552 47.1445 21.2794 47.2963 21.2983 47.4481Z" fill="#030140"/>
<path d="M42.4959 12.6969C40.9981 12.1844 39.2916 12.2034 38.0403 13.2473C37.5094 13.6838 37.0922 14.3101 36.9785 14.9934C36.8458 15.7905 37.3008 16.4738 37.9834 16.8533C39.3485 17.5935 40.9412 17.1001 42.3632 17.5746C42.8941 17.7454 43.3871 18.087 43.5388 18.6374C43.6715 19.1878 43.444 19.7951 43.0458 20.1747C41.8134 21.3515 39.9553 20.5733 38.7797 19.7382C38.5332 19.5674 38.154 19.7002 38.0213 19.947C37.8507 20.2317 37.9834 20.5353 38.2299 20.7062C39.4623 21.5792 41.017 22.1676 42.5339 21.7121C43.918 21.2945 44.9418 19.947 44.6574 18.4666C44.373 17.0052 42.8751 16.3978 41.5479 16.265C40.8085 16.1891 37.6421 16.4358 38.1351 14.9744C38.3436 14.3481 38.9314 13.8736 39.5571 13.6458C40.4293 13.3422 41.3583 13.475 42.2115 13.7787C42.8751 14.0064 43.1785 12.9246 42.4959 12.6969Z" fill="#030140"/>
<path d="M40.1828 12.7917C40.1449 11.8997 39.9932 11.0077 39.7467 10.1536C39.6709 9.86892 39.3486 9.66014 39.0642 9.75504C38.7798 9.84994 38.5901 10.1536 38.666 10.4383C38.7797 10.8369 38.8746 11.2354 38.9504 11.634C38.9694 11.7289 38.9883 11.8238 38.9883 11.9187C38.9883 11.9756 38.9883 11.9756 38.9883 11.9187C38.9883 11.9377 38.9883 11.9567 38.9883 11.9946C38.9883 12.0516 39.0073 12.1085 39.0073 12.1654C39.0262 12.3742 39.0452 12.583 39.0452 12.7917C39.0642 13.0764 39.2917 13.3611 39.614 13.3611C39.9174 13.3422 40.1828 13.0954 40.1828 12.7917Z" fill="#030140"/>
<path d="M41.3014 21.3135L41.5669 23.4202C41.5858 23.572 41.6237 23.7049 41.7375 23.8188C41.8323 23.9137 42.0029 23.9896 42.1357 23.9896C42.2874 23.9896 42.439 23.9327 42.5338 23.8188C42.6286 23.7239 42.7234 23.572 42.7045 23.4202L42.439 21.3135C42.4201 21.1617 42.3822 21.0288 42.2684 20.9149C42.1736 20.82 42.0029 20.7441 41.8702 20.7441C41.7185 20.7441 41.5669 20.801 41.472 20.9149C41.3772 21.0288 41.2824 21.1806 41.3014 21.3135Z" fill="#030140"/>
<path d="M55.5785 27.0642C49.606 27.4628 43.6335 28.0132 37.661 28.4877C35.8977 28.6395 34.1155 28.7724 32.3521 28.9052C31.8781 28.9432 31.8781 29.6834 32.3521 29.6454C38.7228 29.171 45.0935 28.6016 51.4641 28.1081C52.8293 27.9942 54.1944 27.8993 55.5785 27.8044C56.0525 27.7855 56.0525 27.0453 55.5785 27.0642Z" fill="#030140"/>
<path d="M29.9252 30.1579C30.6457 37.1993 31.5558 44.2406 32.428 51.263C32.7124 53.4836 32.9778 55.7042 33.2622 57.9248C33.3191 58.3993 34.0586 58.3993 34.0017 57.9248C33.1106 50.5608 32.1246 43.2157 31.2904 35.8517C31.0818 33.9538 30.8732 32.0558 30.6647 30.1579C30.6268 29.6834 29.8684 29.6834 29.9252 30.1579Z" fill="#030140"/>
<path d="M7.38144 32.5303C9.96004 32.3974 12.5197 32.1317 15.0793 31.847C18.113 31.5244 21.1277 31.1638 24.1423 30.7842C25.6213 30.5944 27.0812 30.4046 28.5601 30.1959C28.7687 30.1769 28.8635 29.9112 28.8255 29.7404C28.7687 29.5316 28.5601 29.4557 28.3705 29.4746C22.6824 30.2528 16.9943 30.955 11.2683 31.4864C9.979 31.6003 8.6897 31.7142 7.4004 31.7901C6.90743 31.8091 6.88847 32.5493 7.38144 32.5303Z" fill="#030140"/>
<path d="M30.4562 27.3489C29.6219 21.6551 28.7876 15.9613 27.9155 10.2865C27.669 8.73014 27.4225 7.17383 27.176 5.61752C27.1002 5.14304 26.3797 5.35181 26.4555 5.80732C27.3656 11.5011 28.2188 17.195 29.072 22.9077C29.2996 24.4451 29.5271 26.0014 29.7546 27.5387C29.7925 28.0132 30.513 27.8234 30.4562 27.3489Z" fill="#030140"/>
<path d="M71.8845 28.8294C72.6808 28.7724 73.3823 29.3228 73.4961 30.12C75.0129 40.6156 73.9322 51.7754 68.3578 60.7337C62.5181 70.0906 50.0991 76.4297 39.3486 74.0383C38.7798 73.9054 38.192 73.7346 37.8128 73.2981C37.4525 72.8805 37.3577 72.3112 37.2819 71.7797C35.3859 58.7789 34.6843 47.2204 33.1106 33.1567C33.0158 32.3785 33.6036 31.6763 34.3999 31.6193C45.8899 30.8981 66.386 29.2659 71.8845 28.8294Z" fill="#F24B78"/>
<path d="M67.7701 64.6814C67.4099 64.6624 66.6704 64.6435 66.367 64.5865C66.2722 64.3208 66.1774 63.9033 66.1395 63.6376L65.419 63.6755L65.7224 68.5153C66.0826 68.5342 66.6325 68.6102 66.8979 68.6861C66.9927 69.0657 67.0306 69.5212 67.0117 69.9767L62.2337 70.2803C62.2337 69.9007 62.3095 69.2744 62.4043 69.0087C62.6129 68.8948 63.1058 68.724 63.4092 68.6671L63.1058 63.8274L62.3853 63.8653C62.3853 64.112 62.3285 64.5865 62.2905 64.8143C61.7976 65.0041 61.0391 65.118 60.4514 65.1559L60.2997 62.6886L67.8459 62.2141L67.7701 64.6814Z" fill="#F24B78"/>
<path d="M55.0666 45.6261C54.3082 47.0685 54.5926 48.9665 55.0098 50.5418C55.0856 50.8075 55.2183 51.3959 55.4459 51.5477C55.6355 51.6616 56.6783 51.5667 56.8868 51.5667C57.8538 51.5667 58.6312 51.225 59.5982 51.225V51.4528C59.5792 50.2381 59.5792 49.0234 59.5602 47.8087C59.5602 46.8977 59.3706 45.683 59.181 44.772C59.0862 44.3355 58.1761 43.7851 57.2471 44.0128C56.1853 44.2596 55.6734 44.5253 55.0666 45.6261Z" fill="#F24B78"/>
<path d="M59.5223 44.9618C59.3516 44.3355 58.4226 44.0508 57.8727 43.9369C57.0954 43.7851 56.2801 43.9559 55.5975 44.3355C53.929 45.2655 53.7204 47.5051 53.948 49.1943C54.0238 49.7447 54.1376 50.2951 54.2893 50.8455C54.3841 51.2061 54.4789 51.6995 54.7822 51.9463C55.0666 52.174 55.4648 51.7755 55.1804 51.5477C54.9149 51.3389 54.8581 50.8075 54.7822 50.4849C54.6495 49.9345 54.5357 49.384 54.4789 48.8147C54.3651 47.7328 54.4409 46.6131 55.0287 45.6831C55.4837 44.9808 56.0905 44.6392 56.9058 44.4684C57.3419 44.3735 57.7969 44.4684 58.1951 44.6012C58.4036 44.6771 58.8966 44.848 58.9724 45.0947C59.0862 45.4553 59.6171 45.3035 59.5223 44.9618Z" fill="#030140"/>
<path d="M61.1528 70.0526V69.692C61.1528 69.3124 61.2287 68.6292 61.3424 68.3065L61.3804 68.1737L61.5131 68.1167C61.6837 68.0218 62.025 67.908 62.3094 67.8131L62.044 63.5996H61.9871C61.9681 63.8464 61.9302 64.1121 61.9113 64.2829L61.8733 64.4727L61.6837 64.5486C61.1149 64.7764 60.2996 64.8902 59.7498 64.9282L59.4085 64.9472L59.2189 61.7966L67.4856 61.2842L67.3908 64.4727L66.9547 64.4537C66.4238 64.4347 65.874 64.4158 65.5706 64.3588L65.381 64.3209L65.3241 64.1311C65.2673 63.9413 65.1914 63.6756 65.1345 63.4288H65.0776L65.3431 67.6233C65.6844 67.6612 66.0636 67.7182 66.2722 67.7751L66.4618 67.832L66.5186 68.0218C66.6324 68.4394 66.6703 68.9328 66.6514 69.4263L66.6324 69.73L61.1528 70.0526ZM61.9492 68.6671C61.9113 68.838 61.8733 69.0847 61.8544 69.3314L65.9119 69.0847C65.9119 68.8569 65.8929 68.6102 65.855 68.4204C65.5896 68.3635 65.2104 68.3255 64.9639 68.3065L64.6605 68.2875L64.3192 62.7835L65.7033 62.6886L65.7413 63.0113C65.7602 63.2011 65.8171 63.4858 65.8929 63.6945C66.1205 63.7135 66.4428 63.7325 66.7082 63.7515L66.7651 62.0054L59.9394 62.4419L60.0531 64.207C60.4892 64.15 60.9253 64.0741 61.2476 63.9792C61.2666 63.7515 61.3045 63.4668 61.3045 63.296V62.9733L62.6886 62.8784L63.0299 68.3824L62.7266 68.4394C62.499 68.4584 62.1577 68.5722 61.9492 68.6671Z" fill="#030140"/>
<path d="M89.3659 52.0792C89.4418 53.2749 88.5317 54.2998 87.3561 54.3757C86.1616 54.4516 85.1377 53.5406 85.0619 52.3639C84.9861 51.1681 85.8962 50.1432 87.0717 50.0673C88.2662 49.9914 89.2901 50.8834 89.3659 52.0792Z" fill="#F24B78"/>
<path d="M73.8942 61.7776C80.9095 55.7991 79.1652 49.8205 87.6784 57.9058C87.6784 57.9058 87.9248 57.6021 88.2093 57.2225C88.816 56.4444 89.9726 56.3495 90.6931 57.0327L94.3714 60.487L73.8942 61.7776Z" fill="#F24B78"/>
<path d="M72.3774 45.721C72.2257 45.9298 72.2447 46.2335 72.3964 46.4422C72.5481 46.67 72.8325 46.7649 73.0979 46.7459C73.2307 46.7269 73.3823 46.689 73.4961 46.5941C73.6099 46.4992 73.6478 46.3473 73.6478 46.1955C73.6288 45.9298 73.4961 45.6641 73.2686 45.5123C73.0221 45.3604 72.6808 45.3794 72.4722 45.5882C72.3774 45.702 72.5291 45.8539 72.6429 45.74C72.7566 45.6261 72.9462 45.6072 73.0979 45.6641C73.2686 45.74 73.3823 45.9298 73.4203 46.1196C73.4392 46.1955 73.4582 46.3284 73.4013 46.3853C73.3444 46.4612 73.2307 46.4802 73.1548 46.4992C72.9652 46.5371 72.7756 46.4802 72.6429 46.3473C72.5101 46.1955 72.4912 45.9867 72.605 45.8349C72.6429 45.778 72.605 45.702 72.567 45.6831C72.4722 45.6451 72.3964 45.6641 72.3774 45.721Z" fill="#030140"/>
<path d="M71.126 45.7969C71.2019 45.7399 71.2967 45.7589 71.3915 45.7969C71.4863 45.8538 71.5242 45.9487 71.5432 46.0626C71.5621 46.2714 71.4673 46.4801 71.3156 46.594C71.1639 46.7269 70.9364 46.7459 70.7658 46.651C70.5951 46.575 70.4624 46.4042 70.4624 46.1955C70.4624 45.9867 70.633 45.7779 70.8416 45.7399C70.9933 45.702 70.9175 45.4932 70.7847 45.5122C70.5193 45.5691 70.3107 45.8159 70.2538 46.1006C70.1969 46.4042 70.3486 46.6699 70.6141 46.8218C70.8606 46.9736 71.1829 46.9736 71.4294 46.7838C71.6759 46.613 71.8276 46.3283 71.7897 46.0246C71.7707 45.8538 71.6949 45.683 71.5242 45.5881C71.3725 45.4932 71.1829 45.4932 71.0312 45.5881C70.8795 45.664 70.9933 45.8728 71.126 45.7969Z" fill="#030140"/>
<path d="M68.2441 48.1124C75.9989 47.6379 83.7536 46.9926 91.4895 46.1765C93.632 45.9488 95.7745 45.721 97.917 45.4553C98.2014 45.4173 98.2014 44.9618 97.917 44.9998C90.2001 45.9108 82.4454 46.651 74.6906 47.2204C72.5481 47.3722 70.3866 47.5241 68.2441 47.6569C67.9407 47.6759 67.9407 48.1314 68.2441 48.1124Z" fill="#030140"/>
<path d="M100.761 63.5617C100.306 57.8868 99.8699 52.212 99.4148 46.5371C99.2821 44.8669 99.1494 43.1967 99.0167 41.5455C98.9977 41.3557 98.865 41.147 98.6564 41.1849C90.9396 41.9441 83.2037 42.4945 75.449 42.969C73.2685 43.1018 71.0881 43.2347 68.9076 43.3486C68.718 43.3676 68.5284 43.5004 68.5474 43.7092C68.7939 49.9155 69.0593 56.1217 69.3058 62.328C69.3817 64.0741 69.4385 65.8012 69.5144 67.5473C69.5144 67.7371 69.685 67.9269 69.8746 67.908C74.0649 67.7182 78.2361 67.5094 82.4264 67.2057C86.2564 66.94 90.0863 66.6173 93.9163 66.1808C96.0968 65.9341 98.2772 65.6684 100.458 65.3647C100.932 65.3078 100.723 64.5866 100.268 64.6625C96.476 65.1939 92.665 65.6304 88.8539 65.972C84.9481 66.3327 81.0423 66.5984 77.1175 66.8071C74.7095 66.94 72.3015 67.0539 69.8936 67.1678L70.2538 67.5284C70.0073 61.3221 69.7419 55.1158 69.4954 48.9095C69.4196 47.1634 69.3627 45.4363 69.2869 43.6902L68.9266 44.0508C76.6624 43.6143 84.4172 43.1398 92.1341 42.4945C94.3145 42.3047 96.476 42.1149 98.6564 41.8872C98.5427 41.7733 98.4099 41.6404 98.2962 41.5265C98.7512 47.2014 99.1873 52.8762 99.6424 58.5511C99.7751 60.2213 99.9078 61.8915 100.041 63.5427C100.059 64.0361 100.799 64.0361 100.761 63.5617Z" fill="#030140"/>
<path d="M75.1077 46.3094C74.9371 46.3473 74.7664 46.2904 74.6527 46.1765C74.5389 46.0626 74.501 45.8728 74.5768 45.721C74.6337 45.5692 74.7854 45.4743 74.9371 45.4743C75.0888 45.4743 75.2405 45.5882 75.3163 45.721C75.4301 45.9108 75.4111 46.1575 75.3542 46.3663C75.3163 46.4992 75.5438 46.5751 75.5818 46.4232C75.6576 46.1575 75.6576 45.8728 75.5438 45.6451C75.4301 45.4363 75.2215 45.2845 74.994 45.2465C74.7664 45.2275 74.5199 45.3604 74.4062 45.5502C74.2924 45.759 74.3114 46.0437 74.4441 46.2524C74.6147 46.4802 74.8992 46.5751 75.1836 46.5181C75.2405 46.4992 75.2784 46.4422 75.2594 46.3853C75.2215 46.3283 75.1646 46.2904 75.1077 46.3094Z" fill="#030140"/>
<path d="M71.221 45.5882C71.0314 45.9298 70.8608 46.2525 70.6712 46.5941C70.6332 46.689 70.766 46.7649 70.8039 46.67C70.9935 46.3284 71.1641 46.0057 71.3537 45.6641C71.4106 45.5882 71.2779 45.5123 71.221 45.5882Z" fill="#030140"/>
<path d="M70.3487 45.911C70.69 46.1957 71.0502 46.4424 71.4484 46.6322C71.5432 46.6701 71.619 46.5373 71.5242 46.4993C71.145 46.3095 70.7847 46.0628 70.4624 45.7971C70.3866 45.7402 70.2728 45.854 70.3487 45.911Z" fill="#030140"/>
<path d="M44.6006 41.8303C44.4489 42.039 44.4678 42.3427 44.6195 42.5515C44.7712 42.7792 45.0556 42.8741 45.3211 42.8551C45.4538 42.8362 45.6055 42.7982 45.7192 42.7033C45.833 42.6084 45.8709 42.4566 45.8709 42.3047C45.852 42.039 45.7192 41.7733 45.4917 41.6215C45.2452 41.4697 44.9039 41.4886 44.6954 41.6974C44.6006 41.8113 44.7522 41.9631 44.866 41.8492C44.9798 41.7354 45.1694 41.7164 45.3211 41.7733C45.4917 41.8492 45.6055 42.039 45.6434 42.2288C45.6623 42.3047 45.6813 42.4376 45.6244 42.4945C45.5675 42.5704 45.4538 42.5894 45.3779 42.6084C45.1883 42.6464 44.9987 42.5894 44.866 42.4566C44.7333 42.3047 44.7143 42.096 44.8281 41.9441C44.866 41.8872 44.8281 41.8113 44.7902 41.7923C44.6954 41.7543 44.6385 41.7733 44.6006 41.8303Z" fill="#030140"/>
<path d="M43.3492 41.8872C43.425 41.8302 43.5198 41.8492 43.6146 41.8872C43.7094 41.9441 43.7473 42.039 43.7663 42.1529C43.7852 42.3617 43.6904 42.5704 43.5388 42.6843C43.3871 42.8172 43.1596 42.8362 42.9889 42.7413C42.8183 42.6653 42.6856 42.4945 42.6856 42.2857C42.6856 42.077 42.8562 41.8682 43.0648 41.8302C43.2164 41.7923 43.1406 41.5835 43.0079 41.6025C42.7424 41.6594 42.5339 41.9062 42.477 42.1909C42.4201 42.4945 42.5718 42.7602 42.8372 42.9121C43.0837 43.0639 43.406 43.0639 43.6525 42.8741C43.899 42.7033 44.0507 42.4186 44.0128 42.1149C43.9938 41.9441 43.918 41.7733 43.7473 41.6784C43.5956 41.5835 43.406 41.5835 43.2544 41.6784C43.1216 41.7733 43.2354 41.9631 43.3492 41.8872Z" fill="#030140"/>
<path d="M41.1498 44.1457C45.7571 43.8611 50.3455 43.5384 54.9529 43.1209C56.2611 43.007 57.5694 42.8931 58.8966 42.7602C59.181 42.7413 59.181 42.2668 58.8966 42.3047C54.3082 42.7413 49.7009 43.1209 45.1125 43.4245C43.8042 43.5194 42.477 43.5953 41.1687 43.6713C40.8654 43.7092 40.8654 44.1647 41.1498 44.1457Z" fill="#030140"/>
<path d="M57.8917 38.4329C55.2183 38.6417 52.5449 38.8125 49.8715 38.9644C48.5064 39.0403 47.1223 39.1162 45.7571 39.1921C44.4109 39.268 43.0648 39.287 41.7186 39.4009C41.1687 39.4578 40.8085 39.8754 40.8274 40.4258C40.8274 40.5966 40.8464 40.7674 40.8464 40.9382C40.8843 41.6974 40.9033 42.4755 40.9412 43.2347C41.036 45.7969 41.1498 48.3592 41.2446 50.9214C41.3583 53.6544 41.4721 56.4064 41.5858 59.1395C41.6427 60.6009 41.6617 62.0813 41.7565 63.5427C41.7565 63.5617 41.7565 63.5807 41.7565 63.5996C41.7565 63.8084 41.9271 63.9602 42.1167 63.9602C44.2593 63.9602 46.4018 63.9413 48.5443 63.8654C49.0183 63.8464 49.0183 63.1062 48.5443 63.1252C46.4018 63.1821 44.2593 63.2201 42.1167 63.2201L42.477 63.5807C42.4201 62.4039 42.3822 61.2272 42.3253 60.0505L42.003 52.231C41.8892 49.5928 41.7944 46.9357 41.6807 44.2976C41.6427 43.3866 41.6048 42.4755 41.5669 41.5645C41.5479 41.166 41.491 40.7294 41.51 40.3309C41.529 40.0652 41.7375 40.0841 41.9461 40.0841C42.5907 40.0462 43.2544 40.0082 43.899 39.9703C45.2452 39.8943 46.5914 39.8374 47.9376 39.7615C50.611 39.6097 53.2844 39.4578 55.9578 39.268C56.5835 39.2301 57.2092 39.1731 57.8538 39.1162C58.3468 39.1352 58.3468 38.395 57.8917 38.4329Z" fill="#030140"/>
<path d="M47.3309 42.4186C47.1602 42.4566 46.9896 42.3996 46.8758 42.2858C46.7621 42.1719 46.7241 41.9821 46.8 41.8302C46.8569 41.6784 47.0085 41.5835 47.1602 41.5835C47.3119 41.5835 47.4636 41.6974 47.5394 41.8302C47.6532 42.02 47.6342 42.2668 47.5773 42.4755C47.5394 42.6084 47.7669 42.6843 47.8049 42.5325C47.8807 42.2668 47.8807 41.9821 47.7669 41.7543C47.6532 41.5456 47.4446 41.3937 47.2171 41.3558C46.9896 41.3368 46.7431 41.4696 46.6293 41.6594C46.5156 41.8682 46.5345 42.1529 46.6673 42.3617C46.8379 42.5894 47.1223 42.6843 47.4067 42.6274C47.4636 42.6084 47.5015 42.5515 47.4825 42.4945C47.4636 42.4376 47.3877 42.3996 47.3309 42.4186Z" fill="#030140"/>
<path d="M43.4631 41.6974C43.2735 42.039 43.1028 42.3617 42.9132 42.7033C42.8563 42.7982 43.008 42.8741 43.046 42.7792C43.2356 42.4376 43.4062 42.115 43.5959 41.7733C43.6338 41.6974 43.501 41.6215 43.4631 41.6974Z" fill="#030140"/>
<path d="M42.5908 42.0202C42.9321 42.3049 43.2923 42.5516 43.6905 42.7414C43.7853 42.7793 43.8611 42.6465 43.7663 42.6085C43.3871 42.4187 43.0269 42.172 42.7046 41.9063C42.6287 41.8494 42.515 41.9632 42.5908 42.0202Z" fill="#030140"/>
<path d="M50.1939 56.3305C53.3792 56.1407 56.5456 55.913 59.7309 55.6662C60.0153 55.6473 60.0153 55.1918 59.7309 55.2108C56.5456 55.4575 53.3792 55.6852 50.1939 55.875C49.9095 55.894 49.9095 56.3495 50.1939 56.3305Z" fill="#030140"/>
<path d="M79.6582 67.5284C79.772 69.0088 79.8858 70.5082 80.0185 71.9885C80.0564 72.463 80.7958 72.463 80.7579 71.9885C80.6442 70.5082 80.5304 69.0088 80.3977 67.5284C80.3598 67.0539 79.6203 67.0539 79.6582 67.5284Z" fill="#030140"/>
<path d="M58.7639 51.2251C56.3939 51.3959 54.0049 51.4718 51.6349 51.5667C51.0471 51.5857 50.4593 51.6237 49.8905 51.6426C49.3976 51.6616 48.9615 51.8514 48.7719 52.3449C48.696 52.5347 48.696 52.7245 48.715 52.9143L48.8856 57.1656C48.9804 59.6709 49.0942 62.1572 49.189 64.6625C49.2838 67.1108 49.3786 69.5592 49.4924 72.0075C49.5492 73.2791 49.5682 74.5507 49.644 75.8223C49.644 75.8413 49.644 75.8603 49.644 75.8793C49.644 76.0881 49.8147 76.2399 50.0043 76.2399C57.9676 76.2399 65.9309 75.8223 73.8563 74.9683C76.0937 74.7215 78.331 74.4558 80.5493 74.1332C81.0233 74.0762 80.8148 73.355 80.3597 73.4309C72.4912 74.5318 64.5848 75.177 56.6594 75.4048C54.441 75.4617 52.2226 75.4997 50.0043 75.4997C50.118 75.6136 50.2508 75.7464 50.3645 75.8603C50.3266 74.8544 50.2887 73.8485 50.2508 72.8236C50.156 70.5081 50.0612 68.2116 49.9664 65.8961C49.8716 63.3719 49.7578 60.8287 49.663 58.3044C49.5872 56.6342 49.5303 54.964 49.4544 53.2749C49.4544 53.123 49.4355 52.9522 49.4355 52.8004C49.4355 52.7814 49.4355 52.7435 49.4355 52.7055C49.4544 52.3259 49.7578 52.3259 50.0612 52.3259C52.4312 52.212 54.8012 52.1361 57.1713 52.0033C57.7211 51.9653 58.252 51.9463 58.7829 51.9084C59.238 51.9273 59.238 51.1871 58.7639 51.2251Z" fill="#030140"/>
<path d="M52.526 53.6545C52.3743 53.8632 52.3933 54.1669 52.545 54.3757C52.6967 54.6034 52.9811 54.6983 53.2465 54.6793C53.3793 54.6604 53.5309 54.6224 53.6447 54.5275C53.7585 54.4326 53.7964 54.2808 53.7964 54.1289C53.7774 53.8632 53.6447 53.5975 53.4172 53.4457C53.1707 53.2939 52.8294 53.3128 52.6208 53.5216C52.526 53.6355 52.6777 53.7873 52.7915 53.6734C52.9052 53.5596 53.0948 53.5406 53.2465 53.5975C53.4172 53.6734 53.5309 53.8632 53.5689 54.053C53.5878 54.1289 53.6068 54.2618 53.5499 54.3187C53.493 54.3947 53.3792 54.4136 53.3034 54.4326C53.1138 54.4706 52.9242 54.4136 52.7915 54.2808C52.6587 54.1289 52.6398 53.9202 52.7535 53.7683C52.7915 53.7114 52.7535 53.6355 52.7156 53.6165C52.6208 53.5785 52.5639 53.5975 52.526 53.6545Z" fill="#030140"/>
<path d="M51.2746 53.7114C51.3504 53.6544 51.4452 53.6734 51.54 53.7114C51.6348 53.7683 51.6727 53.8632 51.6917 53.9771C51.7107 54.1859 51.6159 54.3946 51.4642 54.5085C51.3125 54.6414 51.085 54.6603 50.9143 54.5654C50.7437 54.4895 50.611 54.3187 50.611 54.1099C50.611 53.9012 50.7816 53.6924 50.9902 53.6544C51.1419 53.6165 51.066 53.4077 50.9333 53.4267C50.6678 53.4836 50.4593 53.7304 50.4024 54.015C50.3455 54.3187 50.4972 54.5844 50.7626 54.7363C51.0091 54.8881 51.3315 54.8881 51.578 54.6983C51.8244 54.5275 51.9761 54.2428 51.9382 53.9391C51.9192 53.7683 51.8434 53.5975 51.6728 53.5026C51.5211 53.4077 51.3315 53.4077 51.1798 53.5026C51.0281 53.5975 51.1419 53.7873 51.2746 53.7114Z" fill="#030140"/>
<path d="M55.2563 54.2428C55.0857 54.2808 54.915 54.2239 54.8013 54.11C54.6875 53.9961 54.6496 53.8063 54.7254 53.6545C54.7823 53.5026 54.934 53.4077 55.0857 53.4077C55.2373 53.4077 55.389 53.5216 55.4649 53.6545C55.5786 53.8443 55.5596 54.091 55.5028 54.2998C55.4648 54.4326 55.6924 54.5086 55.7303 54.3567C55.8061 54.091 55.8061 53.8063 55.6924 53.5785C55.5786 53.3698 55.37 53.2179 55.1425 53.18C54.915 53.161 54.6685 53.2938 54.5548 53.4836C54.441 53.6924 54.46 53.9771 54.5927 54.1859C54.7633 54.4137 55.0477 54.5086 55.3321 54.4516C55.389 54.4326 55.4269 54.3757 55.408 54.3188C55.389 54.2618 55.3132 54.2239 55.2563 54.2428Z" fill="#030140"/>
<path d="M51.3696 53.5216C51.18 53.8632 51.0094 54.1858 50.8197 54.5275C50.7818 54.6224 50.9145 54.6983 50.9525 54.6034C51.1421 54.2618 51.3127 53.9391 51.5023 53.5975C51.5592 53.5216 51.4265 53.4456 51.3696 53.5216Z" fill="#030140"/>
<path d="M50.5163 53.8444C50.8575 54.129 51.2178 54.3758 51.6159 54.5655C51.7107 54.6035 51.7865 54.4707 51.6917 54.4327C51.3125 54.2429 50.9523 53.9962 50.63 53.7305C50.5352 53.6735 50.4404 53.7874 50.5163 53.8444Z" fill="#030140"/>
<path d="M62.3095 35.6429C62.1578 35.8517 62.1768 36.1554 62.3284 36.3642C62.4801 36.5919 62.7645 36.6868 63.03 36.6678C63.1627 36.6488 63.3144 36.6109 63.4282 36.516C63.5419 36.4211 63.5798 36.2693 63.5798 36.1174C63.5609 35.8517 63.4282 35.586 63.2006 35.4342C62.9541 35.2823 62.6129 35.3013 62.4043 35.5101C62.3095 35.6239 62.4612 35.7758 62.5749 35.6619C62.6887 35.548 62.8783 35.529 63.03 35.586C63.2006 35.6619 63.3144 35.8517 63.3523 36.0415C63.3713 36.1174 63.3902 36.2503 63.3334 36.3072C63.2765 36.3831 63.1627 36.4021 63.0869 36.4211C62.8973 36.4591 62.7077 36.4021 62.5749 36.2693C62.4422 36.1174 62.4232 35.9086 62.537 35.7568C62.5749 35.6999 62.537 35.6239 62.4991 35.605C62.4043 35.567 62.3474 35.586 62.3095 35.6429Z" fill="#030140"/>
<path d="M61.0581 35.6999C61.134 35.643 61.2288 35.6619 61.3236 35.6999C61.4184 35.7568 61.4563 35.8517 61.4753 35.9656C61.4942 36.1744 61.3994 36.3832 61.2478 36.497C61.0961 36.6299 60.8685 36.6489 60.6979 36.554C60.5272 36.4781 60.3945 36.3072 60.3945 36.0985C60.3945 35.8897 60.5652 35.6809 60.7737 35.643C60.9254 35.605 60.8496 35.3962 60.7168 35.4152C60.4514 35.4722 60.2428 35.7189 60.1859 36.0036C60.1291 36.3072 60.2807 36.573 60.5462 36.7248C60.7927 36.8766 61.115 36.8766 61.3615 36.6868C61.608 36.516 61.7597 36.2313 61.7218 35.9277C61.7028 35.7568 61.627 35.586 61.4563 35.4911C61.3046 35.3962 61.115 35.3962 60.9633 35.4911C60.8306 35.586 60.9444 35.7758 61.0581 35.6999Z" fill="#030140"/>
<path d="M59.2569 37.9205C66.6894 37.465 74.1029 36.8576 81.5163 36.0795C83.6209 35.8517 85.7255 35.624 87.8301 35.3772C88.1145 35.3393 88.1145 34.8837 87.8301 34.9217C80.4356 35.7948 73.0221 36.516 65.6086 37.0474C63.4851 37.1993 61.3805 37.3321 59.2569 37.465C58.9725 37.484 58.9725 37.9395 59.2569 37.9205Z" fill="#030140"/>
<path d="M89.6123 41.2798C89.3469 38.0154 89.2331 34.7319 88.9677 31.4485C88.9487 31.2587 88.816 31.0499 88.6074 31.0879C80.7389 31.866 72.8325 32.4354 64.945 32.9099C63.8264 32.9858 62.7267 33.0428 61.608 33.0997C60.6979 33.1566 59.7689 33.2515 58.8588 33.2326C58.6692 33.2326 58.4796 33.4034 58.4985 33.5932C58.745 39.6286 59.0294 45.6451 59.2949 51.6806C59.3707 53.3887 59.4465 55.0969 59.5224 56.824C59.5224 57.0138 59.693 57.2036 59.8826 57.1846C62.6698 56.9379 65.457 56.7481 68.2631 56.5773C68.7371 56.5393 68.7371 55.8181 68.2631 55.8371C65.4759 56.0079 62.6698 56.1977 59.8826 56.4444C59.9964 56.5583 60.1291 56.6911 60.2429 56.805C59.9964 50.7696 59.712 44.7531 59.4465 38.7176C59.3707 37.0095 59.2949 35.3013 59.219 33.5742L58.8588 33.9348C59.6551 33.9538 60.4514 33.8589 61.2288 33.8209C62.2147 33.764 63.2007 33.707 64.1866 33.6501C66.1585 33.5362 68.1304 33.4034 70.1022 33.2705C74.046 33.0048 77.9897 32.7201 81.9334 32.3785C84.1518 32.1887 86.3701 31.9799 88.5885 31.7711L88.2282 31.4485C88.4747 34.713 88.6075 37.9964 88.8729 41.2798C88.9108 41.7543 89.6503 41.7543 89.6123 41.2798Z" fill="#030140"/>
<path d="M65.0398 36.2123C64.8691 36.2503 64.6985 36.1934 64.5847 36.0795C64.471 35.9656 64.433 35.7758 64.5089 35.624C64.5658 35.4721 64.7175 35.3772 64.8691 35.3772C65.0208 35.3772 65.1725 35.4911 65.2483 35.624C65.3621 35.8138 65.3432 36.0605 65.2863 36.2693C65.2484 36.4021 65.4759 36.478 65.5138 36.3262C65.5896 36.0605 65.5896 35.7758 65.4759 35.5481C65.3621 35.3393 65.1535 35.1875 64.926 35.1495C64.6985 35.1305 64.452 35.2634 64.3382 35.4532C64.2245 35.6619 64.2434 35.9466 64.3762 36.1554C64.5468 36.3831 64.8312 36.478 65.1156 36.4211C65.1725 36.4021 65.2104 36.3452 65.1915 36.2883C65.1725 36.2313 65.0967 36.2123 65.0398 36.2123Z" fill="#030140"/>
<path d="M61.1721 35.5101C60.9825 35.8517 60.8118 36.1744 60.6222 36.516C60.5843 36.6109 60.717 36.6868 60.7549 36.5919C60.9445 36.2503 61.1152 35.9276 61.3048 35.586C61.3427 35.4911 61.21 35.4152 61.1721 35.5101Z" fill="#030140"/>
<path d="M60.2997 35.8329C60.641 36.1176 61.0013 36.3643 61.3995 36.5541C61.4943 36.5921 61.5701 36.4592 61.4753 36.4213C61.0961 36.2315 60.7358 35.9847 60.4135 35.719C60.3376 35.6621 60.2239 35.757 60.2997 35.8329Z" fill="#030140"/>
</svg>
