<svg width="135" height="116" viewBox="0 0 135 116" fill="none" xmlns="http://www.w3.org/2000/svg">
<path d="M124.711 95.4683H122.216H115.438H105.25H92.4837H78.1792H63.1677H48.3226H34.6418H22.957H14.1414H9.31775C9.06825 95.4683 8.81875 95.4683 8.56925 95.4683C5.57528 95.4267 2.99713 93.344 2.41497 90.3866C2.12389 88.9704 2.29022 87.3876 2.29022 85.9714V76.8493V63.8119V48.9833V34.363V21.9087V13.7863C2.29022 13.1615 2.29022 12.5784 2.29022 11.9536C2.29022 10.2042 2.78922 8.49638 3.87038 7.08017C5.32578 5.20577 7.57126 4.16444 9.89991 4.16444C10.2326 4.16444 10.5652 4.16444 10.8979 4.16444C12.686 4.16444 14.4325 4.12279 16.2205 4.12279C19.2561 4.08114 22.2501 4.03949 25.2856 4.03949L37.1368 3.91453C41.7109 3.87287 46.3266 3.83122 50.9007 3.74791C55.8491 3.70626 60.8391 3.62295 65.7875 3.5813C70.7774 3.53965 75.7674 3.45634 80.7573 3.41469C85.4978 3.37303 90.2383 3.28973 95.0203 3.24807C99.2618 3.20642 103.462 3.16477 107.703 3.12311C111.071 3.08146 114.44 3.03981 117.808 2.99816C120.053 2.9565 122.257 2.9565 124.503 2.91485C125.376 2.91485 126.249 2.87319 127.122 2.87319C130.407 2.91485 133.152 5.70562 133.194 8.99622C133.194 9.32945 133.194 9.70432 133.194 10.0376C133.152 12.2035 133.11 14.3695 133.069 16.5354C132.986 20.3259 132.944 24.0747 132.861 27.8651C132.778 32.5719 132.695 37.2788 132.611 41.9856C132.528 47.0256 132.403 52.024 132.32 57.064C132.237 61.7292 132.154 66.3527 132.071 71.0179C131.988 74.6833 131.946 78.3488 131.863 82.0143C131.821 84.0553 131.78 86.0963 131.738 88.0957C131.738 88.7621 131.697 89.4286 131.572 90.095C130.74 93.2607 127.912 95.4683 124.711 95.4683C123.505 95.4683 123.505 97.3427 124.711 97.3427C128.287 97.301 131.489 95.1351 132.819 91.8445C133.277 90.6782 133.443 89.4702 133.485 88.2623L133.609 82.4308C133.693 78.807 133.734 75.1832 133.817 71.5177C133.9 66.8109 133.984 62.1457 134.067 57.4389C134.15 52.3572 134.275 47.3172 134.358 42.2355C134.441 37.487 134.524 32.7386 134.649 27.9901C134.732 24.158 134.774 20.3675 134.857 16.5354C134.898 14.3278 134.94 12.1619 134.982 9.95425C134.982 9.45441 135.023 8.95457 134.982 8.49638C134.732 4.99751 132.196 1.91517 128.744 1.16541C127.455 0.87384 126.124 0.957146 124.794 0.998799C122.631 1.04045 120.428 1.04045 118.265 1.08211C114.897 1.12376 111.57 1.16541 108.202 1.20707C104.002 1.24872 99.7608 1.29037 95.5609 1.33203C90.7788 1.37368 85.9552 1.45699 81.1732 1.49864C76.1 1.54029 71.0685 1.6236 65.9954 1.66525C61.0054 1.7069 55.9739 1.79021 50.9839 1.83186C46.3266 1.87352 41.7109 1.91517 37.0952 1.99848C33.1032 2.04013 29.1113 2.08179 25.1193 2.12344C22.0837 2.16509 19.0482 2.20674 16.0126 2.20674C14.2661 2.20674 12.5196 2.2484 10.7732 2.2484C10.4821 2.2484 10.1494 2.2484 9.85833 2.2484C7.11385 2.29005 4.41096 3.45634 2.62289 5.58066C1.16748 7.37175 0.377404 9.53771 0.377404 11.8286C0.377404 12.3701 0.377404 12.9116 0.377404 13.4948V21.4505V33.8215V48.6084V63.6036V76.8077V86.013C0.377404 87.5958 0.252655 89.3036 0.543736 90.8448C1.25065 94.3437 4.28621 96.9262 7.77918 97.2594C8.19501 97.301 8.65242 97.301 9.06825 97.301H13.7671H22.4164H34.0596H47.8652H62.8351H78.0129H92.4422H105.291H115.562H122.299H124.669C125.916 97.3427 125.916 95.4683 124.711 95.4683Z" fill="#030140"/>
<path d="M115.853 84.6801C115.23 84.6801 114.564 84.7217 113.941 84.7217C112.194 84.7634 110.448 84.805 108.701 84.8467L100.717 85.0549C97.3905 85.1382 94.0639 85.2215 90.7372 85.3049C86.9532 85.3882 83.1691 85.4715 79.3851 85.5964C75.3515 85.6797 71.318 85.8047 67.2844 85.888C63.2509 85.9713 59.2589 86.0963 55.2253 86.1796C51.3997 86.2629 47.5741 86.3462 43.7484 86.4711C40.3802 86.5544 37.012 86.6378 33.6022 86.7211C30.8577 86.8044 28.1132 86.846 25.4103 86.9293C23.5807 86.971 21.7094 87.0126 19.8798 87.0543C19.1313 87.0543 18.3828 87.0959 17.6343 87.0959C15.5552 87.1376 13.6423 85.8047 13.1018 83.7637C12.9354 83.1805 12.9354 82.5974 12.9354 81.9726V76.6826V67.3523V55.6894V43.6516V32.9468V25.4492C12.9354 24.1579 12.8107 22.7417 13.1018 21.4505C13.6839 18.9096 15.6799 16.9103 18.2165 16.3688C18.7986 16.2438 19.3392 16.2438 19.9214 16.2438H23.248H29.6518H38.509H49.0711H60.7143H72.8981H84.8324H95.9767H105.541H112.984H117.6C119.055 16.2438 120.386 16.2438 121.717 16.9936C123.671 18.1182 124.794 20.2009 124.711 22.4085C124.711 22.7834 124.669 23.1166 124.669 23.4915C124.586 25.6158 124.503 27.6985 124.419 29.8228C124.295 33.1967 124.128 36.5706 124.004 39.9862C123.837 43.9849 123.671 47.9836 123.505 51.9823C123.338 55.856 123.172 59.7714 123.006 63.6452C122.881 66.7692 122.756 69.8932 122.631 73.0588C122.548 74.7249 122.507 76.3911 122.423 78.0155C122.382 78.9736 122.216 79.9732 121.8 80.848C120.677 83.0972 118.39 84.5967 115.853 84.6801C114.647 84.7217 114.647 86.5961 115.853 86.5545C118.723 86.4711 121.425 84.9716 122.964 82.5141C123.796 81.1812 124.212 79.64 124.253 78.0572C124.336 76.4744 124.378 74.8915 124.461 73.3504L124.835 64.0617C125.002 60.1463 125.168 56.1893 125.334 52.2739C125.501 48.2335 125.667 44.1931 125.833 40.1528C125.958 36.6956 126.124 33.28 126.249 29.8228C126.332 27.6985 126.415 25.5325 126.499 23.4082C126.499 23.0333 126.54 22.7001 126.54 22.3252C126.623 19.7844 125.459 17.3268 123.421 15.8273C122.049 14.786 120.427 14.2861 118.723 14.2861C118.432 14.2861 118.14 14.2861 117.849 14.2861H113.442H106.123H96.5173H85.3314H73.2724H61.047H49.1958H38.4674H29.5686H23.1233H19.8382C16.0957 14.2861 12.7275 16.4938 11.48 20.0759C10.9394 21.6587 11.0226 23.3665 11.0226 25.0327V32.4053V43.1102V55.3145V67.0608V76.5577V81.8893C11.0226 82.5974 11.0226 83.3055 11.2305 84.0136C11.9374 86.8877 14.6403 88.9287 17.5927 88.887C18.2581 88.887 18.8818 88.8454 19.5471 88.8454C21.3352 88.8037 23.1233 88.7621 24.9113 88.7204C27.6142 88.6371 30.3171 88.5955 32.9784 88.5122C36.3882 88.4288 39.7565 88.3455 43.1663 88.2622C47.0335 88.1789 50.8591 88.0956 54.7263 87.9707C58.8015 87.8874 62.8766 87.7624 66.9518 87.6791C71.0269 87.5958 75.102 87.4708 79.1356 87.3875C82.9612 87.3042 86.7868 87.2209 90.5709 87.0959C93.9391 87.0126 97.3074 86.9293 100.676 86.846L108.701 86.6378C110.448 86.5961 112.194 86.5545 113.982 86.5128C114.606 86.5128 115.188 86.4711 115.812 86.4711C117.018 86.5128 117.059 84.6384 115.853 84.6801Z" fill="#030140"/>
<path d="M72.3576 97.1344C74.1872 101.675 75.9753 106.215 77.805 110.755C78.0545 111.38 78.3039 112.046 78.5534 112.671C78.8445 112.296 79.1356 111.88 79.4683 111.505C76.4327 111.755 73.3972 112.005 70.4032 112.255C65.5795 112.671 60.7559 113.046 55.9323 113.462C54.8096 113.546 53.6868 113.629 52.5641 113.754C52.8552 114.171 53.1462 114.545 53.4789 114.92C53.9779 112.921 54.4769 110.922 55.0175 108.922C55.8075 105.757 56.6392 102.549 57.4293 99.3837C57.5956 98.6339 57.8035 97.9258 57.9699 97.1761C58.2609 96.0098 56.4729 95.5099 56.1818 96.6762C55.6828 98.6756 55.1838 100.675 54.6432 102.674C53.8532 105.84 53.0215 109.047 52.2314 112.213C52.0651 112.963 51.8572 113.671 51.6908 114.42C51.5661 114.962 51.9819 115.67 52.6057 115.587C55.6412 115.337 58.6768 115.087 61.6707 114.837C66.4944 114.42 71.318 114.046 76.1416 113.629C77.2644 113.546 78.3871 113.462 79.5098 113.338C80.0504 113.296 80.6742 112.754 80.4247 112.171C78.595 107.631 76.807 103.091 74.9773 98.5506C74.7278 97.9258 74.4783 97.2594 74.2288 96.6346C74.0209 96.1764 73.6051 95.8432 73.0645 95.9681C72.5655 96.0931 72.1912 96.6762 72.3576 97.1344Z" fill="#030140"/>
<path d="M76.1 30.6142C79.0524 38.0701 81.3395 45.7343 82.9612 53.5651C88.6581 50.7327 94.6045 48.3585 100.676 46.5674C99.0954 43.2768 97.5569 39.9445 95.353 36.9871C93.1491 34.0714 90.2798 31.5306 86.8284 30.4059C83.5434 29.3229 79.9673 29.5312 76.5159 29.7811" fill="#F24B78"/>
<path d="M76.1832 33.9882C67.7835 34.9046 60.7143 41.6941 59.1758 49.9831C58.3441 54.44 58.9679 59.0635 60.7559 63.1871C62.544 67.2691 65.5796 70.6847 69.2804 73.1006C72.9398 75.5165 77.2228 76.9743 81.589 77.3076C86.08 77.6408 90.862 76.7244 94.3134 73.6838C97.7232 70.6847 99.8024 66.1029 100.676 61.7293C101.59 57.314 101.341 52.6905 99.844 48.4419C97.0579 40.4028 89.9056 34.2381 81.6306 32.4471C80.6326 32.2388 79.6346 32.0722 78.595 31.9889C77.9713 31.9472 77.9713 32.9052 78.595 32.9469C86.579 33.655 94.0223 38.6534 97.6816 45.7761C101.59 53.3986 100.925 63.1455 96.0599 70.1432C94.7708 72.0176 93.1075 73.6421 91.0699 74.6834C89.1155 75.6831 86.9116 76.1829 84.7077 76.3496C80.5079 76.6411 76.2248 75.6831 72.4823 73.8504C68.7399 72.0176 65.4548 69.2685 63.1677 65.728C60.8391 62.1042 59.5916 57.7722 59.6748 53.4403C59.7579 49.275 61.1718 45.2346 63.7499 41.944C66.1617 38.9033 69.5299 36.5291 73.2724 35.4461C74.1872 35.1962 75.1437 34.9879 76.1001 34.9046C76.807 34.9046 76.807 33.9466 76.1832 33.9882Z" fill="#030140"/>
<path d="M75.9753 35.696C77.2228 40.736 78.4703 45.776 79.6762 50.8161C79.8425 51.4409 79.9672 52.024 80.1336 52.6488C80.2999 53.2736 80.4662 53.9401 80.4246 54.5649C80.3415 55.6479 79.7177 56.6059 79.1356 57.5222C77.7633 59.7299 76.3495 61.9375 74.9773 64.1451C73.4387 66.6027 71.9001 69.0185 70.3616 71.4761C70.0289 71.9759 70.8606 72.4757 71.1932 71.9759C74.0209 67.4774 76.8485 63.0205 79.6346 58.5219C80.2583 57.5639 80.9236 56.5642 81.2563 55.4396C81.589 54.2733 81.2563 53.107 80.9652 51.9407C80.3415 49.3999 79.7177 46.8174 79.094 44.2765C78.3871 41.3191 77.6386 38.3618 76.9317 35.4044C76.7238 34.8629 75.8089 35.1128 75.9753 35.696Z" fill="#030140"/>
<path d="M82.587 55.6477C87.6601 53.2318 92.6917 50.8159 97.7648 48.4C98.3054 48.1501 97.8479 47.3171 97.2658 47.567C92.1927 49.9829 87.1611 52.3988 82.088 54.8147C81.5474 55.0646 82.0464 55.8976 82.587 55.6477Z" fill="#030140"/>
<path d="M92.2342 47.6086C94.0223 43.3183 96.1014 39.1113 98.3885 35.0293C98.638 34.6128 98.8459 34.0296 99.3033 33.7797C99.7607 33.4881 100.343 33.5298 100.842 33.4881C101.923 33.4465 102.963 33.4048 104.044 33.3215C105.624 33.2382 107.204 33.1549 108.784 33.1132C110.905 33.0716 113.026 33.0716 115.146 33.1132C115.77 33.1132 115.77 32.1969 115.146 32.1552C111.446 32.0719 107.786 32.1552 104.127 32.3635C103.046 32.4051 101.923 32.4884 100.842 32.5301C99.8023 32.5718 98.8043 32.6551 98.139 33.5714C97.4737 34.4878 96.9747 35.5708 96.4341 36.5288C95.8519 37.6118 95.2698 38.7364 94.6876 39.8611C93.4401 42.3186 92.3174 44.8178 91.2778 47.3586C91.0699 47.9001 91.9847 48.15 92.2342 47.6086Z" fill="#030140"/>
<path d="M109.866 28.7398L112.568 25.0743C112.735 24.866 112.61 24.5328 112.402 24.4078C112.153 24.2829 111.903 24.3662 111.737 24.5744C110.822 25.7824 109.949 27.032 109.034 28.2399C108.868 28.4482 108.992 28.7814 109.2 28.9064C109.45 29.073 109.699 28.948 109.866 28.7398Z" fill="#030140"/>
<path d="M108.576 25.5325C109.2 25.5325 109.2 24.5745 108.576 24.5745C107.953 24.5745 107.953 25.5325 108.576 25.5325Z" fill="#030140"/>
<path d="M112.651 29.656C113.275 29.656 113.275 28.698 112.651 28.698C112.028 28.698 112.028 29.656 112.651 29.656Z" fill="#030140"/>
<path d="M101.133 25.8657C101.424 25.3658 101.757 24.9076 102.048 24.4078C101.84 24.3661 101.632 24.2828 101.424 24.2412C101.507 25.824 101.466 27.3652 101.299 28.948C101.258 29.3645 101.923 29.3645 101.965 28.948C102.131 27.4068 102.173 25.824 102.089 24.2412C102.089 23.908 101.632 23.783 101.466 24.0746C101.175 24.5744 100.842 25.0326 100.551 25.5324C100.343 25.8657 100.884 26.1989 101.133 25.8657Z" fill="#030140"/>
<path d="M103.961 25.9072C104.044 25.6573 104.21 25.3658 104.377 25.1575C104.46 25.0742 104.584 24.9492 104.668 24.8659C104.792 24.741 104.834 24.8243 104.959 24.9492C105.25 25.3241 105.291 25.8239 105.208 26.2821C105.042 27.4484 104.127 28.3231 103.67 29.4061C103.545 29.656 103.753 29.9893 104.044 29.906C105.333 29.5311 106.622 29.1978 107.911 28.823C108.327 28.698 108.161 28.0732 107.745 28.1982C106.456 28.573 105.167 28.9063 103.878 29.2812L104.252 29.781C104.834 28.4481 106.081 27.2818 105.915 25.699C105.874 25.1575 105.499 24.1995 104.834 24.1995C104.46 24.1995 104.127 24.5327 103.919 24.7826C103.67 25.0742 103.462 25.4074 103.337 25.7823C103.171 26.1572 103.836 26.3238 103.961 25.9072Z" fill="#030140"/>
<path d="M109.99 77.6823C112.61 77.1825 115.271 77.0158 117.933 77.1408C118.515 77.1825 118.515 76.2661 117.933 76.2245C115.188 76.0578 112.444 76.2661 109.741 76.7659C109.2 76.9325 109.408 77.8073 109.99 77.6823Z" fill="#030140"/>
<path d="M109.325 74.0167C111.778 73.8917 114.19 73.8084 116.643 73.6835C117.226 73.6418 117.226 72.7671 116.643 72.7671L109.325 73.1003C108.784 73.142 108.743 74.0583 109.325 74.0167Z" fill="#030140"/>
<path d="M105.957 74.017C106.539 74.017 106.539 73.1006 105.957 73.1006C105.374 73.1006 105.374 74.017 105.957 74.017Z" fill="#030140"/>
<path d="M106.747 78.182C107.329 78.182 107.329 77.2656 106.747 77.2656C106.165 77.2656 106.165 78.182 106.747 78.182Z" fill="#030140"/>
<path d="M106.456 70.8927C107.038 70.8927 107.038 69.9763 106.456 69.9763C105.874 69.9763 105.874 70.8927 106.456 70.8927Z" fill="#030140"/>
<path d="M109.075 70.3514H116.103C116.685 70.3514 116.685 69.4351 116.103 69.4351H109.075C108.493 69.4351 108.493 70.3514 109.075 70.3514Z" fill="#030140"/>
<path d="M23.2481 45.6095C31.6894 45.2346 40.1308 44.8597 48.5721 44.4849C49.4454 44.4432 49.4454 43.0686 48.5721 43.1103C40.1308 43.4852 31.6894 43.8601 23.2481 44.2349C22.3748 44.2349 22.3748 45.6512 23.2481 45.6095Z" fill="#030140"/>
<path d="M34.5586 38.4866C39.2159 38.2784 43.8732 38.0701 48.5721 37.8618C49.4453 37.8202 49.4453 36.4456 48.5721 36.4873L34.5586 37.1121C33.6854 37.1537 33.6854 38.5283 34.5586 38.4866Z" fill="#030140"/>
<path d="M23.2481 52.7738C31.6063 52.4405 40.006 52.0656 48.3642 51.7324C49.2375 51.6908 49.2375 50.3162 48.3642 50.3579C40.006 50.6911 31.6063 51.066 23.2481 51.3992C22.3748 51.3992 22.3748 52.7738 23.2481 52.7738Z" fill="#030140"/>
<path d="M23.2481 59.4382C31.6063 59.2299 40.006 59.0216 48.3642 58.7717C49.2374 58.7301 49.2374 57.3555 48.3642 57.3972C40.006 57.6054 31.6063 57.8137 23.2481 58.0636C22.3748 58.0636 22.3332 59.4382 23.2481 59.4382Z" fill="#030140"/>
<path d="M23.8302 66.5192C32.1884 65.8528 40.5882 65.5196 48.9464 65.5196C49.8196 65.5196 49.8196 64.145 48.9464 64.145C40.5466 64.145 32.1884 64.4782 23.8302 65.1447C22.957 65.228 22.957 66.6025 23.8302 66.5192Z" fill="#030140"/>
<path d="M23.2481 73.0172C32.0221 72.9756 40.7961 72.8923 49.5701 72.8506C50.4434 72.8506 50.4434 71.4761 49.5701 71.4761C40.7961 71.5177 32.0221 71.601 23.2481 71.6427C22.3748 71.6427 22.3332 73.0172 23.2481 73.0172Z" fill="#030140"/>
<path d="M20.8778 39.4031C21.6679 37.7787 22.4163 36.1542 23.2064 34.5297C23.747 33.3634 24.3292 32.1971 24.8697 31.0308C25.0777 30.6143 25.244 30.2394 25.4519 29.8229C25.5351 29.6563 25.743 29.4064 25.743 29.2397C25.743 29.1564 25.6598 29.2814 25.6598 29.2814C25.743 29.2814 25.7846 29.2814 25.8677 29.2397C26.1588 29.1981 26.4915 29.1564 26.7826 29.1148C27.3231 29.0315 27.8637 28.9898 28.4043 28.9065C28.3627 28.8649 28.3211 28.8232 28.238 28.7816C29.4023 31.6556 30.6082 34.5297 31.7725 37.4038C31.9389 37.8203 32.1052 38.2368 32.2715 38.6117C32.3131 38.5284 32.3547 38.4868 32.4379 38.4035C31.3983 38.5284 30.4003 38.6534 29.3607 38.7783L29.527 38.9033C29.2775 38.3202 29.0696 37.737 28.8201 37.1539C28.7785 37.1122 28.737 37.0289 28.6538 37.0289C27.3231 37.1955 25.9925 37.3621 24.6618 37.5287C24.5787 37.5287 24.5371 37.5704 24.4955 37.6537C24.246 38.3202 23.9549 38.945 23.7054 39.6114C23.747 39.5697 23.7886 39.5281 23.8718 39.4864C22.8322 39.3615 21.8342 39.2365 20.7946 39.1116C20.5867 39.0699 20.5867 39.4031 20.7946 39.4031C21.8342 39.5281 22.8322 39.6531 23.8718 39.778C23.9549 39.778 23.9965 39.7364 24.0381 39.6531C24.2876 38.9866 24.5787 38.3618 24.8282 37.6954C24.7866 37.737 24.745 37.7787 24.6618 37.8203L28.6538 37.3205L28.4875 37.1955C28.737 37.7787 28.9449 38.3618 29.1944 38.9449C29.236 38.9866 29.2775 39.0699 29.3607 39.0699C30.4003 38.9449 31.3983 38.82 32.4379 38.695C32.521 38.695 32.6458 38.6117 32.6042 38.4868C31.4399 35.6127 30.234 32.7386 29.0696 29.8645C28.9033 29.448 28.737 29.0315 28.5706 28.6149C28.5291 28.5733 28.4875 28.49 28.4043 28.49C27.9469 28.5316 27.4895 28.6149 27.0321 28.6566C26.6162 28.6983 26.0341 28.6566 25.6598 28.8232C25.4935 28.9065 25.4935 29.0315 25.4103 29.1564C25.244 29.4897 25.0777 29.8229 24.9529 30.1561C23.8718 32.4887 22.749 34.7796 21.6679 37.1122C21.3352 37.7787 21.0441 38.4451 20.7114 39.1116C20.5451 39.4448 20.7946 39.5697 20.8778 39.4031Z" fill="#030140"/>
<path d="M28.0301 35.1126C27.739 34.2795 27.4063 33.4881 27.1153 32.655C27.0737 32.5301 27.0321 32.4051 26.9905 32.3218C26.9489 32.1552 26.741 32.1968 26.6994 32.3218C26.3252 33.2382 25.9509 34.1129 25.5767 35.0293C25.5351 35.1542 25.4519 35.2792 25.4104 35.4041C25.3688 35.4875 25.4519 35.6124 25.5767 35.6124L27.9053 35.3208C28.1132 35.2792 28.1132 34.9876 27.9053 35.0293C27.1153 35.1126 26.3668 35.2375 25.5767 35.3208C25.6183 35.4041 25.6599 35.4458 25.743 35.5291C26.1173 34.6127 26.4915 33.738 26.8658 32.8216C26.9073 32.6967 26.9905 32.5717 27.0321 32.4468H26.741C27.0321 33.2798 27.3648 34.0712 27.6558 34.9043C27.6974 35.0293 27.739 35.1542 27.7806 35.2375C27.8222 35.3625 28.1132 35.2792 28.0301 35.1126Z" fill="#030140"/>
</svg>
