<svg width="73" height="56" viewBox="0 0 73 56" fill="none" xmlns="http://www.w3.org/2000/svg">
<path d="M0.592285 35.2209C0.592285 32.975 1.83155 29.3157 4.31009 24.2431L16.5825 0.213379H27.9043L18.8336 23.7246C21.0275 24.6588 22.8826 26.2426 24.1492 28.2629C25.4494 30.3083 26.0996 32.6276 26.0996 35.2209C26.0996 38.8513 24.8892 41.8909 22.4684 44.3397C20.0476 46.7886 17.0224 48.0134 13.3928 48.0142C9.76327 48.0142 6.72365 46.7894 4.27399 44.3397C1.82433 41.8901 0.597098 38.8505 0.592285 35.2209ZM34.304 35.2209C34.304 32.6276 35.5429 28.9684 38.0206 24.2431L50.2111 0.213379H61.3621L52.2854 23.7246C54.4791 24.7166 56.3507 26.3039 57.6876 28.3063C59.0416 30.3236 59.719 32.6284 59.7198 35.2209C59.7198 38.8513 58.495 41.8909 56.0453 44.3397C53.5957 46.7886 50.5849 48.0134 47.0131 48.0142C43.3819 48.0142 40.3563 46.7894 37.9364 44.3397C35.5164 41.8901 34.3064 38.8505 34.3064 35.2209" fill="#F24B78"/>
<path d="M7.73071 39.9953C7.73071 37.7494 8.96958 34.0902 11.4473 29.0176L23.7197 4.98779H35.0428L25.9696 28.499C28.1631 29.4333 30.0181 31.0166 31.2852 33.0362C32.5823 35.0824 33.2308 37.4021 33.2308 39.9953C33.2308 43.6257 32.0204 46.6653 29.5996 49.1142C27.1788 51.563 24.1536 52.7879 20.5241 52.7887C16.8945 52.7887 13.8549 51.5638 11.4052 49.1142C8.95554 46.6645 7.73071 43.6249 7.73071 39.9953ZM41.4424 39.9953C41.4424 37.4013 42.6813 33.742 45.159 29.0176L57.3472 4.98779H68.4982L59.4275 28.499C61.6211 29.4907 63.4926 31.0776 64.8297 33.0795C66.1837 35.0976 66.8607 37.4029 66.8607 39.9953C66.8607 43.6257 65.6362 46.6653 63.1874 49.1142C60.7385 51.563 57.7278 52.7879 54.1552 52.7887C50.524 52.7887 47.4984 51.5638 45.0784 49.1142C42.6584 46.6645 41.4464 43.6249 41.4424 39.9953Z" stroke="#030140" stroke-width="5" stroke-miterlimit="10"/>
</svg>
