<svg width="65" height="51" viewBox="0 0 65 51" fill="none" xmlns="http://www.w3.org/2000/svg">
<path d="M64.8043 18.6794C64.8043 20.6935 63.693 23.975 61.4703 28.524L50.4648 50.0732L40.3116 50.0732L48.446 28.989C46.4786 28.1512 44.815 26.7309 43.6791 24.9191C42.5131 23.0849 41.9301 21.005 41.9301 18.6794C41.9301 15.4238 43.0155 12.6979 45.1864 10.5019C47.3573 8.30579 50.0702 7.2074 53.3251 7.20668C56.58 7.20668 59.3059 8.30508 61.5027 10.5019C63.6995 12.6987 64.8 15.4245 64.8043 18.6794ZM34.5725 18.6794C34.5725 21.005 33.4616 24.2865 31.2396 28.524L20.3074 50.0732L10.3075 50.0732L18.4473 28.989C16.48 28.0994 14.8016 26.6759 13.6027 24.8803C12.3885 23.0712 11.781 21.0042 11.7803 18.6794C11.7803 15.4238 12.8787 12.6979 15.0755 10.5019C17.2723 8.30579 19.9722 7.2074 23.1753 7.20668C26.4317 7.20668 29.1449 8.30507 31.3151 10.5019C33.4853 12.6987 34.5704 15.4245 34.5704 18.6794" fill="#F24B78"/>
<path d="M58.4028 14.3981C58.4028 16.4122 57.2918 19.6938 55.0699 24.2427L44.0643 45.792L33.9101 45.792L42.0467 24.7077C40.0796 23.8699 38.4161 22.45 37.2797 20.6389C36.1166 18.804 35.535 16.7237 35.535 14.3981C35.535 11.1425 36.6205 8.41666 38.7914 6.22059C40.9623 4.02452 43.6752 2.92612 46.9301 2.9254C50.185 2.92541 52.9109 4.0238 55.1076 6.22059C57.3044 8.41738 58.4028 11.1432 58.4028 14.3981ZM28.171 14.3981C28.171 16.7244 27.0601 20.0059 24.8381 24.2427L13.9081 45.792L3.90812 45.792L12.0425 24.7077C10.0754 23.8184 8.39696 22.3953 7.19791 20.6001C5.98371 18.7903 5.37661 16.723 5.37661 14.3981C5.37661 11.1425 6.47464 8.41666 8.67072 6.22059C10.8668 4.02451 13.5667 2.92612 16.7706 2.9254C20.0269 2.9254 22.7402 4.0238 24.9104 6.22059C27.0806 8.41738 28.1674 11.1432 28.171 14.3981Z" stroke="#030140" stroke-width="4" stroke-miterlimit="10"/>
</svg>
