<svg width="151" height="131" viewBox="0 0 151 131" fill="none" xmlns="http://www.w3.org/2000/svg">
<path d="M70.9344 95.2205V8.85821L60.7305 8.39185L63.2067 88.437L10.479 90.896L10.7779 99.121C10.7779 99.121 70.2086 95.2205 70.9344 95.2205Z" fill="#F24B78"/>
<path d="M65.7684 90.2601V87.9283V81.6536V72.3687V61.0063V48.6265V36.077V24.3755V14.5395V7.4168C65.7684 6.31448 65.8111 5.16977 65.7684 4.06745C65.7684 4.02505 65.7684 3.98266 65.7684 3.94026C65.7684 3.3891 65.3415 3.00753 64.7864 2.96514C62.6944 2.88034 60.6024 2.79555 58.5103 2.66836C53.4724 2.45637 48.3917 2.20199 43.3538 1.99001C37.2485 1.73563 31.1432 1.43885 25.0805 1.18447L9.24087 0.463724C6.6792 0.336534 4.11753 0.124549 1.59855 0.124549C1.55586 0.124549 1.51316 0.124549 1.51316 0.124549C1.00083 0.0821518 0.531189 0.590914 0.531189 1.09968C0.573883 1.94761 0.573882 2.75315 0.616577 3.60109C0.701966 5.84812 0.787355 8.09515 0.830049 10.3846C0.958133 13.7339 1.04352 17.0833 1.17161 20.4326C1.29969 24.5027 1.47047 28.5728 1.59855 32.6429L2.06819 46.0403L2.53783 59.5224C2.66591 63.7197 2.83669 67.9594 2.96478 72.1567L3.34903 82.7983C3.43442 85.3421 3.5198 87.9283 3.60519 90.4721C3.64789 91.6592 3.69058 92.8887 3.73328 94.0758C3.73328 94.1182 3.73328 94.1606 3.73328 94.2454C3.73328 94.7542 4.16022 95.2205 4.71525 95.2205C6.6792 95.0934 8.68584 94.9662 10.6498 94.839C15.3889 94.5422 20.128 94.203 24.8244 93.9062C30.5881 93.5247 36.3519 93.1431 42.1583 92.7615C47.1536 92.4224 52.1489 92.1256 57.1441 91.7864C59.6631 91.6168 62.1821 91.4896 64.701 91.32C64.7437 91.32 64.7864 91.32 64.8291 91.32C66.0673 91.32 66.0673 89.4122 64.8291 89.4122C62.7371 89.4122 60.6451 89.6666 58.553 89.7938C53.7713 90.0905 48.9895 90.4297 44.2077 90.7265C38.4439 91.108 32.6375 91.4896 26.8737 91.8712C21.9211 92.2104 16.9686 92.5071 12.016 92.8463C10.3936 92.9735 8.72853 93.0583 7.10614 93.1855C6.33764 93.2279 5.52644 93.2279 4.75794 93.3551C4.71525 93.3551 4.67256 93.3551 4.67256 93.3551L5.65453 94.3302C5.61184 93.4823 5.61183 92.6767 5.56914 91.8288C5.48375 89.5818 5.39836 87.3347 5.35567 85.0453C5.22758 81.696 5.1422 78.3466 5.01411 74.9973C4.88603 70.9272 4.71525 66.8571 4.58717 62.787C4.41639 58.3353 4.2883 53.8413 4.11753 49.3896C3.94675 44.8956 3.81866 40.4015 3.64789 35.9074C3.5198 31.7102 3.34903 27.4705 3.22094 23.2732C3.09286 19.7119 2.96477 16.1929 2.83669 12.6316L2.53783 4.83059C2.49514 3.64348 2.53783 2.41397 2.40975 1.22686C2.40975 1.18447 2.40975 1.14207 2.40975 1.05728L1.42777 1.99001C3.5198 2.0748 5.61183 2.15959 7.70387 2.28678C12.7418 2.49877 17.8225 2.75315 22.8604 2.96514C28.9657 3.21952 35.0711 3.51629 41.1764 3.77067C46.4705 4.02505 51.7219 4.23704 57.016 4.49142C58.7665 4.57621 60.4743 4.66101 62.2248 4.7458C63.036 4.7882 63.8899 4.87299 64.701 4.87299C64.7437 4.87299 64.7864 4.87299 64.7864 4.87299L63.8045 3.89786V6.22969V12.5044V21.7469V33.1092V45.5315V58.081V69.7825V79.6185V86.7412C63.8045 87.8435 63.7618 88.9882 63.8045 90.0905C63.8045 90.1329 63.8045 90.1753 63.8045 90.2177C63.8472 91.4896 65.7684 91.4896 65.7684 90.2601Z" fill="#030140"/>
<path d="M72.8984 27.2586C75.1185 27.2162 77.2959 27.2162 79.516 27.1738L95.3984 27.0042C101.931 26.9194 108.463 26.877 114.995 26.7922C120.844 26.7074 126.693 26.6651 132.585 26.5803C135.873 26.5379 139.16 26.4955 142.405 26.4531C142.619 26.4531 142.789 26.4531 143.003 26.4531C144.796 26.4531 146.461 27.2162 147.571 28.6577C148.596 29.972 148.724 31.4559 148.724 33.0246C148.681 36.3315 148.596 39.6385 148.553 42.9454C148.425 48.669 148.34 54.4349 148.212 60.1585C148.083 66.6876 147.955 73.2167 147.827 79.7458C147.742 85.2998 147.614 90.8114 147.528 96.3654C147.486 99.2484 147.4 102.174 147.358 105.057C147.315 107.558 146.077 109.805 143.771 110.907C142.661 111.459 141.508 111.501 140.356 111.501H132.713H118.582H100.522H80.7542H61.7551H46.0008H35.7542H33.4914C31.1858 111.501 29.1365 110.441 28.0692 108.364C27.4287 107.092 27.4714 105.735 27.4714 104.336V100.817C27.4714 99.5875 25.5502 99.5875 25.5502 100.817V104.548C25.5502 106.201 25.6356 107.77 26.4041 109.296C27.7276 111.883 30.5027 113.366 33.406 113.409C35.498 113.409 37.59 113.409 39.7248 113.409H53.0027H70.8064H90.6593H110.085H126.608H137.751C140.313 113.409 142.917 113.621 145.223 112.307C147.827 110.823 149.279 108.067 149.322 105.099L149.364 102.174C149.45 97.7221 149.535 93.3128 149.62 88.8611C149.749 82.5864 149.877 76.2693 149.962 69.9946C150.09 63.5927 150.218 57.1907 150.346 50.7888L150.602 36.5011C150.645 35.2716 150.645 34.0421 150.688 32.855C150.73 30.8623 150.304 28.9545 149.023 27.3434C147.443 25.3508 145.095 24.5028 142.619 24.5452C141.466 24.5452 140.313 24.5876 139.16 24.5876C134.379 24.63 129.554 24.6724 124.772 24.7572C118.283 24.842 111.793 24.8844 105.346 24.9692C99.1128 25.054 92.9221 25.0964 86.6887 25.1812C82.6754 25.2236 78.6622 25.266 74.6916 25.3084C74.1365 25.3084 73.5815 25.3084 72.9838 25.3084C71.6603 25.3508 71.6603 27.2586 72.8984 27.2586Z" fill="#030140"/>
<path d="M71.7883 38.7058H76.6128H88.6527H104.236H119.734H131.39H134.635C135.446 38.7058 136.214 38.6634 136.983 38.8753C139.502 39.5537 141.039 41.8855 140.911 44.3869C140.868 45.1501 140.825 45.9132 140.825 46.6764C140.655 50.4073 140.526 54.1806 140.356 57.9115C140.142 63.0839 139.929 68.2563 139.715 73.4287C139.502 78.2196 139.331 83.0104 139.118 87.8012C138.989 90.345 138.904 92.9313 138.776 95.4751C138.691 97.5525 137.709 99.5028 135.873 100.605C134.805 101.241 133.61 101.495 132.372 101.538C130.493 101.58 128.572 101.623 126.693 101.665C123.064 101.75 119.435 101.835 115.806 101.919C111.025 102.047 106.285 102.131 101.504 102.259C96.2096 102.386 90.9155 102.513 85.6214 102.64C80.3699 102.767 75.1612 102.895 69.9098 103.022C65.3415 103.149 60.7304 103.234 56.1621 103.361C52.832 103.446 49.5018 103.53 46.1716 103.615C44.6773 103.658 43.183 103.7 41.7314 103.742C39.3832 103.785 37.4192 102.004 37.4192 99.6299C37.4192 98.4004 35.498 98.4004 35.498 99.6299C35.5407 102.979 38.3158 105.693 41.6887 105.65C42.1156 105.65 42.5426 105.65 42.9268 105.608C45.3604 105.565 47.794 105.481 50.2276 105.438C54.2836 105.354 58.3396 105.226 62.3528 105.142C67.3908 105.014 72.386 104.887 77.424 104.802C82.8035 104.675 88.2257 104.548 93.6052 104.421C98.7713 104.294 103.937 104.166 109.103 104.039C113.415 103.954 117.728 103.827 122.04 103.742C124.858 103.658 127.675 103.615 130.493 103.53C132.841 103.488 135.104 103.488 137.154 102.131C139.374 100.605 140.612 98.2309 140.74 95.6022C140.783 94.7543 140.825 93.9064 140.868 93.0584C141.039 89.1579 141.21 85.2574 141.38 81.3569C141.594 76.0997 141.807 70.8001 142.063 65.5429C142.277 60.8369 142.448 56.0884 142.661 51.3824C142.747 49.0506 142.875 46.7611 142.96 44.4293C143.088 41.3344 141.21 38.5362 138.349 37.3491C137.239 36.9251 136.086 36.8403 134.934 36.8403H126.779H112.69H96.5938H82.1631H73.1972H71.9591C70.5502 36.7979 70.5502 38.7058 71.7883 38.7058Z" fill="#030140"/>
<path d="M92.3245 113.154C93.9895 117.309 95.6973 121.506 97.3624 125.661C97.6186 126.255 97.832 126.848 98.0882 127.442C98.3871 127.06 98.6859 126.636 99.0275 126.255C96.2097 126.509 93.3918 126.721 90.574 126.976C86.0911 127.357 81.6081 127.696 77.1252 128.078L74.0512 128.332C74.3501 128.714 74.6489 129.138 74.9905 129.519C76.1859 124.771 77.4241 119.98 78.6195 115.232C78.7903 114.553 78.9611 113.875 79.1319 113.154C79.4307 111.967 77.5949 111.458 77.296 112.645L73.667 126.933C73.4962 127.611 73.3254 128.29 73.1546 128.968C73.0265 129.519 73.4535 130.24 74.0939 130.155C76.9117 129.901 79.7296 129.689 82.5474 129.435L95.9962 128.332C97.0209 128.247 98.0455 128.163 99.0702 128.078C99.6252 128.035 100.266 127.484 100.009 126.891C98.3444 122.736 96.6366 118.539 94.9715 114.384C94.7154 113.79 94.5019 113.197 94.2457 112.603C94.0322 112.137 93.6053 111.797 93.0503 111.925C92.5379 112.094 92.1537 112.688 92.3245 113.154Z" fill="#030140"/>
<path d="M111.878 65.5853C112.305 64.271 112.775 62.9991 113.202 61.6848C113.373 61.1336 113.544 60.6248 114.184 60.4553C114.782 60.2857 115.465 60.2857 116.105 60.2433C118.88 59.9889 121.656 59.7769 124.431 59.6073C125.071 59.5649 125.071 58.5898 124.431 58.6322C121.314 58.8442 118.155 59.0562 115.038 59.3529C114.483 59.3953 113.885 59.4377 113.373 59.7345C112.86 60.0313 112.604 60.4977 112.434 61.0064C111.921 62.4055 111.452 63.8894 110.982 65.3309C110.726 65.9244 111.665 66.1788 111.878 65.5853Z" fill="#030140"/>
<path d="M127.249 58.4624C128.401 63.8892 129.597 69.316 130.749 74.7427C131.048 76.0994 131.347 77.4985 131.646 78.8552C131.774 79.4912 131.945 80.1695 132.073 80.8055C132.201 81.4414 132.5 82.1622 131.902 82.6286C131.048 83.3493 129.768 83.4765 128.657 83.5613C127.377 83.6037 126.096 83.5613 124.815 83.5613C121.656 83.5613 118.496 83.5613 115.337 83.5189C114.696 83.5189 114.696 84.494 115.337 84.494C118.325 84.494 121.314 84.494 124.303 84.5364C125.712 84.5364 127.163 84.5788 128.572 84.5364C129.725 84.494 130.92 84.3244 131.945 83.7733C132.372 83.5189 132.799 83.2221 133.012 82.7981C133.311 82.247 133.226 81.6534 133.098 81.0599C132.799 79.6184 132.457 78.1769 132.158 76.7354C131.518 73.8524 130.92 70.9694 130.28 68.0864C129.554 64.7795 128.871 61.4725 128.145 58.1656C128.06 57.6144 127.078 57.8688 127.249 58.4624Z" fill="#030140"/>
<path d="M125.541 64.7798C125.754 62.4479 125.712 60.1161 125.413 57.8267C125.285 56.682 125.071 55.5372 124.815 54.4349C124.601 53.5022 124.388 52.5695 123.961 51.7215C123.278 50.28 121.741 49.2625 120.161 50.0681C119.008 50.6616 118.027 52.0607 117.642 53.2902C117.173 54.8165 116.746 56.3852 116.575 57.9539C116.49 58.5898 117.471 58.5898 117.557 57.9539C117.685 56.6396 118.069 55.3253 118.411 54.0958C118.71 53.0782 119.179 52.1455 119.948 51.4248C120.46 50.9584 121.101 50.5768 121.784 50.8312C122.467 51.0856 122.894 51.7639 123.15 52.3999C123.833 54.0958 124.175 56.0884 124.388 57.9115C124.687 60.2009 124.687 62.4903 124.516 64.7798C124.516 65.4157 125.498 65.4157 125.541 64.7798Z" fill="#030140"/>
<path d="M112.519 66.0515L117.472 88.9458C117.557 89.3698 117.642 89.7937 117.472 90.1753C117.343 90.4721 117.087 90.7264 116.788 90.9384C115.465 91.8288 113.757 91.8288 112.177 91.8288C104.749 91.7864 97.3197 91.7864 89.8481 91.744L97.5759 69.0617C97.7039 68.7225 97.832 68.3409 98.0882 68.0866C98.5151 67.6626 99.1129 67.5778 99.7106 67.5354C102.87 67.2386 106.029 66.9842 109.189 66.7723" fill="#F24B78"/>
<path d="M109.573 64.0588C111.025 70.7999 112.476 77.541 113.928 84.2821C114.099 85.0876 114.269 85.9355 114.483 86.7411C114.568 87.1226 114.739 87.589 114.525 87.9282C114.355 88.2674 113.97 88.4793 113.629 88.6065C112.348 89.2425 110.854 89.2001 109.488 89.2001C106.029 89.2001 102.528 89.1577 99.0701 89.1577C95.1849 89.1577 91.2997 89.1153 87.3718 89.1153C87.5426 89.3273 87.6706 89.5393 87.8414 89.7512C89.3784 85.2572 90.9154 80.8055 92.4097 76.3115C93.1782 74.1068 93.904 71.9022 94.6725 69.6976L95.2276 68.0865C95.3984 67.5777 95.5264 66.9842 95.7826 66.5602C96.0388 66.1362 96.5084 66.009 96.9354 65.9666C97.4904 65.8818 98.0881 65.8395 98.6858 65.7971C101.376 65.5427 104.023 65.3731 106.712 65.2035C107.353 65.1611 107.353 64.186 106.712 64.2284C104.193 64.398 101.717 64.5676 99.2409 64.7795C98.2162 64.8643 96.978 64.8219 95.9961 65.2035C95.0141 65.5851 94.7579 66.4754 94.4591 67.3657L89.6346 81.5263C88.738 84.1973 87.7987 86.8683 86.9021 89.5393C86.8168 89.836 87.0729 90.1752 87.3718 90.1752C94.7152 90.2176 102.016 90.2176 109.359 90.26C110.811 90.26 112.348 90.3024 113.714 89.7512C114.312 89.4969 114.952 89.1577 115.294 88.6489C115.721 88.013 115.55 87.2922 115.422 86.5715C114.654 83.0102 113.885 79.4912 113.117 75.9299C112.263 71.9022 111.366 67.8745 110.512 63.8468C110.384 63.2108 109.445 63.4652 109.573 64.0588Z" fill="#030140"/>
<path d="M107.865 70.3757C108.079 68.0439 108.036 65.712 107.737 63.4226C107.609 62.2779 107.396 61.1332 107.139 60.0309C106.926 59.0981 106.713 58.1654 106.286 57.3175C105.602 55.876 104.065 54.8585 102.486 55.664C101.333 56.2576 100.351 57.6566 99.9668 58.8862C99.4971 60.4124 99.0702 61.9811 98.8994 63.5498C98.814 64.1858 99.796 64.1858 99.8814 63.5498C100.009 62.2355 100.394 60.9212 100.735 59.6917C101.034 58.6742 101.504 57.7414 102.272 57.0207C102.785 56.5543 103.425 56.1728 104.108 56.4271C104.791 56.6815 105.218 57.3599 105.474 57.9958C106.157 59.6917 106.499 61.6843 106.713 63.5074C107.011 65.7968 107.011 68.0863 106.841 70.3757C106.841 71.0116 107.823 71.0116 107.865 70.3757Z" fill="#030140"/>
<path d="M92.0256 80.8056C86.9023 80.8056 81.7362 80.7632 76.6129 80.7632C76.7837 80.9752 76.9117 81.1872 77.0825 81.3992C78.6195 76.9051 80.1565 72.4535 81.6508 67.9594C82.4193 65.7548 83.1451 63.5502 83.9136 61.3455L84.4687 59.7344C84.6394 59.2257 84.7675 58.6321 85.0237 58.2082C85.2799 57.7842 85.7495 57.657 86.1764 57.6146C86.7315 57.5298 87.3292 57.4874 87.9269 57.445C90.6167 57.1906 93.2637 57.0211 95.9535 56.8515C96.5939 56.8091 96.5939 55.8339 95.9535 55.8763C93.4345 56.0459 90.9582 56.2155 88.4819 56.4275C87.4573 56.5123 86.2191 56.4699 85.2372 56.8515C84.2552 57.233 83.999 58.1234 83.7002 59.0137C82.0778 63.7197 80.4981 68.4258 78.8757 73.1742L76.1432 81.1872C76.0578 81.484 76.314 81.8232 76.6129 81.8232C81.7362 81.8232 86.9023 81.8656 92.0256 81.8656C92.666 81.7808 92.666 80.8056 92.0256 80.8056Z" fill="#030140"/>
<path d="M97.1062 61.9817C97.3197 59.6498 97.277 57.318 96.9781 55.0286C96.8501 53.8839 96.6366 52.7392 96.3804 51.6368C96.1669 50.7041 95.9535 49.7714 95.5265 48.9234C94.8434 47.4819 93.3064 46.4644 91.7267 47.27C90.574 47.8635 89.592 49.2626 89.2077 50.4921C88.7381 52.0184 88.3112 53.5871 88.1404 55.1558C88.055 55.7917 89.037 55.7917 89.1224 55.1558C89.2504 53.8415 89.6347 52.5272 89.9762 51.2977C90.2751 50.2801 90.7447 49.3474 91.5132 48.6267C92.0256 48.1603 92.666 47.7787 93.3491 48.0331C94.0322 48.2875 94.4592 48.9658 94.7153 49.6018C95.3984 51.2977 95.74 53.2903 95.9535 55.1134C96.2523 57.4028 96.2523 59.6922 96.0816 61.9817C96.0816 62.5752 97.0635 62.5752 97.1062 61.9817Z" fill="#030140"/>
<path d="M22.22 78.0501C22.5616 79.534 22.8604 81.0603 23.202 82.5442C23.3728 83.2649 23.5008 84.0281 23.6716 84.7488C23.757 85.1304 23.8424 85.5119 23.9278 85.8935C23.9705 86.1479 24.0986 86.4871 23.8851 86.699C23.757 86.8262 23.5435 86.8686 23.3728 86.911C22.6896 87.0806 21.9211 86.9958 21.2807 86.9958C20.5122 86.9958 19.7864 86.9958 19.0179 86.9958H14.3215C14.4069 87.0806 14.4923 87.2078 14.535 87.2926L16.5843 81.2723C16.7551 80.7635 16.9259 80.2971 17.0967 79.7884C17.1821 79.534 17.2247 79.2796 17.3528 79.0252C17.5236 78.7285 17.8225 78.7285 18.1213 78.7285C19.146 78.6437 20.2134 78.5589 21.238 78.4741C21.5369 78.4741 21.5369 77.9653 21.238 78.0077C20.0853 78.0925 18.9325 78.1349 17.7798 78.2621C17.4382 78.3045 17.1394 78.3893 16.9686 78.6861C16.7124 79.11 16.5843 79.7036 16.4135 80.2123C15.6024 82.5442 14.8339 84.8336 14.0227 87.1654C13.98 87.335 14.108 87.4622 14.2361 87.4622C15.9866 87.4622 17.7798 87.4622 19.5303 87.4622C20.4268 87.4622 21.2807 87.4622 22.1773 87.4622C22.8177 87.4622 23.5008 87.4622 24.0559 87.123C24.5682 86.7838 24.4401 86.2751 24.312 85.7663C24.0986 84.876 23.9278 83.9856 23.7143 83.0953C23.3301 81.357 22.9885 79.6612 22.6043 77.9229C22.647 77.5837 22.1773 77.7109 22.22 78.0501Z" fill="#030140"/>
<path d="M21.7504 80.2969C21.8357 79.449 21.7931 78.601 21.7077 77.7531C21.6223 77.0324 21.4942 76.2268 21.1953 75.5485C20.9392 75.0397 20.3841 74.6581 19.8291 74.9125C19.3595 75.1245 19.0179 75.6757 18.8471 76.142C18.6764 76.6932 18.5056 77.2867 18.4629 77.8379C18.4202 78.1347 18.8898 78.1347 18.9325 77.8379C18.9752 77.3291 19.1033 76.778 19.3168 76.2692C19.4876 75.8452 19.9999 74.9973 20.5549 75.4213C20.8111 75.6333 20.8965 75.9724 20.9819 76.2692C21.1099 76.6932 21.1953 77.1171 21.238 77.5835C21.3661 78.4738 21.4088 79.4066 21.3234 80.2969C21.238 80.5937 21.7077 80.5937 21.7504 80.2969Z" fill="#030140"/>
<path d="M45.8301 77.7957C45.6166 78.686 45.4031 79.6187 45.5312 80.5091C45.6593 81.2298 46.0862 81.9081 46.5986 82.4169C47.1109 82.9257 47.6659 83.1377 48.3917 83.2224C49.0749 83.3072 49.8007 83.2648 50.4838 83.0105C51.85 82.5441 52.9174 81.3146 53.1308 79.9155C53.3016 78.5588 52.6612 77.1597 51.4658 76.3966C50.6546 75.8878 49.7153 75.8454 48.776 75.9302C47.9648 76.015 47.0682 76.1846 46.5559 76.8205C46.3424 77.0749 46.684 77.4141 46.8974 77.1597C47.3244 76.6509 48.0075 76.4814 48.6479 76.439C49.3737 76.3542 50.1422 76.3542 50.8253 76.6085C51.9354 77.0749 52.6612 78.262 52.6612 79.4491C52.6612 80.721 51.8073 81.8234 50.6973 82.3745C50.1422 82.6289 49.5872 82.7561 48.9895 82.7561C48.3918 82.7561 47.794 82.7137 47.2817 82.3321C46.684 81.9081 46.1716 81.2298 46.0009 80.5091C45.7874 79.6187 46.0436 78.686 46.257 77.8381C46.3424 77.6261 45.9155 77.4989 45.8301 77.7957Z" fill="#030140"/>
<path d="M49.3311 77.4563C50.6119 77.5835 51.6366 78.813 51.4658 80.0849C51.4658 80.2545 51.6793 80.2545 51.722 80.0849C51.8927 78.6858 50.74 77.3291 49.3311 77.2019C49.1603 77.2019 49.1603 77.4563 49.3311 77.4563Z" fill="#030140"/>
<path d="M50.9961 83.3071C51.5511 83.943 52.1061 84.5366 52.6611 85.1725C52.9173 85.4693 53.2162 85.7661 53.515 86.0629C53.6431 86.1901 53.8139 86.3596 53.942 86.4868C54.0701 86.614 54.1981 86.7412 54.3689 86.826C54.7105 86.9532 54.924 86.6564 55.0947 86.402C55.2655 86.1477 55.6498 85.8509 55.6498 85.5117C55.6498 85.1725 55.3509 84.9182 55.1374 84.7062C54.8813 84.4094 54.6251 84.1126 54.3689 83.7734C53.8139 83.0951 53.3443 82.332 52.96 81.5688C52.8319 81.3144 52.405 81.5264 52.5331 81.8232C52.9173 82.5863 53.387 83.2647 53.8993 83.943C54.1555 84.2398 54.4116 84.579 54.6678 84.8758C54.7959 85.0453 54.9667 85.1725 55.0947 85.2997C55.1374 85.3845 55.2228 85.4269 55.1801 85.5541C55.1374 85.6389 55.052 85.7237 55.0093 85.8085C54.9239 85.8933 54.8813 85.9781 54.8386 86.0629C54.7959 86.1477 54.7105 86.2749 54.6251 86.3172C54.497 86.402 54.2408 86.0205 54.1554 85.9357C53.8566 85.6389 53.5577 85.2997 53.2589 85.0029C52.6184 84.3246 52.0207 83.6887 51.423 82.9679C51.1241 82.7135 50.7826 83.0527 50.9961 83.3071Z" fill="#030140"/>
<path d="M18.4629 49.8984C22.3908 49.7712 26.3187 49.644 30.2466 49.5592L48.9895 49.0081C50.3984 48.9657 51.8501 48.9233 53.259 48.8809C53.0882 48.6689 52.9601 48.4569 52.7893 48.2449C52.6186 49.0505 52.1916 49.856 51.6793 50.492C50.6546 51.7215 49.3311 52.1454 47.7941 52.1878C45.2751 52.2726 42.7561 52.3574 40.2371 52.4422C34.3453 52.6542 28.4535 52.8662 22.5616 53.0782C22.092 53.0782 21.6223 53.1206 21.1527 53.163C20.2988 53.2902 19.5303 52.9086 19.2314 52.0183C18.9326 51.2551 18.7618 50.28 19.0607 49.4744C19.2741 48.8809 18.3349 48.6265 18.1214 49.2201C17.8652 49.8984 17.9506 50.7039 18.0787 51.3823C18.2922 52.4422 18.7618 53.5021 19.7865 53.9261C20.3842 54.1805 21.0246 54.1381 21.665 54.0533C21.7931 54.0533 21.4516 54.0533 21.6223 54.0533C21.7077 54.0533 21.7931 54.0533 21.8358 54.0533C24.0559 53.9685 26.276 53.8837 28.4535 53.7989C34.8149 53.5445 41.1337 53.3326 47.4952 53.1206C48.221 53.0782 48.9468 53.0782 49.6299 52.9086C50.6119 52.6542 51.4658 52.1454 52.1489 51.4247C52.9174 50.6192 53.5578 49.5168 53.7713 48.4145C53.8567 48.1177 53.6432 47.7786 53.3017 47.7786C49.3738 47.9058 45.4459 48.0329 41.518 48.1177L22.7751 48.6689C21.3662 48.7113 19.9146 48.7537 18.5056 48.7961C17.8225 48.9233 17.8225 49.9408 18.4629 49.8984Z" fill="#030140"/>
<path d="M19.0607 47.5665C19.018 45.0227 18.9753 42.4789 18.9326 39.935C18.9326 38.7903 18.8899 37.6032 18.8899 36.4585C18.8899 36.2889 18.8899 36.0769 18.9326 35.9921C19.0607 35.3562 19.2742 34.7202 19.8292 34.3387C20.1708 34.0843 20.5977 34.0419 20.9819 34.0419C21.7504 34.0419 22.5189 34.0843 23.2448 34.0419C24.4829 33.9995 25.6356 33.7451 26.7457 33.2363C27.258 32.982 27.7704 32.7276 28.2827 32.4308C28.795 32.1764 29.3501 31.8373 29.9478 31.8373C30.9298 31.8796 31.5275 32.982 32.0398 33.6603C33.2353 35.2714 34.4734 36.8825 36.0958 38.112C36.9924 38.7903 37.9744 39.2991 38.999 39.6383C40.2799 40.0622 41.6461 40.1046 42.9696 40.1894C45.2324 40.359 48.1783 40.359 49.9288 42.0549C50.8681 42.9876 51.4658 44.3443 51.6793 45.6162C51.7647 46.125 51.8074 46.7185 51.6793 47.1425C51.4658 47.7361 52.4051 47.9904 52.6186 47.3969C52.7894 46.9729 52.7467 46.4642 52.704 45.9978C52.5759 44.7259 52.1062 43.5388 51.4658 42.4789C50.3131 40.5286 48.2637 39.8079 46.129 39.5111C44.8055 39.2991 43.4393 39.2143 42.1157 39.1295C40.7495 39.0023 39.426 38.8751 38.1878 38.2392C36.1812 37.264 34.6442 35.5258 33.3207 33.7451C32.7656 33.0244 32.296 32.2188 31.6556 31.5829C30.759 30.6925 29.6489 30.6501 28.5389 31.1165C27.3434 31.6253 26.2761 32.3884 24.9952 32.7276C23.629 33.0668 22.2628 32.9396 20.8966 32.9396C19.1034 32.9396 18.036 34.3387 17.9079 36.0345C17.8652 36.7553 17.9079 37.5184 17.9506 38.2816C17.9933 41.2917 17.9933 44.2595 18.0787 47.2697C18.0787 47.3545 18.0787 47.3969 18.0787 47.4817C18.0787 48.2024 19.0607 48.2024 19.0607 47.5665Z" fill="#030140"/>
<path d="M23.8424 48.0331C23.4581 47.2699 23.33 46.1252 24.2693 45.6165C24.9524 45.2349 25.7209 44.9381 26.5321 44.8957C27.0018 44.8533 27.5141 44.8533 27.9838 44.8109C29.8623 44.6413 31.7836 44.387 33.6621 44.175C33.961 44.1326 34.2599 43.8782 34.1318 43.539C33.7902 42.4791 33.1498 41.6312 32.424 40.7832C31.6982 39.9777 30.9724 39.1722 30.2466 38.3666C30.1612 38.2818 30.1185 38.2394 30.0331 38.1546C30.1185 38.2818 30.0758 38.197 30.0331 38.1122C29.905 37.7307 29.6915 37.2643 29.9477 36.8403C30.1185 36.5436 30.5027 36.374 30.7589 36.2044C31.1005 35.9924 31.3993 35.7804 31.6982 35.526C32.0397 35.2717 32.3813 35.0173 32.7228 34.7629C33.2352 34.3813 32.5094 33.6606 32.0397 34.0845C31.6555 34.3813 31.2285 34.6781 30.8443 34.9749C30.2893 35.3988 29.4354 35.6956 29.0938 36.3316C28.6669 37.0523 28.8376 38.197 29.35 38.833C30.6308 40.4865 32.5521 41.8008 33.2352 43.7934C33.406 43.5814 33.534 43.3694 33.7048 43.1575C32.0824 43.3694 30.4173 43.5814 28.795 43.7086C27.8984 43.7934 26.9591 43.7934 26.0625 43.9206C24.9098 44.0902 23.2447 44.6413 22.775 45.8285C22.4335 46.6764 22.6469 47.6939 23.0312 48.4995C23.2874 49.093 24.1412 48.5842 23.8424 48.0331Z" fill="#030140"/>
<path d="M16.6698 39.9773C17.5236 40.1045 18.4202 40.1893 19.2741 40.1893C20.4269 40.1893 21.8358 40.1045 22.4762 39.0445C22.9885 38.1966 22.9885 37.0943 22.9032 36.1616C22.9032 36.1192 22.9032 36.0768 22.9032 36.0344C22.8605 35.7376 22.9032 35.9496 22.9032 35.992C22.9032 35.9072 22.9032 35.8224 22.9032 35.7376C22.9032 35.3136 22.9032 34.932 22.9032 34.5081C22.9032 33.6601 22.9032 32.8122 22.9458 31.9643C22.9458 31.3283 21.9639 31.3283 21.9639 31.9643C21.9639 32.6002 21.9639 33.2786 21.9212 33.9145C21.9212 34.5929 21.8785 35.2712 21.8785 35.9496C21.9212 36.3311 21.8785 35.8648 21.8785 36.0768C21.8785 36.2463 21.9212 36.3735 21.9212 36.5431C21.9639 37.0095 21.9212 37.4759 21.8358 37.8998C21.7504 38.3238 21.5369 38.7054 21.1527 38.9173C20.7257 39.1293 20.1707 39.1293 19.7011 39.1717C19.0606 39.1717 18.4202 39.1717 17.8225 39.0869C17.4383 39.0445 17.2675 39.0445 16.9686 38.9597C16.3282 38.9173 16.0293 39.8501 16.6698 39.9773Z" fill="#030140"/>
<path d="M34.0464 38.4087C34.8149 37.9423 35.5834 37.5183 36.3519 37.052C36.5653 36.9248 36.6934 36.5856 36.5226 36.3736C36.3946 36.1617 36.0957 36.0769 35.8395 36.204C35.071 36.6704 34.3025 37.0944 33.534 37.5607C33.3206 37.6879 33.1925 38.0271 33.3633 38.2391C33.534 38.4511 33.8329 38.5359 34.0464 38.4087Z" fill="#030140"/>
<path d="M36.9496 42.0976C37.9743 41.2921 38.9989 40.4865 40.0663 39.681C40.2798 39.5114 40.2371 39.1298 40.0663 39.0027C39.8528 38.7907 39.5966 38.8331 39.3832 39.0027C38.3585 39.8082 37.3338 40.6137 36.2665 41.4193C36.053 41.5889 36.0957 41.9704 36.2665 42.0976C36.48 42.2672 36.7361 42.2672 36.9496 42.0976Z" fill="#030140"/>
<path d="M35.498 40.571C36.3945 40.0198 37.3338 39.4686 38.2304 38.9175C38.4439 38.7903 38.572 38.4511 38.4012 38.2391C38.2731 38.0272 37.9742 37.9 37.7181 38.0696C36.8215 38.6207 35.8822 39.1719 34.9856 39.723C34.7722 39.8502 34.6441 40.1894 34.8149 40.4014C34.9429 40.6134 35.2418 40.6982 35.498 40.571Z" fill="#030140"/>
<path d="M32.1252 64.1015C31.869 64.1015 31.6555 63.9319 31.6555 63.6776C31.6555 63.4232 31.8263 63.2112 32.0825 63.2112C32.3386 63.2112 32.5521 63.3808 32.5521 63.6352C32.5521 63.8895 32.3813 64.0591 32.1252 64.1015Z" fill="#F24B78"/>
<path d="M32.0824 64.5253C31.869 64.5253 31.6555 64.4405 31.4847 64.2709C31.3139 64.1013 31.2285 63.8893 31.1859 63.635C31.1859 63.1262 31.5701 62.7446 32.0397 62.7446C32.2959 62.7446 32.5094 62.8294 32.6802 62.999C32.8509 63.1686 32.9363 63.3806 32.979 63.635C32.979 63.8893 32.8936 64.1013 32.7228 64.2709C32.5948 64.3981 32.3813 64.5253 32.0824 64.5253C32.1251 64.5253 32.1251 64.5253 32.0824 64.5253Z" fill="#F24B78"/>
<path d="M31.9544 59.5649C31.6983 59.5649 31.4848 59.3953 31.4848 59.1409C31.4848 58.8865 31.6556 58.6746 31.9117 58.6746C32.1679 58.6746 32.3814 58.8441 32.3814 59.0985C32.4241 59.3529 32.2106 59.5649 31.9544 59.5649Z" fill="#F24B78"/>
<path d="M31.9544 59.9889C31.7409 59.9889 31.5274 59.9041 31.3567 59.7346C31.1859 59.565 31.1005 59.353 31.0578 59.0986C31.0578 58.5898 31.4421 58.2083 31.9117 58.2083C32.424 58.2083 32.8083 58.5898 32.8083 59.0562C32.8083 59.3106 32.7229 59.5226 32.5521 59.6922C32.4667 59.9041 32.2105 59.9889 31.9544 59.9889C31.9971 59.9889 31.9544 59.9889 31.9544 59.9889ZM31.9971 59.0986C31.9544 59.141 31.9971 59.141 31.9971 59.0986V59.0986Z" fill="#F24B78"/>
<path d="M31.8263 55.0705C31.5701 55.0705 31.3566 54.9009 31.3566 54.6465C31.3566 54.3922 31.5274 54.1802 31.7836 54.1802C32.0397 54.1802 32.2532 54.3498 32.2532 54.6042C32.2959 54.8161 32.0824 55.0281 31.8263 55.0705Z" fill="#F24B78"/>
<path d="M31.8263 55.4948C31.3566 55.4948 30.9297 55.1132 30.9297 54.6468C30.9297 54.3925 31.0151 54.1805 31.1859 54.0109C31.3566 53.8413 31.5701 53.7565 31.8263 53.7141C32.2959 53.7141 32.7229 54.0957 32.7229 54.562C32.7229 54.8164 32.6375 55.0284 32.4667 55.198C32.2959 55.3676 32.0824 55.4948 31.8263 55.4948Z" fill="#F24B78"/>
<path d="M27.5569 64.2285C27.3007 64.2285 27.0872 64.0589 27.0872 63.8045C27.0872 63.5501 27.258 63.3381 27.5142 63.3381C27.7703 63.3381 27.9838 63.5077 27.9838 63.7621C28.0265 64.0165 27.813 64.2285 27.5569 64.2285Z" fill="#F24B78"/>
<path d="M27.5568 64.6525C27.3433 64.6525 27.1299 64.5677 26.9591 64.3981C26.7883 64.2285 26.7029 64.0165 26.6602 63.7622C26.6602 63.2534 27.0445 62.8718 27.5141 62.8718C27.9838 62.8718 28.4107 63.2534 28.4107 63.7198C28.4534 64.2285 28.0691 64.6525 27.5568 64.6525Z" fill="#F24B78"/>
<path d="M27.4287 59.6921C27.1725 59.6921 26.959 59.5225 26.959 59.2681C26.959 59.0137 27.1298 58.8018 27.386 58.8018C27.6422 58.8018 27.8556 58.9713 27.8556 59.2257C27.8556 59.4801 27.6849 59.6921 27.4287 59.6921Z" fill="#F24B78"/>
<path d="M27.4288 60.1159C27.2153 60.1159 27.0018 60.0311 26.831 59.8615C26.6602 59.6919 26.5749 59.4799 26.5322 59.2255C26.5322 58.7168 26.9164 58.3352 27.3861 58.3352C27.8984 58.3352 28.2826 58.7168 28.2826 59.1831C28.2826 59.4375 28.1972 59.6495 28.0265 59.8191C27.8984 60.0311 27.6849 60.1159 27.4288 60.1159Z" fill="#F24B78"/>
<path d="M27.3006 55.198C27.0445 55.198 26.831 55.0284 26.831 54.774C26.831 54.5196 27.0018 54.3076 27.2579 54.3076C27.5141 54.3076 27.7276 54.4772 27.7276 54.7316C27.7276 54.986 27.5568 55.198 27.3006 55.198Z" fill="#F24B78"/>
<path d="M27.258 55.6217C27.0446 55.6217 26.8311 55.5369 26.6603 55.3674C26.4895 55.1978 26.4041 54.9858 26.3615 54.7314C26.3615 54.2226 26.7457 53.8411 27.2153 53.8411C27.4288 53.8411 27.685 53.9259 27.8558 54.0954C28.0265 54.265 28.1119 54.477 28.1546 54.7314C28.1546 54.9858 28.0692 55.1978 27.8984 55.3674C27.7704 55.4945 27.5569 55.6217 27.258 55.6217C27.3007 55.6217 27.3007 55.6217 27.258 55.6217ZM27.3007 54.7314C27.3007 54.7738 27.3007 54.7314 27.3007 54.7314V54.7314Z" fill="#F24B78"/>
<path d="M23.0312 64.3557C22.7751 64.3557 22.5616 64.1861 22.5616 63.9317C22.5616 63.6773 22.7324 63.4653 22.9885 63.4653C23.2447 63.4653 23.4582 63.6349 23.4582 63.8893C23.4582 64.1437 23.2447 64.3557 23.0312 64.3557Z" fill="#F24B78"/>
<path d="M22.9885 64.7797C22.775 64.7797 22.5616 64.6949 22.3908 64.5253C22.22 64.3557 22.1346 64.1438 22.0919 63.8894C22.0919 63.3806 22.4762 62.999 22.9458 62.999C23.202 62.999 23.4154 63.0838 23.5862 63.2534C23.757 63.423 23.8424 63.635 23.8851 63.8894C23.8851 64.1438 23.7997 64.3557 23.6289 64.5253C23.5008 64.6949 23.2447 64.7797 22.9885 64.7797C23.0312 64.7797 22.9885 64.7797 22.9885 64.7797ZM23.0312 63.8894C22.9885 63.9318 23.0312 63.9318 23.0312 63.8894V63.8894Z" fill="#F24B78"/>
<path d="M22.8604 59.8193C22.6042 59.8193 22.3907 59.6497 22.3907 59.3953C22.3907 59.1409 22.5615 58.929 22.8177 58.929C23.0739 58.929 23.2873 59.0985 23.2873 59.3529C23.33 59.6073 23.1165 59.8193 22.8604 59.8193Z" fill="#F24B78"/>
<path d="M22.8604 60.2856C22.647 60.2856 22.4335 60.2008 22.2627 60.0312C22.0919 59.8616 22.0066 59.6496 21.9639 59.3952C21.9639 58.8865 22.3481 58.5049 22.8178 58.5049C23.0739 58.5049 23.2874 58.5897 23.4582 58.7593C23.6289 58.9289 23.7143 59.1408 23.757 59.3952C23.757 59.6496 23.6716 59.8616 23.5009 60.0312C23.3301 60.1584 23.1166 60.2432 22.8604 60.2856ZM22.9031 59.3952C22.8604 59.3952 22.9031 59.3952 22.9031 59.3952V59.3952Z" fill="#F24B78"/>
<path d="M22.7323 55.3254C22.4762 55.3254 22.2627 55.1558 22.2627 54.9014C22.2627 54.647 22.4335 54.4351 22.6896 54.4351C22.9458 54.4351 23.1593 54.6046 23.1593 54.859C23.202 55.1134 22.9885 55.3254 22.7323 55.3254Z" fill="#F24B78"/>
<path d="M22.7323 55.7492C22.5189 55.7492 22.3054 55.6644 22.1346 55.4948C21.9638 55.3252 21.8784 55.1132 21.8358 54.8588C21.8358 54.3501 22.22 53.9685 22.6896 53.9685C22.9458 53.9685 23.1593 54.0533 23.3301 54.2229C23.5008 54.3925 23.5862 54.6045 23.6289 54.8588C23.6289 55.1132 23.5435 55.3252 23.3728 55.4948C23.202 55.6644 22.9885 55.7492 22.7323 55.7492ZM22.7323 54.8588C22.7323 54.9012 22.7323 54.8588 22.7323 54.8588V54.8588Z" fill="#F24B78"/>
<path d="M18.4629 64.4831C18.2067 64.4831 17.9932 64.3135 17.9932 64.0591C17.9932 63.8048 18.164 63.5928 18.4202 63.5928C18.6763 63.5928 18.8898 63.7624 18.8898 64.0167C18.9325 64.2711 18.719 64.4831 18.4629 64.4831Z" fill="#F24B78"/>
<path d="M18.4629 64.9066C18.2494 64.9066 18.0359 64.8219 17.8651 64.6523C17.6944 64.4827 17.609 64.2707 17.5663 64.0163C17.5663 63.5499 17.9505 63.126 18.4202 63.126C18.6763 63.126 18.8898 63.2108 19.0606 63.3804C19.2314 63.5499 19.3168 63.7619 19.3595 64.0163C19.3595 64.2707 19.2741 64.4827 19.1033 64.6523C18.9325 64.8219 18.719 64.9066 18.4629 64.9066Z" fill="#F24B78"/>
<path d="M18.3348 59.9887C18.0786 59.9887 17.8652 59.8191 17.8652 59.5648C17.8652 59.3104 18.036 59.0984 18.2921 59.0984C18.5483 59.0984 18.7618 59.268 18.7618 59.5224C18.7618 59.7767 18.591 59.9463 18.3348 59.9887Z" fill="#F24B78"/>
<path d="M18.2922 60.4127C18.0787 60.4127 17.8652 60.3279 17.6944 60.1584C17.5237 59.9888 17.4383 59.7768 17.3956 59.5224C17.3956 59.0136 17.7798 58.6321 18.2495 58.6321C18.4629 58.6321 18.7191 58.7169 18.8899 58.8865C19.0607 59.056 19.146 59.268 19.1887 59.5224C19.2314 59.9888 18.8472 60.4127 18.2922 60.4127C18.3348 60.4127 18.3348 60.4127 18.2922 60.4127Z" fill="#F24B78"/>
<path d="M18.2068 55.4526C17.9506 55.4526 17.7371 55.283 17.7371 55.0286C17.7371 54.7742 17.9079 54.5623 18.1641 54.5623C18.4202 54.5623 18.6337 54.7318 18.6337 54.9862C18.6337 55.2406 18.4629 55.4526 18.2068 55.4526Z" fill="#F24B78"/>
<path d="M18.164 55.8766C17.9505 55.8766 17.737 55.7918 17.5663 55.6222C17.3955 55.4526 17.3101 55.2407 17.2674 54.9863C17.2674 54.4775 17.6516 54.0959 18.1213 54.0959C18.3775 54.0959 18.5909 54.1807 18.7617 54.3503C18.9325 54.5199 19.0179 54.7319 19.0606 54.9863C19.1033 55.4526 18.6763 55.8766 18.164 55.8766C18.2067 55.8766 18.2067 55.8766 18.164 55.8766Z" fill="#F24B78"/>
<path d="M13.8946 64.6098C13.6384 64.6098 13.4249 64.4402 13.4249 64.1858C13.4249 63.9315 13.5957 63.7195 13.8519 63.7195C14.108 63.7195 14.3215 63.8891 14.3215 64.1434C14.3642 64.3978 14.1507 64.6098 13.8946 64.6098Z" fill="#F24B78"/>
<path d="M13.8946 65.0766C13.6811 65.0766 13.4676 64.9918 13.2968 64.8222C13.1261 64.6526 13.0407 64.4406 12.998 64.1862C12.998 63.6775 13.3822 63.2959 13.8519 63.2959C14.3215 63.2959 14.7485 63.6775 14.7485 64.1438C14.7485 64.3982 14.6631 64.6102 14.4923 64.7798C14.4069 64.9494 14.1507 65.0342 13.8946 65.0766C13.9373 65.0766 13.8946 65.0766 13.8946 65.0766ZM13.9373 64.1862C13.8946 64.1862 13.9373 64.1862 13.9373 64.1862V64.1862Z" fill="#F24B78"/>
<path d="M13.7665 60.1162C13.5104 60.1162 13.2969 59.9466 13.2969 59.6922C13.2969 59.4378 13.4677 59.2258 13.7238 59.2258C13.98 59.2258 14.1935 59.3954 14.1935 59.6498C14.2362 59.9042 14.0227 60.1162 13.7665 60.1162Z" fill="#F24B78"/>
<path d="M13.7665 60.54C13.2969 60.54 12.9126 60.1584 12.8699 59.6921C12.8699 59.1833 13.2542 58.8018 13.7238 58.8018C14.1935 58.8018 14.6204 59.1833 14.6204 59.6497C14.6204 59.9041 14.535 60.116 14.3642 60.2856C14.2362 60.4552 14.0227 60.54 13.7665 60.54Z" fill="#F24B78"/>
<path d="M13.6384 55.5798C13.3822 55.5798 13.1688 55.4102 13.1688 55.1558C13.1688 54.9014 13.3395 54.6895 13.5957 54.6895C13.8519 54.6895 14.0653 54.859 14.0653 55.1134C14.108 55.3678 13.8946 55.5798 13.6384 55.5798Z" fill="#F24B78"/>
<path d="M13.6383 56.046C13.4249 56.046 13.2114 55.9612 13.0406 55.7917C12.8698 55.6221 12.7845 55.4101 12.7418 55.1557C12.7418 54.6469 13.126 54.2654 13.5957 54.2654C14.0653 54.2654 14.4922 54.647 14.4922 55.1133C14.4922 55.3677 14.4068 55.5797 14.2361 55.7493C14.108 55.9189 13.8945 56.0036 13.6383 56.046Z" fill="#F24B78"/>
<path d="M46.8548 10.5966C50.0569 9.40953 53.3017 8.4344 56.6318 7.67126C56.5038 7.58647 56.3757 7.45927 56.2476 7.37448C56.2476 9.53671 56.2903 11.699 56.2049 13.8612C56.1622 14.9211 56.0341 15.981 55.5218 16.9138C55.0948 17.7617 54.4544 18.4824 53.814 19.1608C52.3624 20.6871 50.8254 22.1286 49.2884 23.57C48.9041 23.9516 48.5199 24.2908 48.1356 24.6724C47.7514 25.0539 47.239 25.8171 46.6413 25.4779C46.2144 25.2235 45.8728 24.7996 45.4886 24.4604C45.0616 24.0788 44.6774 23.6972 44.2504 23.3581C42.4573 21.7046 40.6641 20.0511 38.9136 18.3976C38.9136 18.5248 38.9563 18.652 38.9563 18.7792C40.963 16.0658 43.3111 13.5644 45.8728 11.3598C46.1717 11.1054 45.7447 10.639 45.4032 10.8934C42.7988 13.1404 40.4506 15.6842 38.4013 18.44C38.3159 18.5672 38.3586 18.7368 38.444 18.8216C40.1945 20.4751 41.9449 22.0862 43.6954 23.6972C44.1223 24.0788 44.5493 24.5028 45.0189 24.8843C45.4032 25.2659 45.7874 25.6475 46.2571 25.9867C47.111 26.5802 47.7087 25.9019 48.3491 25.3083C50.0996 23.6548 51.8074 22.0014 53.5578 20.3055C54.9668 18.9064 56.3757 17.3801 56.7172 15.3451C56.9307 14.1156 56.8453 12.8437 56.8453 11.5718C56.8453 10.1727 56.8453 8.77357 56.8453 7.37448C56.8453 7.1625 56.6318 7.03531 56.4611 7.0777C53.1309 7.84085 49.8861 8.81597 46.684 10.0031C46.2998 10.1303 46.4705 10.7238 46.8548 10.5966Z" fill="#030140"/>
<path d="M52.1916 10.9785C51.8073 11.4448 51.4231 12.0808 51.4658 12.7168C51.4658 13.0135 51.5939 13.3103 51.8073 13.5223C52.1062 13.7767 52.4904 13.8615 52.832 13.7767C53.5151 13.6495 54.1555 13.0983 54.4544 12.4624C54.7532 11.8688 54.6679 11.1057 54.1128 10.6817C53.6005 10.3001 52.832 10.3001 52.4477 10.8513C52.277 11.1057 52.7039 11.3601 52.8747 11.1057C52.9601 10.9785 53.0882 10.9361 53.2162 10.9361C53.387 10.9361 53.5578 10.9785 53.7286 11.0633C53.8567 11.1481 53.9847 11.2753 54.0701 11.4448C54.1555 11.6992 54.1128 11.9112 54.0274 12.1656C53.8567 12.632 53.387 13.0983 52.9174 13.2255C52.7039 13.3103 52.4051 13.3527 52.1916 13.1831C52.1062 13.1407 52.0635 13.0559 52.0208 13.0135C51.9781 12.9287 51.9354 12.8439 51.9354 12.8015C51.8927 12.2928 52.2343 11.7416 52.5331 11.3601C52.6185 11.2753 52.6185 11.1057 52.5331 11.0209C52.4904 10.8937 52.277 10.8513 52.1916 10.9785Z" fill="#030140"/>
<path d="M49.3311 17.5075C48.9468 16.5324 48.3064 15.6844 47.2817 15.3452C46.3851 15.0485 45.0189 15.3452 45.0189 16.4476C44.9762 17.5075 45.9582 18.2706 46.4705 19.1186C46.7267 19.5849 46.9829 20.1785 46.7267 20.6872C46.5132 21.0688 46.0436 21.3232 45.6166 21.3232C44.2931 21.3232 43.7381 19.7969 43.61 18.6946C43.5673 18.2706 42.9269 18.2706 42.9696 18.6946C43.055 19.7545 43.3965 20.8144 44.2931 21.4928C45.0616 22.0439 46.129 22.1287 46.8975 21.4928C47.7514 20.772 47.4952 19.5425 46.9402 18.6946C46.5986 18.1858 44.9335 16.5324 45.9155 16.0236C46.4705 15.7268 47.1536 15.8964 47.6233 16.2356C48.1356 16.5747 48.4772 17.1259 48.7333 17.6771C48.8614 18.0586 49.5018 17.889 49.3311 17.5075Z" fill="#030140"/>
<path d="M48.2209 16.066C48.6906 15.642 49.1175 15.1332 49.4591 14.5821C49.5445 14.4549 49.5018 14.2429 49.331 14.1581C49.1602 14.0733 48.9894 14.1157 48.9041 14.2853C48.8187 14.4125 48.7333 14.5397 48.6479 14.6669C48.6052 14.7093 48.6052 14.7093 48.5625 14.7517C48.5198 14.7941 48.6052 14.7093 48.5625 14.7517C48.5625 14.7517 48.5625 14.7941 48.5198 14.7941C48.4771 14.8365 48.4344 14.9213 48.349 14.9637C48.1356 15.1756 47.9221 15.43 47.7086 15.5996C47.5805 15.7268 47.5805 15.9388 47.7086 16.066C47.9221 16.1932 48.0929 16.1932 48.2209 16.066Z" fill="#030140"/>
<path d="M44.0369 20.8989C43.6953 21.2804 43.3111 21.662 42.9695 22.0436C42.8415 22.1707 42.8415 22.3827 42.9695 22.5099C43.0976 22.6371 43.3111 22.6371 43.4392 22.5099C43.7807 22.1283 44.165 21.7468 44.5065 21.3652C44.6346 21.238 44.6346 21.026 44.5065 20.8989C44.3785 20.7717 44.165 20.7717 44.0369 20.8989Z" fill="#030140"/>
<path d="M23.0312 90.8114C25.849 89.3275 27.9837 86.5294 28.4107 83.3496C28.8376 80.2122 27.5141 76.9053 24.9524 74.9974C23.4581 73.8951 21.6222 73.3016 19.8291 73.0472C18.0786 72.8352 16.3281 72.9624 14.7484 73.7679C12.016 75.1246 10.1801 78.05 10.0093 81.0178C9.79585 84.7063 11.9306 88.2252 14.9619 90.2179C15.3034 90.4299 15.645 89.8787 15.3034 89.6667C12.7845 88.0132 10.9059 85.2575 10.6497 82.2049C10.4363 79.3643 11.7598 76.4813 14.108 74.8702C16.8404 72.9624 20.6403 73.3016 23.4581 74.7855C26.1905 76.2269 27.8556 79.1523 27.8129 82.2049C27.7702 85.5966 25.6355 88.6492 22.6469 90.2179C22.348 90.4299 22.6896 90.981 23.0312 90.8114Z" fill="#030140"/>
<path d="M55.0947 90.8114C57.9126 89.3275 60.0473 86.5294 60.4743 83.3496C60.9012 80.2122 59.5777 76.9053 57.016 74.9974C55.5217 73.8951 53.6858 73.3016 51.8927 73.0472C50.1422 72.8352 48.3917 72.9624 46.812 73.7679C44.0796 75.1246 42.2437 78.05 42.0729 81.0178C41.8594 84.7063 43.9942 88.2252 47.0255 90.2179C47.367 90.4299 47.7086 89.8787 47.367 89.6667C44.8481 88.0132 42.9695 85.2575 42.7133 82.2049C42.4999 79.3643 43.8234 76.4813 46.1716 74.8702C48.904 72.9624 52.7039 73.3016 55.5217 74.7855C58.2541 76.2269 59.9192 79.1523 59.8765 82.2049C59.8338 85.5966 57.6991 88.6492 54.7105 90.2179C54.4116 90.4299 54.7532 90.981 55.0947 90.8114Z" fill="#030140"/>
</svg>
