<svg width="94" height="132" viewBox="0 0 94 132" fill="none" xmlns="http://www.w3.org/2000/svg">
<path d="M3.83679 4.27661C32.8208 4.78157 53.2915 5.28654 78.5606 5.10619C80.1085 5.10619 81.6951 5.10619 83.0882 5.71936C87.3448 7.55887 86.9966 13.2217 85.9904 17.4778C85.7582 18.5238 85.4487 19.678 84.5199 20.3633C83.6686 20.9764 82.5077 21.0486 81.3855 21.0847C56.039 21.7339 30.6538 21.4093 5.34597 20.1469C4.41725 20.1108 3.44982 20.0387 2.63719 19.6058C1.39888 18.9566 0.779734 17.586 0.470158 16.2875C-0.381175 12.9692 -0.0715981 9.43444 1.36019 6.29646" fill="#F24B78"/>
<path d="M85.913 21.5177C85.7583 31.4726 85.8357 41.4276 85.9517 51.3826C86.0678 61.4097 86.2613 71.4008 86.3774 81.4279C86.4548 87.1989 86.4935 92.9338 86.4935 98.7048L87.3835 97.8752C77.2062 98.0556 67.0289 98.4163 56.8516 98.8852C46.9065 99.354 37.0001 99.8951 27.055 100.436C21.3665 100.725 15.6781 101.013 9.98961 101.302L10.8796 102.131C10.8409 91.6714 10.8022 81.2475 10.8022 70.7876C10.7636 60.3276 10.7249 49.9038 10.7249 39.4438L10.6862 21.8062C10.6862 20.7602 8.94479 20.7602 8.94479 21.8062C8.98349 32.2661 9.02219 42.69 9.02219 53.15C9.06088 63.6099 9.09958 74.0338 9.09958 84.4937C9.09958 90.3729 9.13828 96.2521 9.13828 102.131C9.13828 102.564 9.52525 102.961 10.0283 102.961C20.0508 102.492 30.0733 101.951 40.0571 101.41C50.041 100.869 59.9861 100.364 69.9699 100.003C75.7744 99.7869 81.579 99.6426 87.3835 99.5344C87.8479 99.5344 88.2736 99.1737 88.2736 98.7048C88.2736 88.4973 88.1188 78.2899 87.964 68.0824C87.8092 58.1274 87.6544 48.2085 87.6157 38.2536C87.6157 32.6629 87.6157 27.1083 87.6931 21.5177C87.6931 20.4717 85.9517 20.4717 85.913 21.5177Z" fill="#030140"/>
<path d="M9.56392 2.04045C16.2198 2.14865 22.837 2.29293 29.4929 2.40114C35.4909 2.50934 41.4502 2.61755 47.4482 2.68968C53.2141 2.76182 58.9799 2.83396 64.7845 2.87003C70.7051 2.9061 76.6257 2.9061 82.5464 2.87003C85.1004 2.87003 88.1961 2.47327 90.0536 4.49312C91.408 5.97194 91.5628 8.17214 91.5241 10.0116C91.4854 11.0937 91.3306 12.1397 91.1371 13.1857C90.9436 14.2317 90.7888 15.6023 89.9762 16.3958C89.0475 17.3336 87.3061 17.1533 86.1065 17.1893C84.3264 17.2254 82.5851 17.2615 80.805 17.2975C73.7622 17.4418 66.758 17.4779 59.7152 17.4779C52.6336 17.4779 45.5908 17.3697 38.5092 17.2254C31.4664 17.0451 24.3849 16.8286 17.342 16.504C15.562 16.4319 13.8206 16.3597 12.0405 16.2515C10.6861 16.1794 9.09956 16.2876 8.13214 15.2416C7.2808 14.3399 7.00993 12.9332 6.77774 11.779C6.54556 10.3723 6.54556 8.89351 6.70035 7.45076C6.89383 6.04408 7.3195 4.67347 7.89996 3.37499C8.09344 2.97824 7.70647 2.47327 7.2808 2.36507C6.77774 2.22079 6.39077 2.50934 6.19729 2.94217C4.92029 5.7916 4.57202 8.92958 5.03638 11.9594C5.22987 13.2578 5.57814 14.7006 6.39077 15.8187C7.3195 17.1172 8.67389 17.6222 10.2992 17.7664C12.0792 17.9107 13.8593 17.9468 15.6393 18.0189C17.4581 18.091 19.2769 18.1632 21.1343 18.2714C24.7718 18.4157 28.3706 18.5599 32.0082 18.6321C39.2832 18.8485 46.5969 18.9928 53.8719 19.0288C61.147 19.101 68.4607 19.0649 75.7357 18.9567C79.4119 18.9206 83.0494 18.8485 86.7256 18.7403C88.1961 18.7042 89.7827 18.6681 90.9436 17.6943C92.0271 16.7926 92.3367 15.3859 92.6076 14.1596C93.4976 10.2281 94.0394 4.31278 89.5505 2.04045C88.1187 1.31907 86.4548 1.1748 84.8682 1.1748C83.2816 1.1748 81.695 1.21087 80.1085 1.21087C77.0514 1.21087 73.9944 1.24693 70.9373 1.21087C64.978 1.21087 59.0186 1.1748 53.0593 1.10266C46.9452 1.03052 40.8311 0.922316 34.7169 0.81411C28.0998 0.705904 21.4826 0.561629 14.9041 0.453422C13.124 0.417353 11.344 0.381284 9.60262 0.345215C8.44171 0.381284 8.44171 2.00438 9.56392 2.04045Z" fill="#030140"/>
<path d="M40.9858 101.049C40.328 104.187 39.6701 107.325 39.0123 110.463C37.9675 115.441 36.9227 120.454 35.8778 125.432C35.6457 126.55 35.4135 127.704 35.1813 128.822C34.9878 129.832 36.6518 130.265 36.8453 129.255C37.5031 126.117 38.161 122.979 38.8188 119.841C39.8636 114.864 40.9084 109.85 41.9533 104.872C42.1854 103.754 42.4176 102.6 42.6498 101.482C42.882 100.472 41.1793 100.039 40.9858 101.049Z" fill="#030140"/>
<path d="M71.3629 130.121C71.0921 128.931 70.6277 127.776 70.2794 126.622C69.5055 124.169 68.6929 121.753 67.8802 119.3C66.1389 113.998 64.3588 108.66 62.6174 103.358C62.2305 102.168 61.8435 100.977 61.4178 99.787C61.0696 98.777 59.4056 99.2099 59.7539 100.22C60.8374 103.538 61.9596 106.82 63.0431 110.139C64.8232 115.549 66.6032 120.923 68.3446 126.334C68.809 127.74 69.3507 129.147 69.6603 130.59C69.8925 131.6 71.5951 131.167 71.3629 130.121Z" fill="#030140"/>
<path d="M35.994 42.3654C38.8575 49.1102 41.102 56.1076 42.6885 63.2131C48.2609 60.6162 54.0267 58.4881 59.9861 56.865C58.4769 53.8713 56.929 50.8415 54.8007 48.1725C52.6723 45.5034 49.8475 43.231 46.4421 42.185C43.2303 41.2112 39.7476 41.3915 36.3809 41.6079" fill="#F24B78"/>
<path d="M36.0714 45.4313C27.8676 46.2609 20.9795 52.4286 19.4317 59.967C18.619 63.9706 19.1995 68.1186 20.9408 71.8697C22.6822 75.5848 25.6232 78.7228 29.222 80.959C32.7821 83.1592 37.0001 84.4938 41.2568 84.8184C45.5908 85.143 50.1957 84.3134 53.5624 81.6443C56.929 78.9392 59.0187 74.7552 59.9087 70.7516C60.7987 66.7479 60.5665 62.4918 59.1347 58.6325C56.426 51.3105 49.4218 45.7199 41.3728 44.0968C40.4054 43.9164 39.3993 43.7721 38.3932 43.6639C37.8127 43.6279 37.8127 44.4935 38.3932 44.5296C46.21 45.1788 53.4463 49.7235 57.0451 56.2159C60.8761 63.1771 60.2183 72.0861 55.3811 78.4703C54.0654 80.2016 52.4402 81.6083 50.4279 82.5821C48.5705 83.4478 46.4808 83.8806 44.3912 84.0249C40.2893 84.2774 36.1101 83.4117 32.4338 81.7165C28.7576 80.0212 25.5458 77.4964 23.3401 74.2863C21.0569 71.0041 19.896 67.0726 19.9734 63.1411C20.0895 59.3899 21.4439 55.7109 23.9592 52.7533C26.3197 49.976 29.609 47.8479 33.2465 46.8741C34.1365 46.6216 35.0652 46.4773 36.0327 46.3691C36.6518 46.2248 36.6518 45.3592 36.0714 45.4313Z" fill="#030140"/>
<path d="M35.8392 46.9821C37.0388 51.5629 38.2384 56.1436 39.4767 60.7243C39.6315 61.2654 39.7863 61.8425 39.9024 62.3835C40.0571 62.9606 40.2119 63.5377 40.2119 64.1148C40.1345 65.1247 39.4767 66.0264 38.8962 66.8921L34.8718 72.8795C33.3626 75.1158 31.8921 77.316 30.3829 79.5522C30.0733 80.0211 30.8473 80.454 31.1955 79.9851C33.943 75.9093 36.7292 71.7975 39.4767 67.7217C40.0571 66.856 40.715 65.9904 41.0246 64.9805C41.3341 63.8984 41.0246 62.8524 40.7537 61.8064C40.1345 59.4619 39.5154 57.1535 38.8962 54.8091C38.1997 52.14 37.4644 49.4348 36.7679 46.7657C36.6131 46.1886 35.6844 46.4411 35.8392 46.9821Z" fill="#030140"/>
<path d="M42.3016 65.0887C47.2548 62.8885 52.1693 60.6883 57.1225 58.4881C57.6642 58.2356 57.1999 57.5142 56.6581 57.7306C51.7049 59.9308 46.7904 62.131 41.8372 64.3312C41.2954 64.5837 41.7598 65.3051 42.3016 65.0887Z" fill="#030140"/>
<path d="M49.8475 54.1238C51.6275 50.1923 53.6398 46.369 55.8842 42.69C56.1164 42.2932 56.3486 41.7882 56.8129 41.5357C57.2386 41.3193 57.7804 41.3193 58.2834 41.2833C59.483 41.2472 60.7213 41.1751 61.9209 41.1751C64.2814 41.1029 66.642 41.0669 69.0025 41.0669C71.6726 41.0669 74.3814 41.0669 77.0514 41.139C77.6319 41.139 77.6319 40.2733 77.0514 40.2733C72.0208 40.1651 67.0289 40.2012 61.9983 40.3094C60.76 40.3455 59.5217 40.3815 58.2834 40.4537C57.316 40.4898 56.3486 40.5619 55.6907 41.3554C54.9942 42.185 54.5298 43.231 53.988 44.1327C53.4076 45.1426 52.8271 46.1526 52.2854 47.1625C51.0858 49.3627 50.0023 51.635 48.9574 53.9074C48.6866 54.4123 49.6153 54.6287 49.8475 54.1238Z" fill="#030140"/>
<path d="M68.3833 38.1814C69.6216 36.5944 70.8986 35.0074 72.1369 33.4203C72.3691 33.1318 72.1756 32.735 71.9047 32.5547C71.5565 32.3744 71.2082 32.5186 70.976 32.7711C69.7377 34.3581 68.4607 35.9452 67.2224 37.5322C66.9902 37.8207 67.1837 38.2175 67.4546 38.3978C67.8029 38.6142 68.1511 38.47 68.3833 38.1814Z" fill="#030140"/>
<path d="M66.5259 34.0334C67.3772 34.0334 67.4159 32.771 66.5259 32.771C65.6745 32.771 65.6745 34.0334 66.5259 34.0334Z" fill="#030140"/>
<path d="M72.253 39.3715C73.1043 39.3715 73.143 38.1091 72.253 38.1091C71.4017 38.1091 71.4017 39.3715 72.253 39.3715Z" fill="#030140"/>
<path d="M56.1938 34.43C56.6195 33.7808 57.0451 33.1676 57.5095 32.5184C57.2386 32.4462 56.929 32.3741 56.6582 32.3019C56.7742 34.3218 56.6968 36.3777 56.4647 38.3976C56.3873 38.9386 57.316 38.9386 57.3934 38.3976C57.6256 36.3777 57.6643 34.3579 57.5869 32.3019C57.5482 31.8691 56.9677 31.7248 56.7355 32.0855C56.3099 32.7348 55.8842 33.3479 55.4199 33.9972C55.0716 34.4661 55.8455 34.8989 56.1938 34.43Z" fill="#030140"/>
<path d="M60.1409 34.5385C60.2957 34.1778 60.4891 33.8532 60.76 33.5647C60.8761 33.4204 61.0309 33.3122 61.1857 33.204C61.3792 33.0597 61.4179 33.1318 61.5727 33.3122C61.9983 33.7811 62.037 34.4664 61.9596 35.0435C61.6888 36.5584 60.4504 37.7126 59.7926 39.0832C59.6378 39.4078 59.9087 39.8406 60.3344 39.7324C62.1144 39.2635 63.9332 38.7946 65.7132 38.3618C66.2937 38.2175 66.0615 37.3879 65.4811 37.5322C63.6623 38.0011 61.8822 38.47 60.1022 38.9028C60.2957 39.1192 60.4505 39.3357 60.6439 39.5521C61.4566 37.8208 63.1979 36.3059 62.9271 34.25C62.8497 33.5286 62.3466 32.3022 61.4179 32.3022C60.9148 32.3022 60.4505 32.7351 60.1409 33.0597C59.7926 33.4564 59.5217 33.8893 59.3282 34.3582C59.0574 34.8271 59.9474 35.0435 60.1409 34.5385Z" fill="#030140"/>
<path d="M68.2672 90.409C71.8273 89.7598 75.4262 89.5434 79.025 89.7598C79.7989 89.7959 79.7989 88.6777 79.025 88.6056C75.3101 88.4252 71.5951 88.6416 67.9189 89.327C67.1837 89.4352 67.4933 90.5533 68.2672 90.409Z" fill="#030140"/>
<path d="M67.3772 85.7922C70.6664 85.6479 73.9557 85.5036 77.2449 85.3594C78.0188 85.3233 78.0188 84.1691 77.2449 84.2052C73.9557 84.3494 70.6664 84.4937 67.3772 84.638C66.6032 84.7101 66.6032 85.8282 67.3772 85.7922Z" fill="#030140"/>
<path d="M62.811 85.7922C63.5849 85.7922 63.5849 84.6379 62.811 84.6379C62.037 84.6379 61.9983 85.7922 62.811 85.7922Z" fill="#030140"/>
<path d="M63.8557 91.0583C64.6297 91.0583 64.6297 89.9041 63.8557 89.9041C63.0818 89.9041 63.0818 91.0583 63.8557 91.0583Z" fill="#030140"/>
<path d="M63.5075 81.8246C64.2814 81.8246 64.2814 80.6704 63.5075 80.6704C62.7336 80.7065 62.7336 81.8246 63.5075 81.8246Z" fill="#030140"/>
<path d="M67.0289 81.1754H76.5484C77.3223 81.1754 77.3223 80.0212 76.5484 80.0212H67.0289C66.255 80.0212 66.255 81.1754 67.0289 81.1754Z" fill="#030140"/>
</svg>
