<svg width="156" height="131" viewBox="0 0 156 131" fill="none" xmlns="http://www.w3.org/2000/svg">
<path d="M61.2293 70.4466C62.5281 70.407 63.8269 70.3673 65.1257 70.3277C68.235 70.2483 71.3836 70.1294 74.4928 70.0501C78.2711 69.9311 82.0494 69.8121 85.8277 69.6932C89.0944 69.6139 92.3217 69.4949 95.5884 69.4156C96.651 69.3759 97.753 69.3363 98.8157 69.3363C99.3273 69.3363 99.8783 69.3759 100.351 69.2966C100.39 69.2966 100.39 69.2966 100.429 69.2966C100.233 69.0587 100.075 68.8207 99.8783 68.5828C99.6815 69.4949 99.2486 70.3673 98.6582 71.1208C97.5169 72.5484 95.9819 73.0243 94.2502 73.1036C91.3771 73.1829 88.5434 73.3018 85.6703 73.4208C81.8133 73.5794 77.9562 73.6984 74.0599 73.857C71.2655 73.976 68.4317 74.0553 65.6374 74.1743C65.2044 74.1743 64.7321 74.1743 64.2992 74.2536C64.0631 74.2932 63.945 74.3329 63.5908 74.2932C63.2366 74.2932 62.843 74.1743 62.5675 73.976C62.0558 73.6191 61.8591 72.9846 61.741 72.4294C61.5836 71.8346 61.5048 71.2397 61.5836 70.6449C61.6229 70.4466 61.6229 70.288 61.7016 70.0897C61.9771 69.4156 60.8751 69.0983 60.639 69.7725C60.3635 70.5259 60.4422 71.4777 60.5603 72.2311C60.7964 73.5001 61.3474 74.7295 62.6068 75.2053C63.2366 75.4433 64.0237 75.4829 64.6534 75.2846C64.7321 75.245 64.4173 75.2846 64.6141 75.2846C64.6928 75.2846 64.7715 75.2846 64.8896 75.2846C67.3691 75.2053 69.8486 75.0864 72.3675 75.0071C76.3426 74.8484 80.357 74.7295 84.3321 74.5708C87.5201 74.4519 90.6687 74.3329 93.8566 74.2139C94.5257 74.1743 95.1948 74.1743 95.8245 74.0553C96.8872 73.857 97.8711 73.3812 98.6976 72.6674C99.7603 71.7553 100.547 70.407 100.941 69.0587C100.98 68.9794 100.98 68.9 101.02 68.8207C101.098 68.4638 100.862 68.1069 100.469 68.1069C99.1699 68.1466 97.8711 68.1862 96.5723 68.2259C93.4631 68.3052 90.3145 68.4242 87.2052 68.5035C83.4269 68.6225 79.6486 68.7414 75.8703 68.8604C72.6036 68.9397 69.3763 69.0587 66.1097 69.138C64.5354 69.1776 62.9217 69.1776 61.3474 69.2966C61.3081 69.2966 61.3081 69.2966 61.2687 69.2966C60.5209 69.3363 60.5209 70.4466 61.2293 70.4466Z" fill="#030140"/>
<path d="M61.8984 67.7897C61.859 64.8949 61.8197 62.0396 61.7803 59.1448C61.741 57.7965 61.7409 56.4482 61.7016 55.0999C61.7016 55.0205 61.7016 54.9412 61.7016 54.9016C61.7016 54.8619 61.7016 54.8223 61.7016 54.7826C61.7016 54.5843 61.7016 54.7033 61.741 54.5447C61.859 53.8705 62.0952 53.1567 62.6855 52.6809C63.1185 52.3239 63.6695 52.2843 64.1811 52.2843C65.0076 52.3239 65.7948 52.3239 66.6213 52.2843C67.9988 52.2446 69.3369 51.967 70.6357 51.3722C71.3048 51.055 71.9345 50.6981 72.5642 50.3412C73.1152 50.0636 73.7056 49.7463 74.3353 49.786C75.3586 49.8653 76.0277 51.0946 76.5787 51.8481C77.9169 53.7119 79.3337 55.5757 81.1442 56.9637C82.1675 57.7568 83.3088 58.3913 84.5289 58.7879C85.9851 59.2241 87.5201 59.3034 89.0156 59.4223C91.3771 59.6206 94.2502 59.6206 96.2574 61.1276C97.3201 61.9207 97.9892 63.1897 98.4221 64.3793C98.6189 64.9345 98.7763 65.4897 98.855 66.0449C98.855 66.2432 98.8944 66.4414 98.8944 66.6397C98.8944 66.719 98.8944 66.838 98.8944 66.9173C98.8944 66.957 98.855 67.1552 98.8944 67.0363C98.8944 67.1552 98.855 67.2742 98.8157 67.3932C98.5795 68.0673 99.6422 68.3846 99.8783 67.7104C100.036 67.2346 100.036 66.6397 99.9964 66.1242C99.8783 64.6569 99.2879 63.2293 98.5401 61.9603C97.202 59.7396 94.8405 58.9465 92.4004 58.6292C90.9048 58.4309 89.4092 58.312 87.9136 58.193C86.4181 58.0741 85.0012 57.8758 83.6237 57.2016C81.3803 56.0913 79.6486 54.1481 78.1924 52.1257C77.602 51.3325 77.051 50.4205 76.3819 49.667C75.3586 48.5566 74.0598 48.4377 72.7217 49.0325C71.3442 49.6274 70.1634 50.4998 68.6679 50.8567C67.1329 51.2136 65.598 51.055 64.063 51.0946C62.0558 51.0946 60.8357 52.7602 60.7177 54.6636C60.6783 55.5361 60.7177 56.4085 60.757 57.2809C60.7964 60.6913 60.8751 64.1017 60.9144 67.5122V67.7501C60.7964 68.5035 61.9377 68.5035 61.8984 67.7897Z" fill="#030140"/>
<path d="M67.3297 68.2655C67.2904 68.1862 67.2904 68.1466 67.2904 68.1466C67.2117 67.9483 67.1723 67.7897 67.0936 67.5914C66.9755 67.1552 66.8968 66.6793 67.0542 66.2431C67.2904 65.6086 68.0775 65.2913 68.6679 65.0534C69.2582 64.8155 69.8486 64.6965 70.4783 64.6568C72.4462 64.5379 74.3747 64.3396 76.3426 64.1017C77.0117 64.0223 77.7201 63.943 78.3892 63.8637C78.7434 63.8241 79.0582 63.5465 78.9402 63.1499C78.3104 61.2068 76.7755 59.7395 75.4374 58.2326C75.1619 57.9153 74.8864 57.5981 74.5715 57.2808C74.4928 57.2015 74.4141 57.0825 74.3353 57.0032C74.2173 56.8843 74.3353 57.0825 74.3353 57.0032C74.296 56.805 74.1386 56.4877 74.0992 56.1705C74.0205 55.7342 74.0992 55.3773 74.4534 55.1394C75.4374 54.4653 76.4213 53.7911 77.3265 53.0773C77.8775 52.6411 77.0904 51.848 76.5394 52.2842C75.6735 52.9583 74.7683 53.5532 73.8631 54.1877C72.9185 54.8222 72.7611 55.8929 73.0759 56.9239C73.2333 57.4791 73.4695 57.7964 73.8631 58.1929C74.5715 58.986 75.2799 59.7792 75.9884 60.6119C76.7362 61.4447 77.4839 62.3568 77.8382 63.4672C78.0349 63.2292 78.1924 62.9913 78.3892 62.7534C76.5787 62.9913 74.7289 63.2292 72.9185 63.3878C71.8952 63.5068 70.8719 63.4672 69.888 63.6258C69.1008 63.7447 68.353 63.9827 67.6446 64.3396C66.9361 64.6965 66.3064 65.0931 66.0309 65.8465C65.6767 66.7983 65.9129 67.9879 66.3458 68.9C66.7 69.4949 67.6446 68.9397 67.3297 68.2655Z" fill="#030140"/>
<path d="M59.2221 59.0655C60.206 59.2241 61.19 59.3035 62.1739 59.3431C63.4727 59.3431 65.047 59.2638 65.7948 58.0345C66.3458 57.0827 66.3851 55.8137 66.2671 54.743C66.2671 54.7034 66.2671 54.6637 66.2671 54.5844C66.2277 54.2275 66.2671 54.4654 66.2671 54.5448C66.2671 54.4654 66.2671 54.3465 66.2671 54.2672C66.2671 53.7913 66.2671 53.3551 66.2671 52.8792L66.3064 49.9843C66.3064 49.2705 65.2044 49.2705 65.2044 49.9843C65.2044 50.7378 65.2044 51.4913 65.1651 52.2447C65.1651 52.9982 65.0863 53.7913 65.1257 54.5448C65.1651 54.981 65.1257 54.4654 65.1257 54.7034C65.1257 54.862 65.1651 55.0603 65.1651 55.2189C65.2044 55.7344 65.165 56.2896 65.047 56.8051C64.9289 57.281 64.7321 57.7569 64.2598 57.9552C63.7482 58.1931 63.1578 58.1931 62.6068 58.2327C61.8984 58.2724 61.19 58.1931 60.4815 58.1534C60.0879 58.1138 59.8518 58.0741 59.4976 58.0345C58.8285 57.8362 58.5136 58.9466 59.2221 59.0655Z" fill="#030140"/>
<path d="M78.8615 57.2412C79.7273 56.7257 80.5932 56.2102 81.459 55.6946C81.6952 55.536 81.8133 55.1791 81.6558 54.9412C81.4984 54.7032 81.1442 54.5843 80.908 54.7429L78.3105 56.2895C78.0743 56.4481 77.9562 56.805 78.1137 57.0429C78.2711 57.2809 78.586 57.3998 78.8615 57.2412Z" fill="#030140"/>
<path d="M82.1281 61.4844C83.3088 60.5723 84.4502 59.6206 85.6309 58.7085C85.867 58.5102 85.8277 58.1137 85.6309 57.9154C85.3948 57.6774 85.0799 57.7171 84.8438 57.9154C83.663 58.8275 82.5217 59.7792 81.341 60.6913C81.1048 60.8896 81.1442 61.2861 81.341 61.4844C81.6165 61.7223 81.892 61.6827 82.1281 61.4844Z" fill="#030140"/>
<path d="M80.4751 59.7397C81.4984 59.1052 82.5217 58.4707 83.5844 57.8362C83.8205 57.6776 83.9386 57.3207 83.7811 57.0828C83.6237 56.8448 83.2695 56.7259 83.0333 56.8845C82.0101 57.519 80.9474 58.1535 79.9241 58.788C79.688 58.9466 79.5699 59.3035 79.7273 59.5414C79.8848 59.7794 80.1996 59.8983 80.4751 59.7397Z" fill="#030140"/>
<path d="M76.6575 86.6661C76.382 86.6661 76.1458 86.4678 76.1458 86.1505C76.1458 85.873 76.3426 85.635 76.6575 85.635C76.933 85.635 77.1691 85.8333 77.1691 86.1505C77.1691 86.4281 76.933 86.6661 76.6575 86.6661Z" fill="#F24B78"/>
<path d="M76.6574 87.1815C76.3819 87.1815 76.1458 87.1022 75.9883 86.9039C75.7915 86.7056 75.6735 86.4677 75.6735 86.1901C75.6735 85.6349 76.1064 85.1591 76.6574 85.1591C77.2084 85.1194 77.6807 85.5953 77.6807 86.1504C77.6807 86.428 77.602 86.666 77.4052 86.8642C77.2084 87.0625 76.9329 87.1815 76.6574 87.1815ZM76.618 86.1504C76.6574 86.1901 76.6574 86.1504 76.6574 86.1504H76.1064H76.618Z" fill="#F24B78"/>
<path d="M76.5 81.5108C76.2245 81.5108 75.9883 81.3125 75.9883 80.9953C75.9883 80.7177 76.1851 80.4797 76.5 80.4797C76.7755 80.4797 77.0116 80.678 77.0116 80.9953C77.0116 81.2729 76.7755 81.5108 76.5 81.5108Z" fill="#F24B78"/>
<path d="M76.5 81.9865C76.2245 81.9865 75.9883 81.9072 75.7915 81.709C75.5948 81.5107 75.4767 81.2727 75.4767 80.9952C75.4767 80.7176 75.5554 80.4796 75.7522 80.2814C75.949 80.0831 76.1851 79.9641 76.4606 79.9641C76.7361 79.9641 76.9723 80.0434 77.1691 80.2417C77.3659 80.44 77.4839 80.6779 77.4839 80.9555C77.4839 81.2331 77.4052 81.471 77.2084 81.6693C77.051 81.8676 76.7755 81.9865 76.5 81.9865ZM76.4606 80.9555C76.5 80.9952 76.5 80.9952 76.4606 80.9555V80.9555Z" fill="#F24B78"/>
<path d="M76.3426 76.3157C76.0671 76.3157 75.8309 76.1175 75.8309 75.8002C75.8309 75.5226 76.0277 75.2847 76.3426 75.2847C76.6181 75.2847 76.8542 75.483 76.8542 75.8002C76.8542 76.0778 76.6181 76.3157 76.3426 76.3157Z" fill="#F24B78"/>
<path d="M76.3426 76.8313C75.7916 76.8313 75.3586 76.3951 75.3193 75.8399C75.3193 75.2847 75.7522 74.8088 76.3032 74.8088C76.5787 74.8088 76.8149 74.8881 77.0117 75.0864C77.2084 75.2847 77.3265 75.5226 77.3265 75.8002C77.3659 76.3554 76.9329 76.7916 76.3426 76.8313ZM76.3032 75.8002L76.3426 76.3157L76.3032 75.8002C76.3426 75.8399 76.3426 75.8002 76.3426 75.8002H75.7916H76.3032Z" fill="#F24B78"/>
<path d="M71.5016 86.8245C71.2261 86.8245 70.99 86.6262 70.99 86.309C70.99 86.0314 71.1868 85.7935 71.5016 85.7935C71.7771 85.7935 72.0133 85.9917 72.0133 86.309C72.0133 86.5866 71.8165 86.8245 71.5016 86.8245Z" fill="#F24B78"/>
<path d="M71.5016 87.3401C70.9506 87.3401 70.5177 86.9039 70.4783 86.3487C70.4783 85.7935 70.9113 85.3176 71.4623 85.3176C71.7378 85.3176 71.9739 85.3969 72.1707 85.5952C72.3675 85.7935 72.4856 86.0314 72.4856 86.309C72.4856 86.5866 72.4068 86.8246 72.2101 87.0228C72.0526 87.2211 71.8165 87.3401 71.5016 87.3401C71.541 87.3401 71.5016 87.3401 71.5016 87.3401ZM71.5016 86.309C71.541 86.3487 71.541 86.309 71.541 86.309H70.99H71.5016Z" fill="#F24B78"/>
<path d="M71.3835 81.6692C71.108 81.6692 70.8719 81.471 70.8719 81.1537C70.8719 80.8761 71.0687 80.6382 71.3835 80.6382C71.659 80.6382 71.8952 80.8365 71.8952 81.1537C71.8558 81.4313 71.659 81.6692 71.3835 81.6692Z" fill="#F24B78"/>
<path d="M71.3442 82.1451C71.0687 82.1451 70.8326 82.0658 70.6358 81.8675C70.439 81.6692 70.3209 81.4313 70.3209 81.1537C70.3209 80.5985 70.7539 80.1227 71.3048 80.1227C71.8558 80.083 72.3281 80.5589 72.3281 81.1141C72.3675 81.6692 71.9346 82.1451 71.3442 82.1451C71.3836 82.1451 71.3442 82.1451 71.3442 82.1451ZM71.3442 81.1537L71.3836 81.6692L71.3442 81.1537C71.3836 81.1934 71.3836 81.1537 71.3836 81.1537H70.8326H71.3442Z" fill="#F24B78"/>
<path d="M71.2261 76.4744C70.9506 76.4744 70.7145 76.2761 70.7145 75.9589C70.7145 75.6416 70.9113 75.4434 71.2261 75.4434C71.5016 75.4434 71.7378 75.6416 71.7378 75.9589C71.7378 76.2365 71.5016 76.4744 71.2261 76.4744Z" fill="#F24B78"/>
<path d="M71.1868 76.99C70.9113 76.99 70.6751 76.9107 70.5177 76.7124C70.3209 76.5141 70.2028 76.2762 70.2028 75.9986C70.2028 75.721 70.2815 75.483 70.4783 75.2848C70.6751 75.0865 70.9113 74.9675 71.1868 74.9675C71.4623 74.9675 71.6984 75.0468 71.8952 75.2451C72.092 75.4434 72.2101 75.6813 72.2101 75.9589C72.2101 76.2365 72.1313 76.4744 71.9346 76.6727C71.7378 76.871 71.5016 76.99 71.1868 76.99C71.2261 76.99 71.1868 76.99 71.1868 76.99ZM71.1868 75.9589C71.2261 75.9986 71.2261 75.9986 71.1868 75.9589V75.9589Z" fill="#F24B78"/>
<path d="M66.3851 86.9832C66.1096 86.9832 65.8735 86.7849 65.8735 86.4677C65.8735 86.1901 66.0703 85.9521 66.3851 85.9521C66.6606 85.9521 66.8968 86.1504 66.8968 86.4677C66.8968 86.7453 66.6606 86.9832 66.3851 86.9832Z" fill="#F24B78"/>
<path d="M66.3851 87.4988C66.1096 87.4988 65.8735 87.4195 65.6767 87.2212C65.4799 87.0229 65.3618 86.785 65.3618 86.5074C65.3618 86.2298 65.4405 85.9918 65.6373 85.7936C65.8341 85.5953 66.0702 85.4763 66.3457 85.4763C66.6213 85.4763 66.8574 85.5556 67.0542 85.7539C67.251 85.9522 67.369 86.1901 67.369 86.4677C67.4084 87.0229 66.9361 87.4591 66.3851 87.4988ZM66.3851 86.4677H66.3457L66.3851 86.9832V86.4677C66.3851 86.5074 66.3851 86.5074 66.3851 86.4677Z" fill="#F24B78"/>
<path d="M66.2277 81.8279C65.9522 81.8279 65.7161 81.6296 65.7161 81.3124C65.7161 81.0348 65.9128 80.7969 66.2277 80.7969C66.5032 80.7969 66.7394 80.9951 66.7394 81.3124C66.7394 81.59 66.5032 81.8279 66.2277 81.8279Z" fill="#F24B78"/>
<path d="M66.2277 82.3038C65.9522 82.3038 65.7161 82.2245 65.5586 82.0262C65.3618 81.8279 65.2438 81.59 65.2438 81.3124C65.2438 80.7572 65.6767 80.2814 66.2277 80.2814C66.7787 80.2417 67.251 80.7176 67.251 81.2728C67.251 81.5504 67.1723 81.7883 66.9755 81.9866C66.7787 82.1849 66.5032 82.3038 66.2277 82.3038ZM66.1884 81.3124C66.2277 81.3521 66.2277 81.3124 66.2277 81.3124H65.6767H66.1884Z" fill="#F24B78"/>
<path d="M66.0702 76.6329C65.7947 76.6329 65.5586 76.4346 65.5586 76.1173C65.5586 75.8397 65.7554 75.6018 66.0702 75.6018C66.3458 75.6018 66.5819 75.8001 66.5819 76.1173C66.5819 76.3949 66.3458 76.6329 66.0702 76.6329Z" fill="#F24B78"/>
<path d="M66.0703 77.1487C65.7948 77.1487 65.5586 77.0694 65.3619 76.8711C65.1651 76.6728 65.047 76.4349 65.047 76.1573C65.047 75.6021 65.4799 75.1262 66.0309 75.1262C66.5819 75.1262 67.0542 75.5624 67.0542 76.1176C67.0542 76.3952 66.9755 76.6331 66.7787 76.8314C66.6213 77.0297 66.3458 77.1487 66.0703 77.1487ZM66.0309 76.1176C66.0703 76.1573 66.0703 76.1176 66.0703 76.1176H65.5193H66.0309Z" fill="#F24B78"/>
<path d="M61.2293 87.1417C60.9538 87.1417 60.7177 86.9434 60.7177 86.6261C60.7177 86.3485 60.9144 86.1106 61.2293 86.1106C61.5048 86.1106 61.7409 86.3089 61.7409 86.6261C61.7409 86.9037 61.5441 87.1417 61.2293 87.1417Z" fill="#F24B78"/>
<path d="M61.2293 87.6573C60.9538 87.6573 60.7177 87.578 60.5209 87.3797C60.3241 87.1815 60.2061 86.9435 60.2061 86.6659C60.2061 86.1108 60.639 85.6349 61.19 85.6349C61.741 85.5952 62.2133 86.0711 62.2133 86.6263C62.2133 86.9039 62.1346 87.1418 61.9378 87.3401C61.7803 87.5384 61.5442 87.6177 61.2293 87.6573C61.2687 87.6573 61.2293 87.6573 61.2293 87.6573ZM61.2293 86.6263C61.2687 86.6659 61.2687 86.6263 61.2687 86.6263H60.7177H61.2293Z" fill="#F24B78"/>
<path d="M61.1112 81.9866C60.8357 81.9866 60.5996 81.7884 60.5996 81.4711C60.5996 81.1935 60.7964 80.9556 61.1112 80.9556C61.3867 80.9556 61.6229 81.1538 61.6229 81.4711C61.5835 81.709 61.3867 81.947 61.1112 81.9866Z" fill="#F24B78"/>
<path d="M61.0719 82.4624C60.5209 82.4624 60.0879 82.0262 60.0486 81.471C60.0486 80.9158 60.4815 80.4399 61.0325 80.4399C61.308 80.4399 61.5442 80.5193 61.7409 80.7175C61.9377 80.9158 62.0558 81.1537 62.0558 81.4313C62.0558 81.7089 61.9771 81.9469 61.7803 82.1451C61.6229 82.3434 61.3867 82.4624 61.0719 82.4624C61.1112 82.4624 61.0719 82.4624 61.0719 82.4624ZM61.0719 81.471C61.1112 81.5106 61.1112 81.471 61.1112 81.471H61.0719Z" fill="#F24B78"/>
<path d="M60.9538 76.7916C60.6783 76.7916 60.4421 76.5933 60.4421 76.276C60.4421 75.9984 60.6389 75.7605 60.9538 75.7605C61.2293 75.7605 61.4654 75.9588 61.4654 76.276C61.4654 76.5536 61.2293 76.7916 60.9538 76.7916Z" fill="#F24B78"/>
<path d="M60.9145 77.3073C60.3635 77.3073 59.9305 76.871 59.8912 76.3158C59.8912 75.7607 60.3241 75.2848 60.8751 75.2848C61.4261 75.2451 61.8984 75.721 61.8984 76.2762C61.9377 76.7917 61.5048 77.2676 60.9145 77.3073C60.9538 77.3073 60.9145 77.3073 60.9145 77.3073ZM60.9145 76.2762L60.9538 76.7917L60.9145 76.2762C60.9538 76.3158 60.9538 76.2762 60.9538 76.2762H60.4028H60.9145Z" fill="#F24B78"/>
<path d="M56.1128 87.3003C55.8373 87.3003 55.6012 87.1021 55.6012 86.7848C55.6012 86.5072 55.798 86.2693 56.1128 86.2693C56.3883 86.2693 56.6245 86.4676 56.6245 86.7848C56.6245 87.0624 56.3883 87.3003 56.1128 87.3003Z" fill="#F24B78"/>
<path d="M56.1129 87.8159C55.5619 87.8159 55.129 87.3797 55.0896 86.8245C55.0896 86.2693 55.5225 85.7935 56.0735 85.7935C56.349 85.7935 56.5852 85.8728 56.782 86.0711C56.9787 86.2693 57.0968 86.5073 57.0968 86.7848C57.1362 87.3004 56.6639 87.7762 56.1129 87.8159ZM56.0735 86.7848L56.1129 87.3004L56.0735 86.7848C56.1129 86.8245 56.1129 86.7848 56.1129 86.7848H55.5619H56.0735Z" fill="#F24B78"/>
<path d="M55.9554 82.1451C55.6799 82.1451 55.4438 81.9468 55.4438 81.6295C55.4438 81.3519 55.6406 81.114 55.9554 81.114C56.2309 81.114 56.4671 81.3123 56.4671 81.6295C56.4671 81.8675 56.2309 82.1054 55.9554 82.1451Z" fill="#F24B78"/>
<path d="M55.9554 82.6211C55.6799 82.6211 55.4438 82.5418 55.247 82.3435C55.0502 82.1452 54.9321 81.9073 54.9321 81.6297C54.9321 81.0745 55.3651 80.5986 55.9161 80.5986C56.4671 80.5986 56.9394 81.0348 56.9394 81.59C56.9394 81.8676 56.8607 82.1055 56.6639 82.3038C56.5064 82.5021 56.2309 82.6211 55.9554 82.6211ZM55.9161 81.6297L55.9554 82.1452L55.9161 81.6297C55.9554 81.6693 55.9554 81.6297 55.9554 81.6297H55.9161Z" fill="#F24B78"/>
<path d="M55.798 76.9502C55.5225 76.9502 55.2864 76.752 55.2864 76.4347C55.2864 76.1571 55.4832 75.9192 55.798 75.9192C56.0735 75.9192 56.3097 76.1175 56.3097 76.4347C56.3097 76.7123 56.0735 76.9502 55.798 76.9502Z" fill="#F24B78"/>
<path d="M55.798 77.4658C55.247 77.4658 54.8141 77.0296 54.7747 76.4744C54.7747 75.9192 55.2077 75.4434 55.7587 75.4434C56.0342 75.4434 56.2703 75.5227 56.4671 75.7209C56.6639 75.9192 56.7819 76.1572 56.7819 76.4348C56.7819 76.7123 56.7032 76.9503 56.5064 77.1486C56.349 77.3468 56.0735 77.4261 55.798 77.4658ZM55.7587 76.4348C55.798 76.4744 55.798 76.4348 55.798 76.4348H55.7587Z" fill="#F24B78"/>
<path d="M51.0358 69.1381V6.4818L43.7546 6.16455L45.5257 64.2208L7.86066 66.0053L8.05744 71.9537C8.05744 71.9537 50.5241 69.1381 51.0358 69.1381Z" fill="#F24B78"/>
<path d="M47.3362 65.5294V59.3034V44.3531V26.27V10.6456C47.3362 8.10765 47.4149 5.56967 47.3362 3.03169C47.3362 2.99204 47.3362 2.95238 47.3362 2.91273C47.3362 2.51617 47.0213 2.23857 46.6671 2.23857C45.1715 2.15926 43.6759 2.11961 42.1803 2.04029C38.5988 1.88167 34.9779 1.72305 31.3964 1.56442C27.0277 1.36614 22.6984 1.16787 18.3297 0.969586C14.5514 0.810962 10.7731 0.612682 7.03415 0.454058C5.22371 0.374746 3.33455 0.176467 1.52411 0.216123C1.48475 0.216123 1.48475 0.216123 1.44539 0.216123C1.09118 0.216123 0.736961 0.533369 0.776318 0.890272C0.855033 3.15066 0.933749 5.37139 1.01246 7.63177C1.20925 13.025 1.36668 18.4182 1.56347 23.8114C1.79961 30.2753 1.9964 36.7789 2.23254 43.2428C2.42933 48.8739 2.62612 54.505 2.8229 60.1362C2.90162 62.8724 2.94098 65.6087 3.09841 68.3053C3.09841 68.345 3.09841 68.3846 3.09841 68.4243C3.09841 68.7812 3.41327 69.1381 3.76748 69.0984L8.01809 68.8208C11.4028 68.5829 14.8269 68.3846 18.2117 68.1467C22.3048 67.8691 26.398 67.5915 30.5305 67.3139C34.1121 67.076 37.6936 66.838 41.2751 66.6001C43.0856 66.4811 44.8566 66.4018 46.6671 66.2432C46.7064 66.2432 46.7458 66.2432 46.7852 66.2432C47.651 66.2432 47.651 64.8552 46.7852 64.8552C45.2896 64.8552 43.794 65.0535 42.2984 65.1328C38.8743 65.3708 35.4109 65.569 31.9868 65.807C27.8936 66.0846 23.7611 66.3622 19.6679 66.6397C16.1257 66.8777 12.5835 67.1156 9.00202 67.3536C7.8213 67.4329 6.67993 67.5122 5.49921 67.5915C4.94821 67.6311 4.35785 67.5915 3.8462 67.7105C3.80684 67.7105 3.80684 67.7105 3.76748 67.7105C4.00363 67.9484 4.23977 68.1863 4.43656 68.3846C4.35785 66.1242 4.27913 63.9035 4.20042 61.6431C4.00363 56.2499 3.8462 50.8567 3.64941 45.4635C3.41327 38.9996 3.21648 32.496 2.98034 26.0321C2.78355 20.401 2.58676 14.7698 2.38997 9.1387C2.31126 7.27487 2.2719 5.4507 2.19319 3.58687C2.15383 2.71444 2.23254 1.80236 2.11447 0.969586C2.11447 0.92993 2.11447 0.890273 2.11447 0.850617C1.87833 1.08855 1.64218 1.32649 1.44539 1.52477C2.94098 1.60408 4.43656 1.64374 5.93214 1.72305C9.55302 1.88167 13.1346 2.04029 16.7554 2.19892C21.1241 2.3972 25.4534 2.59548 29.8221 2.79376C33.6004 2.95238 37.3787 3.15066 41.1177 3.30928C42.3771 3.34894 43.6366 3.42825 44.8566 3.46791C45.447 3.50756 46.0374 3.58687 46.6277 3.54722C46.6671 3.54722 46.6671 3.54722 46.7064 3.54722C46.4703 3.30928 46.2341 3.07135 46.0374 2.87307V9.1387V24.089V42.1721V57.7965C46.0374 60.3345 45.9586 62.8724 46.0374 65.4104C46.0374 65.4501 46.0374 65.4897 46.0374 65.5294C45.9586 66.4018 47.3362 66.4018 47.3362 65.5294Z" fill="#030140"/>
<path d="M13.5281 36.2633C16.3225 36.184 19.1169 36.1047 21.9506 36.0254L35.3321 35.6288C36.3554 35.5892 37.3787 35.5495 38.402 35.5495C38.2839 35.3909 38.1659 35.2322 38.0478 35.1133C37.9297 35.7081 37.6149 36.303 37.2213 36.7788C36.4735 37.6909 35.5289 37.9685 34.3876 38.0082C32.5771 38.0478 30.7667 38.1271 28.9956 38.2064C24.7844 38.3651 20.6125 38.5237 16.4012 38.6823C16.0864 38.6823 15.7715 38.722 15.4566 38.7616C14.8269 38.8409 14.2759 38.6427 14.0398 38.0082C13.8036 37.453 13.6462 36.6995 13.8823 36.1047C14.0398 35.6685 13.3707 35.4702 13.2133 35.9064C12.8197 36.9771 13.2133 38.7616 14.2759 39.2771C14.7089 39.4754 15.1811 39.5151 15.6534 39.4358C15.8109 39.3961 15.6928 39.4358 15.6928 39.4358C15.7321 39.4358 15.7715 39.4358 15.8109 39.4358C17.3458 39.3961 18.9201 39.3168 20.455 39.2771C25.0205 39.1185 29.6253 38.9202 34.1908 38.7616C35.4502 38.722 36.6309 38.484 37.5362 37.5323C38.0872 36.9375 38.5595 36.1443 38.7169 35.3512C38.7562 35.1133 38.5988 34.8753 38.3627 34.915C35.5683 34.9943 32.7739 35.0736 29.9402 35.1529L16.5587 35.5495C15.5354 35.5892 14.5121 35.6288 13.4888 35.6288C13.0558 35.5495 13.0558 36.2633 13.5281 36.2633Z" fill="#030140"/>
<path d="M13.961 34.5978C13.9217 32.7736 13.9217 30.9495 13.8823 29.1253C13.8823 28.2529 13.843 27.4201 13.843 26.5476C13.843 25.9925 14.0004 25.3183 14.512 24.9614C14.8269 24.7631 15.1811 24.7631 15.5353 24.7631C16.047 24.7631 16.5586 24.8028 17.0703 24.7631C17.8968 24.7235 18.6839 24.5649 19.4317 24.208C20.1402 23.8907 20.9667 23.1769 21.7538 23.1769C22.4622 23.2166 22.8952 24.0097 23.2494 24.5252C24.0759 25.6752 24.9418 26.8252 26.0831 27.6977C26.7129 28.1735 27.3819 28.5701 28.0904 28.808C28.9562 29.1253 29.9008 29.1649 30.806 29.2442C32.459 29.4029 34.6237 29.3236 35.9225 30.5529C36.6309 31.1874 37.0639 32.2184 37.2606 33.1305C37.3394 33.4874 37.4181 33.9633 37.2606 34.3202C37.1032 34.7564 37.8116 34.9547 37.9297 34.5185C38.3233 33.3685 37.6542 31.8615 37.0639 30.9098C36.2374 29.5615 34.8205 29.046 33.3249 28.808C32.3803 28.6494 31.3964 28.6098 30.4518 28.5304C29.4285 28.4511 28.4839 28.3322 27.5787 27.8563C26.1225 27.1425 25.0598 25.8735 24.1153 24.5649C23.761 24.0493 23.4068 23.4545 22.9345 23.0183C22.3048 22.4234 21.557 22.3441 20.7699 22.6614C19.904 23.0183 19.1562 23.6131 18.2116 23.8511C17.2277 24.089 16.2438 24.0097 15.2598 24.0097C14.0004 24.0097 13.2133 24.9614 13.0558 26.1907C13.0165 26.7063 13.0558 27.2615 13.0558 27.777C13.0952 30.0374 13.1345 32.2978 13.1739 34.5185C13.2526 35.034 13.961 35.034 13.961 34.5978Z" fill="#030140"/>
<path d="M17.3851 34.915C17.0703 34.2805 17.0309 33.5271 17.7 33.1305C18.5659 32.615 19.4317 32.6546 20.3763 32.5753C21.7145 32.4564 23.0526 32.2977 24.3514 32.0995C24.5482 32.0598 24.7843 31.9012 24.7056 31.6632C24.2333 30.196 22.9345 29.0856 21.9506 27.9752C21.9112 27.8959 21.8325 27.8563 21.7932 27.777C21.7932 27.777 21.8325 27.8563 21.7538 27.6977C21.6751 27.4201 21.5177 27.0235 21.7145 26.7459C21.8719 26.5476 22.1867 26.389 22.3835 26.27C22.5803 26.1114 22.7771 25.9925 22.9739 25.8338C23.21 25.6752 23.4462 25.4769 23.6823 25.3183C24.0365 25.0407 23.5249 24.5252 23.1707 24.8028C22.8952 25.0407 22.5803 25.2786 22.2655 25.4769C21.8719 25.7545 21.3602 25.9528 21.0847 26.3494C20.7305 26.8649 20.8486 27.6977 21.2028 28.2132C21.557 28.7287 22.108 29.2046 22.5016 29.6805C23.092 30.3546 23.7217 30.9891 23.9972 31.8615C24.1153 31.7029 24.2333 31.5443 24.3514 31.4253C22.8558 31.6236 21.3602 31.8615 19.8647 31.9408C19.3137 31.9805 18.7627 31.9805 18.2116 32.1788C17.6606 32.3771 16.9916 32.6546 16.6767 33.1702C16.2831 33.8047 16.4406 34.7168 16.7554 35.3512C16.9916 35.6685 17.5819 35.3116 17.3851 34.915Z" fill="#030140"/>
<path d="M12.2687 29.046C12.8984 29.1649 13.4888 29.2046 14.1185 29.2046C14.945 29.2046 15.9289 29.1649 16.4012 28.3718C16.7554 27.777 16.7948 26.9839 16.7161 26.2701C16.7161 26.2304 16.7161 26.1908 16.7161 26.1908C16.6767 25.9528 16.7161 26.1114 16.7161 26.1511C16.7161 26.1114 16.7161 26.0321 16.7161 25.9925C16.7161 25.7149 16.7161 25.3976 16.7161 25.12C16.7161 24.5252 16.7161 23.8907 16.7554 23.2959C16.7554 22.82 16.047 22.82 16.047 23.2959C16.047 23.7717 16.047 24.2476 16.047 24.7235C16.047 25.1994 16.0076 25.7149 16.047 26.1908C16.047 26.4683 16.047 26.1511 16.047 26.3097C16.047 26.4287 16.0863 26.5477 16.0863 26.627C16.0863 26.9442 16.0863 27.3011 16.0076 27.6184C15.9289 27.9356 15.8108 28.2132 15.496 28.3322C15.1811 28.4908 14.7876 28.4908 14.4727 28.4908C14.0398 28.4908 13.5675 28.4908 13.1345 28.4511C12.859 28.4115 12.741 28.4115 12.5048 28.3718C11.9932 28.2925 11.7964 29.0063 12.2687 29.046Z" fill="#030140"/>
<path d="M24.6663 27.9355C25.2173 27.6183 25.7683 27.2614 26.3193 26.9441C26.4767 26.8648 26.5554 26.6269 26.4374 26.4682C26.3193 26.3096 26.1225 26.2303 25.9651 26.3493C25.4141 26.6665 24.8631 27.0234 24.3121 27.3407C24.1546 27.42 24.0759 27.6579 24.194 27.8165C24.3121 27.9355 24.5089 28.0148 24.6663 27.9355Z" fill="#030140"/>
<path d="M26.7522 30.5926C27.5 29.9977 28.2084 29.4029 28.9562 28.8477C29.1136 28.7287 29.0743 28.4511 28.9562 28.3322C28.7988 28.1735 28.602 28.2132 28.4446 28.3322C27.6968 28.927 26.9883 29.5218 26.2406 30.077C26.0831 30.196 26.1225 30.4736 26.2406 30.5926C26.398 30.7512 26.5948 30.7115 26.7522 30.5926Z" fill="#030140"/>
<path d="M25.6895 29.4822C26.3586 29.0856 26.9883 28.6891 27.6574 28.2925C27.8149 28.2132 27.8936 27.9753 27.7755 27.8166C27.6574 27.658 27.4606 27.5787 27.3032 27.6977C26.6341 28.0942 26.0044 28.4908 25.3353 28.8873C25.1779 28.9667 25.0992 29.2046 25.2172 29.3632C25.3353 29.5218 25.5321 29.6012 25.6895 29.4822Z" fill="#030140"/>
<path d="M23.2888 46.534C23.092 46.534 22.9739 46.415 22.9346 46.2168C22.9346 46.0185 23.0526 45.8995 23.2494 45.8599C23.4462 45.8599 23.5643 45.9788 23.6036 46.1771C23.6036 46.3754 23.4856 46.534 23.2888 46.534Z" fill="#F24B78"/>
<path d="M23.2887 46.8515C23.1313 46.8515 22.9739 46.7722 22.8558 46.6929C22.7377 46.5739 22.659 46.4153 22.659 46.2567C22.659 45.8998 22.9345 45.6222 23.2887 45.5825C23.4461 45.5825 23.6036 45.6222 23.761 45.7411C23.8791 45.8601 23.9578 46.0187 23.9578 46.1774C23.9578 46.336 23.9184 46.4946 23.8004 46.6532C23.6429 46.7722 23.4855 46.8515 23.2887 46.8515Z" fill="#F24B78"/>
<path d="M23.1707 43.2823C22.9739 43.2823 22.8558 43.1633 22.8165 42.9651C22.8165 42.7668 22.9345 42.6478 23.1313 42.6082C23.3281 42.6082 23.4462 42.7271 23.4855 42.9254C23.5249 43.1237 23.3675 43.2823 23.1707 43.2823Z" fill="#F24B78"/>
<path d="M23.1707 43.5996C23.0132 43.5996 22.8558 43.5203 22.7377 43.4409C22.6197 43.322 22.541 43.1633 22.541 43.0047C22.541 42.6478 22.8165 42.3702 23.1707 42.3306C23.3281 42.3306 23.4855 42.3702 23.643 42.4892C23.761 42.6082 23.8397 42.7668 23.8397 42.9254C23.8397 43.084 23.8004 43.2427 23.6823 43.4013C23.5249 43.5203 23.3675 43.5599 23.1707 43.5996C23.21 43.5996 23.1707 43.5996 23.1707 43.5996ZM23.21 42.9254C23.1707 42.9651 23.21 42.9651 23.21 42.9254V42.9254Z" fill="#F24B78"/>
<path d="M23.0919 39.9908C22.8952 39.9908 22.7771 39.8718 22.7377 39.6736C22.7377 39.4753 22.8558 39.3563 23.0526 39.3167C23.2494 39.3167 23.3674 39.4356 23.4068 39.6339C23.4068 39.8322 23.2887 39.9908 23.0919 39.9908Z" fill="#F24B78"/>
<path d="M23.0919 40.3083C22.9345 40.3083 22.7771 40.229 22.659 40.1497C22.5409 40.0307 22.4622 39.8721 22.4622 39.7135C22.4622 39.3566 22.7377 39.079 23.0919 39.0393C23.2494 39.0393 23.4068 39.079 23.5642 39.1979C23.6823 39.3169 23.761 39.4755 23.761 39.6341C23.761 39.7928 23.7217 39.9514 23.6036 40.11C23.4462 40.229 23.2887 40.3083 23.0919 40.3083Z" fill="#F24B78"/>
<path d="M20.0221 46.6532C19.8253 46.6532 19.7072 46.5342 19.6678 46.3359C19.6678 46.1376 19.7859 46.0187 19.9827 45.979C20.1795 45.979 20.2976 46.098 20.3369 46.2962C20.3369 46.4945 20.2188 46.6532 20.0221 46.6532Z" fill="#F24B78"/>
<path d="M20.0221 46.9703C19.6679 46.9703 19.3924 46.6927 19.3924 46.3358C19.3924 45.9789 19.6679 45.7013 20.0221 45.6616C20.1795 45.6616 20.337 45.7013 20.4944 45.8202C20.6125 45.9392 20.6912 46.0978 20.6912 46.2565C20.6912 46.4151 20.6518 46.5737 20.5338 46.7323C20.3763 46.8909 20.2189 46.9703 20.0221 46.9703Z" fill="#F24B78"/>
<path d="M19.9434 43.3616C19.7466 43.3616 19.6285 43.2427 19.5892 43.0444C19.5892 42.8461 19.7072 42.7272 19.904 42.6875C20.1008 42.6875 20.2189 42.8065 20.2582 43.0047C20.2582 43.203 20.1008 43.3616 19.9434 43.3616Z" fill="#F24B78"/>
<path d="M19.9434 43.679C19.5892 43.679 19.3137 43.4014 19.3137 43.0445C19.3137 42.6876 19.5892 42.41 19.9434 42.3704C20.1008 42.3704 20.2582 42.41 20.4157 42.529C20.5337 42.648 20.6125 42.8066 20.6125 42.9652C20.6125 43.1238 20.5731 43.2824 20.455 43.4411C20.2582 43.5997 20.1008 43.679 19.9434 43.679Z" fill="#F24B78"/>
<path d="M19.8253 40.11C19.6285 40.11 19.5104 39.991 19.4711 39.7927C19.4711 39.5944 19.5891 39.4754 19.7859 39.4358C19.9827 39.4358 20.1008 39.5548 20.1401 39.753C20.1795 39.9513 20.0221 40.0703 19.8253 40.11Z" fill="#F24B78"/>
<path d="M19.8253 40.427C19.4711 40.427 19.1956 40.1495 19.1956 39.7926C19.1956 39.6339 19.235 39.4753 19.353 39.3167C19.4711 39.1581 19.6285 39.1184 19.786 39.1184C19.9434 39.1184 20.1008 39.1581 20.2583 39.277C20.3763 39.396 20.4551 39.5546 20.4551 39.7132C20.4944 40.1098 20.2189 40.3874 19.8253 40.427ZM19.8253 39.7529C19.8253 39.7926 19.8647 39.7529 19.8253 39.7529V39.7529Z" fill="#F24B78"/>
<path d="M16.7948 46.7325C16.598 46.7325 16.4799 46.6135 16.4406 46.4153C16.4406 46.217 16.5586 46.098 16.7554 46.0583C16.9522 46.0583 17.0703 46.1773 17.1096 46.3756C17.1096 46.5739 16.9522 46.7325 16.7948 46.7325Z" fill="#F24B78"/>
<path d="M16.7948 47.0496C16.4405 47.0496 16.165 46.772 16.165 46.4151C16.165 46.0582 16.4405 45.7806 16.7948 45.741C16.9522 45.741 17.1096 45.7806 17.267 45.8996C17.3851 46.0186 17.4638 46.1772 17.4638 46.3358C17.4638 46.4944 17.4245 46.6531 17.3064 46.8117C17.1096 46.9703 16.9522 47.0496 16.7948 47.0496Z" fill="#F24B78"/>
<path d="M16.6767 43.4808C16.4799 43.4808 16.3619 43.3618 16.3225 43.1635C16.3225 42.9653 16.4406 42.8463 16.6374 42.8066C16.8342 42.8066 16.9522 42.9256 16.9916 43.1239C16.9916 43.3222 16.8735 43.4808 16.6767 43.4808Z" fill="#F24B78"/>
<path d="M16.6767 43.798C16.5193 43.798 16.3619 43.7187 16.2438 43.6394C16.1257 43.5205 16.047 43.3618 16.047 43.2032C16.047 42.8463 16.3225 42.5687 16.6767 42.5291C16.8341 42.5291 16.9916 42.5687 17.149 42.6877C17.2671 42.8066 17.3458 42.9653 17.3458 43.1239C17.3458 43.2825 17.3064 43.4411 17.1884 43.5998C17.0309 43.7187 16.8735 43.7584 16.6767 43.798ZM16.6767 43.1239C16.6767 43.1635 16.6767 43.1635 16.6767 43.1239V43.1239Z" fill="#F24B78"/>
<path d="M16.598 40.1893C16.4012 40.1893 16.2831 40.0703 16.2438 39.872C16.2438 39.6738 16.3618 39.5548 16.5586 39.5151C16.7554 39.5151 16.8735 39.6341 16.9128 39.8324C16.9128 40.0307 16.7554 40.1893 16.598 40.1893Z" fill="#F24B78"/>
<path d="M16.598 40.5064C16.2438 40.5064 15.9683 40.2288 15.9683 39.8719C15.9683 39.515 16.2438 39.2374 16.598 39.1978C16.7554 39.1978 16.9128 39.2374 17.0703 39.3564C17.1883 39.4753 17.2671 39.634 17.2671 39.7926C17.2277 40.1891 16.9522 40.5064 16.598 40.5064Z" fill="#F24B78"/>
<path d="M13.5281 46.8514C13.3313 46.8514 13.2132 46.7324 13.1739 46.5341C13.1739 46.3359 13.292 46.2169 13.4888 46.1772C13.6855 46.1772 13.8036 46.2962 13.843 46.4945C13.843 46.6928 13.7249 46.8514 13.5281 46.8514Z" fill="#F24B78"/>
<path d="M13.5281 47.1685C13.1739 47.1685 12.8984 46.8909 12.8984 46.534C12.8984 46.1771 13.1739 45.8995 13.5281 45.8599C13.8823 45.8599 14.1578 46.1374 14.1972 46.4944C14.1972 46.653 14.1578 46.8116 14.0397 46.9702C13.8823 47.0892 13.7249 47.1685 13.5281 47.1685ZM13.5281 46.4944C13.5281 46.534 13.5281 46.534 13.5281 46.4944V46.4944Z" fill="#F24B78"/>
<path d="M13.4494 43.5599C13.2526 43.5599 13.1346 43.4409 13.0952 43.2426C13.0952 43.0444 13.2133 42.9254 13.4101 42.8857C13.6069 42.8857 13.7249 43.0047 13.7643 43.203C13.7643 43.4013 13.6069 43.5599 13.4494 43.5599Z" fill="#F24B78"/>
<path d="M13.4101 43.8772C13.2526 43.8772 13.0952 43.7979 12.9771 43.7185C12.859 43.5996 12.7803 43.4409 12.7803 43.2823C12.7803 42.9254 13.0558 42.6478 13.4101 42.6082C13.7249 42.6082 14.0398 42.8858 14.0791 43.2427C14.0791 43.4013 14.0398 43.5599 13.9217 43.7185C13.7643 43.7979 13.6068 43.8772 13.4101 43.8772C13.4494 43.8772 13.4494 43.8772 13.4101 43.8772Z" fill="#F24B78"/>
<path d="M13.3313 40.3082C13.1345 40.3082 13.0165 40.1892 12.9771 39.9909C12.9771 39.7927 13.0952 39.6737 13.292 39.634C13.4888 39.634 13.6068 39.753 13.6462 39.9513C13.6462 40.1496 13.5281 40.2685 13.3313 40.3082Z" fill="#F24B78"/>
<path d="M13.3313 40.5857C12.9771 40.5857 12.7016 40.3082 12.7016 39.9512C12.7016 39.5943 12.9771 39.3168 13.3313 39.2771C13.6855 39.2771 13.961 39.5547 13.961 39.9116C13.961 40.3082 13.6855 40.5857 13.3313 40.5857Z" fill="#F24B78"/>
<path d="M10.3008 46.9307C10.104 46.9307 9.98595 46.8118 9.94659 46.6135C9.94659 46.4152 10.0647 46.2962 10.2615 46.2566C10.4582 46.2566 10.5763 46.3756 10.6157 46.5738C10.6157 46.7721 10.4582 46.9307 10.3008 46.9307Z" fill="#F24B78"/>
<path d="M10.2614 47.248C10.104 47.248 9.94657 47.1687 9.8285 47.0894C9.71043 46.9704 9.63171 46.8118 9.63171 46.6532C9.63171 46.2963 9.90721 46.0187 10.2614 45.979C10.6156 45.979 10.8912 46.2566 10.8912 46.6135C10.8912 46.7721 10.8518 46.9307 10.7337 47.0894C10.6156 47.1687 10.4582 47.248 10.2614 47.248C10.3008 47.248 10.2614 47.248 10.2614 47.248ZM10.3008 46.6135C10.2614 46.6135 10.3008 46.6135 10.3008 46.6135V46.6135Z" fill="#F24B78"/>
<path d="M10.1827 43.679C9.98592 43.679 9.86785 43.5601 9.82849 43.3618C9.82849 43.1635 9.94656 43.0445 10.1434 43.0049C10.3401 43.0049 10.4582 43.1239 10.4976 43.3221C10.4976 43.5204 10.3795 43.6394 10.1827 43.679Z" fill="#F24B78"/>
<path d="M10.1828 43.9963C10.0253 43.9963 9.8679 43.917 9.74983 43.8377C9.63175 43.7187 9.55304 43.5601 9.55304 43.4014C9.55304 43.0445 9.82854 42.767 10.1828 42.7273C10.537 42.7273 10.8125 43.0049 10.8125 43.3618C10.8125 43.5204 10.7731 43.679 10.655 43.8377C10.537 43.917 10.3795 43.9566 10.1828 43.9963ZM10.1828 43.3221C10.1828 43.3618 10.1828 43.3618 10.1828 43.3221V43.3221Z" fill="#F24B78"/>
<path d="M10.104 40.3875C9.90725 40.3875 9.78917 40.2686 9.74982 40.0703C9.74982 39.872 9.86789 39.753 10.0647 39.7134C10.2615 39.7134 10.3795 39.8323 10.4189 40.0306C10.4189 40.2289 10.2615 40.3875 10.104 40.3875Z" fill="#F24B78"/>
<path d="M10.0647 40.7048C9.90722 40.7048 9.74979 40.6255 9.63172 40.5462C9.51365 40.4272 9.43494 40.2686 9.43494 40.1099C9.43494 39.753 9.71044 39.4754 10.0647 39.4358C10.4189 39.4358 10.6944 39.7134 10.7337 40.0703C10.7337 40.3875 10.4582 40.7048 10.0647 40.7048C10.104 40.7048 10.0647 40.7048 10.0647 40.7048Z" fill="#F24B78"/>
<path d="M33.7972 7.75062C36.0799 6.91785 38.402 6.20404 40.8028 5.64886C40.7241 5.56955 40.606 5.49024 40.5273 5.41093V8.54374C40.5273 9.49548 40.606 10.5265 40.3699 11.4386C39.937 13.1835 38.3233 14.4525 37.1032 15.6421C36.3948 16.3559 35.6864 17.0301 34.9779 17.7439C34.7024 18.0215 34.1514 18.775 33.7185 18.537C33.2855 18.3387 32.892 17.8232 32.5378 17.4663C31.0815 16.118 29.6253 14.7301 28.1691 13.3818L28.2084 13.6593C29.6647 11.6766 31.3177 9.89204 33.1675 8.26615C33.4036 8.06787 33.0494 7.75062 32.8526 7.9489C31.0028 9.57479 29.3104 11.4386 27.8542 13.4214C27.8149 13.5007 27.8149 13.6197 27.8936 13.699C29.153 14.9283 30.4518 16.118 31.7506 17.3473C32.3016 17.8629 32.8526 18.537 33.4823 18.9336C34.0727 19.2905 34.4663 18.8543 34.8992 18.4577C36.1586 17.2284 37.4181 15.999 38.6775 14.7697C39.6614 13.7783 40.6847 12.668 40.9209 11.2403C41.0783 10.3679 41.039 9.45583 41.039 8.5834V5.45058C41.039 5.29196 40.8815 5.21265 40.7635 5.21265C38.402 5.76783 36.0406 6.48163 33.7578 7.31441C33.4036 7.43337 33.5217 7.86959 33.7972 7.75062Z" fill="#030140"/>
<path d="M37.6542 8.02834C37.3787 8.38525 37.1032 8.82146 37.1032 9.29733C37.1032 9.49561 37.1819 9.73355 37.3394 9.85252C37.5361 10.0508 37.8116 10.0905 38.0871 10.0508C38.5594 9.97148 39.0317 9.53527 39.2285 9.09905C39.4253 8.66284 39.3859 8.10766 38.9924 7.83007C38.6382 7.55248 38.0872 7.55248 37.8116 7.94903C37.6936 8.14731 38.0084 8.30594 38.1265 8.14731C38.1659 8.068 38.2839 8.02834 38.3627 8.02834C38.4807 8.02834 38.5988 8.068 38.7169 8.10766C38.8349 8.18697 38.9137 8.26628 38.953 8.38525C38.9924 8.54387 38.9924 8.74215 38.9137 8.90077C38.7956 9.25767 38.4807 9.57492 38.1265 9.69389C37.9691 9.73354 37.7723 9.7732 37.6149 9.65424C37.5755 9.61458 37.5361 9.57492 37.4968 9.53527C37.4574 9.49561 37.4574 9.4163 37.4574 9.37665C37.4181 9.01974 37.6542 8.62318 37.8904 8.34559C37.9691 8.26628 37.9691 8.14731 37.8904 8.10766C37.851 7.94903 37.6936 7.94903 37.6542 8.02834Z" fill="#030140"/>
<path d="M35.6076 12.787C35.3321 12.0732 34.8599 11.4387 34.1121 11.2404C33.4823 11.0422 32.4984 11.2404 32.4984 12.0732C32.459 12.8663 33.1675 13.4215 33.5611 14.0164C33.7578 14.3336 33.9153 14.7698 33.7185 15.1664C33.5611 15.444 33.2462 15.6026 32.9313 15.6026C31.9868 15.6026 31.5932 14.4922 31.5145 13.6991C31.4751 13.4215 31.0422 13.4215 31.0422 13.6991C31.1209 14.4526 31.357 15.2457 31.9868 15.7216C32.5378 16.1181 33.2856 16.1578 33.8366 15.7216C34.4663 15.1664 34.2695 14.294 33.8759 13.6991C33.6398 13.3422 32.459 12.1525 33.1281 11.756C33.5217 11.5577 34.0333 11.6767 34.3482 11.9146C34.7024 12.1525 34.9779 12.5491 35.1354 12.9853C35.2534 13.1836 35.7257 13.0646 35.6076 12.787Z" fill="#030140"/>
<path d="M34.8205 11.7559C35.1747 11.4386 35.4502 11.0817 35.7257 10.6852C35.8044 10.5662 35.7651 10.4076 35.647 10.3679C35.5289 10.2886 35.4108 10.3283 35.3321 10.4472C35.2928 10.5265 35.2141 10.6455 35.1353 10.7248C35.1353 10.7645 35.096 10.7645 35.096 10.8041C35.096 10.8438 35.1353 10.7645 35.096 10.8041C35.096 10.8041 35.096 10.8041 35.0566 10.8438C35.0173 10.8834 34.9779 10.9231 34.9386 10.9628C34.7811 11.1214 34.663 11.28 34.4663 11.4386C34.3875 11.5179 34.3875 11.6766 34.4663 11.7559C34.5843 11.8352 34.7024 11.8352 34.8205 11.7559Z" fill="#030140"/>
<path d="M31.8293 15.206C31.5931 15.4836 31.3176 15.7612 31.0815 16.0387C31.0028 16.1181 31.0028 16.2767 31.0815 16.356C31.1602 16.4353 31.3176 16.4353 31.3964 16.356C31.6325 16.0784 31.908 15.8008 32.1441 15.5232C32.2229 15.4439 32.2229 15.2853 32.1441 15.206C32.0654 15.1267 31.908 15.1267 31.8293 15.206Z" fill="#030140"/>
<path d="M16.2438 56.6465C16.4799 57.7172 16.7161 58.8275 16.9522 59.8982C17.0703 60.4138 17.1884 60.9689 17.3064 61.4845C17.3458 61.7621 17.4245 62.0397 17.4639 62.3172C17.5032 62.5155 17.5819 62.7535 17.4245 62.9121C17.3458 62.9914 17.1884 63.031 17.0703 63.0707C16.598 63.1897 16.047 63.1104 15.5747 63.1104C15.0237 63.1104 14.5121 63.1104 13.9611 63.1104C12.8591 63.1104 11.7177 63.1104 10.6157 63.1104C10.655 63.1897 10.7337 63.269 10.7731 63.3483C11.2454 61.881 11.757 60.4534 12.2293 58.9862C12.3474 58.6293 12.4655 58.2724 12.5835 57.9155C12.6229 57.7568 12.6623 57.5189 12.7803 57.3603C12.8984 57.162 13.1346 57.162 13.3313 57.1223C14.0791 57.043 14.8269 57.0034 15.5747 56.9637C15.8109 56.9637 15.8109 56.6068 15.5747 56.6068C14.7482 56.6465 13.9217 56.6861 13.0952 56.8051C12.8591 56.8447 12.6623 56.8844 12.5048 57.1223C12.308 57.4396 12.2293 57.8758 12.1113 58.2327C11.5603 59.8982 10.9699 61.6034 10.4189 63.269C10.3795 63.3879 10.4976 63.5069 10.5763 63.5069C11.8358 63.5069 13.0952 63.5069 14.3546 63.5069C14.9844 63.5069 15.6141 63.5069 16.2438 63.5069C16.6767 63.5069 17.1884 63.5069 17.5819 63.2293C17.9362 62.9914 17.8574 62.6345 17.7787 62.2379C17.6213 61.6034 17.5032 60.9293 17.3458 60.2948C17.0703 59.0258 16.7948 57.7965 16.5586 56.5275C16.5193 56.3689 16.1651 56.4482 16.2438 56.6465Z" fill="#030140"/>
<path d="M15.8896 58.312C15.9289 57.7172 15.9289 57.0827 15.8502 56.4879C15.7715 55.9723 15.6928 55.3775 15.4566 54.862C15.2599 54.4654 14.8663 54.2275 14.4727 54.4258C14.1578 54.5844 13.8823 54.9809 13.7643 55.2982C13.6462 55.6948 13.5281 56.131 13.4888 56.5275C13.4494 56.7655 13.8036 56.7655 13.843 56.5275C13.8823 56.131 13.9611 55.7344 14.1185 55.3775C14.2366 55.0603 14.5908 54.4654 14.9844 54.743C15.1811 54.9016 15.2205 55.1396 15.2992 55.3775C15.3779 55.6948 15.4566 56.012 15.496 56.3292C15.5747 56.9637 15.6141 57.6379 15.5354 58.312C15.5354 58.5103 15.8502 58.5103 15.8896 58.312Z" fill="#030140"/>
<path d="M16.7948 65.926C18.8414 64.8157 20.3763 62.7932 20.6518 60.4535C20.9273 58.1535 19.9828 55.7345 18.0936 54.3862C16.1257 52.9585 13.0559 52.443 10.8518 53.593C8.92332 54.5844 7.62453 56.6862 7.50645 58.8276C7.34902 61.5242 8.88396 64.0622 11.0486 65.4898C11.2848 65.6484 11.5209 65.2519 11.2848 65.0932C9.47433 63.9036 8.13617 61.8811 7.97874 59.6604C7.82132 57.5983 8.80525 55.4965 10.4976 54.3465C12.4261 52.9982 15.1418 53.2758 17.149 54.3465C19.0775 55.3775 20.2583 57.4793 20.2189 59.7C20.2189 62.1587 18.6446 64.3794 16.5587 65.5295C16.3225 65.6484 16.5587 66.045 16.7948 65.926Z" fill="#030140"/>
<path d="M33.0887 56.4879C32.9313 57.1224 32.7739 57.7965 32.8919 58.4707C32.9706 58.9862 33.2855 59.5017 33.6791 59.8586C34.0333 60.2155 34.4662 60.3742 34.9779 60.4535C35.4895 60.4931 36.0012 60.4931 36.4735 60.2949C37.418 59.938 38.2052 59.0655 38.3626 58.0345C38.4807 57.0431 38.0084 56.012 37.1819 55.4965C36.5915 55.1396 35.9225 55.0999 35.2534 55.1396C34.663 55.1792 34.0333 55.2982 33.6397 55.7741C33.4823 55.9327 33.7578 56.2103 33.8759 56.012C34.1907 55.6155 34.663 55.5361 35.1353 55.4568C35.6469 55.4172 36.198 55.3775 36.7096 55.5758C37.4967 55.9327 38.0084 56.7655 38.0084 57.6379C38.0084 58.55 37.3787 59.3828 36.5915 59.7793C36.198 59.9776 35.8044 60.0569 35.3714 60.0569C34.9385 60.0569 34.5056 60.0173 34.1514 59.7793C33.7184 59.4621 33.3642 58.9862 33.2462 58.4707C33.0887 57.8362 33.2855 57.162 33.4036 56.5275C33.4823 56.3689 33.1281 56.2896 33.0887 56.4879Z" fill="#030140"/>
<path d="M35.5683 56.2498C36.4735 56.3291 37.2213 57.2412 37.1033 58.1533C37.1033 58.2723 37.2607 58.2723 37.2607 58.1533C37.3788 57.1619 36.5523 56.1705 35.5683 56.0912C35.4896 56.0515 35.4896 56.2498 35.5683 56.2498Z" fill="#030140"/>
<path d="M36.7884 60.4929C37.1819 60.9291 37.5755 61.405 37.9691 61.8412C38.1659 62.0395 38.3627 62.2774 38.5595 62.4757C38.6775 62.5947 38.7562 62.674 38.8743 62.793C38.953 62.8723 39.0317 62.9912 39.1498 63.0309C39.386 63.1102 39.5434 62.9119 39.6615 62.7533C39.7795 62.555 40.055 62.3567 40.055 62.0792C40.055 61.8412 39.8582 61.6429 39.7008 61.4843C39.504 61.286 39.3072 61.0481 39.1498 60.8102C38.7562 60.2946 38.4414 59.7791 38.1265 59.2239C38.0084 59.0257 37.7329 59.1843 37.8117 59.3826C38.0872 59.9377 38.402 60.4533 38.7956 60.9291C38.953 61.1671 39.1498 61.3653 39.3466 61.6033C39.4253 61.7222 39.5434 61.8016 39.6221 61.9205C39.6615 61.9602 39.7008 61.9998 39.7008 62.0792C39.7008 62.1585 39.6221 62.1981 39.5827 62.2774C39.5434 62.3567 39.504 62.3964 39.4647 62.4757C39.4253 62.5154 39.386 62.6343 39.3072 62.674C39.2285 62.7136 39.0317 62.4757 38.9924 62.3964C38.7562 62.1585 38.5595 61.9602 38.3233 61.7223C37.8904 61.2464 37.4574 60.7705 37.0245 60.255C36.8671 60.0567 36.6309 60.2946 36.7884 60.4929Z" fill="#030140"/>
<path d="M39.7402 65.926C41.7868 64.8157 43.3217 62.7932 43.5972 60.4535C43.8727 58.1535 42.9281 55.7345 41.039 54.3862C39.0711 52.9585 36.0012 52.443 33.7972 53.593C31.8687 54.5844 30.5699 56.6862 30.4518 58.8276C30.2944 61.5242 31.8293 64.0622 33.994 65.4898C34.2301 65.6484 34.4663 65.2519 34.2301 65.0932C32.4197 63.9036 31.0815 61.8811 30.9241 59.6604C30.7667 57.5983 31.7506 55.4965 33.443 54.3465C35.3715 52.9982 38.0872 53.2758 40.0944 54.3465C42.0229 55.3775 43.2036 57.4793 43.1643 59.7C43.1643 62.1587 41.59 64.3794 39.504 65.5295C39.2285 65.6484 39.4647 66.045 39.7402 65.926Z" fill="#030140"/>
<path d="M154.428 130.723L155.333 81.6295L148.485 81.3123L150.138 124.458L100.862 118.43L101.059 124.022C101.059 123.982 153.955 130.723 154.428 130.723Z" fill="#F24B78"/>
<path d="M102.633 101.973C105.231 102.132 107.829 102.33 110.426 102.489C114.559 102.766 118.652 103.044 122.784 103.321C123.729 103.401 124.674 103.44 125.657 103.52C125.539 103.361 125.461 103.242 125.343 103.083C125.185 103.599 124.831 104.154 124.398 104.551C123.65 105.304 122.706 105.423 121.682 105.384C120.029 105.265 118.337 105.185 116.645 105.066C112.788 104.828 108.931 104.59 105.034 104.352C104.837 104.352 104.641 104.313 104.444 104.313C104.404 104.313 104.365 104.313 104.326 104.313C104.168 104.313 104.286 104.313 104.208 104.313C103.696 104.352 103.184 104.194 102.948 103.639C102.751 103.123 102.673 102.251 102.909 101.775C103.106 101.378 102.515 101.061 102.358 101.458C101.886 102.409 102.043 104.075 102.948 104.67C103.302 104.908 103.735 105.027 104.168 104.987C104.247 104.987 104.483 104.987 104.326 104.987C104.365 104.987 104.404 104.987 104.444 104.987C105.821 105.146 107.238 105.146 108.655 105.225C112.945 105.502 117.235 105.74 121.525 106.018C122.706 106.097 123.768 105.978 124.674 105.185C125.264 104.709 125.736 103.996 125.972 103.242C126.051 103.044 125.854 102.846 125.657 102.806C123.06 102.647 120.462 102.449 117.865 102.29C113.732 102.013 109.639 101.735 105.506 101.458C104.562 101.378 103.617 101.339 102.633 101.259C102.2 101.299 102.2 101.933 102.633 101.973Z" fill="#030140"/>
<path d="M103.145 100.427C103.263 98.761 103.42 97.0558 103.539 95.3903C103.617 94.5971 103.696 93.804 103.735 93.0109C103.735 92.9712 103.735 92.9316 103.735 92.8523C103.696 93.0506 103.775 92.7333 103.775 92.6937C103.893 92.2971 104.09 91.8609 104.483 91.6229C104.798 91.4643 105.113 91.504 105.467 91.5436C105.939 91.6229 106.412 91.6626 106.884 91.7023C107.671 91.7419 108.458 91.6229 109.206 91.385C109.836 91.1471 110.583 90.6316 111.292 90.7109C111.961 90.7902 112.276 91.5833 112.551 92.0988C113.181 93.2092 113.889 94.3196 114.795 95.2316C115.306 95.7075 115.897 96.1437 116.526 96.461C117.274 96.8179 118.101 96.9765 118.888 97.0955C120.423 97.373 122.43 97.492 123.571 98.6817C124.201 99.3162 124.555 100.347 124.673 101.259C124.713 101.537 124.713 101.854 124.673 102.132C124.673 102.211 124.555 102.489 124.634 102.37C124.477 102.766 125.028 103.084 125.185 102.687C125.657 101.656 125.224 100.308 124.792 99.3559C124.162 97.9282 122.863 97.2937 121.446 96.9368C119.714 96.5006 117.747 96.5006 116.212 95.5489C114.952 94.7558 114.086 93.4868 113.338 92.2178C112.709 91.1471 112.079 89.7591 110.583 90.116C109.757 90.3143 109.049 90.7902 108.222 90.9884C107.277 91.1867 106.333 91.0678 105.388 90.9488C104.168 90.7902 103.302 91.4643 103.027 92.654C102.909 93.1299 102.909 93.6851 102.869 94.1609C102.712 96.2627 102.515 98.3644 102.358 100.466C102.476 100.863 103.106 100.863 103.145 100.427Z" fill="#030140"/>
<path d="M106.333 101.101C106.136 100.625 106.057 99.8713 106.569 99.5541C107.396 98.9989 108.34 99.1575 109.245 99.1575C110.505 99.1575 111.804 99.1178 113.063 99.0782C113.299 99.0782 113.417 98.8799 113.378 98.642C113.22 97.9282 112.866 97.2937 112.433 96.7385C112 96.1436 111.607 95.5488 111.135 94.954C111.135 94.9143 111.016 94.7954 111.056 94.8747C111.095 94.954 111.016 94.7953 111.016 94.7557C110.938 94.5178 110.898 94.2005 111.016 93.9626C111.135 93.7643 111.41 93.685 111.607 93.566C111.804 93.447 112 93.3281 112.197 93.2488C112.473 93.0901 112.709 92.9315 112.984 92.7729C113.339 92.535 113.024 91.9798 112.669 92.2177C112.394 92.416 112.079 92.5746 111.764 92.7729C111.371 93.0108 110.859 93.1694 110.544 93.5264C110.19 93.9626 110.19 94.6764 110.426 95.1522C110.505 95.3505 110.662 95.5092 110.78 95.6678C111.056 96.0247 111.331 96.3816 111.567 96.7781C112.04 97.4523 112.551 98.0868 112.748 98.9196C112.866 98.7609 112.945 98.642 113.063 98.4834C111.686 98.523 110.269 98.6023 108.852 98.523C108.34 98.4834 107.828 98.4834 107.317 98.6023C106.805 98.7213 106.136 98.9196 105.821 99.3954C105.428 99.9506 105.467 100.744 105.703 101.339C105.821 101.695 106.451 101.537 106.333 101.101Z" fill="#030140"/>
<path d="M102.122 95.2316C102.673 95.3902 103.263 95.4695 103.853 95.5488C104.601 95.6282 105.506 95.6282 106.018 94.954C106.412 94.4385 106.49 93.685 106.49 93.0505C106.49 92.6936 106.569 92.2971 106.608 91.9402C106.687 91.385 106.727 90.8298 106.805 90.235C106.805 90.0367 106.648 89.9177 106.49 89.9177C106.294 89.9177 106.176 90.0763 106.176 90.235C106.136 90.6712 106.097 91.1074 106.018 91.5436C105.979 91.9798 105.9 92.4557 105.861 92.8919C105.861 93.3281 105.861 93.7643 105.703 94.2005C105.625 94.4385 105.467 94.6764 105.231 94.7954C104.916 94.9144 104.522 94.8747 104.168 94.8747C103.578 94.835 102.948 94.7161 102.397 94.5574C101.886 94.4781 101.689 95.1126 102.122 95.2316Z" fill="#030140"/>
<path d="M113.693 95.2712C114.244 95.0332 114.755 94.7556 115.306 94.5177C115.464 94.4384 115.503 94.2005 115.424 94.0815C115.306 93.9229 115.149 93.8832 114.992 93.9625C114.441 94.2004 113.929 94.478 113.378 94.716C113.22 94.7953 113.181 95.0332 113.26 95.1522C113.339 95.3108 113.496 95.3505 113.693 95.2712Z" fill="#030140"/>
<path d="M115.306 97.968C116.054 97.4921 116.763 97.0163 117.51 96.5404C117.668 96.4611 117.707 96.2628 117.628 96.1042C117.55 95.9456 117.314 95.9059 117.196 95.9852C116.448 96.4611 115.739 96.9369 114.992 97.4128C114.834 97.4921 114.795 97.6904 114.873 97.849C114.913 98.0076 115.149 98.087 115.306 97.968Z" fill="#030140"/>
<path d="M114.48 96.8178L116.408 95.8661C116.566 95.7868 116.605 95.5488 116.526 95.4299C116.408 95.2712 116.251 95.2316 116.094 95.3109C115.464 95.6281 114.795 95.9454 114.165 96.2626C114.008 96.342 113.968 96.5799 114.047 96.6989C114.126 96.8575 114.322 96.8971 114.48 96.8178Z" fill="#030140"/>
<path d="M110.702 112.363C110.544 112.363 110.426 112.204 110.426 112.046C110.426 111.887 110.584 111.768 110.741 111.768C110.898 111.768 111.017 111.927 111.017 112.085C111.017 112.244 110.859 112.363 110.702 112.363Z" fill="#F24B78"/>
<path d="M110.741 112.641H110.702C110.544 112.641 110.387 112.561 110.308 112.442C110.19 112.323 110.151 112.165 110.151 112.006C110.151 111.847 110.229 111.689 110.347 111.61C110.465 111.491 110.623 111.451 110.78 111.451C111.095 111.491 111.371 111.768 111.331 112.085C111.331 112.244 111.253 112.403 111.135 112.482C111.016 112.601 110.859 112.641 110.741 112.641Z" fill="#F24B78"/>
<path d="M110.898 109.309C110.741 109.309 110.623 109.151 110.623 108.992C110.623 108.834 110.78 108.715 110.938 108.715C111.095 108.715 111.213 108.873 111.213 109.032C111.213 109.23 111.056 109.349 110.898 109.309Z" fill="#F24B78"/>
<path d="M110.938 109.627H110.898C110.584 109.587 110.308 109.309 110.347 108.992C110.347 108.834 110.426 108.675 110.544 108.596C110.662 108.477 110.82 108.437 110.977 108.437C111.292 108.477 111.567 108.754 111.528 109.072C111.489 109.389 111.253 109.627 110.938 109.627Z" fill="#F24B78"/>
<path d="M111.095 106.295C110.938 106.295 110.82 106.137 110.82 105.978C110.82 105.82 110.977 105.701 111.135 105.701C111.292 105.701 111.41 105.859 111.41 106.018C111.41 106.177 111.292 106.295 111.095 106.295Z" fill="#F24B78"/>
<path d="M111.135 106.573H111.095C110.938 106.573 110.78 106.494 110.702 106.375C110.584 106.256 110.544 106.097 110.544 105.939C110.544 105.78 110.623 105.621 110.741 105.542C110.859 105.423 111.016 105.384 111.174 105.384C111.489 105.423 111.764 105.701 111.725 106.018C111.686 106.335 111.449 106.573 111.135 106.573Z" fill="#F24B78"/>
<path d="M107.71 112.165C107.553 112.165 107.435 112.006 107.435 111.847C107.435 111.689 107.592 111.57 107.75 111.57C107.907 111.57 108.025 111.728 108.025 111.887C107.986 112.046 107.868 112.165 107.71 112.165Z" fill="#F24B78"/>
<path d="M107.71 112.442H107.671C107.514 112.442 107.356 112.363 107.278 112.244C107.159 112.125 107.12 111.966 107.12 111.808C107.12 111.649 107.199 111.491 107.317 111.411C107.435 111.292 107.592 111.253 107.75 111.253C107.907 111.253 108.065 111.332 108.143 111.451C108.262 111.57 108.301 111.729 108.301 111.887C108.301 112.204 108.025 112.442 107.71 112.442Z" fill="#F24B78"/>
<path d="M107.907 109.111C107.75 109.111 107.632 108.953 107.632 108.794C107.632 108.635 107.789 108.516 107.947 108.516C108.104 108.516 108.222 108.675 108.222 108.834C108.222 108.992 108.065 109.151 107.907 109.111Z" fill="#F24B78"/>
<path d="M107.907 109.428H107.868C107.553 109.389 107.278 109.111 107.317 108.794C107.317 108.635 107.396 108.477 107.514 108.397C107.632 108.278 107.789 108.239 107.947 108.239C108.261 108.278 108.537 108.556 108.498 108.873C108.498 109.032 108.419 109.191 108.301 109.27C108.183 109.349 108.065 109.428 107.907 109.428Z" fill="#F24B78"/>
<path d="M108.104 106.097C107.947 106.097 107.828 105.939 107.828 105.78C107.828 105.621 107.986 105.502 108.143 105.502C108.301 105.502 108.419 105.661 108.419 105.82C108.419 105.978 108.261 106.097 108.104 106.097Z" fill="#F24B78"/>
<path d="M108.104 106.375H108.065C107.75 106.335 107.474 106.058 107.514 105.74C107.514 105.582 107.592 105.423 107.71 105.344C107.829 105.225 107.986 105.185 108.143 105.185C108.458 105.225 108.734 105.503 108.694 105.82C108.694 106.137 108.419 106.375 108.104 106.375Z" fill="#F24B78"/>
<path d="M104.68 111.966C104.522 111.966 104.404 111.808 104.404 111.649C104.404 111.491 104.562 111.372 104.719 111.372C104.877 111.372 104.995 111.53 104.995 111.689C104.995 111.847 104.837 111.966 104.68 111.966Z" fill="#F24B78"/>
<path d="M104.719 112.244H104.68C104.522 112.244 104.365 112.165 104.286 112.046C104.168 111.927 104.129 111.768 104.129 111.609C104.129 111.451 104.208 111.292 104.326 111.213C104.444 111.094 104.601 111.054 104.759 111.054C105.073 111.094 105.349 111.371 105.31 111.689C105.27 112.006 104.995 112.244 104.719 112.244Z" fill="#F24B78"/>
<path d="M104.877 108.913C104.719 108.913 104.601 108.754 104.601 108.596C104.601 108.437 104.759 108.318 104.916 108.318C105.073 108.318 105.192 108.477 105.192 108.635C105.192 108.794 105.034 108.913 104.877 108.913Z" fill="#F24B78"/>
<path d="M104.916 109.19H104.877C104.562 109.151 104.286 108.873 104.326 108.556C104.326 108.397 104.404 108.239 104.523 108.159C104.641 108.04 104.798 108.001 104.955 108.001C105.27 108.04 105.546 108.318 105.506 108.635C105.506 108.794 105.428 108.952 105.31 109.032C105.192 109.151 105.034 109.19 104.916 109.19Z" fill="#F24B78"/>
<path d="M105.073 105.899C104.916 105.899 104.798 105.74 104.798 105.582C104.798 105.423 104.955 105.304 105.113 105.304C105.27 105.304 105.388 105.463 105.388 105.621C105.388 105.78 105.27 105.899 105.073 105.899Z" fill="#F24B78"/>
<path d="M105.113 106.177H105.074C104.759 106.137 104.483 105.859 104.523 105.542C104.562 105.225 104.837 104.947 105.152 104.987C105.467 105.027 105.743 105.304 105.703 105.621C105.703 105.78 105.625 105.939 105.506 106.018C105.388 106.137 105.27 106.177 105.113 106.177Z" fill="#F24B78"/>
<path d="M101.689 111.728C101.531 111.728 101.413 111.57 101.413 111.411C101.413 111.253 101.571 111.134 101.728 111.134C101.886 111.134 102.004 111.292 102.004 111.451C101.964 111.649 101.846 111.768 101.689 111.728Z" fill="#F24B78"/>
<path d="M101.689 112.046H101.649C101.492 112.046 101.335 111.966 101.256 111.847C101.138 111.728 101.098 111.57 101.098 111.411C101.098 111.253 101.177 111.094 101.295 111.015C101.413 110.896 101.571 110.856 101.728 110.856C102.043 110.896 102.318 111.173 102.279 111.49C102.279 111.808 102.004 112.046 101.689 112.046Z" fill="#F24B78"/>
<path d="M101.885 108.714C101.728 108.714 101.61 108.556 101.61 108.397C101.61 108.239 101.767 108.12 101.925 108.12C102.082 108.12 102.2 108.278 102.2 108.437C102.2 108.595 102.043 108.714 101.885 108.714Z" fill="#F24B78"/>
<path d="M101.886 108.992H101.846C101.689 108.992 101.531 108.913 101.453 108.794C101.335 108.675 101.295 108.516 101.295 108.358C101.335 108.04 101.61 107.763 101.925 107.802C102.24 107.842 102.515 108.12 102.476 108.437C102.476 108.754 102.2 108.992 101.886 108.992Z" fill="#F24B78"/>
<path d="M102.082 105.661C101.925 105.661 101.807 105.503 101.807 105.344C101.807 105.185 101.964 105.066 102.122 105.066C102.279 105.066 102.397 105.225 102.397 105.384C102.397 105.582 102.24 105.701 102.082 105.661Z" fill="#F24B78"/>
<path d="M102.082 105.979H102.043C101.886 105.979 101.728 105.899 101.649 105.78C101.531 105.661 101.492 105.503 101.492 105.344C101.492 105.185 101.571 105.027 101.689 104.947C101.807 104.868 101.964 104.789 102.122 104.789C102.437 104.828 102.712 105.106 102.673 105.423C102.673 105.582 102.594 105.741 102.476 105.82C102.358 105.939 102.24 105.979 102.082 105.979ZM102.122 105.384C102.082 105.384 102.082 105.384 102.122 105.384V105.384Z" fill="#F24B78"/>
<path d="M98.6583 111.53C98.5009 111.53 98.3828 111.372 98.3828 111.213C98.3828 111.054 98.5402 110.935 98.6977 110.935C98.8551 110.935 98.9732 111.094 98.9732 111.253C98.9732 111.411 98.8157 111.57 98.6583 111.53Z" fill="#F24B78"/>
<path d="M98.6975 111.848H98.6582C98.3433 111.808 98.0678 111.53 98.1072 111.213C98.1465 110.896 98.422 110.618 98.7369 110.658C99.0518 110.697 99.3273 110.975 99.2879 111.292C99.2879 111.451 99.2092 111.61 99.0911 111.689C98.973 111.768 98.8156 111.848 98.6975 111.848Z" fill="#F24B78"/>
<path d="M98.8551 108.516C98.6976 108.516 98.5796 108.358 98.5796 108.199C98.5796 108.04 98.737 107.921 98.8944 107.921C99.0519 107.921 99.1699 108.08 99.1699 108.239C99.1699 108.397 99.0125 108.516 98.8551 108.516Z" fill="#F24B78"/>
<path d="M98.8943 108.794H98.855C98.6975 108.794 98.5401 108.714 98.4614 108.596C98.3433 108.477 98.304 108.318 98.304 108.159C98.3433 107.842 98.6188 107.564 98.9337 107.604C99.2485 107.644 99.524 107.921 99.4847 108.239C99.4453 108.556 99.2092 108.794 98.8943 108.794Z" fill="#F24B78"/>
<path d="M99.0519 105.463C98.8944 105.463 98.7764 105.304 98.7764 105.146C98.7764 104.987 98.9338 104.868 99.0912 104.868C99.2487 104.868 99.3667 105.027 99.3667 105.185C99.3667 105.344 99.2487 105.502 99.0519 105.463Z" fill="#F24B78"/>
<path d="M99.0912 105.78H99.0518C98.737 105.74 98.4615 105.463 98.5008 105.146C98.5008 104.987 98.5795 104.828 98.6976 104.749C98.8157 104.63 98.9731 104.59 99.1305 104.59C99.288 104.59 99.4454 104.67 99.5241 104.789C99.6422 104.908 99.6815 105.066 99.6815 105.225C99.6422 105.542 99.406 105.78 99.0912 105.78Z" fill="#F24B78"/>
<path d="M97.3201 88.7676C97.3201 96.897 96.9659 105.026 96.5724 113.156C96.4543 115.575 96.3362 117.954 96.2181 120.373C96.2181 120.73 96.533 121.008 96.8872 121.047C103.106 121.523 109.324 121.999 115.543 122.435C122.194 122.911 128.845 123.348 135.497 123.744C140.102 124.022 144.746 124.339 149.351 124.617C149.705 124.656 149.98 124.299 150.02 123.942C150.177 119.184 150.217 114.385 150.256 109.627C150.295 103.876 150.374 98.166 150.413 92.4159C150.453 89.5211 150.492 86.6262 150.571 83.6916C150.571 83.3347 150.256 83.0175 149.902 83.0175C142.975 83.4537 136.048 83.652 129.121 83.652C122.351 83.652 115.582 83.533 108.852 83.2554C105.231 83.0968 101.61 82.9382 97.9499 82.7399C97.1234 82.7002 97.1234 84.0089 97.9499 84.0485C104.444 84.4054 110.977 84.683 117.511 84.8417C124.398 85.0003 131.286 85.0399 138.134 84.8417C142.07 84.7227 146.005 84.5641 149.941 84.3261C149.705 84.0882 149.508 83.8899 149.272 83.652C149.154 89.0452 149.075 94.3987 149.036 99.7919C148.996 105.344 148.957 110.935 148.878 116.487C148.839 118.946 148.8 121.444 148.721 123.903C148.957 123.665 149.154 123.466 149.39 123.229C141.676 122.753 134.001 122.277 126.287 121.761C120.069 121.365 113.811 120.929 107.592 120.453C104.011 120.175 100.469 119.897 96.8872 119.62C97.1234 119.858 97.3201 120.056 97.5563 120.294C97.9105 112.165 98.3828 103.995 98.5402 95.866C98.5796 93.4866 98.6189 91.0676 98.6189 88.6883C98.6189 87.9348 97.3201 87.9348 97.3201 88.7676Z" fill="#030140"/>
<path d="M129.003 104.392C134.041 104.392 139.078 104.511 144.077 104.749C144.628 104.789 144.628 103.916 144.077 103.877C139.039 103.599 134.041 103.48 129.003 103.52C128.452 103.52 128.452 104.392 129.003 104.392Z" fill="#030140"/>
<path d="M122.548 109.389C129.711 109.508 136.874 109.587 144.077 109.706C144.628 109.706 144.628 108.834 144.077 108.834C136.914 108.715 129.751 108.635 122.548 108.516C121.997 108.516 121.997 109.389 122.548 109.389Z" fill="#030140"/>
<path d="M120.029 113.949C128.019 113.791 135.93 114.782 143.841 115.773C144.392 115.853 144.392 114.98 143.841 114.901C135.93 113.909 128.019 112.878 120.029 113.077C119.478 113.077 119.478 113.949 120.029 113.949Z" fill="#030140"/>
<path d="M144.431 100.307H141.833L141.243 98.8799H138.331L137.78 100.307H135.261L138.724 92.0591H140.967L141.007 92.1384L144.431 100.307ZM141.991 100.109H144.116L140.81 92.2574H138.842L135.536 100.109H137.622L138.173 98.6816H141.361L141.991 100.109ZM140.889 97.1747H138.803L139.865 94.5177L140.889 97.1747ZM139.078 96.9367H140.574L139.826 95.0333L139.078 96.9367Z" fill="#030140"/>
<path d="M96.2181 102.964H92.4791H82.8759H69.6911H55.1289H41.5899H31.357C29.7827 102.964 28.2084 102.964 26.6735 102.964C24.4695 102.964 22.4229 101.616 21.6357 99.5143C21.2422 98.4436 21.2815 97.1747 21.2028 96.0246C20.9667 91.8608 20.7699 87.6969 20.5337 83.533C20.3369 79.8054 20.1401 76.038 19.9434 72.3104L19.904 71.7155C19.8253 70.5655 18.0542 70.5655 18.1329 71.7155C18.2903 74.5311 18.4478 77.3467 18.5659 80.1623C18.802 84.7624 19.0381 89.3624 19.2743 93.9625C19.353 95.1522 19.3924 96.3022 19.4711 97.4919C19.5104 98.4436 19.6285 99.3557 19.9827 100.228C20.6518 101.854 21.8325 103.242 23.4068 103.995C25.2566 104.908 27.2638 104.749 29.2711 104.749H38.2446H51.1538H65.7554H79.6486H90.4719H95.9032H96.1393C97.3594 104.749 97.3594 102.964 96.2181 102.964Z" fill="#030140"/>
<path d="M132.151 55.8534C132.073 59.0258 131.994 62.1983 131.915 65.4104L131.522 80.5987C131.482 81.7487 131.443 82.9383 131.443 84.0884C131.404 85.2384 133.175 85.2384 133.214 84.0884C133.293 80.9159 133.371 77.7434 133.45 74.5313L133.844 59.3034C133.883 58.1534 133.922 56.9637 133.922 55.8137C133.962 54.7034 132.191 54.7034 132.151 55.8534Z" fill="#030140"/>
<path d="M55.5225 23.8511C57.0574 23.8511 58.5923 23.8115 60.1273 23.8115C63.7875 23.7718 67.4478 23.7322 71.108 23.7322C75.5554 23.6925 80.0028 23.6529 84.4502 23.6132C88.2679 23.5735 92.0855 23.5339 95.9426 23.5339C97.7924 23.5339 99.6815 23.5735 101.531 23.4942C101.571 23.4942 101.571 23.4942 101.61 23.4942C102.751 23.4942 102.751 21.7097 101.61 21.7097C100.075 21.7097 98.5401 21.7494 97.0052 21.7494C93.345 21.789 89.6847 21.8287 86.0245 21.8287C81.5771 21.8683 77.1297 21.908 72.6823 21.9477C68.8646 21.9873 65.0076 22.027 61.1899 22.027C59.3401 22.027 57.451 21.9873 55.6012 22.0666C55.5618 22.0666 55.5618 22.0666 55.5225 22.0666C54.3811 22.0666 54.3811 23.8511 55.5225 23.8511Z" fill="#030140"/>
<path d="M97.3594 94.1608C96.3755 94.2004 95.3916 94.2005 94.4076 94.2401C91.8494 94.3194 89.2912 94.3591 86.7329 94.4384C83.1514 94.5177 79.5699 94.597 76.0277 94.716L63.8662 94.9936C59.8911 95.0729 55.9554 95.1919 51.9803 95.2712C48.6743 95.3505 45.3682 95.4298 42.0622 95.5091C39.9369 95.5487 37.851 95.6281 35.7257 95.6677C35.2927 95.6677 34.8598 95.7074 34.4662 95.7074C32.7739 95.747 31.1996 94.7556 30.6486 93.0901C30.3731 92.178 30.4124 91.0676 30.3337 90.1159C30.2156 88.4107 30.0976 86.6658 29.9795 84.9606C29.7433 81.5106 29.5072 78.1002 29.2317 74.6501C29.2317 74.4518 29.1923 74.2139 29.1923 74.0156C29.153 73.5397 28.7988 73.1035 28.2871 73.1035C27.8542 73.1035 27.3819 73.5001 27.3819 74.0156L27.9723 82.0261C28.2084 85.1986 28.4445 88.4107 28.6413 91.5832C28.6807 92.3366 28.7201 93.0504 28.9956 93.7642C29.5072 95.1522 30.5305 96.3022 31.8686 96.897C32.7739 97.3333 33.7578 97.4522 34.7417 97.4126C36.3947 97.3729 38.0084 97.3333 39.6614 97.2936C42.6919 97.2143 45.7225 97.135 48.7923 97.0557C52.6494 96.9764 56.5064 96.8574 60.4028 96.7781C64.5353 96.6591 68.6285 96.5798 72.761 96.4608C76.5787 96.3815 80.357 96.2626 84.1747 96.1832C87.0871 96.1039 89.9996 96.0246 92.912 95.985C94.3683 95.9453 95.7851 95.9453 97.2414 95.866C97.3201 95.866 97.3594 95.866 97.4381 95.866C98.5008 95.9057 98.5008 94.1211 97.3594 94.1608Z" fill="#030140"/>
<path d="M81.1048 104.471C82.6397 108.358 84.214 112.284 85.749 116.17C85.9851 116.725 86.1819 117.28 86.418 117.835C86.6936 117.478 86.969 117.082 87.2839 116.725C84.6863 116.963 82.0887 117.161 79.4911 117.399C75.3586 117.756 71.2261 118.073 67.0935 118.43L64.2598 118.668C64.5353 119.025 64.8108 119.422 65.1257 119.779C66.2277 115.337 67.369 110.856 68.4711 106.415C68.6285 105.78 68.7859 105.146 68.9433 104.471C69.2188 103.361 67.5265 102.885 67.251 103.996L63.9056 117.36C63.7482 117.994 63.5907 118.629 63.4333 119.263C63.3152 119.779 63.7088 120.453 64.2992 120.373C66.8968 120.135 69.4943 119.937 72.0919 119.699L84.4895 118.668C85.4341 118.589 86.3787 118.51 87.3233 118.43C87.8349 118.391 88.4253 117.875 88.1891 117.32C86.6542 113.434 85.0799 109.508 83.5449 105.621C83.3088 105.066 83.112 104.511 82.8759 103.956C82.6791 103.52 82.2855 103.202 81.7739 103.321C81.3016 103.48 80.9474 104.035 81.1048 104.471Z" fill="#030140"/>
<path d="M125.264 57.3999C125.146 59.8982 125.028 62.3569 124.91 64.8552C124.713 68.8208 124.556 72.7467 124.359 76.7123C124.319 77.6244 124.28 78.5365 124.241 79.4486C124.201 80.5986 125.972 80.5986 126.012 79.4486C126.13 76.9502 126.248 74.4916 126.366 71.9932C126.563 68.0277 126.72 64.1017 126.917 60.1361C126.956 59.224 126.996 58.312 127.035 57.3999C127.114 56.2498 125.343 56.2498 125.264 57.3999Z" fill="#030140"/>
<path d="M49.3827 34.2805C50.957 34.2805 52.5313 34.3202 54.1056 34.3202C57.8446 34.3599 61.5835 34.3599 65.3618 34.3995C69.9273 34.4392 74.4928 34.4788 79.0582 34.5185C82.994 34.5581 86.8903 34.5978 90.8261 34.5978C92.7152 34.5978 94.6438 34.7168 96.5723 34.6374C96.6116 34.6374 96.6116 34.6374 96.651 34.6374C97.7924 34.6374 97.7924 32.8529 96.651 32.8529C95.0767 32.8529 93.5024 32.8133 91.9281 32.8133C88.1891 32.7736 84.4502 32.7736 80.6719 32.734C76.1064 32.6943 71.541 32.6546 66.9755 32.615C63.0791 32.5753 59.1434 32.5357 55.247 32.5357C53.3185 32.5357 51.4293 32.4167 49.5008 32.496C49.4614 32.496 49.4614 32.496 49.4221 32.496C48.2414 32.496 48.2414 34.2805 49.3827 34.2805Z" fill="#030140"/>
<path d="M152.814 31.9407C152.814 43.7582 143.211 54.9808 131.561 56.1308C125.815 56.686 119.872 54.9411 115.188 51.5704C106.215 45.1065 102.2 32.4562 105.743 21.9474C110.544 0.53324 152.853 4.93504 152.814 31.9407Z" fill="#F24B78"/>
<path d="M146.399 33.8841C146.359 39.7928 143.84 45.5429 139.865 49.8258C135.772 54.1879 130.144 56.9242 124.162 56.8845C117.432 56.8448 110.898 53.6327 106.569 48.4774C102.791 43.9567 100.665 38.0083 100.626 32.0996C100.626 30.6323 100.705 29.165 100.98 27.6978C101.216 26.3495 101.649 25.0805 101.964 23.7718C102.082 23.3356 102.2 22.8994 102.358 22.5028C102.436 22.3045 102.515 22.1063 102.594 21.8683C102.594 21.8287 102.712 21.6304 102.673 21.6701C102.633 21.7494 102.712 21.5907 102.712 21.5907C102.751 21.5114 102.751 21.4718 102.791 21.3925C103.145 20.5993 103.538 19.8855 104.011 19.1717C104.483 18.4976 104.837 18.0217 105.467 17.3476C105.743 17.0303 106.057 16.7527 106.372 16.4751C106.53 16.3562 106.648 16.1975 106.805 16.0786C106.884 15.9993 106.963 15.9596 107.041 15.8803C107.081 15.8406 107.12 15.8406 107.12 15.801C107.317 15.6424 107.002 15.9199 107.199 15.7613C107.868 15.2458 108.576 14.7699 109.285 14.3734C109.639 14.1751 110.032 13.9768 110.426 13.7785C110.623 13.6992 110.78 13.6199 110.977 13.5406C111.056 13.5009 111.134 13.4613 111.253 13.4216C111.134 13.4613 111.449 13.3423 111.489 13.3027C113.102 12.6285 114.834 12.1923 116.566 11.875C117.117 11.7957 117.274 11.7561 117.786 11.7164C118.258 11.6768 118.691 11.6371 119.163 11.5975C120.108 11.5578 121.013 11.5181 121.958 11.5578C123.926 11.6371 125.539 11.8354 127.428 12.2319C128.373 12.4302 129.278 12.6682 130.183 12.9854C130.656 13.144 131.089 13.3027 131.522 13.4613C131.718 13.5406 131.955 13.6199 132.151 13.6992C132.269 13.7389 132.387 13.7785 132.466 13.8182C132.624 13.8975 132.584 13.8578 132.663 13.8975C136.166 15.4044 139.157 17.5062 141.636 20.4011C142.227 21.1149 142.699 21.7494 143.25 22.5821C143.762 23.3753 144.234 24.2477 144.628 25.1201C144.982 25.9132 145.336 26.8253 145.572 27.7771C145.848 28.7685 146.084 29.7995 146.202 30.7909C146.202 30.8702 146.241 31.2271 146.281 31.3858C146.32 31.6237 146.32 31.9013 146.359 32.1392C146.399 32.7737 146.399 33.3289 146.399 33.8841C146.399 34.9944 148.13 35.0341 148.13 33.8841C148.13 29.5616 147.028 25.2787 144.667 21.6304C142.502 18.2596 139.432 15.563 135.93 13.6199C132.387 11.6768 128.491 10.4871 124.477 10.0509C120.659 9.61466 116.723 9.8526 113.024 10.963C109.6 11.994 106.294 13.8182 103.893 16.5148C102.673 17.9027 101.689 19.4493 100.98 21.1545C100.626 22.027 100.39 22.8994 100.154 23.8115C99.7208 25.2787 99.3272 26.7064 99.1305 28.2133C98.2646 34.5186 99.6815 41.0221 102.948 46.455C106.569 52.3637 112.433 56.6466 119.163 58.0742C122.587 58.8276 126.208 58.8276 129.593 57.9552C132.545 57.2018 135.339 55.8138 137.779 53.95C142.738 50.1827 146.399 44.5912 147.658 38.4049C147.973 36.8979 148.13 35.391 148.13 33.8444C148.13 32.7737 146.399 32.7737 146.399 33.8841Z" fill="#030140"/>
<path d="M120.344 43.9962C120.265 45.3048 120.305 46.6928 121.171 47.7635C122.037 48.7946 123.296 48.9532 124.477 48.3584C125.815 47.6842 127.035 46.7325 128.294 45.9393C129.633 45.0669 130.971 44.2341 132.348 43.3617C132.978 42.9651 132.388 41.9341 131.758 42.3306C129.514 43.7583 127.31 45.1462 125.067 46.5738C124.241 47.0894 123.178 48.0015 122.273 47.1687C121.407 46.3756 121.525 45.0669 121.564 43.9962C121.564 43.2031 120.384 43.2031 120.344 43.9962Z" fill="#030140"/>
<path d="M113.378 34.3994C116.369 34.3201 119.36 34.2011 122.351 34.1218C127.074 33.9631 131.797 33.8442 136.52 33.6856L139.787 33.5666C139.669 33.408 139.551 33.2493 139.433 33.0907C139.315 33.7252 138.96 34.3597 138.567 34.8752C137.78 35.827 136.756 36.1046 135.576 36.1442C133.647 36.2235 131.719 36.2632 129.829 36.3425C125.382 36.5011 120.895 36.6598 116.448 36.858C116.094 36.858 115.739 36.8977 115.425 36.9373C114.834 37.0167 114.244 36.8184 113.968 36.2632C113.693 35.6684 113.496 34.7959 113.772 34.1218C113.929 33.6459 113.221 33.4476 113.063 33.9235C112.63 35.0735 113.102 36.977 114.244 37.5322C114.716 37.7305 115.228 37.7701 115.7 37.6511C115.897 37.6115 115.621 37.6511 115.7 37.6511C115.739 37.6511 115.818 37.6511 115.857 37.6511C117.51 37.6115 119.164 37.5322 120.817 37.4529C125.697 37.2546 130.538 37.096 135.418 36.9373C136.756 36.8977 138.016 36.6598 138.96 35.6287C139.551 34.9942 140.023 34.1614 140.22 33.3287C140.259 33.0907 140.102 32.8528 139.866 32.8528C136.874 32.9321 133.883 33.0511 130.892 33.1304C126.169 33.289 121.446 33.408 116.723 33.5666L113.457 33.6856C112.906 33.6459 112.906 34.3994 113.378 34.3994Z" fill="#030140"/>
<path d="M113.85 32.5753C113.811 30.6718 113.811 28.7286 113.772 26.8252C113.772 25.9131 113.732 25.001 113.732 24.0889C113.732 23.5337 113.89 22.8199 114.362 22.463C114.637 22.2251 114.952 22.1854 115.306 22.1854C115.897 22.1854 116.448 22.2251 117.038 22.1854C117.943 22.1458 118.809 21.9871 119.596 21.6302C120.029 21.432 120.423 21.194 120.817 20.9957C121.21 20.7578 121.682 20.4802 122.155 20.5199C122.902 20.5595 123.335 21.432 123.729 21.9871C124.634 23.2165 125.539 24.4458 126.759 25.3579C127.429 25.8734 128.176 26.3096 129.003 26.5476C129.947 26.8648 130.931 26.8648 131.915 26.9838C133.647 27.1424 135.93 27.1027 137.268 28.3717C137.976 29.0855 138.449 30.1563 138.645 31.108C138.724 31.5046 138.803 31.9804 138.645 32.3373C138.488 32.8132 139.196 33.0115 139.354 32.5356C139.787 31.3063 139.078 29.6804 138.449 28.689C137.583 27.2217 136.048 26.7062 134.434 26.4683C133.411 26.3096 132.427 26.27 131.404 26.151C130.38 26.0717 129.357 25.9527 128.412 25.4769C126.838 24.7234 125.657 23.3354 124.634 21.9475C124.241 21.3923 123.886 20.7975 123.375 20.3216C122.706 19.6474 121.879 19.5681 121.053 19.925C120.108 20.3216 119.282 20.9561 118.258 21.194C117.196 21.432 116.172 21.313 115.11 21.3526C113.811 21.3923 112.984 22.463 112.906 23.732C112.866 24.2872 112.906 24.882 112.906 25.4372C112.945 27.8166 112.984 30.1959 113.024 32.5753C113.102 33.0908 113.85 33.0908 113.85 32.5753Z" fill="#030140"/>
<path d="M117.51 32.9323C117.196 32.2581 117.156 31.465 117.865 31.0288C118.77 30.5132 119.714 30.5132 120.738 30.4339C122.155 30.315 123.572 30.1167 124.988 29.9581C125.225 29.9184 125.421 29.7201 125.343 29.4822C124.831 27.896 123.453 26.7063 122.391 25.5166C122.351 25.4373 122.273 25.3976 122.233 25.3183C122.273 25.358 122.273 25.3976 122.233 25.2787C122.155 24.9614 121.997 24.6045 122.155 24.2873C122.273 24.0493 122.588 23.9304 122.784 23.8114C123.02 23.6528 123.257 23.4942 123.453 23.3355C123.729 23.1373 124.004 22.939 124.241 22.7407C124.634 22.4235 124.083 21.9079 123.69 22.1855C123.375 22.4234 123.06 22.6614 122.745 22.8993C122.312 23.2166 121.722 23.4545 121.446 23.9304C121.131 24.4856 121.249 25.3183 121.604 25.8339C121.997 26.389 122.548 26.9046 123.021 27.4201C123.65 28.1339 124.28 28.808 124.595 29.7201C124.713 29.5615 124.831 29.4029 124.949 29.2443C123.375 29.4425 121.761 29.6805 120.187 29.7598C119.596 29.7994 119.006 29.7994 118.416 29.9977C117.825 30.196 117.078 30.5133 116.763 31.0684C116.33 31.7426 116.527 32.6943 116.841 33.3685C117.078 33.765 117.707 33.3685 117.51 32.9323Z" fill="#030140"/>
<path d="M112.04 26.7062C112.709 26.8252 113.378 26.8648 114.008 26.9045C114.874 26.9045 115.936 26.8648 116.448 26.0321C116.841 25.3976 116.841 24.5251 116.763 23.8113C116.763 23.7717 116.763 23.732 116.763 23.6924C116.723 23.4544 116.763 23.613 116.763 23.6527C116.763 23.613 116.763 23.5337 116.763 23.4544C116.763 23.1372 116.763 22.8199 116.763 22.5027C116.763 21.8682 116.763 21.194 116.802 20.5595C116.802 20.0837 116.054 20.0837 116.054 20.5595V22.0665C116.054 22.582 116.015 23.0975 116.054 23.613C116.054 23.8906 116.054 23.5734 116.054 23.732C116.054 23.851 116.094 23.9699 116.094 24.0889C116.094 24.4458 116.094 24.8027 116.015 25.1596C115.936 25.4769 115.818 25.7941 115.464 25.9527C115.11 26.1114 114.716 26.1114 114.362 26.151C113.89 26.151 113.417 26.151 112.945 26.0717C112.67 26.032 112.551 26.032 112.276 25.9924C111.764 25.9131 111.568 26.6269 112.04 26.7062Z" fill="#030140"/>
<path d="M125.264 25.5166C125.854 25.1597 126.445 24.8028 127.035 24.4459C127.192 24.327 127.271 24.089 127.153 23.9304C127.035 23.7718 126.838 23.6925 126.641 23.8114C126.051 24.1683 125.461 24.5252 124.87 24.8821C124.713 25.0011 124.634 25.239 124.752 25.3977C124.831 25.5166 125.067 25.596 125.264 25.5166Z" fill="#030140"/>
<path d="M127.468 28.332C128.255 27.6975 129.042 27.1026 129.829 26.4682C129.987 26.3492 129.987 26.0716 129.829 25.913C129.672 25.7543 129.475 25.794 129.278 25.913C128.491 26.5475 127.704 27.1423 126.917 27.7768C126.759 27.8958 126.759 28.1734 126.917 28.332C127.114 28.4906 127.31 28.4906 127.468 28.332Z" fill="#030140"/>
<path d="M126.366 27.1819L128.452 25.913C128.609 25.794 128.688 25.5561 128.57 25.3974C128.452 25.2388 128.216 25.1595 128.058 25.2785C127.35 25.7147 126.681 26.1509 125.972 26.5475C125.815 26.6664 125.736 26.9044 125.854 27.063C125.933 27.2216 126.169 27.3009 126.366 27.1819Z" fill="#030140"/>
</svg>
