<svg width="127" height="102" viewBox="0 0 127 102" fill="none" xmlns="http://www.w3.org/2000/svg">
<path d="M57.7815 100.533C79.7408 102.155 102.352 101.871 124.352 101.019C125.167 100.979 126.104 100.898 126.552 100.208C126.837 99.8029 126.837 99.2351 126.837 98.7485C126.796 93.5173 127.244 88.2456 126.389 83.0549C126.348 82.8116 126.307 82.5683 126.144 82.3655C125.9 82.1222 125.533 82.1627 125.167 82.1222C110.296 82.0411 72.0407 81.7167 59.7778 81.5139C58.6778 81.5139 57.7815 82.3655 57.7815 83.4604V100.533Z" fill="#F24B78"/>
<path d="M74.037 46.5177C71.5111 39.1778 64.137 33.7844 56.3963 33.5816C48.6148 33.3789 40.9555 38.3668 38.0629 45.5445C37.3703 47.2477 36.9222 49.032 36.7185 50.8163C36.1074 56.4935 37.9815 62.4141 41.7703 66.7126C45.5592 71.0112 51.2222 73.6065 56.9666 73.6876" fill="#F24B78"/>
<path d="M81.6963 17.8068V5.92501C81.6963 4.83011 80.8 3.97852 79.7407 3.97852H8.52592C7.99629 3.97852 7.5074 4.18128 7.14074 4.54625L1.47777 10.183C0.703698 10.9535 0.703698 12.17 1.47777 12.9405L5.71481 17.1579C6.08148 17.5229 6.57036 17.7257 7.09999 17.7257H73.7518" fill="#F24B78"/>
<path d="M13.8222 2.64037C25.0666 2.51871 36.3111 2.39706 47.5963 2.2754C58.8815 2.15374 70.1666 2.03209 81.4518 1.91043L83.774 1.86988C84.1814 1.86988 84.5889 1.86988 84.9963 1.86988C85.1592 1.86988 86.0555 1.95098 86.1777 1.86988H86.2185C86.3407 1.86988 86.3 1.82933 86.0963 1.70767C86.137 1.70767 86.137 2.11319 86.137 2.11319C86.137 2.47816 86.137 2.84313 86.1777 3.2081C86.2185 4.01914 86.2185 4.83017 86.2592 5.60066C86.3407 8.76372 86.4222 11.8862 86.5037 15.0493C86.5444 16.2253 88.3778 16.2253 88.337 15.0493C88.2555 12.1701 88.174 9.29089 88.0926 6.4117C88.0518 4.99238 88.0111 3.61362 87.9703 2.1943C87.9703 1.58602 87.8889 0.896633 87.4 0.450561C86.8296 -0.0766143 86.0963 0.00449027 85.3629 0.00449027C79.6185 0.0855942 73.8333 0.126146 68.0889 0.20725L33.337 0.572219C26.8185 0.653323 20.3407 0.734427 13.8222 0.774979C12.6407 0.815531 12.6407 2.64037 13.8222 2.64037Z" fill="#030140"/>
<path d="M77.3777 1.34261C77.5 3.41076 77.6222 5.43836 77.7852 7.50652C77.8259 7.99314 78.1926 8.43922 78.7222 8.43922C79.2111 8.43922 79.6592 8.03369 79.6592 7.50652C79.537 5.43836 79.4148 3.41076 79.2518 1.34261C79.2111 0.855983 78.8444 0.409912 78.3148 0.409912C77.8259 0.409912 77.337 0.815431 77.3777 1.34261Z" fill="#030140"/>
<path d="M11.4185 2.11313C9.21854 3.73521 7.18151 5.56005 5.34817 7.6282C4.98151 8.03372 5.02225 8.52035 5.34817 8.92587C6.9778 10.8318 8.56669 12.7378 10.1963 14.6031C10.9297 15.4142 11.7852 16.0225 12.8445 16.2252C14.0667 16.428 15.3297 16.3874 16.5519 16.428C21.6445 16.6307 26.6963 16.7524 31.7889 16.8741C41.9741 17.0768 52.1593 17.1174 62.3445 16.9957C68.0482 16.9146 73.7926 16.793 79.4963 16.5902C80.6778 16.5496 80.6778 14.7248 79.4963 14.7654C69.4741 15.0898 59.4519 15.252 49.4297 15.252C39.4074 15.252 29.3852 15.0492 19.363 14.7248C17.9778 14.6843 16.5926 14.6437 15.2074 14.5626C14.026 14.522 12.8037 14.6437 11.9074 13.7921C10.9704 12.9 10.1963 11.8456 9.34076 10.8318C8.44447 9.77746 7.50743 8.68256 6.61114 7.6282V8.92587C8.32225 6.97937 10.2371 5.23564 12.3148 3.69466C12.7222 3.4108 12.926 2.88362 12.6408 2.43755C12.4371 2.07258 11.7852 1.82927 11.4185 2.11313Z" fill="#030140"/>
<path d="M64.0148 83.0953C62.3037 83.4603 60.4296 84.0686 59.737 85.8529C59.0037 87.6777 59.9407 89.7864 61.163 91.2058C62.4259 92.5845 64.4222 93.4361 66.2556 92.7467C68.2111 92.0168 69.0259 89.9081 69.2296 87.9616C69.4333 85.8529 68.4556 83.6225 66.2963 82.9737C65.3185 82.6898 64.9111 84.2308 65.8889 84.5147C67.1519 84.8796 67.7222 86.2584 67.6815 87.475C67.6407 88.7321 67.1926 90.5164 65.9704 91.1652C64.8296 91.8141 63.4037 91.2463 62.5481 90.3947C61.6518 89.5431 60.7963 88.0833 61.0815 86.7856C61.4074 85.3257 63.1593 84.9202 64.4222 84.6769C64.8296 84.5958 65.0741 84.1092 64.9926 83.7036C64.8704 83.217 64.4222 83.0142 64.0148 83.0953Z" fill="#030140"/>
<path d="M73.7926 45.7469C72.5296 39.7046 68.4555 34.5545 63.037 31.6753C58.4333 29.2422 52.974 29.1611 48.0444 30.5804C46.8222 30.9454 45.5592 31.3915 44.5 32.0809C43.3592 32.8108 42.4222 33.784 41.4444 34.6762C39.8555 36.136 38.5518 37.677 37.574 39.6235C36.8407 41.0834 36.2296 42.5838 35.8629 44.1654C35.4963 45.828 35.3333 47.5312 35.2926 49.2344C35.1703 52.4785 35.4963 55.6416 37.0852 58.5208C38.6333 61.3189 41.2407 63.2653 44.0926 64.6441C47.1481 66.104 50.4481 67.4017 53.8296 67.9288C54.7259 68.091 55.6222 68.1721 56.5185 68.2127C57.7 68.2533 57.7 66.4284 56.5185 66.3879C53.1777 66.2662 50 65.1713 46.9444 63.9142C44.2963 62.8193 41.6481 61.4811 39.774 59.2507C37.9407 57.0609 37.1259 54.1411 37.0852 51.3431C37.0444 48.2611 37.2074 45.0169 38.3889 42.1783C38.837 41.0834 39.3666 39.9885 40.0185 38.9747C40.5074 38.2448 40.9963 37.6365 41.6481 36.9876C42.4629 36.1766 43.3592 35.4061 44.2148 34.5951C45.0296 33.8246 45.9666 33.2569 47.0259 32.8513C49.0222 32.0808 51.1407 31.6753 53.2592 31.5537C55.7037 31.3915 58.1074 31.6348 60.4296 32.4864C65.6037 34.4734 69.8 39.0152 71.5111 44.2465C71.7148 44.8953 71.8778 45.5847 72.0407 46.2335C72.2444 47.4095 73.9963 46.9229 73.7926 45.7469Z" fill="#030140"/>
<path d="M36.7593 41.2054C36.1481 39.5833 35.2926 37.9207 34.3148 36.5014C33.9482 36.0147 33.0519 35.812 32.7259 36.5014C31.7889 38.529 30.6889 40.516 29.5889 42.4625C28.0815 45.1795 26.4926 47.8965 24.9445 50.6135C21.7259 56.1691 18.4259 61.6842 15.3704 67.3209C14.3111 69.2674 13.1704 71.2544 12.4371 73.3631C12.2333 73.8903 12.763 74.5391 13.3333 74.4986C15.2074 74.4175 17.0815 74.458 18.9556 74.458C22.0519 74.458 25.1074 74.4986 28.2037 74.4986C34.7222 74.5391 41.2815 74.6202 47.8 74.7014C49.7148 74.7014 51.6704 74.7825 53.5852 74.7014C54.3185 74.7014 54.6852 73.9309 54.3592 73.3226C52.9333 70.5245 51.3852 67.767 49.7148 65.1311C49.063 64.1578 47.5148 65.05 48.1259 66.0638C49.837 68.6996 51.3852 71.4572 52.7704 74.2553L53.5444 72.8765C48.9815 72.9982 44.3778 72.836 39.8148 72.7954C33.1741 72.7143 26.5333 72.6332 19.8926 72.6332C17.6926 72.6332 15.4926 72.5926 13.3333 72.6738C13.6185 73.0793 13.9037 73.4442 14.2296 73.8092C14.2704 73.647 14.3519 73.5253 14.3926 73.3631C14.4333 73.282 14.4741 73.2009 14.4741 73.1198C14.3519 73.4037 14.5148 73.0793 14.5148 72.9982C14.6778 72.5926 14.8815 72.2277 15.0445 71.8222C15.5333 70.8084 16.063 69.8351 16.5926 68.8619C17.9778 66.3071 19.4037 63.7523 20.8704 61.2381C24.1296 55.5608 27.4704 49.9646 30.6889 44.2468C31.9519 41.9759 33.2556 39.7455 34.3148 37.3935H32.7259C33.663 38.6912 34.4778 40.1916 35.0074 41.6515C35.1704 42.0975 35.6185 42.422 36.1481 42.3003C36.5963 42.2192 36.9222 41.692 36.7593 41.2054Z" fill="#030140"/>
<path d="M88.663 28.4314C88.5815 26.0793 88.5 23.7273 88.4186 21.3753C88.4186 20.8887 88.0112 20.4426 87.4815 20.4426C82.9186 20.6048 78.3149 20.6859 73.7519 20.7265C68.1704 20.8076 62.5482 20.8076 56.9667 20.8076C51.1408 20.8076 45.3149 20.8076 39.4889 20.767C34.1519 20.7265 28.8148 20.7265 23.4778 20.6859C19.4037 20.6454 15.3704 20.6454 11.2963 20.6454C10.9297 20.6454 10.563 20.6454 10.1963 20.6454C9.01484 20.6454 9.01484 22.4702 10.1963 22.4702C14.026 22.4702 17.8963 22.4702 21.726 22.5108C26.9408 22.5513 32.1556 22.5513 37.3704 22.5919C43.1556 22.6324 48.9815 22.6324 54.7667 22.6324C60.4297 22.6324 66.0926 22.6324 71.7556 22.5919C76.4815 22.5513 81.2482 22.4702 85.9741 22.3486C86.463 22.3486 86.9112 22.308 87.4 22.308L86.463 21.3753C86.5445 23.7273 86.626 26.0793 86.7075 28.4314C86.8704 29.6074 88.7038 29.6074 88.663 28.4314Z" fill="#030140"/>
<path d="M5.83704 21.4159C5.42963 26.0793 5.47037 30.8239 5.42963 35.4874C5.38889 42.3001 5.47037 49.1129 5.55185 55.9256C5.63333 62.2517 5.7963 68.6184 5.95926 74.9445C6.04074 77.1749 6.12222 79.4052 6.2037 81.6761C6.28519 82.9738 6.12222 84.8797 7.67037 85.3664C8.24074 85.5286 8.85185 85.4475 9.42222 85.4475C10.1556 85.4069 10.8889 85.4069 11.6222 85.3664C13.0074 85.3258 14.3926 85.2853 15.8185 85.2447C26.9 84.9608 38.0222 84.7986 49.1037 84.5148C50.4481 84.4742 51.8333 84.4337 53.1778 84.3931C54.3593 84.3526 54.3593 82.5277 53.1778 82.5683C42.1778 82.8927 31.2185 83.0549 20.2185 83.3388C17.4889 83.4199 14.7593 83.4604 12.0296 83.5415C11.4185 83.5415 10.7667 83.5821 10.1556 83.5821C9.58518 83.5821 8.89259 83.7037 8.32222 83.6226C8.15926 83.5821 8.2 83.6226 8.15926 83.4199C8.11852 83.2982 8.11852 83.136 8.11852 82.9738C8.11852 82.771 8.07778 82.5683 8.07778 82.3655C7.95555 80.2974 7.91481 78.2292 7.83333 76.1611C7.62963 70.0377 7.50741 63.9144 7.38519 57.791C7.26296 51.0188 7.22222 44.2466 7.22222 37.4744C7.22222 32.4866 7.22222 27.4987 7.54815 22.5108C7.58889 22.1458 7.58889 21.7808 7.62963 21.4159C7.67037 20.9292 7.18148 20.4832 6.69259 20.4832C6.2037 20.4832 5.87778 20.9292 5.83704 21.4159Z" fill="#030140"/>
<path d="M57.863 78.1889C64.7889 74.3364 71.7556 70.5651 78.7222 66.8343C85.7296 63.063 92.7778 59.3322 99.7852 55.6014C103.737 53.4927 107.689 51.384 111.641 49.3158L110.378 48.9914C112.415 52.1545 114.411 55.3175 116.448 58.44C116.937 59.2511 117.467 60.0215 117.956 60.8326C118.037 60.9948 118.159 61.157 118.241 61.3192C118.281 61.4003 118.281 61.6436 118.322 61.522C118.241 61.7247 117.915 61.8869 117.711 61.9681C116.285 62.7791 114.9 63.7523 113.474 64.6039C109.033 67.3209 104.389 69.6729 99.8259 72.1061C97.137 73.5659 94.4889 75.0664 91.8815 76.6884C90.863 77.2967 91.8 78.8782 92.8185 78.27C97.3815 75.4313 102.148 72.9982 106.874 70.484C109.441 69.1052 111.967 67.6859 114.411 66.1855C115.878 65.2933 117.344 64.3201 118.811 63.4279C119.463 63.0224 120.033 62.4952 120.115 61.7247C120.196 60.7515 119.626 59.981 119.137 59.2105C116.733 55.4797 114.37 51.7489 111.967 48.0587C111.681 47.6126 111.152 47.491 110.704 47.7343C103.696 51.4651 96.6889 55.1959 89.6815 58.8861C82.6741 62.6169 75.6667 66.3477 68.6593 70.1596C64.7482 72.2683 60.8371 74.4175 56.9259 76.6073C55.9074 77.1751 56.8445 78.7566 57.863 78.1889Z" fill="#030140"/>
<path d="M89.2333 59.2103C92.2482 53.6142 95.3445 48.018 98.0741 42.3001C98.8889 40.597 99.663 38.8938 100.437 37.1906C100.682 36.6634 100.519 36.0551 99.9074 35.8524C94.6519 34.2708 89.6815 31.8377 85.2408 28.6341C84.9148 28.3908 84.3852 28.5125 84.1408 28.7963C83.6926 29.2424 83.3667 29.8912 83 30.4184C82.3074 31.5133 81.6148 32.6082 80.963 33.7031C78.8037 37.1906 76.7259 40.6781 74.6074 44.1655C72.0407 48.4235 69.4741 52.6815 66.9074 56.9394C64.5852 60.8324 62.2222 64.6848 59.9 68.5373C58.4741 70.8893 57.0481 73.2413 55.5815 75.5528C55.5 75.6744 55.4185 75.7961 55.337 75.9178C54.6852 76.891 56.2741 77.8237 56.9259 76.8504C58.3111 74.8228 59.5333 72.7141 60.7963 70.646C63.0778 66.9558 65.3185 63.225 67.5593 59.4942C70.1259 55.2362 72.6926 50.9377 75.3 46.6798C77.5 43.0301 79.7 39.421 81.9 35.7713C83.0815 33.8653 84.2222 31.9188 85.4852 30.094C85.6074 29.9318 85.2815 30.2968 85.4852 30.094C85.1185 30.1345 84.7519 30.1751 84.3852 30.2562C88.9889 33.5409 94.0815 36.0146 99.5 37.6367C99.3371 37.1906 99.1334 36.7445 98.9704 36.2984C96.4037 42.1379 93.4297 47.8152 90.4148 53.4519C89.5185 55.074 88.663 56.6961 87.7667 58.3182C87.1148 59.332 88.7037 60.2647 89.2333 59.2103Z" fill="#030140"/>
<path d="M75.2185 45.6659C77.2148 46.3958 79.2111 47.3691 81.2482 48.3423C83.4889 49.4372 85.7297 50.5727 87.9296 51.7892C88.3371 52.0326 88.7852 52.2759 89.1926 52.5192C89.3556 52.6003 89.5185 52.7219 89.6408 52.803C89.6815 52.8436 89.763 52.8841 89.8037 52.9247C89.9259 53.0058 89.6 52.7625 89.8037 52.9247C90.7 53.6952 92.0037 52.3975 91.1074 51.627C90.5371 51.1404 89.8852 50.7754 89.2741 50.4105C88.2963 49.8427 87.2778 49.275 86.2593 48.7478C83.8556 47.4907 81.4519 46.3147 78.9667 45.1792C77.9074 44.6926 76.8074 44.206 75.7074 43.8005C75.2593 43.6383 74.6889 44.0032 74.5667 44.4493C74.4445 45.0576 74.7296 45.5037 75.2185 45.6659Z" fill="#030140"/>
<path d="M92.6963 58.0344C92.9 59.2104 93.5112 60.2648 94.163 61.238C94.8963 62.3735 95.6704 63.4684 96.4445 64.5633C97.9926 66.8342 99.5408 69.1051 101.089 71.376C101.741 72.3493 103.33 71.4166 102.678 70.4433C101.17 68.213 99.663 66.0232 98.1148 63.7928C97.3815 62.7384 96.6482 61.6435 95.9149 60.5892C95.263 59.6565 94.6519 58.6832 94.4482 57.5478C94.3667 57.0611 93.7556 56.7773 93.3074 56.8989C92.8186 57.0612 92.5741 57.5478 92.6963 58.0344Z" fill="#030140"/>
<path d="M55.5 80.3378C57.863 80.3784 60.2667 80.419 62.6297 80.419C66.2556 80.4595 69.8815 80.5001 73.5074 80.5001C77.826 80.5406 82.1445 80.5406 86.4222 80.5812C90.9037 80.6217 95.426 80.6217 99.9074 80.6623C104.022 80.7028 108.178 80.7028 112.293 80.7434C114.044 80.7434 115.837 80.7434 117.589 80.7839C118.363 80.7839 119.096 80.7839 119.87 80.7839C120.237 80.7839 120.604 80.7839 120.97 80.7839C121.133 80.7839 121.296 80.7839 121.459 80.7839C121.582 80.7839 122.03 80.8245 121.907 80.7434C122.03 80.865 122.03 81.5139 122.07 81.7166C122.111 82.1221 122.193 82.5277 122.233 82.9332C122.315 83.7848 122.356 84.6364 122.396 85.488C122.478 87.1506 122.478 88.8132 122.437 90.4353C122.396 92.1385 122.356 93.8011 122.356 95.5043C122.356 95.8693 122.356 96.2748 122.356 96.6398C122.356 96.8831 122.356 97.2075 122.193 97.4102C121.867 97.7347 121.215 97.7347 120.807 97.7347C114.004 98.0185 107.2 98.1402 100.396 98.1807C93.5926 98.2213 86.8297 98.1807 80.026 97.978C73.2222 97.7752 66.4185 97.4914 59.6148 97.0453C57.9445 96.9236 56.2741 96.802 54.6037 96.6803L55.5408 97.613C55.5408 92.0979 55.5408 86.6234 55.5 81.1083C55.5 79.9323 53.6667 79.9323 53.6667 81.1083C53.7074 86.6234 53.7074 92.0979 53.7074 97.613C53.7074 98.1402 54.1148 98.5051 54.6445 98.5457C61.6111 99.0729 68.5778 99.4378 75.5445 99.6812C82.5111 99.9245 89.4371 100.046 96.4037 100.046C103.37 100.046 110.378 99.9245 117.344 99.6812C118.2 99.6406 119.096 99.6406 119.952 99.6001C120.644 99.5595 121.378 99.5595 122.07 99.4378C122.722 99.3162 123.374 98.9918 123.782 98.424C124.27 97.7752 124.27 96.9642 124.27 96.1937C124.23 92.7468 124.433 89.2998 124.311 85.8529C124.27 84.1092 124.107 82.406 123.822 80.6623C123.7 79.8918 123.374 79.1618 122.519 78.9591C122.03 78.8374 121.541 78.878 121.052 78.878C119.463 78.878 117.874 78.878 116.285 78.8374C112.333 78.7969 108.382 78.7969 104.43 78.7563C99.8667 78.7158 95.3445 78.7158 90.7815 78.6752C86.2593 78.6347 81.7371 78.6347 77.2148 78.5941C73.2222 78.5536 69.2704 78.5536 65.2778 78.513C62.4667 78.4725 59.6556 78.4725 56.8445 78.4319C56.3963 78.4319 55.9482 78.4319 55.5 78.3914C54.3185 78.4725 54.3185 80.2973 55.5 80.3378Z" fill="#030140"/>
<path d="M59.9408 71.4975C61.4074 72.1869 62.8741 72.9574 64.4222 73.444C64.8704 73.6063 65.4408 73.2818 65.563 72.7952C65.6852 72.3086 65.4 71.822 64.9111 71.6597C64.5852 71.5381 64.2593 71.4164 63.9333 71.2948C63.8111 71.2542 64.137 71.3759 63.9741 71.2948C63.9333 71.2948 63.8926 71.2542 63.8519 71.2542C63.7704 71.2137 63.6482 71.1731 63.5667 71.1326C63.363 71.0515 63.1593 70.9704 62.9556 70.8487C62.263 70.5243 61.5704 70.1999 60.8778 69.8754C60.4296 69.6727 59.8593 69.7538 59.6148 70.1999C59.4111 70.6459 59.4926 71.2542 59.9408 71.4975Z" fill="#030140"/>
<path d="M68.2111 71.4977C69.5963 73.5658 70.8593 75.7151 72.0408 77.9454C72.2852 78.3915 72.8963 78.5131 73.3037 78.2698C73.7519 78.0265 73.8741 77.4588 73.6296 77.0127C72.4482 74.8229 71.1852 72.6737 69.8 70.565C69.5148 70.1594 68.9852 69.9972 68.5371 70.2405C68.1296 70.4839 67.9667 71.0921 68.2111 71.4977Z" fill="#030140"/>
<path d="M74.5667 79.973C74.1593 85.5286 73.9963 91.0842 73.8333 96.6804C73.7926 97.8564 75.6259 97.8564 75.6667 96.6804C75.8296 91.1248 75.9926 85.5286 76.4 79.973C76.4407 79.4864 75.9519 79.0403 75.463 79.0403C74.9741 79.0403 74.6074 79.4458 74.5667 79.973Z" fill="#030140"/>
<path d="M100.641 80.5002C100.722 86.0558 100.804 91.652 100.885 97.2076C100.885 98.3836 102.719 98.3836 102.719 97.2076C102.637 91.652 102.556 86.0558 102.474 80.5002C102.433 79.3242 100.6 79.3242 100.641 80.5002Z" fill="#030140"/>
</svg>
