<svg width="116" height="127" viewBox="0 0 116 127" fill="none" xmlns="http://www.w3.org/2000/svg">
<path d="M69.2977 13.0513C68.7096 20.0761 69.4545 24.9934 69.4545 33.7743C81.6859 33.3841 93.5646 35.0622 105.639 33.8914C105.914 33.8524 107.364 33.3451 107.443 31.862C107.599 26.2422 107.129 20.8176 107.678 15.2368C107.835 13.4806 106.502 12.7391 106.188 12.7001C95.4855 12.0756 85.7631 12.1147 75.4526 12.0366" fill="#F24B78"/>
<path d="M65.6126 15.3538C65.1813 20.5053 65.495 25.6178 65.691 30.7693C65.7302 32.5254 65.7694 34.2816 65.7694 36.0768C65.7694 36.5452 66.1614 36.9745 66.6711 36.9745C73.1788 36.7793 79.6474 37.1306 86.1551 37.3647C89.3698 37.4818 92.5845 37.5599 95.7992 37.4818C97.4065 37.4428 98.9746 37.4038 100.582 37.2867C101.68 37.2086 102.973 37.2867 103.953 36.7403C105.012 36.1549 105.522 35.1792 105.522 34.0084C105.561 32.4084 105.561 30.8083 105.522 29.2082C105.482 25.969 105.404 22.7298 105.561 19.4906C105.639 18.1637 105.992 16.7588 105.247 15.5489C104.816 14.8074 104.071 14.2611 103.209 14.183C100.033 13.9098 96.8184 13.8708 93.6038 13.7928C87.3704 13.6366 81.1371 13.5976 74.9038 13.5586C74.1197 13.5586 73.3356 13.5586 72.5908 13.5586C71.4539 13.5586 71.4539 15.3148 72.5908 15.3148C78.5497 15.3538 84.5086 15.3538 90.4675 15.4709C93.447 15.5489 96.4656 15.627 99.4451 15.7441C100.229 15.7831 100.974 15.8221 101.758 15.8612C102.15 15.9002 102.542 15.9002 102.934 15.9392C103.052 15.9392 103.209 15.9392 103.326 15.9782C103.013 15.9782 103.326 16.0563 103.13 15.9392C103.209 15.9782 103.483 16.1734 103.365 16.0953C103.522 16.2124 103.601 16.3295 103.679 16.4075C103.953 16.7978 103.953 17.1881 103.953 17.6564C103.757 20.7785 103.679 23.8616 103.718 27.0227C103.757 28.5447 103.757 30.0668 103.757 31.5888C103.757 32.2913 103.757 32.9938 103.757 33.6962C103.757 34.2036 103.757 34.6719 103.405 35.0231C103.287 35.1792 103.248 35.1792 103.052 35.2963C102.973 35.3353 102.895 35.3744 102.817 35.4134C103.013 35.3353 102.817 35.4134 102.777 35.4134C102.738 35.4134 102.699 35.4134 102.66 35.4524C102.581 35.5305 103.091 35.4134 102.581 35.4524C102.15 35.4915 101.68 35.5305 101.248 35.5695C99.7195 35.6866 98.1906 35.7646 96.6616 35.8037C93.6038 35.8817 90.5459 35.8427 87.488 35.7646C80.5099 35.5695 73.5709 35.1012 66.5927 35.3354L67.4943 36.233C67.4943 30.8083 67.0239 25.3836 67.1023 19.9199C67.1415 18.4369 67.2199 16.9929 67.3375 15.5099C67.3767 15.0416 66.9063 14.6123 66.4359 14.6123C65.9654 14.4562 65.6518 14.8855 65.6126 15.3538Z" fill="#030140"/>
<path d="M76.5895 22.6126C82.7445 22.8858 88.8994 22.6907 95.0543 22.4565C96.1912 22.4175 96.1912 20.6613 95.0543 20.7003C88.8994 20.9345 82.7445 21.1296 76.5895 20.8565C75.4526 20.8174 75.4526 22.5736 76.5895 22.6126Z" fill="#030140"/>
<path d="M74.5902 29.0909H97.4065C98.5434 29.0909 98.5434 27.3347 97.4065 27.3347H74.5902C73.4533 27.3347 73.4533 29.0909 74.5902 29.0909Z" fill="#030140"/>
<path d="M23.7434 13.0122C27.6637 9.77296 31.8977 6.92403 36.3669 4.50439C36.3669 8.44606 36.4061 12.3877 36.4061 16.2904C36.4061 16.6416 36.4061 17.0709 36.1709 17.3441C35.8964 17.6563 35.426 17.7344 34.9948 17.7344C31.6233 17.8905 28.2126 17.3831 24.9979 16.2904" fill="#F24B78"/>
<path d="M39.3855 2.436C47.1478 2.82626 54.9101 3.02139 62.6331 3.09945C66.5143 3.13847 70.3562 3.09945 74.2373 3.06042C76.1975 3.02139 78.1185 2.98237 80.0786 2.94334C81.5683 2.90431 83.1757 2.70918 84.6654 2.98237C85.2535 3.09945 85.8807 3.29458 86.2727 3.7629C86.7824 4.38732 86.6648 5.28493 86.6256 6.02643C86.5864 7.35333 86.6256 8.71925 86.5864 10.0462C86.5472 11.1779 88.3113 11.1779 88.3505 10.0462C88.3897 8.87536 88.3505 7.66554 88.3897 6.49475C88.3897 5.63616 88.4681 4.73856 88.2721 3.87998C88.0761 3.13847 87.6057 2.51405 86.9784 2.04573C85.8415 1.22618 84.3126 1.1091 82.9797 1.1091C81.0195 1.1091 79.0985 1.22618 77.1384 1.26521C69.1017 1.42131 61.0258 1.42131 52.9891 1.22618C48.4415 1.1091 43.8939 0.952994 39.3463 0.718835C38.2486 0.640782 38.2486 2.39697 39.3855 2.436Z" fill="#030140"/>
<path d="M23.9002 14.4951C23.9394 23.4712 23.9002 32.4083 23.8218 41.3453C23.7434 50.3994 23.665 59.4536 23.6258 68.4687C23.5866 72.9567 23.5866 77.4057 23.5866 81.8938C23.5866 82.9865 23.5866 84.1183 23.5866 85.211C23.5866 86.2257 23.5474 87.2404 23.7434 88.2161C23.9394 89.1917 24.5275 90.0503 25.3507 90.5577C26.1348 91.065 27.0757 91.2211 28.0166 91.2992C30.2119 91.5333 32.4857 91.5723 34.6811 91.6504C36.9941 91.7284 39.3071 91.7675 41.6201 91.8065C46.3245 91.8455 50.9897 91.8065 55.6941 91.7285C65.0245 91.5723 74.3549 91.2992 83.7245 91.3382C84.8614 91.3382 85.9983 91.3382 87.1352 91.3772C87.6057 91.3772 88.0369 90.9869 88.0369 90.4796C87.9977 86.5379 87.9585 82.5963 87.9193 78.6156C87.9193 77.4838 86.1551 77.4838 86.1551 78.6156C86.1943 82.5572 86.2335 86.4989 86.2727 90.4796L87.1744 89.582C77.9616 89.4649 68.7881 89.6991 59.5753 89.8942C50.4017 90.0893 41.2281 90.1674 32.0545 89.7771C30.9176 89.7381 29.8199 89.66 28.683 89.582C27.899 89.543 27.0365 89.4649 26.3308 89.0746C25.586 88.6454 25.4291 87.8258 25.3899 87.0453C25.3507 86.0306 25.3507 84.9769 25.3507 83.9232C25.3507 79.5522 25.3507 75.2203 25.3507 70.8493C25.3899 61.9513 25.4683 53.0142 25.5467 44.1162C25.6252 35.2962 25.6644 26.4762 25.6252 17.6953C25.6252 16.6026 25.6252 15.5488 25.6252 14.4561C25.6644 13.3634 23.9002 13.3634 23.9002 14.4951Z" fill="#030140"/>
<path d="M89.8403 45.0139C89.8403 42.9845 89.9187 40.9941 89.9187 38.9647C89.9187 38.4964 89.5266 38.0671 89.017 38.0671C88.5465 38.0671 88.1545 38.4574 88.1153 38.9647C88.1153 40.9941 88.0369 42.9845 88.0369 45.0139C88.0369 45.4822 88.4289 45.9115 88.9386 45.9115C89.4482 45.9115 89.8403 45.4822 89.8403 45.0139Z" fill="#030140"/>
<path d="M26.174 10.5926C30.0551 7.43145 34.2107 4.62155 38.6015 2.24094C38.1702 2.00678 37.6998 1.73359 37.2686 1.49943C37.2686 3.56784 37.2686 5.63624 37.2686 7.70464V10.5926C37.2686 11.0999 37.2686 11.6073 37.2686 12.1537C37.2686 12.622 37.3078 13.1293 37.2686 13.5976C37.2294 13.8708 37.1902 13.8708 36.8765 13.8708C36.4061 13.9098 35.8964 13.9098 35.426 13.9098C34.4851 13.9098 33.5834 13.8708 32.6426 13.7537C30.6824 13.5586 28.8006 13.0903 26.9189 12.4659C25.8604 12.1146 25.3899 13.7928 26.4484 14.144C29.6239 15.2367 33.0346 15.7441 36.4061 15.627C37.1509 15.588 37.935 15.549 38.4839 14.9636C39.0719 14.3391 38.9935 13.4806 38.9935 12.7C38.9935 10.9438 38.9935 9.22667 38.9935 7.47048C38.9935 5.48013 38.9935 3.48978 38.9935 1.46041C38.9935 0.796959 38.2486 0.367668 37.6606 0.718906C33.113 3.17757 28.8398 6.06553 24.8803 9.34375C24.5275 9.65596 24.5667 10.2804 24.8803 10.5926C25.2723 10.9438 25.782 10.9048 26.174 10.5926Z" fill="#030140"/>
<path d="M115.832 51.8435C115.714 50.2434 114.421 48.9945 112.813 48.9555C99.1314 48.5652 85.4495 48.3701 71.7675 48.3701C71.6499 48.3701 71.5715 48.4091 71.4539 48.4482L69.6505 49.3067C69.3369 49.4629 69.1017 49.8141 69.1017 50.1653L69.0625 54.1851L69.5721 56.1364C75.6486 59.8829 81.7252 63.6685 87.7625 67.415C89.017 68.1955 90.3107 68.9761 91.722 69.1322C92.8589 69.2493 93.9958 68.9761 95.0935 68.6248C97.0537 67.9614 98.9354 67.0638 100.7 65.932L115.714 56.2535L115.832 51.8435Z" fill="#F24B78"/>
<path d="M65.691 49.541C65.6518 51.5313 65.6518 53.5217 65.6126 55.512C65.5734 59.2586 65.495 62.9661 65.4558 66.7126C65.4166 68.82 65.3774 70.9665 65.3774 73.1129C65.3774 75.6887 66.9847 77.9522 69.4153 78.8498C70.513 79.2401 71.7283 79.162 72.9044 79.2011C76.3935 79.2011 79.8826 79.2401 83.4109 79.2401C87.8017 79.2791 92.2317 79.3181 96.6224 79.3572C100.347 79.3962 104.071 79.3962 107.795 79.2791C109.364 79.2401 110.932 79.2791 112.265 78.3425C113.519 77.4449 114.186 76.157 114.303 74.635C115.009 67.1029 114.774 59.4927 114.342 51.9216C114.303 50.985 114.264 50.0093 114.186 49.0727C114.107 48.3312 113.911 47.6287 113.519 47.0433C113.127 46.4579 112.578 45.9896 111.912 45.6774C111.167 45.3261 110.422 45.2871 109.638 45.2871C105.757 45.17 101.876 45.092 98.0337 45.0139C90.2715 44.8578 82.5484 44.7797 74.7862 44.7407C72.9044 44.7407 71.0226 44.7407 69.1409 44.7407C68.004 44.7407 68.004 46.4969 69.1409 46.4969C76.6679 46.4969 84.195 46.5359 91.6828 46.653C95.4071 46.692 99.1707 46.7701 102.895 46.8872C104.777 46.9262 106.658 46.9652 108.54 47.0433C109.834 47.0823 111.363 46.8872 112.108 48.175C112.461 48.7604 112.421 49.4239 112.461 50.0483C112.5 50.985 112.578 51.8826 112.617 52.8192C112.735 54.6534 112.813 56.5267 112.853 58.3609C112.97 62.0294 112.97 65.7369 112.853 69.4054C112.774 71.2006 112.735 72.9959 112.5 74.7911C112.343 75.9228 111.52 76.9375 110.422 77.3278C109.716 77.562 108.932 77.5229 108.227 77.5229C107.325 77.562 106.423 77.5619 105.522 77.601C103.718 77.64 101.954 77.64 100.151 77.64C95.0543 77.64 89.9579 77.5229 84.9006 77.5229C81.5291 77.5229 78.1969 77.4839 74.8254 77.4839C73.7277 77.4839 72.63 77.4839 71.5323 77.4839C69.7289 77.4839 68.0432 76.4692 67.4159 74.713C67.1023 73.8544 67.1807 73.0349 67.1807 72.1763C67.1807 70.9665 67.2199 69.7567 67.2199 68.5468C67.2591 64.9564 67.3375 61.366 67.3767 57.8146C67.4159 55.2388 67.4551 52.6241 67.4943 50.0483C67.4943 49.9312 67.4943 49.7751 67.4943 49.6581C67.4551 48.4092 65.691 48.4092 65.691 49.541Z" fill="#030140"/>
<path d="M66.5535 54.1069C72.7084 57.9315 78.8633 61.7561 85.0575 65.5416C86.4296 66.4002 87.9193 67.1808 89.5658 67.2198C91.2908 67.2978 93.0157 66.6344 94.5839 65.9709C97.7201 64.644 100.504 62.6537 103.365 60.8195C106.776 58.634 110.187 56.4095 113.597 54.224C114.538 53.5996 113.676 52.0775 112.696 52.702C109.756 54.6143 106.776 56.5265 103.836 58.3998C101.013 60.195 98.269 62.1464 95.2895 63.7074C93.8782 64.4489 92.3885 65.0733 90.8203 65.3855C89.2522 65.6978 87.8801 65.1514 86.5472 64.3709C83.5285 62.6147 80.6275 60.7024 77.648 58.8681C74.2373 56.7607 70.8658 54.6533 67.4551 52.5459C66.5143 51.9995 65.6126 53.5215 66.5535 54.1069Z" fill="#030140"/>
<path d="M56.243 120.218C53.93 117.213 51.4994 114.286 48.9904 111.437C47.8143 110.11 46.5598 108.744 44.9132 108.081C43.4235 107.456 41.7377 107.456 40.1304 107.417C32.4466 107.378 24.8019 107.339 17.118 107.3C15.0795 107.3 12.9233 107.3 11.1591 108.276C9.39497 109.251 8.21887 111.047 7.16038 112.764C5.0434 116.159 2.88722 119.554 0.770235 122.95C0.770235 122.95 0.103779 126.033 1.12307 126.54C2.14235 127.047 55.6941 126.54 55.6941 126.54C55.6941 126.54 57.4975 126.813 57.4975 124.745C57.4583 122.715 56.243 120.218 56.243 120.218Z" fill="#F24B78"/>
<path d="M59.5753 90.7529C59.6145 96.3727 59.6537 101.993 59.6145 107.612C59.5753 110.461 59.5361 113.31 59.4969 116.159C59.4577 117.564 59.4185 118.93 59.3793 120.335C59.3793 120.92 59.4185 121.584 59.3008 122.13C59.1832 122.677 59.3008 122.13 59.2616 122.286C59.2616 122.325 59.4185 122.169 59.2616 122.286C59.1048 122.403 58.948 122.481 58.7912 122.559C58.4776 122.716 58.1248 122.911 57.8111 122.989C57.6935 123.028 57.3799 123.067 57.6543 123.067C57.2623 123.067 56.8702 123.067 56.4782 123.067C55.0669 123.106 53.6556 123.106 52.2442 123.106C49.5784 123.145 46.9518 123.145 44.286 123.145C39.1111 123.145 33.9363 123.145 28.7614 123.067C23.469 122.989 18.1765 122.911 12.9233 122.833C11.512 122.794 10.1006 122.794 8.72852 122.755C7.78764 122.755 6.92516 122.599 6.10189 122.052C5.39623 121.584 4.80818 120.92 4.45535 120.14C4.02411 119.164 4.10252 118.189 4.14172 117.174C4.41615 106.364 4.18093 95.5532 3.94571 84.7429C3.67128 73.9325 3.39686 63.1612 3.51447 52.3509C3.51447 51.063 3.55367 49.8142 3.59288 48.5263C3.63208 47.3945 1.86793 47.3945 1.82873 48.5263C1.59351 59.5708 1.86793 70.6543 2.14235 81.6988C2.41677 92.8213 2.6912 103.944 2.49518 115.027C2.45598 117.33 2.06395 119.75 3.43606 121.779C4.02411 122.599 4.76898 123.301 5.67065 123.769C6.72914 124.316 7.82684 124.472 9.00294 124.472C14.4914 124.589 19.9799 124.667 25.4683 124.745C30.7608 124.823 36.0533 124.862 41.3065 124.862C44.0507 124.862 46.795 124.862 49.5392 124.823C50.9113 124.823 52.2834 124.784 53.6948 124.784C54.4004 124.784 55.1061 124.784 55.8117 124.745C56.5174 124.745 57.2231 124.784 57.9287 124.706C58.6736 124.589 59.4969 124.16 60.1241 123.769C61.1826 123.106 61.1826 122.052 61.2218 120.881C61.3394 117.993 61.3786 115.066 61.457 112.139C61.5354 106.403 61.5354 100.627 61.5354 94.8897C61.5354 93.4848 61.5354 92.0408 61.4962 90.6358C61.3002 89.6212 59.5361 89.6212 59.5753 90.7529Z" fill="#030140"/>
<path d="M1.86792 46.0675C8.49329 45.9895 15.1187 46.2236 21.744 46.1846C22.8809 46.1846 22.8809 44.4284 21.744 44.4284C15.1187 44.4674 8.49329 44.2723 1.86792 44.3113C0.731027 44.3504 0.731027 46.1066 1.86792 46.0675Z" fill="#030140"/>
<path d="M3.16164 47.3944C4.92579 50.8287 6.84676 54.224 8.96374 57.4632C9.90462 58.9072 10.8455 60.6634 12.3744 61.522C13.9426 62.3806 15.8635 62.2245 17.6277 62.2635C19.431 62.3025 21.2344 62.3806 23.0377 62.4196C24.1746 62.4196 24.1746 60.6634 23.0377 60.6634C21.548 60.6244 20.0191 60.5854 18.5294 60.5463C17.7061 60.5073 16.8828 60.5073 16.0595 60.4683C15.2755 60.4683 14.4914 60.4292 13.7073 60.1951C12.2176 59.7268 11.3551 57.9706 10.5711 56.7217C9.55178 55.1607 8.5717 53.5996 7.67003 51.9995C6.61154 50.2043 5.63145 48.3701 4.65137 46.4968C4.14172 45.5211 2.652 46.4188 3.16164 47.3944Z" fill="#030140"/>
<path d="M5.31782 121.623C6.57233 119.632 7.78763 117.681 9.04214 115.691C10.2182 113.817 11.3551 111.905 12.5704 110.11C13.6289 108.549 14.9226 107.222 16.8044 106.754C18.8038 106.246 20.96 106.402 22.9985 106.441C27.6637 106.48 32.3681 106.48 37.0333 106.519C39.3855 106.519 41.7769 106.519 44.1291 106.559C46.1677 106.559 48.1279 106.715 49.8136 107.963C50.6761 108.588 51.3818 109.407 52.0874 110.188C52.9107 111.125 53.734 112.061 54.518 112.998C56.1646 114.949 57.7719 116.901 59.3008 118.93C59.5753 119.32 60.0457 119.515 60.5161 119.242C60.9082 119.008 61.1434 118.423 60.8298 118.032C59.3792 116.159 57.8895 114.286 56.3606 112.452C54.9493 110.773 53.5379 108.978 51.9306 107.456C51.1857 106.754 50.4017 106.129 49.4608 105.661C48.4415 105.154 47.3438 104.919 46.2069 104.841C43.8547 104.646 41.4241 104.763 39.0719 104.724C34.2107 104.685 29.3103 104.685 24.4491 104.646C22.2145 104.646 19.9015 104.49 17.6669 104.763C15.5499 105.036 13.7465 105.934 12.3352 107.534C10.7279 109.368 9.55178 111.593 8.25807 113.661C6.76834 116.003 5.27861 118.384 3.82809 120.725C3.20084 121.701 4.72977 122.559 5.31782 121.623Z" fill="#030140"/>
<path d="M31.5841 91.2602C31.5449 95.5531 31.4272 99.807 31.3096 104.1C31.2704 105.232 33.0346 105.232 33.0738 104.1C33.2306 99.807 33.309 95.5531 33.3482 91.2602C33.3482 90.1284 31.5841 90.1284 31.5841 91.2602Z" fill="#030140"/>
</svg>
