<svg width="184" height="155" viewBox="0 0 184 155" fill="none" xmlns="http://www.w3.org/2000/svg">
<path d="M65.1874 46.6301L45.7318 47.8729L48.0182 77.4514C48.0182 77.4514 56.9978 86.8552 57.5382 96.3004C58.0371 105.746 49.0575 115.274 49.0575 115.274L61.9033 124.802L52.0923 126.459L54.0462 154.256L67.7233 150.113L65.1874 46.6301Z" fill="#F24B78"/>
<path d="M109.337 109.557C109.337 115.523 104.431 121.198 98.4866 121.778C95.535 122.068 92.5418 121.198 90.1306 119.458C85.5577 116.185 83.5207 109.806 85.3083 104.503C87.761 93.6909 109.378 95.9279 109.337 109.557Z" fill="#F24B78"/>
<path d="M84.2274 79.8955C84.0611 84.4524 86.4307 89.0093 90.2553 91.5363C94.0799 94.0633 99.2349 94.4362 103.392 92.4891C107.175 90.7078 114.034 83.4996 107.923 80.4755C105.055 79.067 99.609 79.8127 96.4911 79.7712C92.4171 79.6884 88.3014 79.7298 84.2274 79.8955Z" fill="#F24B78"/>
<path d="M100.939 72.066C100.524 73.4745 99.3596 74.5102 97.9877 75.0073C96.6158 75.5044 95.0361 75.4215 93.8305 74.593C88.4677 70.7818 102.727 65.7278 100.939 72.066Z" fill="#F24B78"/>
<path d="M113.577 107.444C113.536 113.492 108.298 119.085 102.103 118.919C98.736 118.836 95.4934 117.221 93.3732 114.652C91.4609 112.374 90.4216 109.35 90.4216 106.367C90.4216 104.959 90.7542 103.674 91.1283 102.307C91.3362 101.479 91.6688 100.775 92.1676 100.029C93.0406 98.7861 94.4541 97.7504 95.8675 97.2119C99.2764 95.8448 103.267 96.0934 106.593 97.5433C110.168 99.0761 112.912 102.017 113.411 105.953C113.536 106.409 113.577 106.906 113.577 107.444C113.577 108.438 115.115 108.438 115.115 107.444C115.115 105.166 114.492 102.846 113.245 100.94C112.081 99.1589 110.459 97.7504 108.589 96.7562C104.93 94.7677 100.357 94.1878 96.3664 95.3891C94.5372 95.9691 92.7496 96.9219 91.4609 98.4133C89.9643 100.153 89.2576 102.514 88.9666 104.752C88.0936 111.711 92.7496 118.754 99.7337 120.204C103.226 120.908 106.759 120.162 109.586 118.008C112.205 116.019 114.159 113.12 114.824 109.888C114.991 109.101 115.074 108.273 115.074 107.444C115.115 106.45 113.577 106.45 113.577 107.444Z" fill="#030140"/>
<path d="M89.216 76.9541C88.8003 76.9541 88.4677 77.2855 88.4262 77.7412C88.3015 82.7124 90.8789 87.6007 95.1193 90.2106C99.2765 92.779 105.097 93.1104 109.378 90.6248C110.917 89.7549 112.33 88.5121 113.494 87.1864C114.658 85.8608 115.739 84.2866 116.03 82.5052C116.321 80.6825 115.573 79.0669 114.034 78.0312C112.205 76.7884 109.877 76.6641 107.757 76.6227C105.138 76.5813 102.477 76.7884 99.8585 76.747C96.3248 76.7884 92.7912 76.8298 89.216 76.9541C88.2183 76.9955 88.2183 78.5283 89.216 78.4869C92.1261 78.3626 95.0777 78.3212 98.0293 78.3212C100.357 78.3212 102.685 78.3626 105.013 78.2383C107.092 78.1555 109.295 78.0312 111.332 78.5283C112.746 78.8597 114.325 79.6883 114.575 81.221C114.824 82.5467 113.993 83.9966 113.245 85.1151C112.288 86.4408 111.041 87.6421 109.711 88.6364C106.219 91.1219 101.438 91.4119 97.572 89.7134C92.8744 87.6835 89.8812 82.7538 90.0059 77.6998C89.7565 77.9483 89.507 78.1969 89.216 78.4869C90.2138 78.4869 90.2138 76.9127 89.216 76.9541Z" fill="#030140"/>
<path d="M105.221 69.7045C104.889 70.823 103.974 71.693 102.893 72.0658C101.646 72.5629 100.233 72.4801 99.1517 71.693C99.0686 71.6101 99.2348 71.7758 99.0686 71.6515C98.9854 71.6101 98.9438 71.5273 98.8607 71.4858C98.8191 71.4444 98.7776 71.403 98.736 71.3615C98.6944 71.3201 98.6944 71.3201 98.6528 71.2787C98.5281 71.1544 98.6944 71.3615 98.6528 71.2787C98.5697 71.1544 98.5281 71.0716 98.445 70.9473C98.3203 70.7816 98.445 71.0301 98.445 70.9473C98.445 70.8644 98.4034 70.823 98.4034 70.7402C98.3618 70.6159 98.445 70.5744 98.4034 70.7402C98.4034 70.6987 98.4034 70.6159 98.4034 70.5744C98.4034 70.533 98.4034 70.4502 98.4034 70.4087C98.4034 70.2845 98.4034 70.4916 98.4034 70.4916C98.4034 70.4502 98.4034 70.4087 98.4034 70.3673C98.445 70.243 98.4866 70.1602 98.4866 70.0773C98.4034 70.3259 98.4866 70.1188 98.4866 70.0773C98.5281 70.0359 98.5281 69.953 98.5697 69.9116C98.6113 69.8702 98.6528 69.7873 98.6944 69.7459C98.7776 69.5802 98.6113 69.8288 98.6944 69.7459C98.7776 69.6631 98.8607 69.5388 98.9854 69.4145C99.0686 69.3317 99.1933 69.2488 99.2764 69.1659C99.318 69.1659 99.318 69.1245 99.3596 69.1245C99.4843 69.0002 99.2348 69.2074 99.318 69.1659C99.4011 69.1245 99.4427 69.0831 99.5259 69.0002C99.7753 68.8345 100.066 68.6688 100.316 68.5031C100.44 68.4203 100.607 68.3788 100.731 68.296C100.815 68.2546 100.939 68.2131 100.773 68.2546C100.856 68.2131 100.939 68.1717 101.022 68.1303C101.313 68.006 101.646 67.9232 101.937 67.8403C102.103 67.7989 102.228 67.7574 102.394 67.7574C102.477 67.7574 102.561 67.716 102.602 67.716C102.685 67.716 102.893 67.6746 102.685 67.716C102.976 67.6746 103.267 67.6746 103.558 67.6746C103.683 67.6746 103.808 67.6746 103.974 67.716C104.182 67.716 103.808 67.6746 104.016 67.716C104.099 67.716 104.14 67.7574 104.223 67.7574C104.348 67.7989 104.514 67.8817 104.639 67.8817C104.722 67.8817 104.473 67.7989 104.598 67.8403C104.639 67.8403 104.681 67.8817 104.681 67.8817C104.722 67.9232 104.805 67.9232 104.847 67.9646C104.889 67.9646 104.889 68.006 104.93 68.006C105.055 68.0889 104.847 67.9232 104.889 67.9646C104.93 68.006 105.013 68.0474 105.013 68.0889C105.096 68.1717 105.096 68.2546 105.013 68.0889C105.013 68.1303 105.096 68.1717 105.096 68.2546C105.096 68.296 105.221 68.5031 105.138 68.3374C105.096 68.2131 105.18 68.4203 105.18 68.4617C105.18 68.5446 105.221 68.586 105.221 68.6688C105.263 68.7931 105.221 68.586 105.221 68.586C105.221 68.6274 105.221 68.6688 105.221 68.7517C105.221 68.9174 105.221 69.0831 105.221 69.2488C105.263 69.0002 105.221 69.2902 105.18 69.3731C105.263 69.4974 105.221 69.6216 105.221 69.7045C104.972 70.6573 106.427 71.0716 106.718 70.1188C106.926 69.3317 107.009 68.4617 106.635 67.716C106.344 67.0946 105.803 66.6804 105.18 66.4318C103.891 65.9347 102.27 66.1832 101.022 66.5975C99.6506 67.0532 98.1955 67.8403 97.3641 69.0417C96.4911 70.2845 96.9068 71.7758 98.0293 72.7286C100.856 75.0899 105.72 73.6814 106.718 70.1188C106.967 69.1659 105.471 68.7517 105.221 69.7045Z" fill="#030140"/>
<path d="M135.693 147.255V144.562V137.271V126.459V113.285V98.9104V84.3697V70.8232V59.3481V51.1043C135.693 49.8201 135.735 48.4944 135.693 47.2102C135.693 47.1688 135.693 47.0859 135.693 47.0445C135.693 46.5059 135.236 46.1331 134.737 46.0917C132.285 45.9674 129.832 45.8845 127.379 45.7603C121.559 45.5117 115.697 45.2217 109.877 44.9732L88.7172 44.0204C82.6061 43.7304 76.5366 43.4818 70.4255 43.1918C68.43 43.109 66.4346 43.0261 64.3976 42.9018C63.4414 42.8604 62.4853 42.7776 61.5707 42.7776C61.5291 42.7776 61.4875 42.7776 61.446 42.7776C60.9471 42.7361 60.4898 43.2333 60.4898 43.7304C60.5314 44.6832 60.5729 45.6774 60.5729 46.6302C60.6561 49.2401 60.7392 51.85 60.8224 54.4598C60.9471 58.3539 61.0718 62.248 61.2381 66.1421C61.4044 70.8647 61.5707 75.5873 61.737 80.2685C61.9033 85.4468 62.1111 90.6665 62.2774 95.8448C62.4437 101.065 62.6516 106.284 62.8178 111.463C62.9841 116.351 63.1504 121.239 63.3167 126.128C63.4414 130.229 63.6077 134.33 63.7324 138.431C63.8156 141.414 63.9403 144.397 64.0234 147.338C64.065 148.746 64.1066 150.155 64.1481 151.522C64.1481 151.563 64.1481 151.646 64.1481 151.688C64.1481 152.185 64.5639 152.682 65.1043 152.64C67.3908 152.475 69.7188 152.35 72.0052 152.185C77.4927 151.812 82.9802 151.48 88.4677 151.108C95.1192 150.652 101.771 150.238 108.422 149.782C114.201 149.409 119.979 149.036 125.799 148.663C128.709 148.456 131.619 148.291 134.488 148.125C134.529 148.125 134.613 148.125 134.654 148.125C135.901 148.125 135.901 146.219 134.654 146.219C133.947 146.219 133.282 146.302 132.576 146.344C130.83 146.468 129.084 146.551 127.379 146.675C121.808 147.048 116.279 147.379 110.709 147.752C104.057 148.166 97.4057 148.622 90.7542 149.078C85.0172 149.451 79.2803 149.823 73.5434 150.196C71.6727 150.321 69.7603 150.445 67.8896 150.569C67.0166 150.611 66.102 150.611 65.1874 150.735C65.1459 150.735 65.1043 150.735 65.0627 150.735C65.3953 151.066 65.6863 151.356 66.0189 151.688C65.9773 150.735 65.9357 149.741 65.9357 148.788C65.8526 146.178 65.7694 143.568 65.6447 140.958C65.52 137.064 65.3953 133.17 65.229 129.276C65.0627 124.553 64.8964 119.831 64.7301 115.15C64.5639 109.971 64.356 104.751 64.1897 99.5732C64.0234 94.3535 63.8156 89.1337 63.6493 83.9554C63.483 79.0671 63.3167 74.1788 63.1504 69.2905C63.0257 65.1893 62.8594 61.088 62.7347 56.9868C62.6516 54.0041 62.5268 51.0214 62.4437 48.0802C62.4021 46.6717 62.4021 45.2632 62.319 43.8961C62.319 43.8547 62.319 43.7718 62.319 43.7304C61.9864 44.0618 61.6954 44.3518 61.3628 44.6832C63.8156 44.8075 66.2683 44.8903 68.7211 45.0146C74.5411 45.2632 80.4028 45.5531 86.2228 45.8017L107.383 46.7545C113.494 47.0445 119.564 47.293 125.675 47.583C127.67 47.6659 129.666 47.7487 131.703 47.873C132.659 47.9144 133.615 48.0387 134.529 47.9973C134.571 47.9973 134.613 47.9973 134.654 47.9973L133.698 47.0445V49.7372V57.0283V67.8405V81.0142V95.3891V109.93V123.476V134.951V143.195C133.698 144.479 133.656 145.805 133.698 147.089C133.698 147.131 133.698 147.214 133.698 147.255C133.781 148.456 135.693 148.456 135.693 147.255Z" fill="#030140"/>
<path d="M124.968 53.9212H119.896H107.757H93.0406H80.3612C78.3242 53.9212 76.2456 53.8383 74.2086 53.9212C74.167 53.9212 74.167 53.9212 74.1254 53.9212C73.6266 53.9212 73.1693 54.3769 73.1693 54.874V56.9039V62.455V70.6575V80.6827V91.7021V102.763V113.078V121.819V128.116C73.1693 129.11 73.1277 130.104 73.1693 131.099C73.1693 131.14 73.1693 131.181 73.1693 131.223C73.1693 131.72 73.6266 132.176 74.1254 132.176L79.1972 132.051C83.2712 131.927 87.3453 131.844 91.3778 131.72C96.2833 131.596 101.23 131.471 106.136 131.306C110.376 131.181 114.658 131.057 118.898 130.974C120.977 130.933 123.056 130.933 125.134 130.809C125.176 130.809 125.176 130.809 125.217 130.809C125.716 130.809 126.173 130.394 126.173 129.856C126.173 129.193 126.173 128.53 126.173 127.867C126.173 126.045 126.173 124.222 126.173 122.399C126.173 119.706 126.173 117.014 126.132 114.321C126.132 111.007 126.09 107.734 126.09 104.42C126.09 100.816 126.049 97.2532 126.049 93.6491C126.049 90.0036 126.007 86.3995 126.007 82.754C126.007 79.357 125.966 75.96 125.966 72.5631L125.924 63.9878C125.924 61.9165 125.924 59.8452 125.924 57.7739C125.924 56.821 125.924 55.8268 125.924 54.874C125.924 54.8326 125.924 54.7911 125.924 54.7497C125.924 53.5069 124.012 53.5069 124.012 54.7497C124.012 55.4125 124.012 56.0754 124.012 56.7382C124.012 58.561 124.012 60.3837 124.012 62.2065C124.012 64.8992 124.012 67.5919 124.053 70.2846C124.053 73.5987 124.095 76.8714 124.095 80.1855C124.095 83.7896 124.136 87.3523 124.136 90.9564L124.178 101.852C124.178 105.249 124.22 108.645 124.22 112.042L124.261 120.618C124.261 122.689 124.261 124.76 124.261 126.832C124.261 127.784 124.22 128.779 124.261 129.732C124.261 129.773 124.261 129.814 124.261 129.856L125.217 128.903L120.146 129.027C116.071 129.152 111.997 129.234 107.965 129.359C103.059 129.483 98.1124 129.607 93.2069 129.773C88.9666 129.897 84.6847 129.98 80.4444 130.104L76.2456 130.229C75.5804 130.229 74.9153 130.187 74.2501 130.27C74.2086 130.27 74.2086 130.27 74.167 130.27C74.4996 130.601 74.7906 130.891 75.1231 131.223V129.193V123.6V115.481V105.456V94.4362V83.3754V73.0602V64.3192V58.0224C75.1231 57.0282 75.1647 56.0339 75.1231 55.0397C75.1231 54.9983 75.1231 54.9569 75.1231 54.9154C74.7906 55.2468 74.4996 55.5368 74.167 55.8682H79.2388H91.3778H106.094H118.815C120.852 55.8682 122.931 55.9511 124.968 55.8682C125.009 55.8682 125.009 55.8682 125.051 55.8682C126.173 55.8268 126.173 53.9212 124.968 53.9212Z" fill="#030140"/>
<path d="M100.648 135.283C98.4866 135.614 97.6135 137.893 97.5304 139.798C97.4888 140.751 97.4473 141.911 97.7383 142.822C98.1124 143.899 98.9439 144.479 99.9832 144.852C101.854 145.556 104.14 145.681 105.886 144.562C107.591 143.485 108.464 141.579 107.965 139.591C107.508 137.768 106.344 135.448 104.265 135.075C103.808 134.993 103.35 135.2 103.226 135.655C103.101 136.07 103.35 136.608 103.808 136.691C105.013 136.898 105.637 138.1 106.011 139.135C106.261 139.798 106.552 140.585 106.344 141.289C106.219 141.869 105.845 142.408 105.388 142.781C104.307 143.734 102.727 143.816 101.355 143.485C100.731 143.319 99.9 143.154 99.4843 142.615C99.0686 142.077 99.1517 141.248 99.1517 140.627C99.1101 139.218 99.2349 137.064 101.022 136.815C101.48 136.733 101.729 136.194 101.604 135.78C101.563 135.407 101.106 135.241 100.648 135.283Z" fill="#030140"/>
<path d="M161.219 58.8508C160.47 57.608 158.641 55.9095 157.436 55.1224C155.357 53.7968 152.364 54.4182 150.826 56.2824C149.287 58.1466 149.204 61.0878 150.535 63.1177C151.117 64.0291 151.948 64.7748 152.738 65.5205C155.565 68.2132 158.974 71.6516 161.177 74.8828C163.38 71.6516 165.916 68.6274 168.743 65.9347C169.533 65.1891 170.364 64.4434 170.946 63.532C172.277 61.5021 172.235 58.5608 170.655 56.6966C169.117 54.8325 166.124 54.2111 164.046 55.5367C162.757 56.3238 161.967 57.608 161.219 58.8508Z" fill="#F24B78"/>
<path d="M159.847 56.034C159.223 55.0397 158.392 54.2112 157.56 53.4241C156.729 52.6784 155.856 51.9742 154.817 51.6013C152.738 50.8557 150.244 51.5185 148.747 53.0513C147.084 54.7498 146.627 57.401 147.417 59.5966C147.874 60.8394 148.664 61.8337 149.578 62.7451C150.535 63.6979 151.532 64.6092 152.489 65.5621C154.733 67.7991 156.895 70.119 158.683 72.7288C158.974 73.1431 159.514 73.1431 159.805 72.7288C161.302 70.4918 162.965 68.4205 164.794 66.432C165.667 65.4792 166.581 64.5678 167.538 63.6564C168.452 62.7865 169.367 61.9165 169.907 60.798C170.863 58.851 170.863 56.4068 169.741 54.5426C168.66 52.7613 166.581 51.6842 164.503 51.7256C163.297 51.7671 162.175 52.1399 161.26 52.8856C160.221 53.7141 159.473 54.874 158.766 56.034C158.35 56.7382 159.431 57.401 159.888 56.6968C160.928 55.0397 162.092 53.217 164.212 53.0513C165.999 52.8856 167.787 53.7555 168.702 55.3297C169.658 56.9868 169.491 59.1824 168.452 60.7566C167.829 61.7094 166.914 62.4965 166.083 63.2836C165.251 64.1121 164.42 64.9407 163.63 65.8106C161.842 67.7991 160.179 69.8704 158.724 72.1074H159.847C158.433 70.0361 156.812 68.1305 155.066 66.3492C154.193 65.4378 153.32 64.5678 152.447 63.6979C151.574 62.8279 150.618 61.9994 149.786 61.088C148.373 59.4724 147.916 57.1525 148.83 55.2054C149.662 53.4655 151.657 52.4299 153.569 52.6784C154.65 52.8027 155.523 53.4241 156.313 54.0869C157.228 54.874 158.142 55.744 158.766 56.7382C159.182 57.3596 160.304 56.7382 159.847 56.034Z" fill="#030140"/>
<path d="M137.024 85.281C142.969 85.3639 148.955 85.4881 154.9 85.571C157.768 85.6124 160.678 85.571 163.547 85.1567C165.833 84.8253 168.161 84.2039 170.323 83.334C174.189 81.8012 177.432 79.3156 179.718 75.8358C182.337 71.8588 183.46 67.0534 183.418 62.3308C183.418 57.5667 182.254 52.5956 179.51 48.66C178.055 46.5887 176.226 44.9317 173.981 43.7717C171.653 42.5704 169.076 41.949 166.498 41.6176C161.884 40.9547 157.061 40.9133 152.53 42.3218C148.082 43.6889 144.091 46.423 141.347 50.1514C138.811 53.5898 137.356 57.8567 137.273 62.1236C137.232 64.2364 137.564 66.3906 138.312 68.379C139.144 70.616 140.474 72.6045 142.137 74.3444C143.01 75.2972 143.966 76.1672 144.922 77.0371C145.006 76.54 145.047 76.0429 145.13 75.5458C142.553 77.0786 139.975 78.6113 137.398 80.1027C136.359 80.7241 137.315 82.3811 138.354 81.7598C140.932 80.227 143.509 78.6942 146.086 77.2029C146.585 76.9129 146.752 76.1258 146.294 75.7115C144.507 74.0544 142.636 72.356 141.347 70.2846C140.308 68.6276 139.684 66.722 139.393 64.8163C138.811 60.9637 139.684 56.9453 141.514 53.5484C143.551 49.82 146.793 46.8787 150.701 45.1388C154.609 43.3575 159.015 42.9846 163.256 43.2746C167.829 43.606 172.859 44.476 176.268 47.8315C179.427 50.9385 180.965 55.5368 181.381 59.8866C181.797 64.2778 181.256 68.9176 179.261 72.8945C177.556 76.3743 174.896 79.1499 171.404 80.9312C167.288 83.0025 162.674 83.7482 158.101 83.8311C155.274 83.8725 152.489 83.7896 149.662 83.7482C146.793 83.7068 143.966 83.6654 141.098 83.5825C139.726 83.5411 138.354 83.5411 136.982 83.4997C135.777 83.3754 135.777 85.281 137.024 85.281Z" fill="#030140"/>
<path d="M14.636 102.183C15.8416 102.556 17.0887 102.597 18.3775 102.639C21.0796 102.721 24.156 102.597 25.902 100.567C27.066 99.2417 27.357 97.3775 28.4379 95.969C28.9367 95.3476 29.5603 94.8091 30.1423 94.2705C32.7198 91.7849 34.0085 88.2637 34.5905 84.7424C36.0871 85.9024 36.9185 87.808 36.7938 89.7136C36.6275 91.9092 35.2141 93.8148 34.8399 95.969C34.7568 96.3833 34.7568 96.8804 35.0894 97.1704C35.3388 97.3775 35.6714 97.3775 35.9624 97.3775C38.8308 97.4189 41.6577 97.916 44.3599 98.8688C45.3161 99.2002 46.3554 99.7802 46.3969 100.774C46.4385 101.976 44.9003 102.556 43.7363 102.722C46.3969 103.467 46.4385 104.544 46.2722 105.331C46.1059 106.036 45.5655 106.574 44.9419 106.906C44.3183 107.237 43.6116 107.361 42.9049 107.444C43.6532 107.651 45.8149 107.693 45.7318 109.184C45.6486 110.675 44.6093 111.587 43.0296 111.587C43.5285 112.54 43.1959 113.741 42.4892 114.528C41.7824 115.315 40.7432 115.729 39.7454 116.019C35.6298 117.055 31.3063 115.647 27.2738 114.321C23.2414 112.995 18.7932 111.752 14.8023 113.161" fill="#F24B78"/>
<path d="M59.1595 124.346C51.926 124.471 44.7341 124.595 37.5005 124.719C33.9669 124.761 30.4333 124.802 26.8997 124.429C24.0312 124.098 21.1628 123.352 18.419 122.399C14.0124 120.825 10.0215 118.132 7.31931 114.238C4.0767 109.598 2.62168 104.006 2.49697 98.4133C2.37225 92.7379 3.57783 86.8554 6.69573 82.0499C8.31704 79.5643 10.4372 77.5759 13.0562 76.2088C15.7168 74.8003 18.7516 74.096 21.7032 73.6404C27.1907 72.8118 32.9276 72.7704 38.2904 74.3446C43.4038 75.836 48.2261 78.9429 51.4271 83.2099C54.4619 87.2696 56.2495 92.2408 56.3326 97.2534C56.3742 99.7804 56.0416 102.1 55.1686 104.503C54.254 106.989 52.6743 109.267 50.8036 111.256C49.6811 112.415 48.5171 113.493 47.3531 114.57C46.7711 115.108 46.9374 116.102 47.6025 116.475C50.8867 118.422 54.1709 120.369 57.4135 122.275C58.7438 123.062 59.991 120.991 58.6191 120.204C55.3349 118.257 52.0507 116.31 48.8081 114.404C48.8913 115.025 48.9744 115.688 49.0575 116.31C51.4687 114.073 53.9215 111.794 55.6675 108.977C57.0809 106.699 58.0371 104.089 58.4112 101.437C59.2427 95.9692 58.2034 90.3766 55.6259 85.4883C52.9653 80.3929 48.5587 76.2088 43.3622 73.7646C37.9994 71.1962 31.9715 70.4919 26.0683 70.8648C19.7493 71.2376 12.9315 72.439 8.0676 76.7888C3.36997 80.9314 1.08352 87.2696 0.293652 93.3179C-0.496215 99.4076 0.293652 105.787 2.82954 111.421C5.03285 116.268 8.64961 120.369 13.3472 122.896C18.7932 125.838 25.0705 127.08 31.2232 127.288C34.8815 127.412 38.5814 127.288 42.2813 127.205C46.0228 127.122 49.7643 127.08 53.5057 126.998C55.3765 126.956 57.2056 126.915 59.0764 126.915C60.7393 126.749 60.7393 124.305 59.1595 124.346Z" fill="#030140"/>
<path d="M11.8091 100.029C12.9315 100.36 14.1371 100.443 15.3427 100.484C16.2989 100.526 17.2134 100.526 18.1696 100.484C19.9988 100.36 21.8695 99.9459 23.2829 98.7031C24.8211 97.2946 25.0705 95.1405 26.3177 93.5663C26.9828 92.7377 27.8559 92.1163 28.5626 91.3292C29.2277 90.5421 29.8513 89.7136 30.3086 88.8022C31.4726 86.7309 32.1378 84.4524 32.5535 82.1326C32.1793 82.2154 31.8468 82.3397 31.4726 82.4225C33.2602 83.831 33.8422 86.0267 33.2602 88.1808C32.9276 89.3408 32.3872 90.3764 32.013 91.4949C31.6805 92.4063 31.2232 93.6905 31.8052 94.5605C32.0962 94.9748 32.5951 95.1405 33.0939 95.1819C33.7591 95.2233 34.4242 95.2233 35.0894 95.2648C36.3781 95.389 37.6668 95.5962 38.9556 95.8862C40.078 96.1347 41.3252 96.4247 42.3229 96.9632C43.0296 97.3361 43.4869 98.0817 42.697 98.6617C41.6993 99.366 40.2443 99.3245 39.0803 99.4488C37.5005 99.5731 35.9624 99.6145 34.3826 99.5731C33.5512 99.5317 33.5512 100.816 34.3826 100.857C35.8792 100.899 37.3758 100.857 38.8724 100.774C40.1196 100.692 41.4499 100.65 42.6139 100.194C43.5285 99.8217 44.4015 99.1588 44.4431 98.1232C44.4846 97.0461 43.6532 96.259 42.7386 95.8033C41.5746 95.2233 40.2027 94.8919 38.9556 94.6434C37.5837 94.3534 36.1702 94.1462 34.7568 94.022C34.4242 93.9805 34.0916 93.9805 33.8006 93.9805C33.6343 93.9805 33.1355 94.0634 32.9692 93.9391C32.6366 93.6905 33.1355 92.4892 33.2186 92.2406C33.5928 91.0392 34.1748 89.9207 34.5489 88.7608C35.3388 86.1509 34.6736 83.3339 32.5119 81.594C32.1793 81.3455 31.5142 81.3455 31.431 81.884C31.0985 83.831 30.5996 85.7367 29.7266 87.4766C29.3109 88.3051 28.812 89.1336 28.2716 89.8793C27.648 90.6664 26.9413 91.3292 26.2345 91.9921C25.5278 92.6963 24.9874 93.442 24.5301 94.3534C24.1144 95.1819 23.8234 96.0933 23.3245 96.8804C22.3684 98.4132 20.6639 98.9931 18.9595 99.2003C18.0033 99.3245 17.0056 99.3245 16.0494 99.2831C14.8023 99.2417 13.5551 99.2417 12.3495 98.8688C11.3934 98.5789 11.0192 99.8217 11.8091 100.029Z" fill="#030140"/>
<path d="M42.3229 101.065C43.0296 101.479 43.1543 102.349 42.6555 103.012C42.0319 103.757 40.951 103.923 40.0364 104.047C37.7915 104.337 35.5051 104.42 33.2186 104.255C32.3872 104.213 32.3872 105.497 33.2186 105.539C34.6736 105.663 36.1702 105.663 37.6252 105.58C38.9971 105.497 40.4521 105.415 41.7824 105.042C42.8633 104.71 43.9442 103.923 44.2352 102.763C44.4846 101.686 43.9442 100.568 42.988 100.029C42.2397 99.532 41.5746 100.609 42.3229 101.065Z" fill="#030140"/>
<path d="M41.533 105.373C42.1566 105.58 42.115 106.408 41.824 106.864C41.3667 107.568 40.4521 107.776 39.7038 107.858C37.6668 108.066 35.5882 108.024 33.5512 108.107C32.7198 108.148 32.7198 109.433 33.5512 109.391C34.9231 109.35 36.2534 109.308 37.6252 109.225C38.914 109.184 40.2443 109.225 41.4499 108.728C42.406 108.314 43.2375 107.486 43.3206 106.45C43.4037 105.456 42.8633 104.503 41.9072 104.171C41.1173 103.84 40.7847 105.083 41.533 105.373Z" fill="#030140"/>
<path d="M39.7454 109.101C40.078 109.805 39.8286 110.675 39.3297 111.255C38.7061 111.959 37.8331 112.332 36.9601 112.539C34.9231 113.078 32.8029 112.954 30.7659 112.539C26.6503 111.752 22.8256 109.888 18.6684 109.267C16.4236 108.935 14.0955 108.935 11.8922 109.681C11.1024 109.93 11.4349 111.172 12.2248 110.924C16.5899 109.474 21.1212 111.048 25.2784 112.374C29.3524 113.699 34.1332 115.108 38.2904 113.409C40.2443 112.622 41.8656 110.592 40.8263 108.438C40.4937 107.693 39.4128 108.355 39.7454 109.101Z" fill="#030140"/>
<path d="M84.851 20.4901C84.7678 23.4313 85.3914 26.5383 87.47 28.6096C89.8812 31.0538 93.6226 31.5095 97.0315 31.6752C102.103 31.9652 107.466 31.8823 111.831 29.3553C116.196 26.7869 119.023 21.8157 118.898 16.7617C118.774 11.7077 115.78 6.81935 111.332 4.45804C108.672 3.04954 105.637 2.511 102.644 2.34529C99.8584 2.17959 96.99 2.30387 94.3294 3.21525C87.5531 5.57655 85.0173 13.9033 84.851 20.4901Z" fill="#F24B78"/>
<path d="M94.2462 41.1619C92.9991 38.842 91.7935 36.5221 90.4632 34.2437C89.8396 33.1666 89.0082 32.4623 87.9689 31.8409C87.0959 31.3438 86.2644 30.8053 85.4746 30.1839C82.3151 27.6569 79.8623 24.0942 79.2803 20.0344C78.6983 16.0575 80.1118 11.832 82.8555 8.89071C85.5161 6.03228 88.8835 3.79526 92.6249 2.67674C98.6944 0.895409 105.346 2.30391 110.542 5.82515C111.582 6.5294 112.496 7.3165 113.411 8.26931C113.619 8.47644 113.827 8.725 113.993 8.93213C114.201 9.18069 114.325 9.3464 114.45 9.5121C114.949 10.2164 115.406 10.962 115.697 11.7906C116.404 13.7376 116.446 15.8918 116.196 17.9217C115.947 19.9101 115.365 21.8572 114.325 23.5557C113.328 25.1713 111.997 26.5384 110.335 27.4497C108.298 28.5682 105.97 28.6511 103.766 29.1896C99.7337 30.1425 96.4911 33.0423 95.1608 36.9364C94.8282 37.8478 94.662 38.842 94.5788 39.7948C94.5372 40.2919 95.0361 40.7476 95.535 40.7476C96.0754 40.7476 96.4495 40.2919 96.4911 39.7948C96.7821 35.9836 99.5674 32.4623 103.184 31.3024C105.554 30.5567 108.09 30.5153 110.418 29.5211C112.33 28.6925 113.951 27.284 115.24 25.627C116.529 23.9699 117.319 21.9815 117.776 19.9516C118.275 17.7145 118.441 15.3947 118.067 13.1576C117.527 9.88494 115.49 7.27508 112.954 5.24518C107.799 1.10254 100.898 -0.803074 94.3294 0.315439C90.38 1.01969 86.7217 2.88388 83.687 5.45231C81.9825 6.90224 80.4028 8.55929 79.2803 10.5063C78.1995 12.4534 77.5343 14.5661 77.2849 16.8032C76.8276 21.1529 78.532 25.4198 81.3174 28.7754C82.6892 30.4324 84.3521 31.8409 86.1813 33.0009C87.1374 33.5808 88.0936 34.0365 88.7172 35.0308C89.4239 36.1493 90.0059 37.3507 90.671 38.552C91.3362 39.7534 91.9598 40.9547 92.6249 42.1147C93.1654 43.1918 94.8282 42.239 94.2462 41.1619Z" fill="#030140"/>
<path d="M88.3014 20.7386C90.5463 20.7386 90.5463 17.2588 88.3014 17.2588C86.0565 17.2588 86.0565 20.7386 88.3014 20.7386Z" fill="#030140"/>
<path d="M97.4057 20.7386C99.6506 20.7386 99.6506 17.2588 97.4057 17.2588C95.1608 17.2588 95.1608 20.7386 97.4057 20.7386Z" fill="#030140"/>
<path d="M106.261 20.5316C108.505 20.5316 108.505 17.0518 106.261 17.0518C104.016 17.0518 104.016 20.5316 106.261 20.5316Z" fill="#030140"/>
</svg>
