<svg width="86" height="136" viewBox="0 0 86 136" fill="none" xmlns="http://www.w3.org/2000/svg">
<path d="M56.7693 98.7242C39.1382 97.2236 34.3543 99.8016 16.7233 98.2625C13.0582 97.9547 11.7465 93.068 8.35144 94.5302C4.9564 95.9923 2.29438 99.8785 3.49036 103.341C4.30054 105.727 6.65392 107.305 9.08446 107.843C11.515 108.42 14.0999 108.151 16.569 107.882C35.2417 105.919 38.4438 104.419 57.1165 102.457" fill="#F24B78"/>
<path d="M13.0967 5.53246C15.1415 9.95734 14.2927 15.1133 13.5211 19.923C11.1677 35.16 10.319 84.6033 11.0906 99.9942C11.1677 101.726 3.25882 103.957 3.18166 101.264C2.64154 86.1039 2.14001 36.9684 1.59989 21.8083C1.40699 16.6524 -0.560594 7.8411 2.17859 3.06991C4.95635 -1.89366 11.052 1.10757 13.0967 5.53246Z" fill="#F24B78"/>
<path d="M55.9977 97.3391H51.6381H41.1444H28.4516H17.4563H13.8297C13.251 97.3391 12.6723 97.3006 12.1322 97.3391C12.0936 97.3391 12.0936 97.3391 12.0551 97.3391L12.9424 98.2241C12.9038 97.6469 12.9038 97.0697 12.8652 96.4926C12.7881 94.8765 12.7495 93.2605 12.6723 91.6444C12.5952 89.2204 12.518 86.7578 12.4023 84.3338C12.2865 81.2556 12.2094 78.2159 12.1322 75.1377C12.0165 71.6363 11.9393 68.1348 11.8236 64.6334C11.7464 60.9011 11.6307 57.1303 11.5535 53.398C11.4764 49.6273 11.3992 45.8565 11.3606 42.0857C11.322 38.4688 11.2835 34.8905 11.2835 31.2736C11.2835 28.0415 11.2835 24.7709 11.322 21.5388C11.3606 18.8454 11.4378 16.152 11.5535 13.4201C11.6307 11.4963 11.7464 9.53393 12.0165 7.61007C12.0165 7.49463 12.0551 7.26377 12.0165 7.53311C12.0165 7.45616 12.0551 7.34072 12.0551 7.26377C12.0936 7.10986 12.0936 6.95595 12.1322 6.76357C12.1708 6.49423 12.248 6.22488 12.2865 5.91706C12.3251 5.6862 12.4023 5.49382 12.4794 5.26295C12.4794 5.22447 12.518 5.186 12.518 5.14752C12.518 5.07056 12.4023 5.37838 12.4794 5.22448C12.518 5.186 12.5566 5.10904 12.5952 5.03209C12.6723 4.87818 12.4023 5.22447 12.5566 5.07057C12.6338 4.99361 12.3251 5.186 12.4409 5.14752C12.4794 5.14752 12.518 5.10904 12.5566 5.07057C12.7495 4.99361 12.518 5.10904 12.4794 5.10904C12.518 5.10904 12.5952 5.07057 12.6338 5.07057C12.7495 5.03209 12.8652 4.99361 12.981 4.95513C13.2896 4.87818 13.5597 4.8397 13.8683 4.80123C13.9069 4.80123 13.9455 4.80123 13.9841 4.80123C14.1384 4.76275 13.7912 4.8397 13.9069 4.80123C14.0226 4.80123 14.0998 4.76275 14.2155 4.76275C14.4084 4.72427 14.6399 4.72427 14.8328 4.68579C17.1476 4.45493 19.501 4.45493 21.8158 4.41645C25.0565 4.41645 28.2972 4.45493 31.538 4.53188C35.2802 4.64731 38.9839 4.76275 42.7261 4.91666C46.5456 5.07056 50.3264 5.26295 54.1458 5.45534C57.618 5.64772 61.0902 5.84011 64.5624 6.0325C67.3016 6.18641 70.0022 6.34032 72.7414 6.5327C74.2846 6.64814 75.8278 6.72509 77.371 6.84052C77.5639 6.84052 77.7568 6.879 77.9883 6.879C79.1071 6.95595 79.1071 5.22447 77.9883 5.14752C77.1395 5.10904 76.3293 5.03209 75.4806 4.99361C73.2429 4.8397 71.0439 4.72427 68.8062 4.57036C65.6041 4.37797 62.402 4.18559 59.2384 4.03168C55.5347 3.83929 51.7924 3.64691 48.0888 3.45452C44.2693 3.26213 40.4114 3.10822 36.5919 2.99279C33.0426 2.87736 29.4932 2.76193 25.9824 2.72345C23.2047 2.68497 20.3883 2.68497 17.572 2.80041C15.8745 2.87736 14.0612 2.87736 12.4023 3.33909C11.9007 3.493 11.3992 3.68538 11.0906 4.14711C10.8591 4.49341 10.7433 4.95513 10.6276 5.37839C10.2804 6.879 10.1261 8.41809 10.0103 9.95718C9.81743 12.2658 9.74026 14.6129 9.6631 16.96C9.58594 19.9613 9.54736 22.924 9.50878 25.9252C9.4702 29.3882 9.50878 32.8896 9.50878 36.3526C9.54736 40.0849 9.58594 43.8172 9.6631 47.511C9.74026 51.3203 9.81742 55.091 9.89458 58.9003C9.97174 62.5556 10.0875 66.2494 10.1646 69.9048C10.2418 73.2138 10.3575 76.5613 10.4733 79.8704C10.5504 82.6792 10.6662 85.4496 10.7433 88.2584C10.8205 90.2977 10.8977 92.337 10.9748 94.4148C11.0134 95.5306 11.052 96.6465 11.0906 97.7623C11.0906 97.9162 11.0906 98.0317 11.0906 98.1856C11.0906 98.6473 11.4764 99.0705 11.9779 99.0705H16.3374H26.8312H39.524H50.5193C52.294 99.0705 54.0687 99.1475 55.8433 99.0705C55.8819 99.0705 55.8819 99.0705 55.9205 99.0705C57.1165 99.0705 57.1165 97.3391 55.9977 97.3391Z" fill="#030140"/>
<path d="M80.5345 5.76339V8.18746V14.8056V24.5788V36.5067V49.589V62.7483V75.061V85.4499V92.9145C80.5345 94.1072 80.4959 95.2616 80.5345 96.4544C80.5345 96.4928 80.5345 96.5698 80.5345 96.6083C80.5345 97.7241 82.2706 97.7241 82.2706 96.6083V94.1457V87.5276V77.7544V65.8264V52.7442V39.5849V27.2722V16.8833V9.45721C82.2706 8.26442 82.3092 7.1101 82.2706 5.9173C82.2706 5.87882 82.2706 5.80187 82.2706 5.76339C82.2706 4.64755 80.5345 4.64755 80.5345 5.76339Z" fill="#030140"/>
<path d="M50.9437 86.1424C42.6876 85.9885 34.47 85.6806 26.2525 85.2574C24.4778 85.1804 22.3173 85.3728 20.8899 84.1415C20.2726 83.6029 19.8096 82.9103 19.5782 82.1022C19.4238 81.5251 19.4238 80.9095 19.3853 80.3323C19.3467 79.2934 19.3081 78.293 19.2695 77.2541C19.0766 71.7519 18.8837 66.2496 18.768 60.7474C18.6137 54.3216 18.4979 47.8959 18.4979 41.4318C18.4979 35.8141 18.4979 30.1579 18.8066 24.5402C18.8837 23.4629 18.9223 22.3855 19.038 21.3081C19.0766 20.8464 19.1152 20.3462 19.1924 19.8845C19.2309 19.6921 19.2309 19.4612 19.2695 19.2688C19.2695 19.1534 19.3081 19.0765 19.3081 18.961C19.3081 18.8841 19.3081 18.8456 19.3467 18.7686C19.3081 19.038 19.3467 18.8071 19.3467 18.7686C19.4624 18.076 19.5396 17.4219 19.7325 16.7293C19.8096 16.46 19.8482 16.2291 19.964 15.9983C20.0025 15.8828 20.0411 15.8059 20.0797 15.6905C19.964 15.9983 20.0797 15.6905 20.1183 15.6135C20.1569 15.575 20.234 15.4981 20.234 15.4211C20.1954 15.575 20.0797 15.5365 20.234 15.4211C20.3498 15.3442 20.0025 15.5365 20.1569 15.4596C20.1954 15.4596 20.234 15.4211 20.2726 15.3826C20.3498 15.3442 20.4655 15.3057 20.5427 15.2287C20.6198 15.1902 20.3112 15.3057 20.5041 15.2287C20.5427 15.2287 20.6198 15.1902 20.6584 15.1902C20.7741 15.1518 20.9285 15.1133 21.0442 15.0748C21.3143 14.9979 21.6229 14.9209 21.9315 14.8824C22.0859 14.844 22.2402 14.844 22.3945 14.8055C22.4717 14.8055 22.5488 14.767 22.6646 14.767C22.9732 14.7285 22.5874 14.767 22.8189 14.767C23.2433 14.7285 23.6291 14.69 24.0534 14.6516C25.0179 14.5746 25.9824 14.4977 26.9469 14.4592C32.0395 14.2668 37.1706 14.4207 42.3018 14.6516C47.6258 14.8824 52.9498 15.1902 58.2353 15.575C61.3603 15.8059 64.4467 16.0367 67.5716 16.3061C67.726 16.3061 67.8803 16.3446 68.0346 16.3446C68.4976 16.383 68.9219 15.9213 68.9219 15.4596C68.9219 14.9594 68.5361 14.6516 68.0346 14.5746C65.7584 14.3822 63.4822 14.1898 61.2059 14.0359C56.1134 13.6512 51.0208 13.3433 45.9283 13.074C40.5271 12.8047 35.0873 12.5738 29.6861 12.6507C27.6414 12.6892 25.5581 12.7277 23.5133 12.9586C22.2016 13.1125 20.7356 13.2279 19.5782 13.8435C18.6522 14.3437 18.3436 15.3826 18.1507 16.3061C17.7649 17.9221 17.6106 19.6151 17.4563 21.3081C16.9933 26.541 16.9547 31.8124 16.9161 37.0453C16.8776 43.548 16.9547 50.0891 17.109 56.5918C17.2248 62.4788 17.4177 68.4043 17.6106 74.2914C17.6877 76.4461 17.7649 78.6393 17.8421 80.794C17.9192 82.7179 18.7294 84.4494 20.3112 85.6422C21.3914 86.4502 22.626 86.7195 23.9377 86.758C30.6506 87.0658 37.3635 87.4121 44.115 87.6045C46.4684 87.6814 48.7832 87.7199 51.1366 87.7584C52.0625 87.9123 52.0625 86.1808 50.9437 86.1424Z" fill="#030140"/>
<path d="M69.1534 19.8844C69.2305 22.0006 69.3077 24.1169 69.3848 26.2331C69.5392 31.3506 69.6935 36.4296 69.8092 41.5471C69.9635 47.7419 70.0793 53.9753 70.1179 60.1701C70.1564 65.7108 70.195 71.2515 70.0021 76.7923C69.925 78.7161 69.8478 80.64 69.6935 82.5254C69.6549 82.8717 69.6163 83.2565 69.5777 83.6028C69.5392 83.7567 69.5392 83.7952 69.5777 83.6412C69.5777 83.7182 69.5777 83.7952 69.5392 83.8336C69.5006 83.9875 69.5006 84.1414 69.462 84.2953C69.4234 84.5262 69.3848 84.7571 69.3077 84.9879C69.2691 85.0649 69.2691 85.1803 69.2305 85.2573C69.2305 85.2958 69.1919 85.3342 69.1919 85.3727C69.1534 85.5651 69.2305 85.2958 69.2305 85.2958C69.1919 85.3342 69.1534 85.4112 69.1534 85.4497C69.0762 85.6421 69.3463 85.2573 69.1919 85.4112C68.3818 86.1807 69.6163 87.412 70.4265 86.6425C71.1209 85.9883 71.1981 84.6416 71.3138 83.7952C71.5453 82.1021 71.6225 80.4091 71.6996 78.7161C71.9311 73.4063 71.9311 68.0964 71.8925 62.7865C71.854 56.5148 71.7382 50.2045 71.5839 43.9327C71.4682 38.5843 71.3138 33.236 71.1209 27.8492C71.0438 25.2327 71.0052 22.6163 70.8509 20.0383C70.8509 19.9998 70.8509 19.9613 70.8509 19.9229C70.8509 18.7685 69.1148 18.7685 69.1534 19.8844Z" fill="#030140"/>
<path d="M44.8095 89.1437C43.382 88.8743 41.916 89.5284 41.183 90.7982C40.3342 92.2603 40.7586 93.9918 41.916 95.1076C42.9576 96.1465 44.5394 96.6082 45.9669 96.0696C47.3558 95.5309 48.4746 94.2611 48.5132 92.722C48.5517 91.0675 47.2014 89.5284 45.5425 89.2591C45.1953 89.2206 44.8481 89.336 44.7709 89.7208C44.6937 90.0286 44.8866 90.4519 45.2339 90.4904C46.1984 90.6443 47.0471 91.3753 47.24 92.3373C47.4329 93.2992 46.7385 94.2226 45.9283 94.6844C45.041 95.1846 43.9993 95.0691 43.1891 94.4535C42.3789 93.8763 41.8002 92.799 42.1089 91.7986C42.4175 90.8751 43.4206 90.1441 44.5008 90.3364C44.8481 90.4134 45.1953 90.2595 45.2724 89.8747C45.3496 89.6439 45.1567 89.2206 44.8095 89.1437Z" fill="#030140"/>
<path d="M55.8819 16.96C55.4961 21.1156 55.5347 25.3096 55.9976 29.4651C57.888 28.1569 59.4698 26.5793 60.6272 24.8863C61.3217 26.5409 62.3247 28.08 63.5979 29.5421C64.138 25.1942 64.6396 20.8462 65.1797 16.4983" fill="#F24B78"/>
<path d="M53.6057 15.2673C53.2199 19.4228 53.2585 23.6168 53.7214 27.7724C53.76 28.1572 54.1844 28.5419 54.6088 28.2726C56.4992 26.9644 58.1581 25.3868 59.4313 23.4629H58.4282C59.1998 25.1944 60.2414 26.8105 61.5146 28.2341C61.9004 28.6574 62.4405 28.2726 62.5177 27.8109C63.0578 23.4629 63.5593 19.115 64.0994 14.7671C64.1766 14.036 63.0192 14.036 62.942 14.7671C62.4019 19.115 61.9004 23.4629 61.3603 27.8109L62.3633 27.3876C61.1673 26.0409 60.2029 24.5018 59.4698 22.8473C59.2769 22.424 58.6982 22.5395 58.4668 22.8473C57.3094 24.5788 55.7662 26.0409 54.0686 27.2337C54.3773 27.3876 54.6474 27.58 54.956 27.7339C54.493 23.5784 54.4544 19.3843 54.8402 15.2288C54.8402 14.5362 53.6829 14.5362 53.6057 15.2673Z" fill="#030140"/>
<path d="M22.3559 31.1199C29.4932 30.6582 36.669 30.5428 43.8063 30.7352C44.5394 30.7736 44.5394 29.6193 43.8063 29.6193C36.669 29.4269 29.4932 29.5424 22.3559 30.0041C21.6228 30.0426 21.6228 31.1584 22.3559 31.1199Z" fill="#030140"/>
<path d="M23.0889 41.4317C29.6089 41.2778 36.1289 41.0854 42.6489 40.9315C43.382 40.9315 43.382 39.7772 42.6489 39.8156C36.1289 39.9695 29.6089 40.1619 23.0889 40.3158C22.3944 40.3158 22.3944 41.4317 23.0889 41.4317Z" fill="#030140"/>
<path d="M22.3559 46.3184C29.4932 45.8567 36.669 45.7413 43.8063 45.9336C44.5394 45.9721 44.5394 44.8178 43.8063 44.8178C36.669 44.6254 29.4932 44.7408 22.3559 45.2026C21.6228 45.2026 21.6228 46.3569 22.3559 46.3184Z" fill="#030140"/>
<path d="M42.5718 49.2425C36.2447 50.3199 29.7247 50.3199 23.3976 49.281C22.7032 49.1656 22.3945 50.2429 23.0889 50.3584C29.6475 51.4742 36.3219 51.4357 42.8805 50.3199C43.5749 50.2045 43.2663 49.1271 42.5718 49.2425Z" fill="#030140"/>
<path d="M23.0889 55.4373C29.6089 55.2834 36.1289 55.091 42.6489 54.9371C43.382 54.9371 43.382 53.7828 42.6489 53.8213C36.1289 53.9752 29.6089 54.1676 23.0889 54.3215C22.3944 54.3215 22.3944 55.4373 23.0889 55.4373Z" fill="#030140"/>
<path d="M30.4577 61.8632C30.4577 63.5562 30.4963 65.2877 30.4963 66.9807C30.4963 67.7503 30.4963 68.4813 30.612 69.2509C30.8821 71.3671 31.808 73.4064 33.274 74.984C34.8558 74.5607 35.8589 73.0601 36.399 71.521C37.0934 69.4433 37.132 67.0961 36.1675 65.1338C35.203 63.1715 33.1197 61.7093 30.9207 61.7478" fill="#F24B78"/>
<path d="M29.8019 62.0555C27.3713 62.4402 24.4778 62.7865 23.2047 65.2876C22.5102 66.6343 22.3559 68.2503 22.4717 69.7509C22.5874 71.29 23.0889 72.7906 24.1306 73.9449C25.9053 75.9073 28.9531 76.6768 31.4608 75.7534C34.1614 74.753 35.9747 72.1365 36.2833 69.3277C36.6305 66.211 34.7015 62.7481 31.4994 62.0939C30.9978 61.9785 30.8049 62.7481 31.3065 62.825C33.8528 63.3637 35.5117 65.9417 35.5889 68.4427C35.6274 70.9437 34.2386 73.4832 32.0395 74.676C29.879 75.8303 27.1013 75.4456 25.2494 73.868C23.1661 72.0596 22.8189 68.789 23.6676 66.288C24.6321 63.5176 27.5642 63.2098 30.0719 62.7865C30.4963 62.7096 30.3034 61.9785 29.8019 62.0555Z" fill="#030140"/>
<path d="M29.416 62.5556C29.416 65.249 29.416 67.904 29.416 70.5974C29.4932 70.482 29.6089 70.3665 29.6861 70.2126C27.5256 70.8667 25.3651 71.5208 23.1661 72.175C22.7031 72.3289 22.896 73.0599 23.359 72.906L29.879 70.9437C30.0333 70.9052 30.149 70.7513 30.149 70.5589C30.149 67.8655 30.149 65.2106 30.149 62.5172C30.1876 62.0554 29.416 62.0554 29.416 62.5556Z" fill="#030140"/>
<path d="M29.4932 70.7515C30.5349 72.406 31.5766 74.0221 32.5796 75.6766C32.8497 76.0999 33.5056 75.7151 33.2355 75.2918C32.1938 73.6373 31.1522 72.0212 30.1491 70.3667C29.9176 69.9435 29.2232 70.3282 29.4932 70.7515Z" fill="#030140"/>
<path d="M48.6288 48.7808C50.2492 48.7808 51.8695 48.7808 53.4899 48.7808C53.5285 50.2044 53.5671 51.3587 53.5671 52.8978C53.5671 52.9363 53.5671 53.0133 53.5671 53.0517C53.5285 53.1287 53.4127 53.1672 53.297 53.1287C51.7538 53.0902 50.172 53.1287 48.6674 53.0902C48.6674 51.859 48.6674 50.6277 48.706 49.4349" fill="#F24B78"/>
<path d="M62.0547 48.7808C63.675 48.7808 65.2954 48.7808 66.9158 48.7808C66.9543 50.2044 66.9929 51.3587 66.9929 52.8978C66.9929 52.9363 66.9929 53.0133 66.9929 53.0517C66.9543 53.1287 66.8386 53.1672 66.7229 53.1287C65.1797 53.0902 63.5979 53.1287 62.0933 53.0902C62.0933 51.859 62.0933 50.6277 62.1319 49.4349" fill="#F24B78"/>
<path d="M55.1875 37.276C56.8079 37.276 58.4283 37.276 60.0486 37.276C59.9329 37.1606 59.8171 37.0451 59.7014 36.9297C59.74 37.6223 59.74 38.3149 59.74 38.969C59.74 39.3153 59.74 39.6616 59.74 40.0079C59.74 40.2003 59.74 40.3542 59.74 40.5466C59.74 40.6235 59.74 40.739 59.74 40.8159V41.0083C59.8943 40.9313 59.9329 40.8929 59.8557 40.8929C59.74 40.8544 59.4313 40.8929 59.277 40.8929C59.0841 40.8929 58.8912 40.8929 58.6983 40.8929C58.3125 40.8929 57.9267 40.8929 57.5409 40.8929C56.7693 40.8929 55.9591 40.8929 55.1875 40.8544C55.3033 40.9698 55.419 41.0852 55.5348 41.2007C55.5348 39.9694 55.5348 38.7381 55.5733 37.5453C55.5733 37.0836 54.8403 37.0836 54.8403 37.5453C54.8017 38.7766 54.7632 40.0079 54.8017 41.2007C54.8017 41.3931 54.9561 41.547 55.149 41.547C56.0363 41.5855 56.8851 41.5855 57.7724 41.5855C58.1968 41.5855 58.6597 41.5855 59.0841 41.5855C59.4313 41.5855 59.9329 41.7009 60.2029 41.5085C60.5502 41.2776 60.4344 40.7774 60.4344 40.4311C60.4344 40.0079 60.4344 39.6231 60.4344 39.1999C60.4344 38.4303 60.3958 37.6608 60.3573 36.8912C60.3573 36.6988 60.2029 36.5449 60.01 36.5449C58.3897 36.5449 56.7693 36.5449 55.149 36.5449C54.686 36.5449 54.686 37.276 55.1875 37.276Z" fill="#030140"/>
<path d="M47.8573 48.2037C49.4777 48.2037 51.098 48.2037 52.7184 48.2037C52.6026 48.0883 52.4869 47.9729 52.3711 47.8574C52.4097 48.55 52.4097 49.2426 52.4097 49.8967C52.4097 50.243 52.4097 50.5893 52.4097 50.9356C52.4097 51.128 52.4097 51.2819 52.4097 51.4743V51.7436C52.4097 51.8206 52.4097 51.8591 52.4097 51.936C52.5641 51.8591 52.6026 51.8206 52.5255 51.8206C52.4097 51.7821 52.1011 51.8206 51.9468 51.8206C51.7539 51.8206 51.561 51.8206 51.3681 51.8206C50.9823 51.8206 50.5965 51.8206 50.2107 51.8206C49.4391 51.8206 48.6289 51.8206 47.8573 51.7821C47.973 51.8975 48.0888 52.013 48.2045 52.1284C48.2045 50.8971 48.2045 49.6659 48.2431 48.4731C48.2431 48.0113 47.5101 48.0113 47.5101 48.4731C47.4715 49.7043 47.4329 50.9356 47.4715 52.1284C47.4715 52.3208 47.6258 52.4747 47.8187 52.4747C48.706 52.5132 49.5548 52.5132 50.4421 52.5132C50.8665 52.5132 51.3295 52.5132 51.7539 52.5132C52.1011 52.5132 52.6026 52.6286 52.8727 52.4362C53.2199 52.2054 53.1042 51.7052 53.1042 51.3589C53.1042 50.9356 53.1042 50.5508 53.1042 50.1276C53.1042 49.358 53.0656 48.5885 53.027 47.819C53.027 47.6266 52.8727 47.4727 52.6798 47.4727C51.0594 47.4727 49.4391 47.4727 47.8187 47.4727C47.3943 47.4727 47.3943 48.2037 47.8573 48.2037Z" fill="#030140"/>
<path d="M61.2445 48.2037C62.8649 48.2037 64.4852 48.2037 66.1056 48.2037C65.9898 48.0883 65.8741 47.9729 65.7584 47.8574C65.7969 48.55 65.7969 49.2426 65.7969 49.8967C65.7969 50.243 65.7969 50.5893 65.7969 50.9356C65.7969 51.128 65.7969 51.2819 65.7969 51.4743C65.7969 51.5512 65.7969 51.6667 65.7969 51.7436C65.7969 51.8206 65.7969 51.8591 65.7969 51.936C65.9513 51.8591 65.9898 51.8206 65.9127 51.8206C65.7969 51.7821 65.4883 51.8206 65.334 51.8206C65.1411 51.8206 64.9482 51.8206 64.7553 51.8206C64.3695 51.8206 63.9837 51.8206 63.5979 51.8206C62.8263 51.8206 62.0161 51.8206 61.2445 51.7821C61.3602 51.8975 61.476 52.013 61.5917 52.1284C61.5917 50.8971 61.5917 49.6659 61.6303 48.4731C61.6303 48.0113 60.8973 48.0113 60.8973 48.4731C60.8587 49.7043 60.8201 50.9356 60.8587 52.1284C60.8587 52.3208 61.013 52.4747 61.2059 52.4747C62.0933 52.5132 62.942 52.5132 63.8294 52.5132C64.2537 52.5132 64.7167 52.5132 65.1411 52.5132C65.4883 52.5132 65.9898 52.6286 66.2599 52.4362C66.6071 52.2054 66.4914 51.7052 66.4914 51.3589C66.4914 50.9356 66.4914 50.5508 66.4914 50.1276C66.4914 49.358 66.4528 48.5885 66.4142 47.819C66.4142 47.6266 66.2599 47.4727 66.067 47.4727C64.4466 47.4727 62.8263 47.4727 61.2059 47.4727C60.7815 47.4727 60.7815 48.2037 61.2445 48.2037Z" fill="#030140"/>
<path d="M54.6859 48.2037C56.3063 48.2037 57.9266 48.2037 59.547 48.2037C59.4312 48.0883 59.3155 47.9729 59.1998 47.8574C59.2383 48.55 59.2383 49.2426 59.2383 49.8967C59.2383 50.243 59.2383 50.5893 59.2383 50.9356C59.2383 51.128 59.2383 51.2819 59.2383 51.4743V51.7436C59.2383 51.8206 59.2383 51.8591 59.2383 51.936C59.3927 51.8591 59.4312 51.8206 59.3541 51.8206C59.2383 51.7821 58.9297 51.8206 58.7754 51.8206C58.5825 51.8206 58.3896 51.8206 58.1967 51.8206C57.8109 51.8206 57.4251 51.8206 57.0393 51.8206C56.2291 51.8206 55.4575 51.8206 54.6859 51.7821C54.8016 51.8975 54.9174 52.013 55.0331 52.1284C55.0331 50.8971 55.0331 49.6659 55.0717 48.4731C55.0717 48.0113 54.3387 48.0113 54.3387 48.4731C54.3001 49.7043 54.2615 50.9356 54.3001 52.1284C54.3001 52.3208 54.4544 52.4747 54.6473 52.4747C55.5347 52.5132 56.3834 52.5132 57.2708 52.5132C57.6951 52.5132 58.1581 52.5132 58.5825 52.5132C58.9297 52.5132 59.4312 52.6286 59.7013 52.4362C60.0485 52.2054 59.9328 51.7052 59.9328 51.3589C59.9328 50.9356 59.9328 50.5508 59.9328 50.1276C59.9328 49.358 59.8942 48.5885 59.8556 47.819C59.8556 47.6266 59.7013 47.4727 59.5084 47.4727C57.888 47.4727 56.2677 47.4727 54.6473 47.4727C54.2229 47.4727 54.2229 48.2037 54.6859 48.2037Z" fill="#030140"/>
<path d="M55.6889 42.4706C55.6504 42.9324 55.6889 43.3556 55.6889 43.8173C55.6889 43.9713 55.6889 44.0867 55.6889 44.2406C55.6889 44.2791 55.6889 44.4715 55.6889 44.433C55.6889 44.3945 55.6118 44.433 55.5732 44.433C55.226 44.433 54.8788 44.433 54.5315 44.433C53.1427 44.433 51.7924 44.433 50.4035 44.433C50.2106 44.433 50.0563 44.5869 50.0563 44.7793C50.0563 45.5103 50.0563 46.2029 50.0563 46.934C50.0563 47.3957 50.7893 47.3957 50.7893 46.934C50.7893 46.2029 50.7893 45.5103 50.7893 44.7793C50.6736 44.8947 50.5578 45.0101 50.4421 45.1256H55.226C55.5346 45.1256 55.9204 45.164 56.1905 44.9717C56.4991 44.7793 56.4605 44.3945 56.4605 44.0867C56.4605 43.548 56.422 42.9709 56.4605 42.4322C56.4605 42.0089 55.7275 42.0089 55.6889 42.4706Z" fill="#030140"/>
<path d="M58.1195 42.4705C58.1581 43.0092 58.1195 43.5479 58.1195 44.0866C58.1195 44.3944 58.0809 44.7792 58.351 45.01C58.6211 45.2409 59.0069 45.1639 59.3541 45.1639H64.138C64.0222 45.0485 63.9065 44.9331 63.7908 44.8177C63.7908 45.5487 63.7908 46.2413 63.7908 46.9724C63.7908 47.4341 64.5238 47.4341 64.5238 46.9724C64.5238 46.2413 64.5238 45.5487 64.5238 44.8177C64.5238 44.6253 64.3695 44.4714 64.1766 44.4714C62.7877 44.4714 61.4374 44.4714 60.0485 44.4714C59.7013 44.4714 59.3927 44.4714 59.0454 44.4714C59.0069 44.4714 58.8911 44.5098 58.8525 44.4714C58.8911 44.5098 58.8911 44.3559 58.8911 44.3174C58.8911 44.1635 58.8911 44.0481 58.8911 43.8942C58.8911 43.4325 58.9297 42.9707 58.8911 42.509C58.814 42.0088 58.0809 42.0088 58.1195 42.4705Z" fill="#030140"/>
<path d="M56.9622 42.586C56.9622 44.1636 56.9236 45.7412 56.9236 47.2803C56.9236 47.742 57.6566 47.742 57.6566 47.2803C57.6566 45.7027 57.6952 44.1251 57.6952 42.586C57.6952 42.1243 56.9622 42.1243 56.9622 42.586Z" fill="#030140"/>
<path d="M56.0748 64.2104C55.3032 64.7107 55.1489 65.7111 55.1103 66.6345C55.0717 67.2117 55.0717 67.8273 55.3418 68.3275C55.8433 69.2895 57.4251 69.4818 58.1195 68.6738C58.6597 68.0582 58.6982 67.1347 58.3896 66.3652C58.081 65.5956 57.5408 64.98 57.0007 64.3644" fill="#F24B78"/>
<path d="M52.7955 76.7153C52.2554 75.0223 53.4514 73.2909 54.7631 72.0981C55.5733 71.367 56.5763 70.7129 57.6566 70.7129C58.9297 70.7129 60.0871 71.5979 60.743 72.6752C61.3988 73.7526 61.6689 75.0608 61.939 76.2921C59.5856 76.5614 52.7955 76.7153 52.7955 76.7153Z" fill="#F24B78"/>
<path d="M54.7631 63.0944C53.9144 63.6331 53.6443 64.6335 53.5671 65.5954C53.49 66.5574 53.4514 67.7502 54.2616 68.4043C54.8788 68.943 55.8433 69.0969 56.6149 68.789C57.5409 68.4043 58.0038 67.4423 57.9652 66.4804C57.8881 65.2107 57.0779 64.2102 56.2291 63.2868C55.8048 62.8251 55.1489 63.5177 55.5733 63.9409C56.152 64.5565 56.7307 65.2107 56.9622 66.0572C57.0393 66.4035 57.0779 66.7497 56.9622 67.096C56.885 67.4039 56.6921 67.6732 56.4606 67.7886C56.0362 68.058 55.419 68.0195 54.9946 67.7502C54.8017 67.6347 54.6088 67.4039 54.5316 67.1345C54.4159 66.7113 54.4159 66.288 54.4545 65.8648C54.493 65.1722 54.5702 64.2872 55.1875 63.864C55.419 63.71 55.4961 63.4407 55.3418 63.2098C55.2646 63.0559 54.956 62.9405 54.7631 63.0944Z" fill="#030140"/>
<path d="M52.1396 75.869C51.7924 74.6378 52.4097 73.445 53.1813 72.5215C53.9529 71.6365 55.0331 70.6746 56.2291 70.4822C57.3865 70.3283 58.4667 71.0594 59.084 71.9443C59.8556 73.0217 60.1257 74.4069 60.3958 75.6766C60.5501 75.4843 60.7044 75.2919 60.8587 75.0995C58.5439 75.3303 56.2291 75.2534 53.9529 74.8686C53.3742 74.7532 53.1041 75.6766 53.6828 75.7921C56.0362 76.2153 58.4667 76.2923 60.8201 76.0614C61.1288 76.0229 61.3602 75.7921 61.2831 75.4843C60.9744 73.9452 60.5887 72.3291 59.5856 71.0978C58.6982 70.059 57.3865 69.3664 55.9976 69.5972C54.5702 69.8281 53.2584 70.9439 52.3711 72.0213C51.4452 73.1756 50.7893 74.5993 51.2137 76.0999C51.4066 76.6771 52.2939 76.4462 52.1396 75.869Z" fill="#030140"/>
<path d="M50.5964 62.8637C51.0594 63.1715 51.1751 63.8256 51.2523 64.3643C51.2908 64.7106 51.3294 65.0953 51.2523 65.4416C51.2137 65.7495 51.0979 66.0188 50.905 66.1727C50.8665 66.2112 50.7507 66.2881 50.635 66.3266C50.5578 66.3651 50.4035 66.4036 50.2878 66.442C50.0949 66.4805 49.8248 66.4421 49.6705 66.3651C49.169 66.1342 48.976 65.5186 49.0532 64.9799C49.1689 64.1334 49.7862 63.4793 50.3264 62.8637C50.6736 62.4789 50.0949 61.8633 49.7477 62.2865C49.0918 62.9791 48.4359 63.7486 48.2816 64.7106C48.1273 65.5571 48.3588 66.5575 49.169 67.0192C49.7862 67.3655 50.6736 67.3655 51.2523 66.9807C52.0624 66.4805 52.1782 65.5186 52.1396 64.6336C52.101 63.7102 51.9081 62.6713 51.0594 62.1326C50.8665 62.0172 50.5964 62.0941 50.4807 62.2865C50.3263 62.4789 50.4035 62.7482 50.5964 62.8637Z" fill="#030140"/>
<path d="M53.297 70.0203C52.1396 68.7121 50.2492 67.3654 48.436 68.0195C46.3141 68.7891 45.6582 71.0977 45.2338 73.0985C45.1567 73.3679 45.3496 73.5987 45.6196 73.6372C47.7415 73.8681 49.8634 73.7526 51.9467 73.4063C52.4868 73.3294 52.2554 72.5214 51.7152 72.5983C49.7091 72.9446 47.6644 73.0216 45.6196 72.8292C45.7354 73.0216 45.8897 73.1755 46.0054 73.3679C46.3526 71.7133 46.8156 69.5586 48.5903 68.866C50.1335 68.2889 51.7152 69.5971 52.6412 70.6745C53.0655 70.9823 53.6442 70.4051 53.297 70.0203Z" fill="#030140"/>
<path d="M61.9775 62.1326C61.2445 62.6328 61.013 63.4793 60.9359 64.3258C60.8587 65.1723 60.8587 66.2112 61.5531 66.8268C62.1318 67.2885 62.942 67.4425 63.6365 67.1731C64.4466 66.8268 64.871 65.9803 64.8324 65.1338C64.7939 64.018 64.0223 63.133 63.3278 62.325C62.9806 61.9402 62.3633 62.5174 62.7491 62.9021C63.2507 63.4408 63.7908 64.018 63.9837 64.7875C64.0608 65.0953 64.0608 65.4032 63.9837 65.711C63.9065 65.9803 63.7522 66.2112 63.5593 66.3266C63.1735 66.5575 62.672 66.5575 62.2476 66.2881C62.0547 66.1727 61.9389 65.9803 61.8618 65.7495C61.746 65.4032 61.7846 65.0184 61.7846 64.6336C61.8232 64.018 61.9004 63.2484 62.4405 62.8637C62.6334 62.7482 62.7105 62.4789 62.5948 62.2865C62.4405 62.0941 62.1704 62.0172 61.9775 62.1326Z" fill="#030140"/>
<path d="M60.3186 70.5975C61.2831 69.5202 62.8263 68.2504 64.3695 68.7891C66.1828 69.4432 66.6457 71.598 66.9544 73.291C67.0701 73.0986 67.2244 72.9447 67.3402 72.7523C65.2954 72.9447 63.2507 72.9062 61.2445 72.5214C60.7044 72.4445 60.5115 73.214 61.013 73.3294C63.0964 73.7142 65.2183 73.7912 67.3402 73.5603C67.6102 73.5218 67.8031 73.3294 67.726 73.0216C67.3016 71.0208 66.6843 68.7122 64.5238 67.9426C62.672 67.2885 60.8201 68.6352 59.6627 69.9434C59.3541 70.4052 59.9328 70.9823 60.3186 70.5975Z" fill="#030140"/>
<path d="M36.9005 68.7506H44.8094C45.3881 68.7506 45.3881 67.8271 44.8094 67.8271H36.9005C36.3218 67.8656 36.3218 68.7506 36.9005 68.7506Z" fill="#030140"/>
<path d="M56.4606 52.3594V60.2472C56.4606 60.8244 57.3865 60.8244 57.3865 60.2472V52.3594C57.3865 51.7822 56.4606 51.7822 56.4606 52.3594Z" fill="#030140"/>
<path d="M22.7417 36.2374C29.0303 36.1604 35.3574 36.0065 41.6459 35.7372C42.3789 35.6987 42.3789 34.5829 41.6459 34.6213C35.3574 34.8907 29.0688 35.0831 22.7417 35.1215C22.0087 35.1215 22.0087 36.2758 22.7417 36.2374Z" fill="#030140"/>
<path d="M55.5732 82.1022C56.3834 80.0629 58.1581 77.9466 60.3186 78.2545C61.8232 78.4853 62.9034 79.8705 63.3278 81.2942C63.7522 82.7178 63.7136 84.2569 63.8293 85.7575C63.9837 87.8738 64.7552 90.2979 66.8 90.9135C68.3432 91.3752 70.0021 90.5672 71.2367 89.5283C75.4033 85.9884 76.6765 79.5242 74.2459 74.5991C71.8154 69.7125 66.0284 66.7497 60.5886 67.5578C55.1874 68.3658 50.5192 72.7907 49.2847 78.1005C48.4359 81.8328 49.2461 86.2962 51.5995 89.4129C55.0717 94.0302 54.6087 84.5263 55.5732 82.1022Z" fill="#F24B78"/>
<path d="M51.4453 89.5668C49.2848 86.9503 48.5518 83.295 49.1691 79.9859C49.7863 76.5614 51.8311 73.5602 54.9561 71.9442C58.0425 70.3666 61.7847 70.2512 64.9869 71.4439C68.2276 72.6367 70.6195 75.3686 71.584 78.6777C72.6643 82.333 72.0856 86.5271 69.655 89.5283C69.385 89.8746 69.3078 90.3363 69.655 90.6826C69.9251 90.952 70.5424 91.0289 70.8124 90.6826C75.8278 84.4878 74.1689 74.2143 66.8773 70.5205C63.3665 68.7505 59.0455 68.5197 55.3804 69.9818C51.6768 71.4439 48.9762 74.4837 47.8574 78.2929C46.6228 82.5254 47.433 87.2966 50.2493 90.7211C50.5194 91.0674 51.0981 90.9904 51.4067 90.7211C51.7925 90.4133 51.7153 89.9131 51.4453 89.5668Z" fill="#030140"/>
<path d="M57.618 134.739C58.3896 128.967 57.5795 122.542 52.9884 118.463C51.7925 117.386 50.4422 116.578 49.0147 115.847C47.8573 115.269 46.5456 114.846 45.5425 114.077C44.8866 113.576 44.2694 112.73 44.6166 111.883C44.8866 111.152 45.6968 110.729 46.4298 110.575C47.6258 110.344 48.8604 110.883 49.902 111.345C51.0209 111.845 52.1011 112.384 53.1813 112.961C55.2647 114.077 57.2708 115.346 58.7754 117.193C59.0455 117.54 59.6242 117.501 59.9328 117.193C60.28 116.847 60.2029 116.385 59.9328 116.039C58.5054 114.308 56.6535 112.999 54.686 111.922C53.7215 111.383 52.7184 110.883 51.6767 110.421C50.5965 109.921 49.5162 109.344 48.3588 109.075C46.3141 108.613 43.8836 109.19 43.0734 111.306C42.6876 112.307 42.9191 113.423 43.5363 114.269C44.2308 115.231 45.1953 115.808 46.2755 116.308C47.7801 117.001 49.3233 117.694 50.7122 118.655C50.7894 118.732 50.9051 118.771 50.9823 118.848C51.0209 118.886 51.2909 119.079 51.1366 118.963C51.3295 119.117 51.5224 119.271 51.7153 119.463C52.1011 119.81 52.4869 120.156 52.8341 120.579C53.5671 121.387 54.1844 122.311 54.7245 123.388C56.4221 126.813 56.4992 130.93 55.9977 134.7C55.9591 135.124 56.422 135.508 56.8078 135.508C57.3094 135.547 57.5795 135.201 57.618 134.739Z" fill="#030140"/>
<path d="M57.5794 110.691C57.8495 102.264 58.1195 93.7995 58.351 85.373C58.3896 83.7569 58.2353 81.6407 59.4698 80.3709C59.9328 79.9092 60.5501 79.5629 61.2059 79.7168C61.9004 79.8707 62.4405 80.4094 62.7877 81.025C63.2121 81.7946 63.2892 82.6795 63.3278 83.526C63.3664 84.5649 63.3278 85.6038 63.3278 86.6812L63.2892 93.0299C63.2507 97.7626 63.2121 102.495 63.1735 107.228C63.1735 108.267 64.7939 108.267 64.7939 107.228C64.8324 102.688 64.871 98.1474 64.9096 93.6071C64.9096 91.3754 64.9482 89.1437 64.9482 86.8736C64.9482 84.8343 65.2182 82.5256 64.3695 80.6018C63.6365 78.9857 61.9389 77.716 60.0871 78.1777C58.2353 78.601 57.1936 80.4479 56.9236 82.2178C56.7692 83.2567 56.7692 84.2956 56.7307 85.3345C56.6921 86.4503 56.6535 87.5662 56.6149 88.682C56.5377 90.9522 56.4606 93.2223 56.422 95.4925C56.2677 100.571 56.1134 105.65 55.9591 110.729C55.9205 111.73 57.5408 111.73 57.5794 110.691Z" fill="#030140"/>
<path d="M64.8324 92.9527C67.4173 93.4529 68.9605 95.6846 69.6164 98.1086C70.0022 99.6093 70.0022 101.11 70.0022 102.649C70.0022 104.611 69.9636 106.612 70.3494 108.536C70.5808 109.575 72.124 109.113 71.9311 108.113C71.2753 105.073 71.8926 101.918 71.4296 98.8397C71.121 96.762 70.195 94.6457 68.6519 93.1836C67.7259 92.2601 66.53 91.6445 65.2182 91.3751C64.2538 91.1827 63.7908 92.7603 64.8324 92.9527Z" fill="#030140"/>
<path d="M72.587 96.3774C74.6704 96.9546 76.0978 98.8015 76.7537 100.764C77.641 103.457 77.2166 106.343 76.8308 109.075C76.7537 109.498 76.9466 109.96 77.4095 110.075C77.7954 110.191 78.3355 109.96 78.4126 109.498C78.837 106.42 79.3386 103.072 78.2583 100.071C77.371 97.6472 75.5963 95.4924 73.05 94.7999C72.0083 94.5305 71.5454 96.1081 72.587 96.3774Z" fill="#030140"/>
<path d="M77.2938 101.187C79.2228 101.341 81.5376 101.572 82.9651 102.995C83.8138 103.842 84.0839 104.958 84.1996 106.112C84.3154 107.266 84.354 108.421 84.1996 109.575C83.8524 111.999 82.695 114.192 81.3061 116.155C79.8015 118.271 78.4898 120.503 77.5253 122.888C76.445 125.582 75.9821 128.467 76.5222 131.315C76.7151 132.354 78.2969 131.892 78.104 130.891C77.6025 128.313 78.1426 125.659 79.1071 123.273C80.1487 120.695 81.7305 118.502 83.2351 116.232C84.624 114.115 85.6271 111.73 85.8586 109.19C85.9743 107.959 85.9357 106.689 85.7428 105.458C85.5499 104.188 85.1256 102.995 84.2768 102.033C82.5407 100.148 79.7244 99.8403 77.3324 99.6094C76.2521 99.494 76.2521 101.11 77.2938 101.187Z" fill="#030140"/>
</svg>
